<mxfile host="app.diagrams.net" modified="2021-09-03T01:17:32.812Z" agent="5.0 (Windows NT 10.0; Win64; x64) AppleWebKit/537.36 (KHTML, like Gecko) Chrome/92.0.4515.159 Safari/537.36" etag="D4HShtNg1fKE4-B2QgBU" version="15.0.3" type="github">
  <diagram id="-7X6XBKdek6nvaE6Z53m" name="Page-1">
    <mxGraphModel dx="2059" dy="626" grid="1" gridSize="10" guides="1" tooltips="1" connect="1" arrows="1" fold="1" page="1" pageScale="1" pageWidth="850" pageHeight="1100" math="0" shadow="0">
      <root>
        <mxCell id="0" />
        <mxCell id="1" parent="0" />
        <mxCell id="jz0I9JAo9WywyXiV1jE5-2" value="" style="shape=image;verticalLabelPosition=bottom;labelBackgroundColor=#ffffff;verticalAlign=top;aspect=fixed;imageAspect=0;image=data:image/png,iVBORw0KGgoAAAANSUhEUgAABI0AAAJKCAYAAACh9bUCAAAgAElEQVR4Aey993tUR9I27E3e4LW9zjnvrnPGGWevE87rgDMYcACbnEFIIgulGc0oi4xNzsYGhQnSZAWUhb37/Avvd33vD8+3a8L9XXePehgNM2KSRiNUcPV1Ruf0Od2nTlVX1d3V1WedOHECLMePH1dF/y1HP12EDkIH4YG+PAD5JxQQCggFhAJCAaGAUEAoIBQQCggFhALDggJnaYdYQKO+jrGmixyFLsIDfXlgWIyM8pJCAaGAUEAoIBQQCggFhAJCAaGAUEAoAAGNeiOtBBjoCwwIPYQekXhAxk2hgFBAKCAUEAoIBYQCQgGhgFBAKCAUGB4UCIBG2kEcHq8tbykUEAoIBYQCQgGhgFBAKCAUEAoIBYQCQgGhgFBAKNAfBQQ06o86ck0oIBQQCggFhAJCAaGAUEAoIBQQCggFhAJCAaHAMKVAADQapu8vry0UEAoIBYQCQgGhgFBAKCAUEAoIBYQCQgGhgFBAKBCGAgIahSGKnBIKCAWEAkIBoYBQQCggFBAKCAWEAkIBoYBQQCgw3CkgoNFw5wB5f6GAUEAoIBQQCggFhAJCAaGAUEAoIBQQCggFhAJhKCCgURiiyCmhgFBAKCAUEAoIBYQCQgGhgFBAKCAUEAoIBYQCw50CAhoNdw6Q9xcKCAWEAkIBoYBQQCggFBAKCAWEAkIBoYBQQCgQhgJnhTknp4QCQgGhgFBAKCAUEAoIBYQCQgGhgFBAKCAUEAoIBYY5BQQ0GuYMIK8vFBAKCAWEAkIBoYBQQCggFBAKCAWEAkIBoYBQIBwFBDQKRxU5JxQQCggFhAJCAaGAUEAoIBQQCggFhAJCAaGAUGCYU0BAo2HOAPL6QgGhgFBAKCAUEAoIBYQCQgGhgFBAKCAUEAoIBcJRQECjcFSRc0IBoYBQQCggFBAKCAWEAkIBoYBQQCggFBAKCAWGOQUENBrmDCCvLxQQCggFhAJCAaGAUEAoIBQQCggFhAJCAaGAUCAcBQQ0CkcVOScUEAoIBYQCQgGhgFBAKCAUEAoIBYQCQgGhgFBgmFNAQKNhzgDy+kIBoYBQQCggFBAKCAWEAkIBoYBQQCggFBAKCAXCUUBAo3BUkXNnFAVOQP4nkwJnFHPIywgFhAJCAaGAUEAoIBQQCggFhAJpT4FY/Jm0f5kh1kEBjYbYB5PuRkeBwKBy4jiOnziWcDl24hiCy4kTxzFsS4pAuOPq2/H7RVcC3zzO/kXbjq6X6vbYbiJt6n7HcpT2IlMgFjrqupGfFt0V/Zxoj9E9NXKtaNvR9SI/KT2v6H5He0z0LaJtR9dLdXtsN5E2db9jOUp7kSkQCx113chPi+6Kfk60x+ieGrlWtO3oepGflJ5XdL+jPSb6FtG2o+uluj22m0ibut+xHKW9yBSIhY66buSnRXdFPyfa4ylPDeN/0c87duJon0IfTf4llwICGiWXnvK0M5gCJ4CElN0pA9+QfBrgV/mkxcAVtnH8RIxF0TO+PsXV3gl+0aHRHvsZMz0TeD9pLzzvxssv8dIzEVmNh18SaS8R2sRzb1wyL2NMv2NePDwTz7fT90h7p44zmjbxHOOhZyIyn+r24qFJIvfIGHMqf/KbJ0TTWO1Caa9fescjg6n+fn3HGPJU34nkkxP6BI1OTvCznt/v8tvpZ7B7mrJXE9AoZaSWhpJNgQAIc+K4QpePHv8F/z36Hxz75RecOHoc6C3Hjx5HrOXY0eMILkePHYcUPw2OHzuOVJRjx44j1pJIv2Jti/Wlvcg0EHqeyr/CL5H5JRHaxHuv8KjwaCy8I/wytPkllm+drLrCM0ObZ+T7De3vRzk+dvw4jh8/jhPHCXfJv0QoIKBRItSTewedAgSOiCYfPX4U//f//r/4n//5N37u6cbP3d34V3c3/t3dg393H8G/WHp+iqn83PMTWH7qPoKfeJSiaHCk+wgGvvSgpyvG0t2TQL9ibIt9S6i9I7G/X1ci7yftheOnRPg43PNOdy717cXPM+Tv071P6PUjCcpEIvSJ/d7Y3y8xmU91eyLzofzJv2Pnk5P6LtzzTnfuzG8vfprKGBNmTEhoDA3zvNPZUQm1J2NMOPk/82X+5JgY67uGo9fpzvW1K2h7d5+mcEzqwZGeI4Hy05Ej+D//z//B0WNHe+OFB919HZIdENBoSH426TQpEBwieez4CfT09KC8tBTlxUWoKDGizFyAMnMhKsxGVBQXobzYFFMpKzaBpdRc1KeUmIwYbkXToNhshNlsCBT+PRBFtWEywBxDMZkNcfdlKLRHWsRL63jeL5H2FJ/E8O30d473/YZKe/wO8b6jplFMxwTaozzF1Ba/dwLtxUuXeO+LRyZkjIk83sdDT/JXvN+P98XMn8OgvURkMB56JtKejDGnjrEyxsgYE6scpnoMTUTmY303VT/IrmDbJnNh2FJkLkCROR88ms2FvfZIEcwmI1auWAaPx43//vc/agmbf5Gk+NKxUkBAo1gpJvXThgLBoNGJE4DP58Hy5VnYur0Ku/dXYdfeEuzaZ8buvSbs2WvG3hgK6++Womiwa68ZwWX3vmLsGuCyc68Z8ZR4+xVPW7wn3vZ4XzxtSnuReU/oGUZmEpDTeOiZqEwkwt+x3pvq90t1ezLGhJEHGbP71Vlx8aiMMRFpGhc9E+DRVLcnY4yMMSnRu0FjzM59ZuzYZzqlbN9rxLY9hdiyJx9b9xZg214Dtu82YseeYuzaU4oly2bgx4P78d9f/otjx7k5ks53JEvWYnHqBTSKhVpSN60ooEEj1akTgNvjwMrcTFTbvoPNtxH2xtWobypHg68Ezv6KtxjOaEvwc6K9Z4jWc3iL0eALKXyXpjI4G8OUpjI4GpNXGnyliLUk0n6sbbG+tBf5ews9T+Vf4ZfI/JIIbeK9V3hUeDQW3hF+Gdr8Esu3TlZd4ZmhzTPy/dLv+zU0liC02H0mWH1G1HryUestgNVrUL6Kw1sOl3c1VuRMxN5923H06FHlMirQqBc4SivHNs07I6BRmn8g6V5kCmjQiEfmN3O7HcjJzcQh23pYPJWw+TiwFJ+mmNHQGLnU+0wIFG8R6oOLxwj7GV5sHiOCC9+3wWsa8FLvKUI8Je6+pbg9xUdxtBn3+3lNqaWntBeW3qn+fuSzeNuMS/488bcXbz/jvS+e9+M98bbXEIe8J9KejDHhdUjc30/GtLBjmowxke0hGWNEBmMdb+LhmVjbCK4/FNoLHWOUbgv2xbxFsHuNsHkNsHgKVLF7DLA3FsHmNsDuLkb2snHYs3drADSiZ3lCQKPIDnaEKwIaRSCMnE5/CgSDRsd6QaPcVVk4ZFsLi7sUFo9BDSJ6wAmAPwEg6ORAw8EmUuHgY/MUnlKsPOf2F4u7AFbXmV9srgLY3YUpKWwr1pJI32JtK1FaSHunfl/5fpFl60znl0S+fbz3nuk0lfeTMSYW2TjT+SUWWiSr7plOU3k/GWNikZWB5Bf6ZHXufFg9fj/FwqgjRw4sTiOyl3+GPXu34NixYwHnVkCjACmi/iGgUdSkkorpRoFg0OjosWNwuxzIXZWNGvt6P2ikEOZC1HuMEUs4MEjOnQqQaZrEohwSrTuQyiVc36Q9MX7C8UWkc8IvyeWXSHQeyPPyDZP7DYWeQs9Y5DXV/BJL35JVN9XvKO2JDMbCu2cSvxA04vI0TuKTBlZ3PizOXFhdRViycjz27Nui8hmpXZQk0igul15Ao7jIJjelAwWCQaNfekGjvNzFqO0FjawCGp0SHaXBn3iPsSijROueScosHC3k/cS4C8cXkc6d6fwS6b0H8vyZTlN5PxljYpGfM51fYqFFsuqe6TSV95MxJhZZGUh+IWhUEwoaufJgc5lOBY1OyPK0ePx4AY3ioZrckxYUENAockRQvKBQ2tzHWYJYl/u5C+IHyYZAe0rZhlkmGdU3i+f9uDwwzvZoRMT8/RJoj/2Mpz32M953jKc9tZw1Tpry+8faZiLtWeNYcptIe/F+h7jvi4dHZYyJLC/x0DMBmZcxJvx4kJAMyhgTmb/jGbfjkQkZYyJ/g3joKWNMZHrGaTel6xgTDBopm5CRRu582NxmZK8Y1zfSSECjuPx4AY3iIpvclA4USAQ0Yp4iDjBc++o/8nfffCLROiN6+Vuk3EfRPie4XnCfwv0Orsvfuo5N5V86+W6h9YbM3/EYB2e4scWQ27i/Xzz0TMDYolERK8DB+nG/3yAYP3G9XwIgVTx50xIx7gQ0CuOUp1oGU9yejDH9g8iplvlUtydjTP/fP2b9FI8eTLHMc5yP+b00gBbH+8kY0z+PpVrmU93eQI4x9IMYaVTXy9NcnqbyG3lLkLXsM+zetxnHjh2FWp4moFFcbryARnGRTW5KBwrECxpxBzA/yFKgkqapQawXeAkbZsks/ARjmACav73GPkXvRKDO99ZV9aL4Haqs9X1Myq36yGNI4TVdTx8JFrGeTe0gUASb1w+IBT9f1030GPzMAfsdhzGSauMn1e2JsSXGVqwGnoBG/fCMjDGnALsyxvTDLwJMn8IvHI9kjOmHZ2SMOYVnZIzph19kjDmFX2IZY8KBRvSF6r2lAdDo6LFfBDRKwIEX0CgB4smtg0uBaEAjGxOihYA3wYBRrTuvD3AUAI08BtS7DSqBtgaFuDWlw1uMmvoC1LlMsPlKYPcVo95nRoPPDIfXjHqvSQFKVo9/68c6ot4eot3+aCCCLLp9hk3WunNR416lSp0nT4E9bI/oeK17lbrX4i04CRxxhqd3p7fg91I7wzWWoN5XDJvPpLacrHPnotaVo55j8eSBOwnwuby/3uffOU4/Y8DAHz0jFeuxd1c6ZZDG8jvWdnT9WNoIrqvvj/UY/IxYfsfajq4fSxvBdfX9MR7J4zF/O7YbYzt96gf3O8rfqp/xthllG6fQQdpL7DvHS7/Q++T7hZfRUDpF+3eK6SljTD9jbLTfLLReir/hKWNjtO2H9jtd/472fULrxfs+oc+J9m9pL6xOkjFmaI0x/F59Io16/Z0GXxkyl43Frn3f4Zdj/1Wg0YkTJ8Dd0+RfbBQQ0Cg2ekntNKJA1KBR7xbx2sHkwMLZDm7NeBI06gVUerPuE0xp8BT5i9cEAjmOphIcrMtDvmkC1myahzpXCeyNJbB7zbCrOn7QiICRHzTyZ/L3txG8DM7fNkGdGlcODrlWqEKQiICOw1esAJ5q14pewCcIdPL6QSMN9ugjQSBbYzFsjWZYfUXqfgJG1c7lqHGthB80InBEYKoXNOrdVU7TRY4JghbxGl5yX1iDTfhR+FF4QHhAeEB4QHhAeEB4QHjgdDxAvy4UNLL7jDgJGn2LX47+R0CjBPx4AY0SIJ7cOrgUSAQ0InCkZhEUwFOgtma0uvKgijtfbdfo8JgUaMScRQSYLB4Dlqz8GA+PvAyGoumwu6tQ5zOiVgFQBbC4/WBULZ/jNqDBWwyruxC1rlzUufzbQHJQY4SRxZWntoLkdpAW5yr1m1FRbMvJCCZ1X46KFKpzrVL944AZWBrH6CnOIvUCDowgUlFN3gLUeQsUOKQijdyrVHQRI5H4vrWeXHX0L6Uzqvb0M+R4kp5CC6GF8IDwgPCA8IDwgPCA8IDwgPBAevIAfR9d6KdVu/NQG1jdUYBg0Gjn3k3479H/T0CjBFx3AY0SIJ7cOrgUiBc00oO/itJhfqLefEVcO2txEMzJh9XF/EVFcHjMaPCY1TrbGkcBJk15EddedxZM5jnwNG5UEUYqnxB3GiIo48pDtYNAkAEN7lLY3SZYXIUKRLJ5i2AneMNlb26jWv5mcxbA7jTA3lAIh9sMl7dUFV63ufJR58gBQSOLO0/1k8vjCEbVu4pgcxlg8xhV5JACjThYEqDikrveZXG1bi6PYw6mMli9ZtQyyopRSd4idS/BIz94lp4KQX8rOcr3ER4QHhAeEB4QHhAeEB4QHhAeEB4gDyjAiAmv6eu483GIKzhCQCOHr1wtT9uxd2O/oNEJlSF7cP3adG9dQKN0/0LSv4gUSBg0YqSOqwB1Dfn4/uAybN4+D1UbpqBi/WRs2Dobew8tR72jGI3eKtjqjdi5JxuffvY4rrz8LGRkjMWB/YWw2YxweksUCFTTkIvNe+dh9ZZpqFw/FWvXz8KW7RnYf3AlrC4TGhpL4WwqR4O3BC5vGexOE/btX4xt2xZg9eqp2LVrKWrrjKi2FGDX3kxUV6+A3ZGvopCqFXhUiIPWAmzfswSVG2ahcuMMbN6bgQM25i3yg1aMYCJoVOvNxx7rMmzauwCVm2dh9eYF2Lg9E9u+X4ZDTi5lK4HVZ1LAkYBGonzFABMeEB4QHhAeEB4QHhAeEB4QHhgqPBAVaNRYoRJh9wcaETAS0Ciiux24IKBRgBTyY6hRIF7QiCCJHygxoMaeh3WbZmPGjFfx/gcP4a237sErr92Ct969F3MXfIide/LR1LwZB6uLMHnqKNx576U47y9n4cmn78a0qe9h9/YcOD1r8KPFgKX54/D+Z4/hlX/ehZdfvQ2jXroVb785AnNmvIftO3NgdZajoakCDb5yWOqLUV45HRMnPY8337oXo165E++MfhSz53+IJcu+wOfjn0d5yUy4vFUKcPrRlotvd2RgYeYHGD36Ybz5+gi8+eb9ePudEViQ9T627V4Ki9OMOpcRNe5C7Di0BHOXv4P3xjyKV96+Hy+/NQJvvvMIJnz1KooqZ6PaU6ESeVt7d5IbKgpC+inGjPCA8IDwgPCA8IDwgPCA8IDwwPDmgVhBo/8c/d+wy9OYFFtAo9OjAAIanZ5GUiNNKZAoaETA5Lud8/HJmEfx/LO34csJbyBj/gTMnDEao0c/hSefvBdTp3+Emro1qLGswbyFY/DQk3finAvPxkuvPYeFGd/g4IHVsDk3IHPlONz98DV4/tWHMHHy+5g561NM/eZdvPXSY7j/jusw6au3UGutgr2pAvbGSlSum4OXXr0Dj428EeMmvI6Zc8dh7Bdv4tU3nsCjj96J22++EsszJ6OxeRtsrgps3p2Nj8c8hscfvwkfvfssMmZ+jszZX2Lshy9j5GM34cuvXsa2XStUcu4fGgowb+Vo3PzAuXj9nccxZeYYTF8wHhO+eA/PPv0Annr5HlRtXaL6wmVqEmk0vJWuGF3y/YUHhAeEB4QHhAeEB4QHhAeGEg9ECxpx97QdezdAQKPEHHoBjRKjn9w9iBRIFDSqcxUix/gpbr/3HHw89nns2leEGnsVvq8twtpvs/HRR8/i/Q+fwJadObB71mHvoSJ8M/09XHP9OViVOxe1tg1wNm7Erh+MeO7VO3DLvRchr2Q2frBWoqahCj/UmVBeOR8PP3wN7rjtImzbkQ9rYyX2HsrHmM+exH0jLsWirPHY96MJNfZy7P/RgMXLxmPE/VfikovPQuaiL+H0fYu6+nLMnv8ObrnjHIz//GVs2b4KNdYK1FgrsWu/AZ+Mexp33XchspdMQI2jDPssuXjt/Xtw7a2/g7Fqvr8/jgrsry7FnIWf4tGnbkTG8rFwNFUFcjINJSUhfRWjRnhAeEB4QHhAeEB4QHhAeEB4YPjygIBGqXXCBTRKLb2ltSRSIF7QSCsYJqteXvAxbrr9bLw+eiTWb1+Jg/VlOFBfhDp3JbZsXYFvtyxBbX05bN5K1DhLMW3WP3H1Nb+C2TwfvpYtaGiuxPe1ZmSumIAl+RNxyFGF+uZ1sHjLUeMwYef3q/Dcizfj8st+hcrV2ajzVKB49Sw8+OCVePOth7D/h1I0NFbB4jLC1VyOAwfzMG7cU7jymrMwP3McGnyb8ENtMV54+TbcM+JSlK3OQp1zNaqdxTjkLMZBVxlMVbNw1/0X493RT2PX9wX4vi4fo968C5dfcxZWGCdjb00Rah1mNDSuxZ4fDFi3MRvVlnK4mlarpNpM5K1pIsfhq3zl28u3Fx4QHhAeEB4QHhAeEB4QHhgKPCCgURKd6igeJaBRFESSKulJgURBI5u7CBu+m4tnXr4Zl934Jzw16l7MXDQWhRUz8d2u5bDUV8HhXg2PrwrMvl/nLMHEaa/giuvOQr5xJtzN38LVWgWbtxyHGkpwwFKEfTWF2LZ/JTZvXwqzeRoyMj7FgyOuxiWXnoWyqkxUO8uxOOdz3H7HJZg29V24PN/B7itHNXdY8xXD4ipFRtb7uO5vv8GsjE/gbNyMbbtzcfd9F+Kuey9G5rKvYCqfC0PJVOSXTEFuyVTMXvwJ/nr7+Xj62XuwZccqWJxlmDn3XVx1+e9wz71XY+xnLyMn/xvs2JkHe/1auF0b0NqxHd7GKji9xf7d4zyiIIeCgpQ+Cp8KDwgPCA8IDwgPCA8IDwgPDHceENAotf65gEappbe0lkQKJAoaNTQWw+owI9f8DZ5/437ccPO5uPzqs3HV33+LR565DhOnvIEN32XD6V4Nh7cSNnc5vp75Bq64/lcwmOfB1fQtnM0VsDVWYtuPq5CVMw4fjnsKL71xF5594WaMfPwGlW/oyit+i8su+w0q1ixBjXs1Fi2fgLvuugrz5n0Kh3sTrL5yHGjgjmdm1DiLsSD7PVz9t7MwY+GHcDdvxbqNWbjm+rNw2WW/xu33XYq7H7gUd4+4EHeMuAC3PXAB7nrkMlx785/wj5fvx4bNS9HgWY0fDpkx/vMX8NDD1+H6G/6Ea2/4Ix58+FqM+fQ5GAqmoa6uHF7fGhVpZOUuciwCHAkNhAeEB4QHhAeEB4QHhAeEB4QHhAfSnAcENEqiUx3FowQ0ioJIUiU9KZAoaGR1G1DrNKCmwYzd+3NRUjYTU6a9oXYbu+fha3DLnVfhtTcfxbdbVqLBtx5WdxWmznoX11z/exSXZMHbtA0NjZXY/mM+PvjiH/j7nZfjuVEP45Mv3sTCpZNQvmYpNnxbgJdGPYjLL/89qtavhLN1M5YXTsad91yDKVNHw+7chIaWtTjkLkKdrwSHHGbMyXwHV990FqYv+ECBRms3ZuKmv5+Nh0Zei/lZ45FTOAWrCr7GioJJWFowCcuMk7GiaBqMVQuxv9oMh2+NWk63v64Qa7csQtbKCZjw5et48eUHcO+91+Hee65FVtYXsDSUod5b4geMBDQS4yDNjQMBNQXYFR4QHhAeEB4QHhAeEB4QHiAPCGiUWv9cQKPU0ltaSyIF4gWNuFsYi8VtwM4flmDdd/NQbSmBt3ED6uwl2H4gB0VVc/D2h0/jb38/HwsXjIPVtRbVLkYavYmrrv0NzOYMeJt3wO6pQlbOBFx549l44ZWHsGFbEQ441sHatBXezn2ort+E1/75GC6+5Lcoq1oKa9NGmCrn4cGHb8Inn76EausG2Fs2oLaxDHXNFdhvMeLLyS+pJXBzMj6Fs/FbbN6xDPc9cDGeePombN5hgMP3HayuKtg962H3bsIBSwXWbl6O7fuLYXOvR019CTZsz8Tq7xbA6lkDd8tm2BrWY+d+IxZmf4Zbb78Yj468ETv3rUhL0MjuMaglc6FHMRLESCAPaL4QfhB+EB4QHhAeEB4QHhAeEB4YnjwgoFESneooHiWgURREkirpSYFEQSNGGeWZxuOtd+9GTu6XqLYYUecuUvmFvrcWYG7m+7j1tvMwd8YY1DnW4EdHMSbOfBVXXH0WVuZOg8u7FTb3GsyYPRoXX3IWJk99H1bPZhxsKsNB5kDyrUPx2gVqSdn5F56F8tXLYWvZhK37C/DmO4/iscdvgak0G7WeDTjkq8C++iKY1szC08/fgosvYyLs8aj3rMOBagP++c4I3HrHeVi26htU28pQ6zTB7q6C1bUGBebJeO2t+5CR/Tmq7VXYcSAHH342Eq+/fS927i+Ap2kTnN4q2DxlqPxuDh4aeY3Kj7RtzxLYPWZYXQWDvjxNDfyeAhXtQ1Cg3mMMFLvHCBYm7NaAnxz9wOeZTIdwRqDmDR7DXZdzw9NwlO8u3114QHhAeEB4QHhgePGAgEap9c8FNEotvaW1JFNAA0f/PXYMLrcDebmLUWtfD4u7FFx+ZnMXwO4uVEUrE+1o1zkNMJR+iWeevQFvjBqBgrxvsHX7UuzYswzm0ql4+50H8MhDV8NcNA82NyONSjAvezSuuuZX+OijZ1FasQB7DhQgr3AKbrzpT3j+hXux4btc7KspxeZ9ucgxf43RHz+FW265GJdc/BsUl2XC2fodrN51WJk3EY88dhNGvfIIluVMQXFVBpblTcJ7Hz2Nm2++FBdd9GsszPwCdvcaWJ1lWL5qAh548Ao8/9zdyFkxCdu3r8S2HStgKp6K51/6O+4dcTGWrfoaVvc6lZD7kwlP4vobf4tp097B+vXZ2LM3F5s2Z2LarNdw+x1/wYcfPYVaezEcjaWwe42weQfXCbe686GKp0BFkjR4TWCp7y12bxFsHiOsCjgieBRtOfPBFc3PZ9LR4i7whx33AoladnmUSKPBMwppoAV/C/k9eN9CaC+0Fx4QHhAeEB4YzjwgoFGSnerTPE5Ao9MQSC6nPwUIHBE0crudCjSqsa2D1VN2WtDI5jHh+5pVWLJkLEY9dw8efeBqvPLibXjtldsw8tEr8Pij12Le3A9gsa6Bq2k9HC1rsHrjHDwy8nLceOPv8eST16PQ9DX27Dfg8y9ewq23XoCnn70d741+Am+8PQJPvXAjJk56E9OnfIibbjwPC7PGwe5bC0fzelRbS5C99HO8/PIIPPjQDXj4kRvxxDO3YMy41/Duuy/hxhsvRFb2JNR71qDBV4nvDxmQmTUGzz1zOx594Bq8+sKdGPXKrbj7nnPwwEOXYM780ThoqUBD03pYfRXYuG0x3hn9EEY+cj2eeuJGvDLqVjz7zPV48MFL8PbbD2PTdyvgbl4HR1MvaDTI+Wws7jywEDgiKBAMGtm9JviLHzgigHS6Eh/AFC0QJfWiB+3ioRWXjhbAEgQkDmejKF3ePWCcCXAkwNkg64t0kQnphzjswgPCA8IDg8cDAbvEnY86dz4OuXNR48nvXZVQAPjH0okAACAASURBVLvPCEdjBTKXjcWOvRvwn6P/C5wATpw4gRMnjgccXP4+wQvyr18KCGjUL3nk4lCgAMX8l+PH4fYQNFoCgkY2b7mKTOkv0oiOr81bBGtDCTZtysLsuW9h7Lgn8NnYpzB37nuoWr0AdfYyOJqq4GyqhLOxAhZnMcrXzMDChR9i3sL3sPrbuaj3rMb31UUoNE7B5CmvY8zYpzFj1tsoLp2Fg7Wl2HfAAJNpJtauXwS7u0KBQDX1JlTbSrBpy2LkFn6NVYXfwFQxF7t/LMXsjLG44+7LsTJnOhqa1sHWVKbep85Rig1bMrEw40N8Pv4fGDNuJKbOGoWy1bNRV1+Bet9qWH2lsPjMqHGYse9gAQqMX2PytNfw6ZgnMOnrl5Gz6gv8cNAMT9NGuFpWo95XrJZ9DbbSC0QaufMDS9T8ESVclmZUIJE+ngSRNJgU/sj6UoYeDfyAVN8EhxpQlEiXNDDOBDQS0EhAI+EB4QHhAeEB4YFB5gEBjVLrpQtolFp6S2sDQAENGnk8LuTnnR400gAJl/NwWZbDVwqnpwJWZwnqGkpQ71wNh3stHN41sHtLUec1oN5nRr3HDFdzBRzecjQ2b4SvZT0avGWo95Si3l0Gl5f3rUa9swouzzo0Nn0Ld9Ma+A6vhadpLbxNa+FuYtRQDvKM41G2ejpsjio0tW1VuYnqmzbioL0KY758EffcfzlMxfNQ37Qa1qYSOFoqYPeVwuYtQ4O7SvWvpt4Mm6cUnsPr4WldB4vXjFq3QfXXwmVdjWUKoLI6ymF3VsHbuBGNzf78RgTBGlSUUZFC5DVNBvOoBn8PlyXRMeZyOV1OAh/+CKPwINGpYJI/MmkggSMFcLgNKqqNyyGlJE4Di5uRRoWwsnj8EUcSdTR4YJEeEwLGmYBG4igMsqOgeVKOgz8uyDeQbyA8IDwwWDwQsEsk0mgAvOtTHymg0ak0kTNDjAIKNDpxHB7vSdCovrEiYqSRHtx0riMuhXL7yuDwFvuXQTH6xlcMq9eEOk8harlsSufa8RSppVMubwmc3uLAMiqH16z+5jlVfCVwEYzyFquEzhZ3LlgaPEXYd2AFPvjwQbz44i1YXbUItdYKHLQUY291AXINX+PJp/6OV1+/F3v2FcLuK0N9czGczeVwNJYrkMrmYXSQCXUEiJjbx1uEWk8hql15qHHmodbFME0621RkRtR7zWjwFsPhK1GFv1WuIE+RSjDtB2kGV+kxqkgnv2aOpXqfCfW+ItR7WfqCRP5rZj+QRzAvbOE9p1/Gxjo2ldPJCLuvKGJhX3Q9OTIH1sAVfhN+44ZGM2wuP3jkBxAHl0f1uDFcjwHjTEAjAY0ENBIeEB4QHhAeEB4YZB4I2CUCGqXEcxfQKCVklkYGkgKhoFG1dS3qGysjgkYaLAo96qVsBFqsHiMsBIxcuah2rVCATyBRMxNrM+9OL4Ck8+/wbw188KiuK2DGAKvLn7OHwESt3YDM7Pfx5OPX481XHsTMaaOxaOEYTJz0Cka9chdeeP5OrMqdCGt9OexuMxp8ZribK+Bp5hK5cti9Zlh9RlXYRwJENeynM0flgiHIopxsr3/ren9fTHB4TCC4FdxPvkc6OMEaNPLTshhWpxlWhwlWuxF1QaW293etzYBaa2G/pcZSgGpL/umLNV99k7oGIyyOoj6F56SkngaWhiJYGoyoteajxs7k6OZeoJM76fn5Oh34djj04WSC9QKVc4zvrMeNk9f8Cef1t0n0OBzoKu8oIPCZyAPKiVMRwyc3M0i3c2ci3eWdZDwZjjwgoNFAetenPltAo1NpImeGGAXCgUYNTdGDRnWuVah2LketK0c5RX5QhUubDKhx5eCgc6m6VufOQ41rlSpcLkMwxukr8RdGHQWBRtqpUsCR3gnMbVRb29vdJuz5YQVycyZh0ri38NnoUfj8o9fx6fvP4+uv3kKpeT6slgp4vKvhZESTx6wioTxNFXA2lqnIGr3kqs5VAIsrD3WuXNVX9snFZWkqOse/bT3BIkZGMfKJhddYT/cxXRSNoqe3GASG1mycC3Px1yg2f4Ni82SYewt/m4q+RpFxEoyGiRGLofArFBZ+GX0xfAmD4at+S0zPi6VtqXvqd+L3MH6JgoLxKCqZiB9rC+BqLA+AnunGu+kiQwPRDw0M6eTkbEOPH/qaPvK78FqiRb6vOEADwcvyzIHnq+D8hGn7W6Il02KyUORx4OXxTKexgEapddgFNEotvaW1AaBAMGhUkL8UjDSKBTSiYcNEuzrSiA6PBoA4IKkkvL25dvyOk38GjY6NAoUYcdQLGPGcLhys+Vs7UDbmaHEVqGVTXDJmc5TgYHURduxaiS3bl2Lb7uU4cKgQNlcF3I2VCuBhZJCKEPL4l781+PxLy1QkUSCHzsmZfwJCetmcWtrV+y4Oj1k53OkYaeR3OLmVt0FFk3x/aBUyMj/A0sUTUVy0GCbjYhSxGLJVMRZmgcVQmNlvKShchFhKoSET/ZVYniV1Y6N9OHoZChdh+fLpmDb5HezdUwhv81o0UG7SJDruzDfG/NFDjGZk0XKqxkcCzz6T2kjA4jWo6/468eyWd+o9BMXtHFNV1KTRn99KLbfVec5OHuvdBkgZGBr4Ze0krf16p1BNflCf8W+7/lYek/pm/r/TI4L1TJfR072f3xZhTkBu+sGl7EZVmKfR6vWfO90zormubR4edf3gc+n2W9t4wXab4mU1lhhR7x66RduZda581KoJxTxwwtPiyVc8oL5Fb7R8NN9Ff8+BPtLWZt/rGZ1PPqXt7fHb5rTRaZ9rGz10lYD+W+sB/bccCzHYNNDfJJEjZZM5LpWMMjVC0JI4AY0GwKnu55ECGvVDHLk0NCgQK2gUPODwNxWnBnb6O9IY1hE+dKBCnxPpbz1oUyHq3zzq2XntlPHIHEosvBbolzZggmbw/YY5Z/T9jpV/WZcpkGMp8HdQ9FOkd4vU71Sd57tyq0wCcqTvgUN5yMoeg283FKPR44HP44XX61VH/o62eHvv471Shh4N3C4nvt+/GxlzJmH/zmI0tmxU+bmUkSAzxVGPP/HKMeUydEzyG/VGOHzFcDSVwuYzq5xqFq8RiRY6ssqZ5TjLnFbMwaYiK5ljLjivGZ0K/98qNxsBLCkDRgNN65NH/wYDelMCfienl1GsZWqig9+C+knrt3j5T+6L3saIRCs637QF+K24aUOtizkaDah280i96y8WVyGSVfzOHW0l8kl0eQX9vJSauuRPTj7oHI+cSNPjB1MBMLflUC58F27IwZyWTF3gt63y+ywtjmQLhjsfibeSfd7v/BeCE5wcPxg9r3OBEjQK2M5BE7Ma9GK/+5vA1fXkeHJSOxW0CP0uwd/odL81LypgV63S8E9QqMmqIP9LQKPU+ukCGqWW3tLaAFAglaCRAmvULEh0Bl1A0YUARqHntQLWjhr/VnV6FaQeQEOPauDtXf4WAIqC/x5CoBGNG77//oO5yFr8GbZvrUJ3ezu6OjvR0d6BjvZ2dLRFX9rb2tHenrzS0dEBKamjQVvrYVQfOoBF877Bji0G+Fo2KLBA76SmZUaO0Y1FsdJJO/0a1OYsnzICe50uJuS3uIpR6zKjxlGEWufpC+vVOIwRS3WDAYcaCsGjv54Jtc5i1DlLUeswoYbnGwxB1yM/q7925Fp0dKt2GHEopBx0GHCwoRCHHPxGRbA4S2B3EjCqhLu5Ujmsama4d/IjVr6T+smUZwNqHfmoqy9AbYMBB+vz8aMqBf5vqGTJiJqG5BTKLUtt7/P03+kkb6SDKvVGMHeetcEES6Awl97QLcy/WFNvQHV9IQ6x2AtQXV+AOocBNqcJVgcjEv2buYTakpH+Tq08GhRoZHMbUefIU7xb05CP2oYC1DUUqmJxGGBxMP+kv1gdRerd+H668Jy+LseTtBoMWvBb6KK/T39H/e309+axxp4Pi9Og8ruST+kbab4U0GgAnOp+HimgUT/EkUtDgwIEjf577BjcHifycpfgkGUNuHuaf9vukzMUepAJPRJxj6QwI50PfUakv0PBoWj+prPWp14//TtzQCN/CDXffd/BXGQuHoft21ajrbkZba2tCqzp6epCLKWrqwvJLt3d3ZCSGhp0drSjpvoHLJz7NfbtKoGvmaBRkQq1V+HqQbNNkeRPzp80rmKlhQaN9FFFLfQm/+eOhXsP5aCw9BsUlc+EuXIOiivnwFwxu2/hOV6rmANTxexTS9ksmIKKsWwGDKXTwSNLUdlMmMp5/3xVr0idn67qFJZOh5SBp0FB2XSElvyyaShU32IWisvnwlw6Czt258DqKleRLBYuJxDQKODYxCp7idbXtK9pKMC6b+eguHwqyqvmorhiJooqpsNUOQumytkwVc1BcdVclFbNS7iUVM2FLhwLlMyXz4KpfJaSY8ru4BaOJbrMUL+Ly2ejpGIuSivn+UvFXJRUzEEpzw3Bwr6by/1jMOnO9zVXzERpxWxUlM9F1Zo5OFhTgAZviVoCxknQSDauPp8oL0Z7vz/yxQibywib04htuxfAXP41TGXTYCqbjpLymShWZRZKKvjd/KU07PeaE7iu68nxJM0Gixbhv1WorHHsmI3icuqWWSgpn4WyihnYtW+Fmpio9/RNURAONKr1+P0+XrP7jHA0VmDR0rHYsXcD/nP0f4ETwIkTJ3DixPGAk8vfJ3hB/vVLAQGN+iWPXBwKFDjTQKM+gFHv2nOtwEOPZyRodCgPmUvHY9vWKnQcPqyiixgx1NnRga4oC+uySGTQEKZBexsstYewcN432Le3TECjFINk2vHkUQHrXv8MNcccm9eE4jXT8fYHj2Hu/K+QlTUTWdmzsChzRp+SmTULLFmZs5CZOTPqwvos2Zmzka1+z0TmohlYtGg6MjKmImPRVCxcNBULpAwoDeYvmopIZWHmDGQvnovsrNn44vP3MHveGNQ4VuOQuwi1vbuPkneidRqlXvJoRbozQvAHSyHmZ3yCqVM+RHbWDCxc9A3mZUzC3IxvMHehv8xbOBm6LMiYgvlBhX+zUNYilYzMaViUOR08qrJoGjJUmY6FGdNUWZAxFelQdH+CjxmLpgfGLP07lrEq3epmZPjprr7lwm+wIONrZC6aovTo9KkfYfvOQjgaV6sdgjkREGpThv6dKrkMgEZuI2rtBViy7F2M//xlzJ03UY33WVkzkJ09E9lZfcvirFlYnD27b8madUq90Pvk7750TAU9wn2rJdlzsDR7ripLsudicfYcLM6eh6WLF2DZ4vlYnDkLE796D0Xm+fA2b4Wraa2aPNR8GQoaVbtz1ZJM+lEqB5bPiAYBjZLmygtolDRSyoMGiwLDHjTqnf0/ZXlaUILuUENA/01FrQffwTrSwGWiRhb+3l+dh6xlE7B1SyU629rU8jQuUevu6oq5JCvSqLOrE52dUlJJg3aCRnXVWLRgioBGKXa++wDXvUtkCRYxyb5N5cswonTtbEyd9REaGmrQ6HOjyeeB1+vsUxp9HsRa+JxGr780e71o8npU8Z9zw+dxwetxwutxSBlgGrg9DkQqPp8XzY1NaPJ6sXFdBeYt+BJ1zg0CGqVYVsPpbQ0aHagrxJJlE7FhXREaXQ1wuSxwuuvg9Njg8jXA7XPC63P1KR6fEyw872kMKvw7yuJ/phtenxu+Rg98TWlSGj1obPSgucmrCn/739ENTyOL/329jW4MteJrdMPnc6tv5/Y64C/1cHvtaPQ5UPfjD1i5dC527jTD0bg2rUAjNSmhop6KYOfSNHshVqz4CDk5M2GxVMPjdcDnc6Kx0d2nNDV60NTIb+nrU3g+tK783Zd2qaZHpG/V0tSIlqamPoV6pbX5MNqaW9DscSNnRQZM5iw0Ht4FX+smlaZAj3uxgkb/lUijhFx1AY0SIp/cnA4UGM6gkQZ/4jmmA2DEgT8caLR42ecKNOpqawsART1d3YilJLqMrKu77/K2VAIm0lYnFGhkEdBIG0epPEYCjVyNpWqHLKvPjLK18zBn/ni0NLnRQ1CXoCrzjgWVro5OsHR3dKG7sws9nd19SxiZPtLVjSNdXb2lBz91/4Sfuv/VW35GT/cRdKv7YluuGsvSVqnrpy2B+kjA+089P+NI50/oae/Gji3fImPhN2jwbIbVV6KSo3NcZ0kl30pbfnorncoJmNoCLF05Cdu2VOII8wN2tOBwuw+tHc1o62xFZ3c3urp7+pTOrm50dXWjo7ML7R2d6Ogtbe0dOF1pbW9Ha1sb2trb0690dKBdRSBzPPKX9o52tLQfRkt7K1r077YWHG47HLG0tLUgHcth1e8WtLQ2q8K/W1tb0NrWjK72NnhsDuSvzMLu3aVwNa1LO9CIkxIqib7LAKvdiFUrx8BozISv0YvDrS3KHujo7EBwoZ3U1ckxys+z+sjzwfXkd1+6DQY9In2r7s4e9HQdCZTuriPo4jml94+g83AbCvKWoqRsWS9otDGhSCMBjRLz2gU0Sox+cvcgU4CAEcsvzGnkjj+nkT80NvqdBaI1Tvs4X6dJht1v3TA7Rug+9wcY6TrhjtG+w0DXCwcaZS/3g0aJRBpFcnZOdz4SYBPvUrdIz5PzkSO3Ojo1aFSDjIVTsG+Pf3kadwtUEWnBu6n0ytVA8+lwen6fsag3pxp3tXF5S2BxGVDjMqB07XzMmf85mhvdaikol4O2t7UFld6k9e1cVuoHjzo7OhFcCCSFFlVXgVBdyiEgQNTd1RMoyjGgo6AcBjoNQ6/EEzWpAJxUv2s/oNHPPT/hSHs3uto68N2mdWoJjMOzBTZfCWxe7pwlgNFg0IC6njq11l2A/TX5WLL8K2zdWqWA3SM9Xeju7kBnVzu6ujvR3XMEXT0EjbrQ3dODnp4j6FYgkt8J7+zsAsdiVYIAJA0khR4JysRT+oJMBJ1OAk/6eYk7uv73UCBDZ5cah6jT2zra0dbZgbbOTvWbQFJ/bfF6upYO9q29zQ+w8L062nC4nYBLKxwWO3JXZmL33go4m9cr0Ii71arNXfqxLweah/3AskEBAXrnN2t9EXJzxsFoyITX50FLSzM6CRiFfBttQ+lvqo/6vBwj21iDRRv9jdSxF+zrq997wHGHep4TSExRUViwAmUVOXA3bYOreY3iFfKNvxSAm6OwcDOdSMvTMnpzGglolJjTLqBRYvSTuweRAhow4vHo8WPwxAkaDbRSjOf5wU5bf/fTQDwdaNTf/elwjQN/6PI0gkZbtlSio3d52mApuOB2lSEZY54k3h8MUgU/T36HN2gUYBQEGi3UoFHLBrWtroXLGAU0SplTzjGGS18JGHm8ZbC6jKhxcXnaAsxZ8AWamzz+HQ7DyUZnhyzrDLOsNXhMiOV3qseM/vr2c/cR/KuzR43R69dXYtGiKXB6t8LuLQbBXa3D0kHHDKc+BING+6rzsHT5RGzZWqXk8OcjP+FINwFY/3JvRhl1dHWivbMNXIId7nunguf0hAxzF7YReGa0Yu94wvbD9SvRc/29V7BDq6NXNFjd333pcE2B6ATnqUMZPdVxGK3traivsyJnZSb27KuCq3mDAo2sBI28/t2otLzymCp5Oen4+0Eju9ekdl+01JuQlzMeRUXZ8HjdOHy4xQ8YETTSRXRL0nVrfzI1ELzdR7aCosU4sUQZ7OHY1NKMwoKVKKvMhbtlm9rkiGCn5h2Lu0CBRRo4qgmT04gbIwlolBxnXUCj5NBRnjIIFBDQqDdBbT87YNCATJUBEG87QwU0ildpBivieJ8xnO4T0Ch1Rns0MhsKGtncRahxFaFs7UIFGrU0e9USUoKqwbzO32cC39J5TfZ7hNIp2r+T3Y/TPa+/fhE0+nfXEbUkce3acj9o5NkCu9esJjK0ExoNj0md5Ml8ADRy5av8gASNvuMETEcHjjCSSEXpkacpr1yGxmgb7lDannQ+Px1/hV5nHwkYKdAoCBTojw/jvRbadvDfwwU0UpFGaQka9UYaGbPg9rjQ2nr4JFgkoNGAyWl/shQsH8n6HQtoVFqxCt7WHbD7ynE60IgAkgI/3f7d0wgaLVw2Fjv3bIBEGiXmrAtolBj95O5BpICARv2DRkMBMKKzMFRAIypUKks9G9rc3IzQ0tTU5D/X0ozW1lZVl/doZRyrstVt8r7Dhw+Dz2fhs7Uzy9+6XdbR5/tri3XY98bGRnUMndnt796BvqZBIy5RsFhqEBppZHVJpFEqnexTQSMTat2mPqBRT3e3kg3N5/o40LwSy/PZJ0YxaBki77Pov8MdW1pa1D2xtBNNXU2f4KO+L/hc6G9dJ1XH0PaD//6pqwf/0/0TOts7sHpNGTIYaaRAI5OARoO4NE+DRnXOfOw7lKsijTRo1NPdgx6CRoziUflhuPwsuaAReUTzZ7DOCpUv6h9eD9ZlvI+6SZVe0CiY55L1W/eP7bB9PRawP9SFQx000jvHUoc2t/tzNNlqLVi5YhF276mEu3mDcrzpfNu4NC0kdUKq9IuOFrGyD94ileDYyo0W1PK0z2DsBY2YYyoQYZRk0EjbT+TPxqaT+iBYN1APhPKp5qFYj+QvLQvR2muxthFv/f7kK95n9ndfLKBRiQKNdp4WNKp15QYi0fXuafYg0OgXSYSdkNcuoFFC5JObB5MCwwE0ikZ500gMV6K5Nx3qDCnQqKtTGQ979uxBdnY2MjMzkZWVpYr+m8cVK1egorIC+/bvUwYpjVMaC/0p0HDXtAHOe7dv367aXLFiBXbs2KEMbi4p2Lt3L5YtW4aVK1fiu+++858PsyRGP59Ogs/ng9FoREZGBgoKCmCxWALGuq43WMdg0KhOQKNBjxQ8U0AjJsbfv3+/kpVFixZh4cKFqmj55ZGyy2uUa/42mUzKwKf8UtaUM5uEyKOAXCsHyB+h5fF44HQ6/U5rhFxCqZbJ/pyIAGjUIaBROuhR3YdwoNHmrf5II4JGTALdwbw3KjePfwlTazvBkjbF3/HymOYVLSt0sjdt2oQlS5YESla2X1cuXrxY6auKigps27YNbrcblM9QGdPPHIgj35N91PqTfdq5c6fSn2cEaKQSl7ehqa1ZJfXuDzSic60c7BTnB0wH0MhmsyEnJ0eN+Ysy/WM/jwsWLFA6gHxRVFSELVu2KDuJYGciesBqtSp5oH5Zv349OO5r/o5X9pJ1n+5HuGOy2gh+Tqygka91J+p95WpJpead0OVpAhoNrFcuoNHA0leePoAUOJNBI20ADofjUAKNjhw5ogyGwsJC/PWvf8Vll12GK6+8EldffTWuueaaQLnuuutw62234s0334TZbIbLxRDrvpFHVJ7RGh+8l89hm3feeSeWLl2qwCg+Y82aNercTTfdhKlTp8LtcfcLTrFNh8OBf/7zn7j0skvxyCOPKBBK9ydYqQ/GbwGNkrdUJRnjhwaNnN5iuL2l4PI0RhrpnEZcnjYUIo3Iy/n5+UpWrrjyClx++eWBcvHFF+OSSy5Rsqzl+cqrrsSoUaOU7GpHOFp5jUZu+Cwd+bRv3z7luBCk4gx3OKOd56J5bjLrROoHzwtolF5yqmU9FDRasmIiUgEake/I09RV5A86w5MmTcK1116LSy+9NHC84oorlJ7k+dtuvw0vv/wyOBFCZ5rywOcQQNK8F/xbn0vGkc9lBAl1+d333A3qTwIEjP4YbqARcwQOV9Bo9+7deOKJJ0C+5NhPvaCP5FGWv/3tb3j44Yfx+eef49tvv1U8onRB0BLKaMfdjRs34p577sH111+PL7/8EvX19ehhMvpBGN9D+9yfXIXWTcbfAhoNoIM8QI8W0GiACCuPHXgKCGiUnkarNl6jPQ4l0EgrdkbnXHTRRfjtb38LAkQ0KJ548gk89dRTePTRR5VRQEDpwgsvxD/+8Q8VAcQZKoaLU9nq52gnVP+tj1ohsz7r0LjlrCyf/fQzT6voIDqXrLdu3TplhF9wwQWYPHnySSc3QrQRjWUa9ASNfve736m+chaNbbMt3fZgHQU0Si+51qARd09zesy9ibCLULJ2PmZz97Rmz5AAjcjbpaWleOGFF/DgQw8qsPTBBx9UDsJZZ52F3//+97j55pvV+ZEjRypZ++yzz1QUhJKL3kgjRv2FkxOeYxRfNHKj6nZ0KOejurpaOQ/33nsvpk2bBq/XG3CYKZPBJZpnJ7NOcNuhvwU0Si851fo2ABr15jRatmJSRNCIuxQx4igZkUbkO/I1QRfqGEbNffHFFzj/L+fjt7/7rZpEeeCBB/DwIw+DcnfXXXeBwOx5552HW265BfPmzQOjPvgM3s/CXd2C+Y5tBP+tfzNCSf+OdAy9l38TpMrNzVU6nBMojDKknqYzq3dwCnZsmaCX/eO9wSWc3IerF3wPf4e7L7ROrH8zEbZanhZDpNFwBo127NyB+++/H7/69a/UxMHdd9+txv6HHnpI8Smv3XDDDYpPCSiNHTtWRRyRd/iNQ79hpO+uzxN0IghFe436hWApeT2WSHTVbhg+VDwV5rxuO5iXwj1Dy46up//mUdcP+6wo9Z5+rj4Gy1bw73CJsLk8Ld5II1tjBRb05jSS5WmJ+eYCGiVGP7l7ECkgoFF6Gq3aeI32OJRAI84IUeHR0PzLX/6iDIm33npLOaNcGkbwZcOGDWrpF0EZGgY0NLj0hc4gFa52OjkjSzCIxkeocuZ5nV+B9/A3l9ZwSVlJSQn27tsbWPbGSCO2ceFFF2LixIkqioiOgFbu+n4awwSa2H5DQwPeeOMNBXpx1ouGDN9L36OV+mAcBTRKL7lWoJGnCA6PSRXunqYjjYYSaES+p4H+7XffYu26tWppAEGk5557Dr/5zW+UDDFSr7KqEmvXrlURfFwSquSz258PifJDwJWyTJmks0o5ptwEOxH83dzilzfew8L6PM+ixwDK5ObNm3H/iPtx7rnnqplsyqaO1qD8BY8NqZbH4LZDfwtolF5y2kffugtR1w9o1Mmk18rhTW5OIzrQlAU6eKjMwgAAIABJREFUwYyupT46//zzFW9/8803qKz0yxYnQPLy8/D5F58rwOiPf/wjCJoympYyQT5XoBGjL7pO5vNjFC3zwVCWtK7ikYUyRblhoYyRX9XuYS0tSv4og1qu+Gzew79XrVqFG2+8UUVDcckql253M0F4ewfovLK0t7WjpbkFPq9PyT77yPbYT9oEfBYneNgvLee6X+wH6+n22H+2q68nW6YFNOoL6J2Ovkw1QN7jBBqjrrlUbfWa1aiqqlI6oLy8HHPmzMF999+nJhYIcK5evTrwDfW3Pdzqzzmp9IPPq64HxvrOk3Yf7UQ+gxOKBI2YGkDzuK7f1NwU4FnyWmtba2DCUfFaW1ugffIXeY78Td5l0TymZYj3aD5kP6mbqMMoo2xL8Wx7rx3a7Zcbzd/sE6/zuVxGyvcj/2obU+uy09E53HUV0acS83f5o/t6f7O/rB+8e5qARoPobAc1LaBREDHk59CigIBGaWy0xpAIdCiBRlrx0tAkaMRoo6+++krNkGpDkEqUCpl1GIJMo3nqtKlK4fJ+KmkuRyHYw1BlzsjyPAvvrampUU4rI4hq62oDxgdBIzq5NLh//PFHBThRuWrQiAAV+8KlZ3wODQYaHHwe72F/GCFFJ5WG0muvvYZf//rXuOvuu9Q5bfyEU+6pPCegUXrJNUGjeo8RDZ4iNLiLVKRRnduslqfNmj9hyEQaUSZoAFNOdWFkw7vvvqvkgMsQ6CAwGSqNZGUY9zqGNMK5jMFkNqlcLFzmRtmlwU9Z18/m8ynfhw4dUqAUl5vRCcnLy1MOM/On0OjW48j333+vcmdwaQwdZwK5dJwDYJVEGg16Tq8+YEwMem0w71N5Plz5+L46H6dEGg1gIuxg0Ih6jfqIepKAKHUPZUo7oZQz6rEvvvwCf/7zn5WeHDN2jJIpylPPkR5Vl8+ho81lZFyWzSMnOQiu8lksrE85ZE4iAr7Ucbzv+wPfo7i4WMks89JQ/uhca/mjnDMXIPU0l6cSNOJ1rQv5XDrWzCFIuWRdyjMBhR9++EE50qzL51Hvckxgnppdu3Ypxz2gN7s64fF6VL95L/M4cRyg/tYOcqBuSBRTrOcFNIoNNOK4TtCIkaZcjnzw4EH17Wg7af4in1JPcIzmUmbaUvrbsQ7rsg7BJPIHc0xy8oHnvASQ2vwgIfmfvMyIVtqFY8aMURMZ/Ma8xslC2mtVq6sUqEp+J9/RXiN/s47mF/ImwR/WJ89xQpFtU85o79FeJC+zf7yH9Qn8UAaYb5M6ifxMueD9dZY6VVfboer9OjsU/5OfKXfMT8Z3Z64yq82q5IR9D422ipVnQ+vrdxTQKP18cgGN0u+bSI+ipICARunlXMZrJA8l0IizK1RwVJxU+jSIJ0yYoBQ3HUsaDyw0WKlgGdbMfEfMlUCFTSCH12bNmqVCnxmlRIOAipqKkkYDlf7jjz+OJ598UiXiVdFI7W3KeODytMefeFy1TyOC92jQiMsAuEaexivP00hg5BNns2gU0VBhVNGrr76KGTNmgEtwGGFxx513qHrakA5V4Kn+W0Cj9JJrDRrVu41ocBthcRlA0IjL04YSaKQdWsqFNkopKx988IGKuCNoRKNfX2cdygTllQY2c69wSQ1niW++xb+MjdETNM41yETZJ+BDZ5nydeutt+KOO+5QeZS4zOGdd95RkYIcCxihwIjF22+/XUUscqb7qquuApdHMHcGZ3V1H9iPwZBP3W64o0QapZecBvSvuxAB0KjmJGhEvmYEjd49jdENnVyG1dWJtg46o7Fv1BCqG7TeIb9QtsjHOiKXTifrU4eyLyz8e936dSqf0K9+9Su1xJsADR1d6sq6ujq1WQOXZDNHIGWFuuy5fzynEhczHwyfwboEcCmPXPr2+uuvK9ka/f5otfSIy4Go5xj9SydcA0PUrcynxCXmBAMWZixU+pvts39cOsqExc8//7xqmzr0tttuw3333YePP/7YDzI3Nio5PXDggGqXOpbtcFxg30gT9o+bYrzyyisYMWIEJn09CXa7XV3TdGDdZBQBjWKjowaN/vCHPyjbiIA/x3Nld/VOMpAP3n//fQUaMfeRwWDw83BHu9IPZeVlSo/w2zLnJHUEx3uCQtQpBAgZicZvTUDz73//uwJKP/nkkwBoxGvUHcwD9thjj6l8X4yAIz+RbzgBQV2kZYw6hADp2M/GKp6i3lD65s47FH9+9NFHCtzUeoRRegSI3n77bbVElPUpT+wvbUq2S54lwEU+ZH/YHuWDuu/Ou/zvxTao22bNnoUfD/6o+pMMvg1+Bt+RfwtoFKUznMJqAhqlkNjSVHIpIKBRmhqtMc7GngSN8sHf+6vzkb38c2zZUokOhpknyZgKVkrx/KYhTGOS93JGh6AR8zHQQGXkAWc0y8rKlHJnbgTmN7r4kouVwamSJ7YeDsxI6rB9Ghlbt25VCprKmsBT9uJsBTTRkOVMEA1cGtqFhkIVQk/HkrueaWOAoNFll1+m+qJBI/aTM1Dvf/C+mkFlIlIaulT+Tz/9tDIUGJlEQ51OLftAwzYeuiT7HgGN0kuug0Gjem6HrEGjNfMwa/74IRNpRD6lDGt+pWHKaAU6A5xlprxx6Wews0AQiMAODXcuJ6DDSgP+sZGPKVnkPXSMGbHEunQEaXwzKT4dB85cf/jhhyA4TEeB0QwcLxilwPY5jjC5/TnnnKNkkQlYacTT2eBYwMT7wYCN7nuqjsFth/4W0Ci95FSDRlZ3AayuArU8jZFGS5dPxHdbKpWOCQaNulQeoB4FGrV3Uq+dmqsnVj7TDi15haARJ1QYZcRC0Ih6idESOmKC9bhk9PkXnsfZvz9bObFcwkaHlXqPuxhSjqirGBHLCQ9OqDBfIKPz5s+fryIh+Dw6sASACVJRjiirlFvqYQJJlD1eI+DEiCT2VYNGBIyDQSP2iyDUzJkzccuttyhZp4P95FNPBp7F+i+++KKK0mB/qY+Z7+a8889TzjsddIIPBOXYFieaOIHEMnfuXBU5wvMssdK5v/q0l7r43N6cRs3tLafdPS2dcxp5PO7eSB2C/UElCfxKOjKKhrxC0Ij57jjRRrCS4BGjjgikECTi0jXWIdjCaCEu82o53KJ+ky+ZE4ug4ksvvaTsLPItbTWO96zP8Zz8z+dTF3DM//TTT1UibPIhdQh1EW018i/ttJdHvax4mLzGHEu0L1mX/E4d8sknnyh+IrhE22706NHqPtYnv5MfCaySP/mezK9J0IugFCOnCCxxeTZ5kn2fPWe20mHkf0bM8r2ZrP6CCy9QNGIbnLhUie2vuxYTPp+g5KQ/foznmpYJAY2S6zMn42kCGiWDivKMQaGAgEbpabRq4zXaox80ylezo1aPYciARjRAGR1A5UylTSOWDiAdSZ7705/+pBxAhhgzxJ2KmMAMZ2+YIJTXtQFCpc6ZKBoW3JaYip2KfPny5SpCSYFGhYXquQo0WpShdkmjclWg0WV9QSMaq/kF+cp5ZUg1DQMa4zTQGRpPR5aRSUwAPBRAo717yuBr2aCWSFldeaCRa+/dHlgfNb+Rn2zuM7zECMxq2sRzDAWNrCGgEXdPO9J9ROUk6OaW3l0ndz6Kx2BMxT2UG8ocDWoa2meffbaKCuTyNBrkNO55ndEBzz77rLpOWWUUIJ0JRkPQIKcze9XVV6nlALyHUYOs/+dz/6xmdPfs3aNkjssUuIUzZ3nHjRunQFq2Q8eUMs5xg3LK3RbpbHL2m+PBTz/9JKBRCnk9HvlIt3vCgkabKxQ/M4eIjjQKBY0GItKIoBGdY4JGXD5DudPypR1DyiCdUW4qcdNfb1KOKh1jOtoEe6gnGXXLJTe1tbVqaQzrU/bo7DOHIJ95qPqQcrrZFp17bk7ByRw6/Zy0oc7jcnI698xRQ5CXepLALUFeOto60ohgLQFkgk5cOvfMM88o2afccwka9TfvofOsEyOzD7yH0cXsGyeG9BI66n8dqUJ9ywgRji8smg7JGve6O7vQzYTdvaBRS/thBbrYai1YuWIRdu+phLt5A2weY28xKH2ajrunFRVlq2V9HFtVpChzZvWWZNFLRxpRB9COY1QZlwkTEORvgpSMLiN/EFiZPmM6GhwNindoy3HzAuaUZDQbk7kTaGJk0qLMRQocoh3HyHLWJY+QrzVoxMkB8j95UYOKtCs/+eQTFZFEfidwQ6CGckBdRRuOumHL1i0KdKKMzJg5Q+klRjSRtwhuUu64KxwnDwlc8vm0K2k/Emzd//1+BewSxCIPE3BdvGSxPxl9Z4eSG+oy2rjcXZCRTuwP65OXOWlKYIxRVsE8TDs30W+jnyeg0aC41v02KqBRv+SRi+lMAQGNzhzQiOH0LDRkvq8pGDKRRjR0aUzQCGDYLpUofxM4ovKnATl+/Hil4GkwBINGdBK53IUGLZUkC41lhsNzJpWzTQScGIZM0IgGMI1UKn1GMumcCOFAIy5dY5JRRkIRwOJSOT6HfeCRIdM00NM50uhweytq66qxYMFk7NldCm/zenCJlMWZCwJHGizSx4Dz5i5UM+2cbT8ji5KT1Ml+/6DRBBxu8SnQqLuTOx71+EsvcJSo8ThQ91PW6IgwMogG8G9++xsls3RMKSN05nid0YOMQqABzqVlnN2lA8goCuYXI1DMa19//bWKNKADQkeD5+hw0jklEMVIPi49YGHuCMo5ZZpOK3OXcekM76Ezqp0LGt+hZaDoEem5oe0H/y2RRqmTwcDYFgWAFhE0UlG7fkCBkSipAI3IzwRdCOQQDKXDHwyW8DeBFUZnMNqP+pLOLXUUo4yoW6knmaCezi9lg04zdSTlks/mb0YlqSVEH7yv5IhOPB1jPodyzMkYyiGXDFHO2B5ln3Kod09jWxo0ohPPKArqT+pyLi+n3HPcoA4nEMWcgHwWgSs66nwWAQOCDXxfjgMEkfmOjPJgBCHfheMNnW+t83mMJH/xnPeDRl0KNOIYEw40cjVvgHWIgUbx0CKae5hfkrv6cak+bTZ+b22/8fvSxqPNxSgkbmhCHaB5mHxAXiIfEthkrh8uA3O6nOrbE9zkMxhtxIkDRibR3iPAxImFTz75RPEheZG/aY+Rrzk5QTCJNh4nKXiNoBF1Cu8nTzNXEnmebXJppL3erurSHiTYQ+CU0UnMm0edxmfqiDr2h3mXCIBSJxHIYv8oX9RJjHonyMvdDdnP90a/p9rgdRYCWcwDxvcmaEbeJ621foiG7v3V0TIhoFH6eeACGqXfN5EeRUkBAY3S02iNxcBlXUaGhAONNm+pQIdaX51co6o/ZdXfNSpEKmvW4ewkDQwalTQSM7MylbFLYIdGKEEd5jWgkib4w1lOzoRSGbrcLpXzREcaadCIz6XCphFMoIeGL2d+aPjS+GNeFc6ScuaKBnV/oBEjGKjo//DHPyhDnMaBNnRoQPzw4w99chql4/I0AY0igF4CGiXsZFEOKcsaNNLGOkEjLeOURcoxoxNoHDO0n+Arczxw2eiUKVMCoBFnaen88nmTJ0/GDTfeoBxHOhvMBcF7uYyN9+3a7U+Syz6wDcomZ7LpUBJgJuDLsUYbztoQ57G/8WkgrgW3HfpbQKP01L+RQCPytY5CCQWNBiqnEUEjAijUk8wlRB4iX+tCnUQA9oUXX/BHGt10EwoKC5RjyrxgdLipJ6k/CdxwEoXyx2uM9GF0CGWGgA6deS654T2cuGFkLZ1Ztkmgh471Sy+/pPpDkIBJsnWEBx3gYNCIckzQh0AWlyVRRimrlDE+i0vRCGRxbCDAQAeceprgFHO9UHdTphmdwbo5q3LUuSuuvEKNIeyXpoGW82TJr/rGnV3+Xd9OAxr5gaOhEWmULPqEPoeAHndGI2hEYI9RN+RbgkT8thyXCb6Q9wj2aYCER0bdEIhkHUa2MZqU/El+IL8ywpu8z+VgjAyi7UWQh6AR5YJgEJelcTdcRrMx8pt8zdxctDFZGIn66muvqufwGsFXyjKjjahz2AcCPEzizvQEBITIz+Rd8jmBTPIYwSGCWORZ8jr7QN6mnTp9+nQVJUcZ4nuxMDqKwBNtSOovvg/fizrs62++VnYlZY2ySRkmXSlrofSN528tEwIaRekMp7CagEYpJLY0lVwKCGiUnkbrcAGNGJ7LMHQqas6CUtFSmdMw4MwnDU0aHnQ4qaBpxPIaDdwvv/pSnefMEWd5lBHQ1qaeQdDooosvUtFGzG9EJ5LGNcEoRhqFA41opLI/OqdRTW2NWuryu7N/p5S7boMKnG3R+KEhQGeZhhKXrHX3+JOixqPkk3mPzmkkoNHggUY6eksduXua29hbDODyNAsTYa+Zh9nzeyONeph752SkEX+rErKdbjL5JJFn0SilHISCRpRRnud1yjMjhWhkU06Y24S5KxhhwFxFnGGmM3H7HberHESUKc7QUpa4NIVLAyj3lE2OE4weZF4UJufVQDHHAwUa3X6bGg84LnB8YJJsXtMOL4/JMshjoZtuN9xRQKP01L/9gUY9lEtuI898MF0EQPw5jZINGpHH6NBSH9Gx/MsFf1FOKfUYZYv8pCcx6KjSqeYyGEbtMFKivqFeLeM858/nBJaaUfYodzxS9uisc6kXQVodkfHee++p9gjUUq4ow5p3Dx46qJYdEYSizmMUEEEeRjaFgkaMZuKyJO0wMwcS5ZHvxSPb49hAmeaSH0Y18Rzfif3nch5eo/PP6EMuQ2K7jz72qHLySQNVkpSXJ1im/aBRt1ouzMiuwx3+7drtdVa1PG3XnnI4mzegzmtU0UZMCTD4OY0oS0bYvUWwuApRZzdi1cqxCF6eFvyOyfxNMIXfi/xH3uLfBHI4RjPnECf9OPnHSbj1G9ar3TXZPvXE5i2bVa5IgitcYkx7j89g3jsCNNQBjCYf9cooZeeRH0NBI07wUWdQlxA0IqDzzLPPKF7Vzxr5+EglG1ympiPxaOPRViRIRPkh6MQJTPaBy+g02MUJQgKdtEkJ3DLSjfktddQRJyhpU7J9bpDC3GAEQBlBRFCWkVYEQPk+lD+2QdvxwYceVM/hRivUo+T9ZH0XygafJaBRcn3mZDxNQKNkUFGeMSgUENAoPY3WeEEjlYsmaHlaukcaEaRhclwarTSQaYTTQNWKkzM8jEBgPRoCBH2oDGlc0phmpBKVN40Inue9NGIXLFygnEw6mzQKCBrRQOH9NESDQSO2xdB4Gq7MUcQZWIYP61wtNGYY7cDlaJyZovHAthiyTKNYg0aMNNL9HuyjgEYRwCK93C4FkUb9gUa2XtCodO1J0Kin5wg6OwkU9QRKYKla0JK1weat4PYpB1pOOMvMWWUFGnGXG87QH25RUQEEfGg40xHgLC+XpXHZGgsjCxn2zyVmXJZAOaV8c9kCZY6z0wSQaGwTIOZ4QbnmmEG5Zn8o/3RyOfM8cdJEdT8BXEY2cEygzGrHN/gY/C4D9Tu4vdDfAhqlp/6NBBrRqWO+MYIKAwkaUQbYFmVLL0+jrjOZTYqnKXcsrMNIHy514bI0AkQEZBkRRFnSm0VQf1KvMWqHOYPo+PIeyh0LnXs+ixM3jDQiOMPcNEwaTH1KvmV7zE9Gh1pHhbAdXmcEbwA0WujfPY2RE3SOWZcOOQEoRb9uv1wS2GWkIQHla6+7VkVf8Flsh0mU337nbSXrdK4ZnUhnn5NHjDYkXVhvoGRWg0ZcLkxderjDP541WOzIWbEIO3eVwtG0XoFGFgUccRKAm5AwPUBqeTo4ylyBVx4D6lwFqLUbkLNyDIzGrEBOo4GiF/NUMV8dARLmlKs+dEiN4y3NLdi6ZQteGTUKF15wAS6/4nIVVcM8dQT1+Q137trZJ+8Wo4LId+RT8ih5iyAPl0bSRiQPhQONuESOS8oIGjFKbvbs2UrPaF3DJPLUNZSBvXv3Kh3BcwROaftxowXah7QFqXeYk4lgLYEg2qHUIZzQIBhGW4+RScy/xCihZ597VskfeZ2gbWlZqXo+I5f4DPItn0dZo86jDuS7sT98DnVfsJwlg7f1MwQ0GhTXut9GBTTqlzxyMZ0pIKBRahX8QBkUNBz8xaBmmnROo6EAGunoHhqsdAI5Q8NCo7OqqkrNyNAZpFFaZCoKRBoxBwoNaeZBopGhowqo1MdPGI8/nfMn5VxyDb3H61FGDI0PgkYEgbgcjoY1DalwoBHXuzN8ng4vlT53a2GfaNBzxokGB/Ox/PrXv1azrjQkaNBoZT1QBlo0zxXQSECjaPgk0TrkdTpwjE5gRB5lVEUDtrWqCAUawlyuxhlZzkLTIWXeB8oPCyMV6MDSsCcIy9106DBS7mlQ09Gko8CoBTom3PGQ8s7lCkyIzdlZvgNnqwkocTmBmrWttyvnmrLK66Fgjf470feP5n7dVrijgEbpqX/DgUabuRNpRwd6COASNOrqHLBII/It9RlzrOjd06iD6FATUCVQRLmgzqSM0OGlTDCig7uVcTkX5YtgCwFWOq5cPkM5IpDK5d10vKnD6IzzOeRPHgnWcKKEunXylMnqHuo1Po+yTDnj8xjBwQgP9oWOvY664PIinmM/mbCe/SYAxfOUV74bo0WoLwkE81kjHhgRSMbN6+zjipUr1H18LiNAqLcJjNHp1ro+WKaikcVo65wEjXrQ2dmF1s52lUvKYa1XoNGOnSUB0MgfbTT8QCNG2+mya+dO3Mvx9+yz8c8330JdTS06mKS8tQ2Hm1tQZDRixH33409//KPSEQR0aOPx+1EfkA/Iv9ylj0nZqTfII8xFRICFwAqjl3iO3zAYNPr4448Vj1IPEcAhcMXoVOoP2pPkRfI9eddgNChbj1F4tBMJpHIykvxJEIftsl863xb1iQaNKAOMliPoRLmh7uLkImWGUejcRY28TB3IJXFsm8AXZZL2K3fhJfjE85QNRkYpEKmk2K/7epduJsuG1HaogEbp54ELaJR+30R6FCUFBDRKT6M1VnBJg0b+8GQTDtQUqkTYBI3aW5lHYOBm5aI1xFiPRgINPv4mgEPAiLOaDJXnWm8anyw0GAnS8DxngViHSRKptGlU0iim4UGFz0LlTyXMMH3OFqmtXf/4B6WwFWjk8ah22eYll/pDiXmeoBGVK0EjKncaypyd5fPZTxqoDFNmFAVnS7kWnaHya9auwT/f/qfqP2e2GHpMI1hHNMRCk4GomwzQSHZPS2xsONMjjbTDRuf13ffeVaAQI410TiPt/FEmGf5PA5zLDBg5tHvPbuUEMFqQie+5ew3llnK3cdNGFZHE2WLmiqBs0ojn7DCdZj6D4wadaTqylB/KHmd4CVwxEoKGPc/RCdAyqfsbfBwI2Qt9ZnB7ob8FNEpMxmLVk9HWDwsabfWDRkd6jgw4aETdw0JHmHzOCRAu8yIIQx3GwvwonDhhJA6BITqmzP9CB1aDPASUGKFDwJZRsXRSKUuMbOASG+o23rN+/XrVHkEggrEqD8sf/qD0KPUkdSvlkI4xcwJy0oUgEOWVTjlll7liqIu5zIxyyfNsj3JM4IgyThCLOpxjBPPeMOKXz2JOJTrflB0Cx4xCIUhMEIF94bvRBmDeJoIMfD/WDZanULlL5O9g0IhLhNu6/EsRNWi0fWcJGprWo9Zr7F2ilr6gEZenEahob0ve0qcu5qUKKrt37VKg0R9//3u88frrqD54EMz51dHWjp+PHIHdZsPM6dNxzdVXq8izESNGKBuK35kACnP/0P4iDzFSlDmS+J1pb9GWYzQQQU8CPfyuwaARl78RjCTPUT/QXjzvfP+kAgEoTkYQeKKcEEzi7ml8NmWLUXycFCTQw9x7TIpN+aCOop5hdCwBTeowApmctOB56hqCswSOCEhRN5GHGQVLW5CgEmnO+wiu0q685957VK4mvht1E+tT/igXrE95IV9Tb3JJZCL8y3sFNIrSCR6EagIaDQLRpcnkUEBAo/Q0WqM1bnW9yKBROdpaOTuTuBJKVInxfhp5+jlUlFwLzpkhKnmdXFABQZf4wSAamzQYGV3A3EScBaITSGeQszhcmsbrdFZpHNPIpBIeOXKkMqRpDHB5Gg0TLpehsc2cRtz1jAasOt+bQ4F1aXxPmjQpsMsLZ6QIIqmla+efj5tvuVmBV0zY+MCDDyiDmAY5Z19p5LJv+v0G85gwaJTiEHvNx2fS8XSgkdVtRlkgp1Ejfur5GZ1d3Dntp6By5ORuar1L1MLlOeI24KFloPmPskyjn9F3XEJKp44ypHMa0fhloTHMcH0a2jTQaSg/9fRTSo4YOcAIAi6poTPJPtfW1aplK6xHuSNYy9B+LnugvNO5oHzTIdCzsjTaCTBzvKCBzrbo4NLJCHYsQ38PNI34/NA2g/8W0Cg99W8k0KizoxM/DTRoxN3ROvzOIyMZOCFy4UUXKuBH6cPzzlWgKfmcuu/c885VMkGnmGApl30RcKLTSP1GPceIWOpXOrSUE07AUFZZNGBDWaIDzB0OucyGwCwdZII+1K38zWewUB65HIiRHyyM0qAsU7fS+abMU1dT/uhc33rbrcqhZs4avf06n0PZZ3t0oumUU38ebm1V4wr7opOAM5qXDvmcuXMUOKAd4oGSXy5L6+nsQU+XP89ce29U2VAFjXxeH9rbO5KmI0JBo7179uDBBx7A+eeeizdeew0Hf/hBRRqpeswlx2VoO3bg9ddeUzxLG4/jM/mTvEpQkjqAYzsjy2jHEfwnz5FH+Dd5m8AQx08FGv39b4onyL96nFe7/73/vrqHvEg9Qbng0jnqHtqRnJwkb7Jt2oO03WiHUmeQF6lnCFQx+ojyxT4wxxbBTAKyzEvEflKmCLgygojLrikntEMZ7UR9RH5ubmlWUVIEvSivtB95D+WPYCntTYJYrK/0JZd1t7f3sZPj5XEtIxJplBxfOZlPEdAomdSUZ6WUAgIapafRGqvzPJRAoyNH6Ah3qyVlNCCpoB96+CGVFJBgDMOBmSCQRypXJr2lcqcRSYPh53/9rJw6VdpJAAAgAElEQVRLzi5xiRmVMI1hGgQ0bmmk5uXnKUX+3D+eU7NMBJl4L5e90ADhri4MX6YRQuW66dtN6hzXxNPopbFOY4bGO3eIYf4UOq9sg0YEw6k508tICYJUnJ1lBBIVfDoAR6cFjVy5KnFnH2DDfWbIQqyyM1D1+9A2JBG23cXEqSdBo9aWJgUadXVRNoJBI/4mkHSyBBJk60TZYY5cUhGvsRnLfeR1RutxppgGOuWCBj3lhsYvC5/HiATKMA1yJtClgU1QiDvTMEfJ9h3blaNJEIrGM2eHGUlI2aZRz2gkyh7HBBrZxSXF/tnzDv9yUDrKnJV++umn1bOZLJvLFmx2W8AIDwZr9O9Y3jXeurqtcEeCRv/u/gmd/z97bxodyXGdiZ43/+b5vHfe3/fej7FnPPLz2Mcej2YsSrKtzaM5GlOLZckWJWsoSqJsWZRkiiLZ+8Zu7Dsaa+9cGr2gse/7VnuhARSWRjdJiaJWUuwF6I3dDeB754vMKGQlMmsvoKoQ6PN1ZEXGdm/cuHHjZmTk7CxOnKzF3n0/hMN9DqOeSozxUFtXqUCqZFSVa63zkuU0oh6OFZSzK4t8LUobNzw3hXMWd2dQ/gUe+5D40hTnTi5iOefxXCLOc8zHccd5jeOTu4e4c4KLZ85dHHc8/JpzL1+/5m4IOn6YngfRc3zROcXxxjNZeAA1xynHIBfffBWVY5zpF69ehc/vR219PT77+c/hk5/6lJhXp/l63cw0GPb29QnH1ee/8AX8lw9+EP/fH/4hfv8DH8BjH/4w/vm738WrbPekH/M8d2xhAQH9bEKvzyde8/l3v/u7+N/+zb/B7//H38eJkyd1fnLnz3zUvI117NJptDi/aHIazcMxPC5eT8uknUaVFYfg8/g0p5F5rkhgnpCvpjHkGUZPfOUr+OhHPoIffP/7GBocxPTUFBavXBGvsAVmZuD1eIRzkXMED7fm7lPKLPU97TCeI8RXiynTlDU6GP/kT/9E7DalU5I2mexHPqDjV/xo7z37o2fFriHalXRW8jU2OlppO9Iu5FzD+YA2X15+nkjLcii/fP2NO+Y4vrgLiTLPfDxri4e0c8zQJqytqxXt5Pg6dfqUcLQyHecyfsSBIec/2oNyNzz1PWnjjibunifd3LXEOgjaunR4cbeS10ennjZfcpcR80pa4w1JH/Mqp9GmLqmjqkw5jaJik0qUjhxQTiNrozHTjOlMchpxMuMESWOWTxg5yQo0XRLbkrl9l4cjMo4TKs84kU+YmFdOhiyDuxz4uVRugyf4agtfl+FTJOanccH88ikmr1m+MZ4TKxe1NDYI8QWn6WlhcLMuGr9sKw0cPu3i+Ul8ykojhotb1s8yWQbTJ2PCj9dQkPkiOY2GnUXKaZTi3VRywS9CG6dRzckdeH7XtzF1WdtpZOU0Mh6MrV1zN1skaAsqKQ+pCrm7aXpqGl3d3WLstPCAUZdbfKqaBwbz/iyfcOsH1HOByjNUigqLUFpWhoazDRgZHhFlsI1cNHIMzUzPiLHddKlJvMpSXFQstvBzd1F3T09wJwXTCgRmRXrep3OKuxgbGhq0r/Tw7A39y2nmMFV8MZZrrtP4e3H+Cq4tLGI2MIMTJ2uwZ98PMOE+i1F3BUbdZcpplOIxajfPJ8NpJHVwgE6cGMB8C/ohwZz3enp7xXzFuZKfHGd44eJFgcZLjWIO4nwnxwJljx9s4EMPOlZmAgHhTOJ8yLmLn67na9ecz8SZYPrilvMp50fuGqTTiAth7qzgqzwcs3wFjfk5hsWrNFyUzs/j8tQUhoaHcfHSJdGmkbEx4Sya4tlE09Ng6OY5MZ2dOH7iBPLy85FXUIBXz57F8MgI/JcnRRq2kw4jpmfo8XlRVFKC3/+DD+B//53fweOffVykn7+ygBnaEDp4LX6H4TF5ahyTka7tnEaZtNNocLQMBXnfQKqcRpKH3E1EOeVDM+4YorzQCUl54vlfvE/ZpOOIr2zRdpL2HtMyHctiODw0LM7oopOF5wJxhyoPW5/0T67bY9PTmBifEOOA8snXyXjgNh2knIto63FO4SuXtAkLCwqF/LY0a84Z1iXOJeNcMzeL8bExIeecMwiWyXZw95KwCS9cFK9Osnw6pnx+X9AeLC8rFw4h7nrn2KSdyDZwzqPDiHWRdtqGpIOOMc5lJcXahx+GBrUzwUi7eCVN/xAM5wjJ33hDoQ/mZrEwP4vA5UmUluShur4AnulLGPXWiS/tyXXDkKsEg65icZg7D3QfMDxUHHGVYNRbjhFfPXYfeQqXWl7Gw0f3gDVgbW0Na2urwaUtr9d4Q/2F5YByGoVlj7qZzhxQTiPlNIp3Uoo3nzAg9K++cLLkrgQxwckFoOGrKGIyNfxmOjEZc7u4PiHTOKYRy5AOHlGmfDdcT8+4+YV5YVAwPyHTsRy5M4Jl8J5sD3/zWsbLMBinG+c0KDjRs0xxQGqMRmq8vLTLJxcsU4FpDAz2YffuH6CluQaeyTPis+/KaZT6cR/iNNJ3jIg48QW3Ugw5K0Gn0Qu7vo3pyz5cu3JNPNleXLgKIxYWuPtoHRudSOtfW9usewtz3AmxoLXzyjXMzs5jZpoOHL6yxt1RiyLkNdskfy/MX8H0dADTUxyDHPc0jhcwN0sHk+YImw3wVbsFkYd5p6ZmMDszJ/IwnXSYMY3Io8cxbWBmDpP+KVEH8/B3WJ7oZciykh1yx5fcGabt/iK96+BT+oW5WVye9qP2eDl27vkuxpwvY9RVppxGW+QwoiPJ7DQ6kvs98HzAmdlpLHBhJ3YDzGFBfJnvitD5vCfmMs5LQdB5O48A54ZooTs/6EShA4VlMeSuHcYJcF4LBILOmTkumLnw1Hff8FqmYxydKsx/mXPl1GVRnixbpmMeOn/+4Stfwb/9nd/BH/3xH+NCY6NwCjEPnTv8GiIXt3RKzcwGMMVQtHMal3n4/fQUZvh63dwspmdnMDUzpc3JcwEE5kjPlNhVwYU3X/fhb5GGaQPTAkPDQxgZ4xeqzuHJp54UZxD+P//v/40du3bA7XVhZi4gymb55DdDgvHJAh0dV/iVPOn4FvbGLMaGBpF7ZBcaG49i3H9anGeU7gdhH614CZPeSSwE5sXuKe6gkuAreHSQSUhdFUtIB8zi4lWh1/gK3OwsbTN+bU8LWRa/DMp7gp/677kAHSqaA2d+dj397MwspqZohwVEyLK403ZRzCvaweTMF5ihLRjQHlDQOTXPeWS9ztnAnMgvy2J6tkM8yKDelXnYjhnaeNqcxHjZduZhOVJni3t6HO8xD0MJ0kQEy56bF+1mfraP5Yp5j2XMavQzr7wfNd8tXkcnXUZ7MCDGKHcQTmFq0oPiklxU1RfAN9OMMe8x8cEc5TTamtW5chptDd9VrUnggHIapX7xaPc0M5nxUvlvPAg7vc404qQmHTJyS7z8HW1Ix0y0aY3pjBOqvOZ9eW1sG+OFU8nCoSV3CkjnEkP5ZIhGrLw2lrvZ1+GcRuPuCiinUerHvdlpNMxPMhPOIgw6ijHoqkDNqZ14cdfTCFz24/Ur13B1fhHXFq4GcdXkQKIziedsRMKC5Wtu5tfeEvg9T2fQVSwuvo6ri29gfm4Rs7M06HkGyCIW5rWyryxcwwLB31sF2QarMKVt4gKFi5lFcVYVnV10khlBfTETmILnsgtH64uFLIw6TmOMTiODozGZc4UqK/LYNzqNOvtLkJP7DBrO1WEqMIm5eT5UmBHOIy6CtQXiPAJz2gG2xl1Fos/nFhCYjx4z/FgEnTwEHTTcORQDmEdALyPavHQaDdBp9MQT+LfcafSnf4qmlhZcDtD5ozl1pIMmmpBOtOnAVMw4erQCP3z2B/jSl76I3/v3/w7/5//1f+CvP/0pvNbwKvyXfWK8TM9cFvwOzE4LR55w2M3NaHEW4czcDKZjwOxcQDgGedjzvO4wmpudwehAL3IPv4jGxgqM+04Jp9GQpxz81D13aAy7S7DZ44u2H3eKEGwHMegsQf9oGXLzvoHqisOY9l7G1dkreH3+Kq7puDp/Vcw33O1IaA4kOpFiBPNS51PX0fk/uxDym/FXFhYxF5gPzlt8eCDrkXnl73BhLGnDlZPJ9yQPpINJOrREKBxR2u7bGeGQ9WI64IPf70JB8RFU1RXAP9OKce8JjHgq9C8ua/KjdholYUEdZRHKaRQlo1Sy9OOAchpFNiA32wiIp75MchpJ50y8TiOjIyiWayvHjdgSbNgVFK48c37hvOJTVbm9WncwKadRdoypeMahMU/Iop/bv50FAkOOAuE0GnIdRd2p3dix6zuYnvTide7OmZsHz7mREMa8MMppmGsQC1U+fQ2L9afH8ilyskPuyllcWMRV7ibijqEAP8HMQ0/ZNq1+2ebtGoq+0ncrCP1BJ3UIuDgNYHLah7pjFdiz93twuRvg8FSBzl0pQ0a5Utep1y90GnERPuAsRodwGn0fDeePCQfF/AJ3HnDXxLxYDF9duKYtioWDgTtON+78k7vjognFzqQwr1oZnVLJuuZDBr5qxp1G33r6aXzgDz6Av/r4x9Dc0iJ2KPHz6ZwrtflSC+nwtMLsLHd/BMQrl3ztMlbk5+Tgg3/2n/Hvf+938bs8FPljf4XiwgJ4XE6xK2+e5QdmRB2sh79FnF4v4xIFd/9d4ZlNc/NCJ3N32cJsAOOD/Sg4sgvNjVVw6DuN0tVp1DtaikP5T+Jo+UHMuH24NjOH1+cWcG1uAVepu8Vh36RP+xKa8YyiWK+5w4e7s5hvjjuKuOtFvxZxdGbMsJ+0NCGhza4Z7pzZnrDgkYFv5nmfPJLzDEPJM9qy09zhNz+LySk/ikrzUH2sCP5ACyZ8x9VOoy1cjiun0RYyX1WdGAeU0yj1BuhmGPmZ5jTiAopb3Y2OmHAOm2TcM9Zld22uxy4d481ppfMoY51G7jKMeCywha+JbMbYSVUdcsHPkDuMBh35AnQaDTiKMOisRO2p3Xhx59OY8ruxqH9lhl+aMSLUycDt8lyQRQaN91RB1i8WClzg8tUZvsrJV874ygDrFnToiwkuKLYpxJcrxcHgfP2Br12sY467FPl6z9RlHD9Rg/37noXLcwET3mqMeZTTKFVjM1K5ZqfRkdxn8Nq5elyeuYxZnhFCp4XuJLoidt3xlRb9NRPxuqT2CqJwphpeRwzZFWAXb9gtYJ5jUvmbO2Z5oPypU6fEuWAVlRUYHxvHzNR00BkgF/ti/OtjXY55bdxz7AeETFOu40HzxUb86Ac/xA+f+T4O7N2HV8+8DI/TidnpGczPBLDAA755Thr1TArActnuBdal0yD6O8CdRn0oOLIbrZdq4fSfETuNht3pudOoZ7QEB/O+joqyfZh2u3FlahqLgVlcoVOHPKR+5gMvyrL4ahdf2Y8dUp9J52BgZlo47RjOTE9pZRqvTXXIfCrUHKyR+oBjzzivc0wuCNAByK/+aeDrb1P6q7G0tYtK8jWn0XQTHOr1tMQWzgnmVk6jBBmosm8dB6ycRsVFL6Fv6CTGffUY0hc8cgEUydhS97fGCZWJTiPja11WTphkG8jhHEDx3DO3L6OdRjYOIx7Gq8Z0fGNa6kyGPExSvBLoLMKQoxD9E0UYcFSg+uROPPPs1zA40IWJsVGMjgxjhGd6hMHw0CCGogDLGhsbxdjoiCiXv5OFkZFhDA8PBctje42/Rd2jI6Ju1r+dMa73AXlAvoXwZmQYEyMj4uDWU6dP4NBLOzDiOot+HkrqLlU7jbbIYR3qNCrGocPfQW19PgaGejA80o/hoT6MDA9gZGRIfKFvaHQQAyN9YDg8OhzEKMeeBMd3NKCcjA5vDUY4jqlfBgQor9QhPCzYiLFRTa+Mj4zAiInRUWgYw8RofBgZGsZgXz8Gevsw2NuH4cEhUUek8hxj40gcY3CMjcExOorxUY7VQdHPAyP9GBjqxcXzr+HQgedw6VJ18Eyj9HQaFaN3pBgv5XwVubnPYai/DyODA2KO4Twj9fEoaRwdSggj5BExyrEwhOGRQYyNj4iQ8aL8McrzEMb0UNYZzCvLUKHGS0s+DAl9I+dwrQ8pp2MCE0L+J+AY0zA2No5h9jV1ztAAco7sQ01tHtz+c3D66jEqnJ2l4hU17qpUr6dt3jpcOY02j9eqpiRzwOw0crkcKCpUTqNMWyhrTiMu8MvF55o7+0txMOc74hyGwDR39ISe3ROPkyQVeYy7csxOmGT/Tmb7Zdu4PZ/XpINhMutIpCzzmUa7dv0AzfIgbHc5hgxfxxDODeU0SrpzzOg0kjwWDiRnMYac/CJJFU417Mf3fvT3yCnYiZz8PQJH8nYhLHJ24nA0yN2JI7m7cTh3J3JydyM3d7cIeZ0MHMndFWxHTs4uGHEkZxd4f3tit+A7eU/k5O1BTu4eLS6HvN+DvNy9yMvbi7zcPcjP24sjOXvw4u7vo6h0N4Ycp9HD3WjOoqDTSHxJjV9TyzKk6zwbcqbRQAEO5jyJ53c9icN5LyInbweO5LyIIxxfYqzuxqG8HTiQ+7wID+ftAmEewzn5u5GbvycimE7Ly/K3FtQdpDMndxdy8ijLlF99XOfsQm6uFXYLuaZsxwvqkiNHdiLnyC7k5kRXHsdRMpCXtwd5ebuRyz7M3YGXcl/EwbwdOJTzIvbs+QF27/kOLlwqwajnWMhOo604z4jjh7YfF/0EzzOiDciHvQPjpSgu+xaefe4JvPTSi0L/U/7Yh0cIfW54KWcHEsKRF3HoyIvBMnhNuRFl6vGHc3asj5fcneI+40Q862c6hbA8EPw6skOMCzE2xJy7G7k5ewTEnJK7D3k6cnP34qUjO7VxdOhFPP/jb+Pk6TyMu44Hv84pHzYrp1GSF9YRilNOowgMUrfTlwMbnEZuBwqV0yjpC8jUG8fSYVQR6jRqqEVgejItnUbyi2PSOSIdMakKZT3JDLm7iF+SMTq/kll+vGUZnUb9g33YufsHaGyuhnPylJBtnq/DnS9Bx4ZyGqVkzEv+jrnLMe6pxJg4p6ZMvJ427ClH53A5XrmUg4aWEjQ0l6KhqQTnm0s34EJzKYJgmqbisLjQVCLSX2qpwMWWMjS1VaK5rVKEvE4KWitwqaUcjc1laGqt0MpsrRTXrJf3ticq0CT4QF7oaKmE4ElzBZpajqKltQqtAtVoaanCxeYKNDQVo7OvGhO+kxiRO/z4uWN3GSg/2Ya03sUodlhzd2AJ+ieKca5tP165eFCMz4bGYjRcLMa5S2VoaCzF2UvFeLWxEC9fzMOrjQU4e6lIQ2MhzjYWoqGxEOdiQAPLuJifNmi4VIhzFjh/qQjWKMb5S4mB+kuWYbyWcVbhxeZSJAuizqYinG8qQsOlIpwTOrkMFxvL0NhShP7RKox6a6DtMtJeT+MCPPV23sY65MJfq19ry4CjGKPuo+joK8TFpnw0XipFw4VCnL/EuaMUlOGzxMVCnL1QkBBeO58PouFioQDLO9dYJMpkPK8J3pf9JuNUqPEmFj6Qh3RarqMUF5vKBBovlSOIpnJcbC5Hc3MFWpuPoqmpHAPDxzHirsSQt0TYfiPUc+5SDBp2Gg26ijBgeKjIXdIj3nIM++qw+8hTuNTyMh4+ugesAWtra1hbWw0ucHm9xhvqLywHlNMoLHvUzXTngHQcPVpdgUs5jbZk4o/X2Fh/ulWGUQ93GdFpVIGOvmIceOlbeOWVclz2OSF2G/H9/+mAOBuA5wOYEZiehhVmpqYQC6zKsIrjGQgBfrLUUG8s9aRD2unLl0HwPJd0aI+xDdNTU+Lzyl39PXhh1w9woblKfGp12MPPvReKc3akU8NuB0O8cqnyhRr3mtPoqHAajbj4dZticcjugKsSY/7jmJg6jfHLpzDmO4Fx/0lMmOCYPIkg/CfhEPdPYMJvA98JOHwn4fSfgvvyGbgmTycdLNvpOxWsh3WIOMb7tXi2YbuBPDHD5T0Fwuk9CZfvNNz+M/AIvCyuHb5Tos+d/hNw+us0Xc5dRfyCWpbtLjLSk+56gk6jYS6sPOUY99dhYvKUcOrRsefwnYboN99JjPmOC4z7jmOcY1iA1xp48GzM8B7DxFbDdxwOOwhZpY5JPlz+UzAimjrck6eRLLgmT8F1WeI03FMvwzv9KrxTr8I9SXrrxcM57urRdnfTWROq8zdTtjXHkfbgkO2hzI55jsI9eQKeyxpfnL6TYg6Q84FD19GMTwRSvxvLYN/xN+8Z+zFZ/bOty7l8Rszp7EcJz+WXYQfv5Vfgv/wqfJdfgcvPBxLlGHIXa+scF3epler2iOYsosOo31GAIT5UdJZgxFmMYU8Zhry12HX4G8pplIQFvXIaJYGJqoit5QAdR+GcRps5Aaq6ojM+6DASn/B2rz+N5nvKnBQ6egqx/8CTqKjYi4728xjo6cSQOCOgFwO9vRjs6cVAT08Q/T09sER3N/q6u2JGf3e3dXl29cj4OOuLp43bIU9XdxfOnHsNP97xPZxvqsSAqxrDXu1gZsqPdBqpMRfdmIuXT1woj8mdRu7ydSPNVYJ+d6nAAJ/4WYBn22iLgtCQ8fK1hI0hnQ3Ztzsl23bbkB6ps8XiU/zWnUV0GOmIV+5UvgTHNc8j050BVmMw3jhZZiaHQqelk47xVIjD43mA/KbARPtW96WxP7iDhPON21cvvsSYjXpT0RT//M6drJQXfvhEOIT0nUZyl9Gga/2hIncajXrLMeKrVzuNkrRMV06jJDFSFbN1HJBOI6e+06jXcBD2kKvYctESr8EUbb5Ik3C05aRrOiv6Ymnr+nvIfJedC0ruNqrAiKcCPYOlyM/7Dnbu+AZyjzyPwrw9KMo/gMK8/QJFeftRkLsvCuxFPs/diBEFuXujKNuq/vjqi7V92Z5+/SyJvTicswt79v4L2jprMOwhQs9GsZM5K/lknF36TIy3ojE1dMinwAzLhLNHbAk3OYmEI4jOoChh5WRiHPNrOw+5+1AhnXkw4imHETTmJSifdByZ5TQ1Mrr5Y1vSaRVafsmRX3d0l226DpJtoe6MFjKPMTTSaYzP1Ou0GlfeCozqGGOYYr2nySFlUWLzx0+oHtDmGNJNeaLTyOGrxbj3aMp5kWpeq/KTO4cLpxHHh68Cw17uPCrFoKcEA+5iDLiKQOeReKgoX5P2VWDEfwx7cr6pdholYZmunEZJYKIqYms5YHQaFRS9BDqNxnz1GNS3Lka7iElGOjkRmg1l82+ZLhl1bmYZst1mevhb3oumPfI9ZC3UD0H0VIj37Eed1WhvL8S5c3lobKzApUtVaLpUI776wS9/RIvGS1VobDwaOy5VRV2HsS1x1xdPG7dBnqbmGrS21qG9rRpO96uY8Ndr8uHWnsZyEUOZM8sb46zkU8qoOX2m/ZbjzIpGeS/VNEnnjqzPKmQb7BxD4eKZj+WFo8+qvkyLs6JPymim0WLV3nD0pVo+U10+6Q1HnxU/ZFyq22YsX9YZTxgvffHUtVV5rGjcirbw3BUB6dgz2FOJtMeKPsaxTKOcbPW15rzia3LauUZ8gDjurRYPEsPRH46+cPky5Z6ib31dIftMyiod4Nzh3OcsEuhxFqDXkY8+Rz4GHIUYcZZgyFmMQfV6WlIX6MpplFR2qsK2ggNmp1HP0EmMeusxQKeR+CqDnIxiCMUTD23nC3e/RAtOdnxSFM0WY7mzJtqy0yUdn5xYba9l/PrhitbXQ+6yDQtJxjEfwwG+tiZec6jCuKdeO4PBfxoTvjP6OQw8i0HDBONtMO47hXHfyTjBMzrsy7a6l1h98bYz+/LxvA0NPFvmDNyTr8A9+bJ4/905WY8x8eSR41F7wkQDwuyAoHERztgyp8+036TZjkbGW/EkFTRKIy5cGE+96UJfPG2PJk8k+sjPaMpJ5zSkIZvHYLbTF0lGN0vHpErG040+tkciGTRHoi/USWNtq0Wy5ZJ1n3aftAGDZYrzLY8KW9COH9k+BrOdvkgyyvtWfT/A19F4z1OGPlcJep1F6HEUotuRL9DjyBfnGg07isVHO8Sr854a7HzpSbXTKAkLdOU0SgITVRFbywGz06h76KR4h7Wfn+6kgvGUbxo0h4e1U8XoaOFZEEy7mW1LRl2CvghOo0j1UIlLUPGvpy9Dv6tYOI7EgYjCWXcUI94qjHq4TbkyFHQghMGItxLDXm5hjQ3MF65cu3vx1hdr+7I5vdExOuqtxJi3ChO+Wjh8dWK7+oSvGmPeSuE0kjJkDmlshFuwmtNn2u9IxhYNqlTTxDqCRi1fQbIA78fTFubhFnQ7cIGh6Y3MDblos6OP97KBPuPrTMbrbKEv2/uP9Bn7TV5nQ/9Rh9j1H+OzXcdwnh3aRLt43cazsnmlvlu/N8xd555K3TaU90NDyqGUSXOYDTK6HeiLR8f0u/gqWikGdKdRt6MQPc5C9Lg09LoKMejiYdkcx6UYov3vq8eeI+r1tGSs1JXTKBlcVGVsKQek08jldqKg6DB6hk8JJdHnKgUVTPgJa32iSka6bHca0dCgQ8foAJPXjI/GEJGH58pwQCySysGQceShtqNEcxTxmu+4j7srgjDv5OInwc2I911ylm0uK5rf8dYn8oUxgMwG0Xb4PeLRtyXzDCNPBSa8VXD6auDwVou+4dbkfvf6QcxSlhjG4jQy5suU6xCHjclBRkcNDapk02LlhJJOo2Hu5rQAzy2j/uXTQCMYFzT8LBxcdJgMu3ig8kbQEBwUOxK5KzFzEY6+IVfm0iX7hDTYHWaeiQ9LzLYBaeCXBK0Qqf/MZaXjb2HH2Dwc4jyfjm2OpU20U8KNwVTomFjal4y0VvRRfwrQaeRNUwiHFp1aFWHlTMqold2VLTrGijbGZcsYjIc+sRlAdxr1ukrQ7SxEt+4w6nEXoc9dLB5WaTwqw5CvEiP+49ib8y210ygJK3XlNEoCE1URW8sBs9Oo2+A06hMLSy4wNwdc8HBSjrSwF4sfsfDdnHYli36xoLOhj09GNFZ7qHcAACAASURBVMdPJJrWF7Xsn9A+4qKfX+XhK36VGnRnUSSebrjPzw2L1934ylv0iPtT0XHWxy88KKx/DU0cniteK9X6jP1Kh+GE56gAr+kY6nUV67KzLk90ltCpIr/cZA7Fe/B8F15Hsp0rm1GethPHmkY6clLRBskvY8gDS838Nf7mp5Ot2mIsw+pa6tDgAkcudPQwnI7hg4J4kCz9GE05bD91pR19XLBGU046pwm3k4P30rnt0bSNfSQ+Z0+dbwI/A20ng+FkN5p6NyuNHIMb5lRddjOFDjt+SfrsxmCm0yd1zIb+0w/YptNsIMPBV9TtnA7DGU4b+4Y02NFH2jO9/yiD4eij49SKRtoUYt3gKUW3qxhdzkJ0uTTHUa+nGP2eEgx5yzHmO6rtMvJXY3TyJPbnPq2cRklYqiunURKYqIrYWg6YnUZdw6cw5KtHj76w7PWUYrPAJ/JcuEUDpt2sdiWrHipsucPA/AoQ48U7xnzP2AY97hKEwFWMbldRSBzPouIT3FEXdzRVYIwhn+o6S2JEMYadRTFjxFkcYz2yXfHVJ9rIr/wpCOeZ0fEgr9n/cqcZ5YELMyE3ruIQ2aFs8ZVUO1kRzqZN1AfJGnfGcqg3JF/MIccgx6gxfSqupR5g/Xa8HnZqO4xCxrtwEtPos28jy2b/Wr3yxnjeZ/5MhtgNZ0EjHRDs30ymjW0Xjk0L+tin2UAfabCST8aR9nD9l4rxmOwySZ/dPE/Z3Qwdk2yajOVthY4x1p/qa0FfGDuUTrP+DMeQ/oDWyvGXDfSFc2yS9kzvv0j08YGSFY29Yg1RjF5PCbpcRZrTyF2ILncRerwl6POWYpBfIPRXiXDIV6U5jfK+o5xGSViqK6dREpioithaDlg5jQZ1pxE90eZFi+VvpksCuPthwFUs3qnle7VGMN4Ipk1GnSktw+TkoYefRqMRNC6HPaUY8pSiP8yCvMdDhxH7Yx3d7iJIiHgPXznS6uCuEO1zzgy1L2WJunRjiK+/hIPGe+0TnPwMZ7SItCvJrs5464u2XclMN+QqghWSWUfsZRXb9qfW79oODV5TRigvNCDM4D2rPqSTc9BTij4DLHWBSebTLY2ZPqM88iB5zagyOWcTpMm8yCEPuTgWesBmHA7quwjN/RP8bdYVehupY0iHpGv9S4ua/swIvRlBt/PsNuPcIK85P2QDfX029JFO3kvpnLUJ5bOPZJ+Zw7D0JTgON0sXcQxy3MkxaAxTpWM2izbWI3SMTR+mbAxuYt9Tx4rzPC1oJH2kfzP5nYq6OA/Kr++aQ80+yGwas50+qWPMfcffpN1ox/TyIZOOHpfer55SdLmK0UnHkbsYnVxLeIrBdUaft0zsMqLzvoevtPNMo5xv41LrK3jw6B6wBqytrWFtbTW4eOX1Gm+ov7AcUE6jsOxRNzOBA3ZOo253qVAo3HFkRLe7BCFw0WNdnBTQGKbRyEWBGYw3gmmTVW+qygnhk25oDHDBaIa3DAPeMrHDocdbCjO6PSVCoXd5itDpLrSFpvS5xVQ7EJt1WYGTSkQIfhehzxUb+vlONM/CsgANZtt646wv1vYlmr7fVYQBG/BeouUnkt+Wtya+06Awy6b8LYwRg0HJPmNfcuFDWRKyydBdaluGLCsdQ7EgMNBn5Blp36w2sy5j3VbXXCzE0x6WxX7Txtu6LqX+7HZnPuzmCM4ZdIZmOo10qpjnP/mb97Y3ffGNiXjGUbx5qGOMY1CORW08aou2eMtOh3zCcWQjo6nTMZvX7+HoUzomM/RPtutQznNyTjCHG8cgdY5uswmnUSl6PGXodJUIdHGt5y5BFx9Me0rEOoSOI/H6Gs9U9NZiF880an0VDx/dV06jBBb2ymmUAPNU1vTgAJ1GDx89gtPlQH7hS+DraYP+Y+j2lKGbT7N9FSHo8Zaj15Ma9EX4IoXxHV2mTVU7klku+SXBcu0OaSRtvW7yPBRU6BpK0OUuQad4KlCMDlcROlyFaHcVCPA373Ny4FkEfC9/I3hgdjn6XfzSWnjwXIleJz/JGT14yN6gqww8zNQMxg+EqTOe+mJpW7LSisPhnSUYtADvJaueWMsh/yL1qbwv5MxFo2AjeI/9xP6SfcZwxFWOQXc5ejzl6HGXW+a1Ki/d4np1OSSNZpA/PRY8STYNrIN8lv1hFfbF2RaWvXHcr8dZ6Rizzknn33zyaa/fNL6mc/ujaVufpe7W+pD3oikjndNkO31Ch9r0IWWXMpzO/ROpbWy/0jGZ3YfZPgaznb5YdAzHqwRtGdpvPZ4KdLrpOKLDSF9jcPeRcBxpO5PEg0EP01dj5+FvoqntLB6tPFBOowSW7spplADzVNb04AC3FD7QnUZ50mk0eRzdnnJh2PT5qyDR6zuKVKLfexSDYTDgPQoJpk1lW1JRNtvM9tvR2OepRK8JVO6E1h+asud1FxW+cCLRkUSHUqlI0+epQL+nMgSM2xDvrkSfu8IernJwgR0LuNAdcFdgwGWN/iTXF0vbkpWWNFot8hnHe8mqJ9Zy+lzl9n1p4nuvuwI9NuC9kD50V2DQVYERdyWGDLJplz/d44P0SToNIcdDON4kkzbWw/r63ZWW6HNXotddiR5bWPchy+X4H7AA4610jFnnpPNvtt+OPtKc6fSR96TBqv8UfRvnx3SU1XD9l+1jMNvp4xjsFfYYbbLMBeceMc9bhLyXybSx7eyj7Uof7WxtzWDRj+JeJXq8R9HlrkCnqxydnnJ0cD3B3Uc8INvDtx7K0estR7eXZdVhd+7TaGprwMrKQ+U0SmDprpxGCTBPZU0PDgin0cOHcDodyMs/hAvtVWgZLsfF/lw0DuShZbgUrUMaWgZLkGq0D5bACm2DJSBadaS6HakqnzQE6RsqQbsB4epsHioGwTQMmwaLcGmgIASMaxksDvJI4xXzML4IreIe72toGSiCFZoHCtHUXxAbBgrQ3F+AloFCtA4UWcKqLhkXc32xti/R9AMFaJI0kk4LkP6tpIP9JvkZLmweKEITMbgRzGfuv7aBInQMFKF9sBjNg5rssYxgObI8UyjTJCMU7TWVHzbOgjbSy7aY6ZO/SbuxrVb8SVZcM9tiMSbl2GTIsSwhx78I9T6wa0vrQDHaLMD45iyAHX2kuSUL6CMNVv2XlfQNFqON0GnOhv7jGJP0mMNsH4PZTh/7s7m/CE0Zjpb+IrTaIBvoIw3ZTB/lz44+9q2dfDb2FaCxn+uGQlzszceF3jxc6MvD+b5cXOjX0Nifh6b+fFwayEfjQAFaho9i5+HvoKXjAlYeKadRIit35TRKhHsqb9pwYGV1BVNTl1FWXoTK6iOoqT+IyppdqKzdjeq6/aipOyDC6tr9EKjbr/02h7X7UG2Bqtp9EKjZh6qafThqRu0+HGWamn2oqdmHWh28NsJYdrBMWfZWhjpdbL+Zvqra/aiq00De1dbtR13tftTVHUB9/QHUGVBbdwBWqBF9wH5YR3XdPlhjP2rqDwRRXb8fRogyavehxgQjb3ldVbs3iKO1e2GFytq9IHivsm4vjuptqiONFmDdlCcrVNWF1mmsfzOuregzxpE+gm2psUGVfn8z2ruhDvJP8N+av5LnUhYZHq3fCMab+07IbJ0mu5SlEDm0GO9SlozpEr0W7a/RZK28cidKKl5EZdVuTd9YyZRB7qsMdBrpI11mGNtpHDfJvq6tP4BYUHPsACTMbSF9EtW6Pqmnfqk7IPQM+5PjXfYLebmu0w3xMo2Bn0xn1Ccpu2Y9BlSLOYfzjoaqugMg+Ju60w4pa59Bp8ZVh4E2jffrtJEmSR9Dlm9HH2UmrvpTnc9En5lGI31ijqzchcqKnait3Y/6+oNBOd1An2HO49iUekyEUl5twqTbCHKe1+0V2ixGVNbtA8G4WgNC5lqWEaOtEhy3NnTa3Y+1Hmm/MJ+RLqtr0mRHo117tjpe8EP2odkGrdmHyloNpFfanXW0QQ22EuW1RtrBYcIQ3nPeihIh+WKUE9Fvhnoqa/bCjIravSDYnpqavZqtrdNH2gR95nFm+r2hjTV7URUr4qBts+ijnIbQGANt1TX7QMj8IfrKxMcN9wzyJGg1jUMpnwyljBrXSsbxJes3h+x32VeVNXtQUb0bDCtFuBtHa3ajumaPkA2GtIGr61/Cj3f8M4ZHevHokeH1NMPB19x8wH/qLzwHlNMoPH/U3QzhAE/Cf/fdd9Df14vWixfQcf482s81oK3hLNoYmtB+/hxiQdv5cyBazzUItJxrgETzuQY06WAc6+1o0CDaYKrb3Ja0+N2g0WVHH2mU6Dh/Dp0SF86jwwjSniBEv1w4j3YbiH4434DWGNFyvgFGNJ9vANHCfr1wHi06WG+nkSbDtV2b0iG+7eJ5QQdpsQLpa76o8TUT6ZM8jkSn7D/SKOlkXJsuTzJehuHkVaZJRshxQn3Q/OorKNy/H4d37cTxynJNXxhlnX1ENF7QcRFtjRfQ2ngBLXofh7Tn4gV0GdB58QIIxnU2phYdjRdgB6u6jWnX6bsQpI80kla2vZs0XDgvQJ1D3gndev6c0DmCTo5Nw73gfeonvf8ZGvmTqmu2p0Mi2HdaH7ZdvABC0Kf3D+mTEH1l6MNUtTHRco00hvSfgT7SSD5I2kQ/6jRLuUy0HanKb6SPsippNPffuVMnUXxgP/L37Mb5E8fR3XgRXY0X0X4hVO7E3Eh5NSDE7tBlWsq2ORT2C20YK8RhV8j5PWjPcO7TwXmwWQfvB+d4Y9v19sZqs5BmIw+ivSY/YqpLt2Mi0UdazXrfzPuIv6UNadeH8r5VaJcnQjx5IftQhlZ2KG01piWNnedMvDfYMyG2mzle7zMhrzH0Q4h867RH3d8GGzscfbS32xpImw69P2XdUdcXrzwzn6lfo6mTeSRdMjT2n3Etwfta/zWIscjyZZ3R1BVMH0PfUWbEmGs4q8215K9hHo10rem782g/f16slzRb3aRj9LUEbfEgfTqtEcdchPEh88tyGZImodsunsfP3noTK6sPlXMogXW9cholwDyVNT04oH06UfMS37t7B/eXl/Fw+TYeLS3j4S0Nj5b4OzGwzAfEkob3l27DiPv6b9azooPXD22QaHuSmZ9tlHTJ0Ejb+vWy4GMIfcu3dX7fxsNbSwnjwdKyxmfJb1P4/tIy7t9aShj3lpagYRn3l28HwT5mXwf721S/kIE0jXvfQIeRJnl9T293ptJn5L1V/5BOppFjw0gn75E/8p4Mw8msTJOskPro+ts/R3luHnJ27YGzfwDvX7+JBzdv4f0bN3Gf4a0lhIyB21q72f57lP2lZTy6pYM6zgDqvM2CaCPHahiY22KVluNZjGmdNl6vLN/Gym1Nj0o9/oB8ubWk0cd7d+7gEUOOVer5m0t4cHMJD5f0NAZeSH2V6vAR5ctGf8ixKWSQ9BnmCdLAfIJuY3yaXUv6rGgkXZJGjrsQ+jj3ShrTjCZjO2UbI9H3+uwcKvPyUXjgIF6fmhayt3L7Dt6/dUvIIOWQeP8Gx3UoHtxgGiO0tEJ2Y5g/zWMrnB6T9zh+qF+COkYfe8bxR/uJvzeUr+sZliHLiyU0lxft71jqsKOPOjMEITTcwoNb1LvrCO0fY1/p17duaTyw0DWSLjGW5Zg2hrr8y3TGMBytMp3U99SlxvmN854cgxt0jLF+i7FpHAMbrmNNL+zsjfIj2i/scXv5YRpJH8PgfKHP69KOYUjamX6FcyHz6fMDZYD9GQ6hc8RGmyDyfG9Dn94Ou36MhT7NjomTPjlPinEcLX06D2mD3NRsEvKQbY4Fsv9k31GXhOgXw1hkuey/YB8a+j+WOs1pZZkM2R6O/Tscsw/vY3VtJT0WrhnaCuU0ytCOU82OwAHuMlxV2BQekNcSK2tAomC/yfLswtU1IJmwq0fFR+6LreKRHN9W9VvJEFUG08p8MgwnrzJNssI1COdQwYGDeOGZ78PRP4C1++8DD1f4CUjg0SqwsqrLtsU4iCTz4WhJ9r1IbeF9c53R5BFpDLTLfmNZgj9rWj/KePaNvMf7Mo257s34HTV9Jt4Y821GOxOpw9jWcNfmOmRac3y6/ZbtDBO+tXgVuXv3Yf/zL+Cn8wva2OW45RhmKCHkcQV4ZIYup3byGk7f2PFLlhUulO0SYRRzqKzLzAsRr9MZrj7jPVlW3GGU9QVpDEefuY+MZVMXR4CRLnltpsuuD43pZN5owyBtco4IR6N+z5hnRZfDSPTxvrFNxjZHvDbwVtZtLCvStbF8KXdWc7ycy4PpY+hDtkHmM/aTXT0yXqaVeWUYiSbjfZlHhoJGw3wn67KjjzylPgnXh/HQR9pkO839L+MjhWzbaiyyaZoHJU+SHa6uYW1lRRyCrZxGEdbOEW4rp1EEBqnbmcUB8U6qVLpSwUcbynyJhub67Mozp0vH35Habr6fDGXPSdRcrvG3NCSSFa5FqM9Yt7oO3zebyR+Ol1jqoypjevM4Cyez5rRJ+M2nkIUHD+G5730PEwMDWHv/gWbAWsm9UcajpTUJbdzAI6sy42lPNHkEzYa+DfYbDUwapIZ7sj9FHxoXK7oxatXuzYyzo9fcBmM68710/21su/Ha2G67eGOadL02tl2//unVazi8Zy92P/dj/GThSqizyJhe0GS1sLfQQ1tBv7Gt8V7H2+7NqG8z6pD0x1OXzBttGE8dxjxyPgk358l7xjYZy0jGtbFs83Ui5Uv6GEo6rMJgujjGoVX7zDSE+22VP9q4YLsj0EeaRdo46AvX9mjuRaLFuKRkWtFXmrNpbXUVhOZ4Ms7nCVzrZbLc1ZVHWFsjEeovXg4op1G8nFP50o4D4gU1KgTpBIhGwUWbJpIijPd+tPWnOl207aeCNyp6+SRJhhueqJqfsEbxe2VFTBxyAtkQrqxgNcnYUIdholH3tIk8nfggjAopc+bQaHQYrlfltTl9OJk1p03Cb76CVnDoJTz3vWcwzp1G9+5rTw5l2dIwFL/18WK+J9OI0GBkkUaZNtVhhDESto/s2ib7iHTxTw9snYOp1ouxlB+tDo0mXSz1bmbaaNoeTZrNbHMsdUXT9jWATqODe/bixR89hzfoNKIOkWPRXIZt/XYLv0hj2JTPtnyLBaO5bYn8jqXezUobCz0hOlQusg2hlbMhUlykMtPgPufxqHWzSCsX9ia5i4YXdv1hKQ8G3gf5ZJrbZNs3hFZ5o4izm4fCxQfbZi7fYryF0GlOz99pSF842qO5Z8sfnX47mWC8/AuXJp57erl0GKnDriWT4wuV0yg+vqlcaciBDU6jeJSLyhP97o1Ik0Mi98PJl3AK0nmVOHgelignXH3qXvpxIJ5xSiqs8oWTU6v0CcbxPJGClw7juWe+j4nBIW2nEdtgVa5sm7xn1RPy3laEVu2RcYm2h+UE+WLiD+NpwIpt+DS8bfo20Tao/NZyuc358ua1a9i/ezd+/OyzeH1xUVv8CZ7wPyWLlrpsm8vMlvNEk8zskE8jLVbXmS5rVjSZ4zKdRqv2S3snFSFtffWXMAeU0yhhFqoC0oUDGeU0ItOslKaK0/iSLkKl2pG+HDCOlVhaacy32dcrq7h9/QZyDxzEs//yPYxxpxFfTzO2Q9JijON1tH/mfKn6HU17Eqmb5dN4NP8xShqVdBzxOpF60iGvkcZ0aE+y25Bl9Amn0Z49eP5HP8IbV6+uy6lcmCSbf6q85I9xqUMSDRPtm0Trt8pv1SbjGOS1VZpE4qzaoeLW5yrFi428MMubUUbN94y/jemsrmNJa5VfxdlyQDmNbFmjbmQaBzLGaSQZa1Rs6jrUiJE8UqHigB0H5Jixu28XL/NtRbi6iuUbN3DkwAH86/eewdjgIPDgYajsJ6tdqTZS19YQ/HKlxbXYwRdvG8gD/slFuP5TizMseFh+sviVrHKMbY33OlltSUU58dJkzJeKdiWrTGM7ba7pNNq7ezdeeP55vHHtde0cDqZlG2SYrPZsVTk6KRuCrWqPqjd2Xbeh8/SIbOClpE3QwnnAgGjnnXTnA2m0oo+0RkPjVtEXTdvE3B3n/B1t+TKdbp9IkVFh/BxQTqP4eadyphkHhNOIGlZMHlLZpllo5NlWKfR0r9fII3WtOGDHAbMc26Uzx5vzScPCKjSnTcLvO0tLyDl0CD985hmMDw1rh+iGnG1gMgiNxnA011Z0pCLOwlFkdCJF7TSyokn2Ge9Z/Rn7wYo24311HftiU/EsLM/efP117N+3TziNri1excqjR1p6ymKm8c5qfEWKyyQa7WjJJBq2a1vt+i7d4uPtn3SjI972xEv/ZuWLly6VbwMHlNNoA0tURMZzIF5FZLX4iBQnFjxROqbMjI23ndmez8wn9VtxwMyBaMdANPnCjfFo64k63Rru37mD+poa5B4+DK/LhdWHD00HYpqcRhbti+ZQ8qieRFqUHUs+o5PIfB2108iqDbLf7JxGwfuGV9WsytnqOCuHWDRxW93uaOuPhharNNGWnw7pLNr/9s9+hpqqahQXFeEnb7yJlYe600ikjdIeMOsMKdPRhOa8SfktH7hFERr7Jd66jWXEch1vfemeL5p+l2nSnZZkty/d6TbKbzy0pzt98dAUVZ4wusbIU/N1VGUb9LDkrwoT5oByGiXMQlVA2nEgJoUSeYFmuYiyqyMWZtiVke7x4WhMRtvDla/uKQ4kygGzjJoNEuNvc9pEfwN49OCBWGguzM3hvd/+Fmsr+peXYllwJsqDTMlPnkT6S7RPtiJ/OJq2oj3JrjOr6VvD3dt38Oabb+L1a9ewvLQE8WVGI83J5qdVecb6Erm2KjtSXFbUF+eC1Tg/2F3Hossj8Tre++H6KN4yVb7M20kYdZ/FuRbiGIi6DoMjZzPzhBsL6l5MHFBOo5jYpRJnDQeEwopTSTKv+lMcUBzIDg7YGf6MT+afWEisifNPVldW1s9BoR3Fz9fLQ52TWWeGl8XdS+pPcSCtOMDXMldXhaNog7MonoZSxMPpIPM9NSTi4XJsecjjaBFbyfapo5GDbNKHpMUs2/J3ptAZTZ9JmoxhOtIXlbwbHa0cI/pve6lWd7KMA8pplGUdut3IsdJzZh5YpRFxRv0X7XUMtoRtvRlehpm/6rfiQCZzwPxalfF3quii00gsOHXjUSxC6UhKR2MyVUywKZd6U/4pfkhOqDBdOcBxTGSarBr1XLTXifRBtHUY0212fca6I10n0rZg3gjnwm1KG4KNUReKA+E5sLa2itW1FcjzY2UYPpe6m00cUE6jbOrNbUaLnVNmlROxzgv7NIaHHHzQZ4BVHnnf6t52ihO8pYNNd3wZRU7GmUNjGnltTrMVv2VbkhXGQkMidcZSj0q7Lqu2vAjnMA7j4I2rD1nX6hpWVlcFpK4K/l7lF8nWH+Bl4rXxgWo81yu6/pb9ZeQz46h85D3xWybQ4+VPFSoOpJoDlD+OYSmTqa4vaeUbB1As1/E2IJY6jGnjrI9FhCgJY5n6tdTDq6trEBA7yPRrGUd9bAFZtkWx8lZUobArN2y42dgGrX0Gm9WkAxNth8ofUVyi6s9s46Nx+HFVRYfRytoj4TQSQ2yNznJKsfrbLhxQTqPt0tNZSKdRQZM8PpW59/77WL5zB3fu3sXdu3dFePvuXdjhzr17uGvE/fu4awOm3Y4w8oe8vX3nruDD3Xv3cc/Aqzt37+H2Xcmj++B9AUMayds79+/j9haC9cu2JCuMlibbuu/ew92793CPfI2Au3fvY7Nx59593M5kJFHebPvw/sa+s5OvaOVlK8dJPHUv37uHWEHZkli+Q319D+QPQR0jxgN/37un6R8xVkJ5LceOHb9VfPJ1nuKp4mmmyoCw5XQ9QtuFv0mL1ENaKO0ZPWQ6A6inthrG9iT7eqtpU/Vvpnxp9p2Q+/vv464B9+6/L9ZSd+7dwcrKo+BqUuw0Uk6jID+2w4VyGm2HXt4mNC4vLSMwE4DL5YZTh8PlxoTbHg6PB4TTrcPjhdMKbg8c2xSCNy4PnC4PBD+dLow7nYKvvOdwuTBBOJ1aPO/JOJtw3OXCViJS++K5Hws9VuU7HE4QTqcrLBxO8nrzEQt92Z7Wqv9kHMeD7MPg2LAYB9nKozGnE6NhwPtmWPEiRG87XXBQjxt0DHkreE1d79bANAIut9BV1FcKigdKBpQMGGVA6BunU7NnhO2i2S/UHbRthH3jdAk9JX+L0OHAuAFjDgdGtxCs39ieZF9vNX1bydvtUPeYwwmJcQfteK5zvHC6/XB5JuHxXNbgvQy3xw+ffxLvXX9P25a1TdaVisxQDiinUSg/1K9M4wC3G/FvDbgydwVVldUoLa1EWUU1SitqUFpRi5LKWpRW1oWghPEVtSitqAtCxlmFxRW1KC6vQXHZ9kRJWQ0kikurUFxWjZJy8rcG5ZV1Ahq/tbhI1yUVNSjeIrDuSO2L5360NEWqv6yiBuEQT9uSkSda+raqXzer3kj9R16Xl2sIx/es5Wd5NYrCoLi8esPYN/O0hGnKqWM0lOq6JsjP8hqUGVBeUYsyoc9rRD7qJwXFAyUD21sGSminWEHqlQraNeu2DPVMYelRFJXRxqkSodBBsgyDTpK6SegzXV9t9rVsQyrDzaZJ1afNfanmA+33kvLaIORaqKyiHuWVx1FecRwVlSdRWXkKR4+eQlXlCZSVVsHn9WNtRVt2rfL1NPHinvZb/Z/9HFBOo+zv46ymMKiw1oBJ3zReOlSAEycuoOF8L843DuN84xguXnKisdmNSy0eNLd40dzqQ1OrV6Cl1Yfmtugg8rR40bTNIHhGvpHuZo8BXrS2TaK1zY+WNp8IeW2FljY/mtMIbI9VO+ONS4S+eNsSrs54ywxHf7j60qlvN6Mt4fjb1uaHEXY8zV5+RtKnmi4g/RJmHjW3+HQ944XQ0fpvqWcY19LiDaJV/y10czP1lILigZIBJQPWMkBbRugQ2n/CruFvv2YfClvHF7wv9Q91krhmHh1NsKz9YQAAIABJREFUwpakPbl1kG2xCiWNsYTGcraSLlV36mWqmTKvw8hvGcewtXUSLS0enG8YRH5eFQYHRvHoofa0/v1H9/Bw9f2sXmMq4kI5oJxGofxQvzKIAyHv064Bl/0B5B4pQ1PTCAaGFjA8/lOMjP8cYxO/wYTzXThc78Hpvi7g8txAPJD5t2Pocl+Hw/kenM734PXegsdzE37/sgh5zTgJ/jbC7bkJVxqB7TG2L9FrQZ87PhrjbUs4nsZbZjg+hKsvnfo2bFvYR0lAOP563TdhhB1PBT+T0JZk0LMVZVjxUOoV3uO1230DvHa6rgu9I3jpvQUX4w1gPOOcnhtwKCgeKBnY1jLgpC5w3xA6gXrBjOA9zw34fEvCFmAa6hHqGpfrutAvUndTB0mEnV/SzMaRbY4lzBT6VDvjszeNfHN7bkFCiw9dF7m9N+Hx3oTb9S76exZQWnIag4MTePhQ22F07+FtPFi5p3YbZdC6OdGmKqdRohxU+beWA/IT1avAlC+A/JxytLSMY3T8DYy7f4lx9zvCeHL5bsHlW4LLr8E9eRvrWIbbvxQ1RDksS4DlZi/cXLgZwImFizUaWlzUTfqXNaPLfQNe360gxETDycYAl/cm0gXGdiXrOl7a4q0/XH3xlhkpX7g6M+Ge03tTOBboXEgE4RzObs8NeLgAEQ6PUCPMnC+RNmRyXskHsZgx6Agpfx7fLfj8y8Kxz2ump9Of9+VvWQZDmS8TZFC1MX3mAdUX2dkXUh9ECqlLvNQzug7yT90RumSCD8fc18EHZWY9kykyE4l2u/uZQp9qZxLGru8W3L6lIFx8IBN0fNL2X9Lgfg99PYsoLj2DnoEx3H9/RTiK+CU1flFN/W0fDiin0fbp6+ykVJ5ptApM+wIoyK1AS/MExsZ+inHnrzDmehfjbj59vgWndykIl28ZEm7/bShs5IHHfxtGeH234WMcJxLu1OETOu444g4jOpF0iHje0+HmxMTJKM2ca0ZnWDKu46XPrm7yz+tbtoWHu7xsQEM4XN647tnUZdeGdIunYzjePjLns+szxssxIcNwac3lboffkh/UI1JHGEMhu/7loLPaRd3tpgNaGrE0bEMhy9wO/FM0pt9covok/fpE6gS7kDqHcwJD6hex+4gPtrjbSOwaDn1gJsvJlL6W7Y0nzBQaVTsTG3d0GHl8y3BLeJfgMsDt5Ty8DD4IG+h/A4XFp9HVN4IHj9awsrqKNXWmUXauq8NQpZxGYZijbmUAB4xOI7/mNOps88Ll+BU8nuvalmLvMjxeOjvW4fXdQRD+u/ApRM0Dr/+OmFiEQ0mfbHjt1cHr4CQkJyMV2vKEk7aVE4cOOp//jkLSeHDbks9WvFdx1jKZXL5oTmhNzkOvqUuMOoSGrHRgG+PVtcHgVzo2RGaUbCjZiEUGQhbLWTCW7OyK5OrwzZgnVB2p6zPaRBqC86vhITofrGtOo5sYGnwLxSUva06jFWB1VS6+MmCdqJqYNA4op1HSWKkK2hIOSL21xtfTZsTraV0dfnjd78Dv13fA+DUHkdvHhci648joRGJ80IlkdCht5rX/LrwZAA95qJA0HshJ2xwqh1HyHWZmHqvf60ZjOvFC6RelY5UMKBnYChmgo2kr6k12nemkz1Vb0nOelf0iZC/EWXQbLh+hOZ65a3p48C2UlL6C7v4RPHi4ilV5NMiWLPxUpVvFAeU02irOq3qTwwGD02jSO4XcnDJ002nkeVc4jXguBnfGGCfk4JZLufUyDYwE4bDKAIcRnVpGXqrr1Bn2lFvv5DrEkyDlrFPyp2RAyYCSASUDSgaUDCgZUDKQLBnQnUaas0hzGvHYDtqdPL90hE6jkpfR3TeM9x88wsqqdpaR+IK1XIclZ1WnSkljDiinURp3jmpaFByQymoNkE6jznaf5U4jOmbsdhpx15HcibQVocdHx1amIHWOEuWEWuet0WmkHEbrfFEykt68iPRKiOq/9O4/1T+qf5QMKBlQMrDNZMCw00ie8SpfWeOHb0aGfobS0lfQ0zeC9x+sYHV1dX2BJtdh6zHqKks5oJxGWdqx24YsqaxMTiOP6zfw+fi5yKWoXvlSZxpFf66TMiY2x5hQTqPN4bOS5+TyWTiN5C5Oi1DxO7n8VvxU/FQyoGRAyYCSgVTJAJ1Go0Nvo6z0VfT2j+LBg1WsGc80kuuwbbPw3L6EKqfR9u377KBcKiuD06idB2E7fw2P94ZwGlGRRjqvyMNX2BSi40GytsOqcsJurVZOI2UEpsoIVOUq2VIyoGRAyYCSASUDSgYiyYByGmXHcjkZVCinUTK4qMrYeg6sAT6fdqYRnUZO56/h9t4Qn2mWWyyDoclZEenJ+IYzkKyenosvtPErbfEhmjrSJU2kCUbdT44RopxGyeGjkkfFRyUDSgaUDGSZDOjnrQTtulh/m+xAJR9ZJh+qf8M+lIxW3nlYttFp1NNnsdNo61eAqgWbxAHlNNokRqtqUswB3WmUk1MGo9PI5bsF7TA37UBhYWAkeTKRXyCQYbyOo2iVuEqnjBslA0oGlAwoGVAyoGRgu8qAeKjCj0XEie3KN0W30hnRyoBc00inUWnpq+juH8X7D1axanw9LcXLO1V8+nBAOY3Spy9USxLhQASnkfwKlXIaqQkz2glTpcsiWYn2KXSSHcpKhrJIhpRsJOXJtRoTakwoGVAyoGQg/WUgnNNoRTmNElmxZmxe5TTK2K5TDQ/hgHIaKYNeLeqUDNjJAD8bO6ntNrQNeaaZXX4Vr3ijZEDJgJKBtJGBSF9pjHRf6fqtdVrY9U+q+sWuvnDxibQlXLl29xKpLxV5ldMoZJWpfgBQTiMlBtnBAYPTqK3NC4fr13B5b8DpvQUXDT3jToMEDT+pSO1C9Xra1hojqZg8VZkZ3qfKaZQ2iz01ljJ8LCU4f6r+V/2vZEDJgO0Znb7llMxVtvVZnFEq0yYip7KMWMJE6ks0r916hvF8PW1s6OcoLX0NPf1jeP/hGtRGo+xYOsdKhXIaxcoxlT49OaA7jY7klIFOownXr+H03YDDexMu37J2rlEEY1d6/y2Vr3Q6iS+x8Wtsyzp4HYpQp9ES3J5bAh7vUvCgbBnHUKZnOZZ1q3jFFyUDicmAcholxj8lf4p/SgbikgG7M3dS8ar8ltsP1LMWZwylglZZz5bTrMZFXOPC1pminEZx8TPRcWBexxh/+33LGB/6BcrKzqJnYBwPHkI5jdJzJZzyVimnUcpZrCrYFA4k6DQSDiPvLfG1NbcIl+Cmk4cOJ98yXL4lAS0d790UaaXziA4hr0+H5xa8niX4+ATDcxNuzw0Bl+cmXF6tXF47PTfgcF+H13MLPo9WV6KKX+VXjjclAxYyoJxGW2KIKlm0kEW1yMxKWbR97dXmtdhoHSm2i+swOyQSzhPvwl0+XLMKky33so5kl6vK25TxGVFG45VBm/6LWJ/FeEpk/trs+hJpK/ManUTma+U02pRVbEZUopxGGdFNqpERORCj00gqRTqGiAn3dQyP/ALdPdfQ0hpAa/ss2rvnMTzyNpzu9+D0XIfTe0M4i0bGfoXuvtcxNPI2hkd/ge7ea2htC6CtPYDe3qsYHfkZXK7fwuO9hdGxX6G39w309r0Bh/tdOL1L2itznhuY8LyHobFfoq/3DQwPvi2cUHROJar8Vf4ULNSkgZqNIY2saJwqNoufWBdLaZtenWmkdI/NgkPp1BTo1EzntWkuiFWvCaeRqQxzXHDhmeQFdFTyHKFt5rbK34IP1KUyf6b3cza1X/bJVoe+2wjKtoWzxnhPyGqi7Y2hvpC646033vq2UNbkmsgq9PmWMTb8C5SWnUW32mkUcTmazQmU0yibe3c70RaD02hdKS7D5bmFMce7aGqbQ0nJJTz3bAmeemoXvvNP+/DMDw+hqOyccAaNjP8cE5534HT9BqdPj+CFHUdRXHoRZeXNeO6FUjz51A48+dQLePa5PBytuoS+gWtiJ1Fj0zR27TmGfQeOo3/4J3B6bwadRmPOd/DKOQ9+9Fw5Kipa4fReh8t3Sy3ctnDitDSmbbbcy+3xKQsNThrf5btICJN3LV8bYNslzYIOvc6gwU+jKd36I5ntMRuFySxblZU5smOWg2z8reQxefIYy5xg0OOWjiWL17ms5pRN1cOJ0GeiR8wlSvaSJ3vx8jKWPjX1odE2oAwnZIvQlgljj1jJfjLi4hk/idQbT31bnWd9bRS684hOo1HpNOofx/sPgZXV7bTAVLRKDiinkeSECjObAzE4jaiYhXL0LsPjuom2tjns2lWNv/vcd/HE3z2Dbz+1C9/89k589m+/ib/53FPYsasULS1eOBxvwTHxFgoLX8Njj30On/vC0/jq13+EJ776LL72tWfx+S98Ex967DP44hefxvFTvRif+A1aWmbw5S/9CH/58X/AmbMjYteSdo7RkthltPvAKfzn//o49h86BpfnPf2VuCxfqMdr9GynfNLAi7TgiPa+wTlkaZiYFsnaa5jL4mmgy7OEbIXxqaK41l9HteTRdpK/bUZrIouDTMirFu5qTk2lThPzha47eW2sy/zbeM94bSxDxJvmpJAHGcZ720xXGXm2addbbI/Y9r1RDiJcG+Ur2utE6o22DmO6TevPGMeM2Wl0XzmNMnu9nEDrldMoAeaprGnEgRidRlTOVISO8XeRn/saPv2pr+A7Tz6Pl+ta0d7sRVOzGxU1F/EP//gMPv7Jz6Mw7zjGhhcwNrKI/LyT+MP/9FH8+Yc/g+deyMHLr/Sh6ZILZ8504ttPv4D/8sG/xo6dFRgc+AnGht/CzheO4g/+08ew92ANHI5fweu5KZxWbR1X8MTXd+JDf/UFHDvdBa/nBnwxKvN0nWRUuxJcpEgjzeqJXxxxEReNrI9PEPUngExvNGa2w/V2lVk60Lcr7Ypu1fcRZSDCYtSoW231ZLhXcGycLSHtitSGWMdwuPJsytrgYDfQxLMajQimNTmQQmiyqUemsXPGbljIRyhHlqfCBMZ6ku0R9m3Y/jDWF+2DsXDpItVnI0OWOwPD1WO4F5Y+m/rSNY9yGqXRWneLm6KcRlvcAar6JHEgDqcRzxzqbL+CJ7/+Av7qLx9HadEZ9HcHMDr6M/QNvom23jnkFJ7GR/7icXzzqefR3TmJgcFFvJR7Ev/hjz6Kz/39P+Hk2T4MT7wFp+cdjIy/iaO1TfivH34c3/r2XvR0zsPt+DVefXkMf/pnn8aXv/J99HTNwee5Dp/3Nmrr+/DRj38FX33qOTS1e5XTKM0m0uACwGAcB43hFMalynAIaTu//mdyPnHLuf/yPW3rOZ1HNIBMabL5t3HxZ+4Dbdv2HXh9oTCny4Tfcgs6D/kn6KhmXFDeDYvYrYrLZjnLJNrCjYlMkHW2Ucq7MdzQduMi1azzdGc6HepWiEZPbnB0GJw2IfJgWHTGsmCV/RRpvAp+kL5w9Zjp13+HoyESP634Zhdn2TZDm8K2w8DXiOnSzN7YwMMktS8oE3HaLClvl9XuXuN4NMiqncxEEx8yzgzyFC4+mnLt0oQrN9I9OZ7NvJd9aY5P9W/lNErSOjULilFOoyzoREUCgDicRi73dZw5M4pPfOLL+G9//gns3lWCivJLqKruQvnRdpRVt2HXngo89uHP4DOf+Uc0NTswOPw69h0+gQ/82Sfx9A8PoblnBmPud+Dw3cSY+9c40zCKD3/sy/ja119AR/s03K53xI6jJ776I/zFX3wRJ491weX8NcbH38ULO6rxob/8OxzKP4HugQV4vNoOpFRPAKr8yE/cxOSsG1lWr2a5PUtIBcTX9VKwaPeQFlObjYsoXvtoSEkDLZqFQiwGeoakJR/M40Pj0x34/Xc3wCq9OX+6/dbo4WJ6WXzx0e9dht9mcb2e1nrxnbL7YtHAz3crpJIHxoV1SD2Td+CZvAsPn9DLsWsxNtJNtq3aQxmlbqNzVDpIzemYRjpRzSH5IvKzDBuE8C4BmY27/FjHbwJtjJbWIC2Td+CfvBs1gvkMvBZ1hukjc59Z/bbSVWY5yLbfIXaMaTeYcWdYuGvpqEh6GI0TS8xR2oc6gnpI6qMYQvZ9yEOzaOrm8RUx1GFOG099lnmM9qBst84XKdOpllvlNFKrbMkB5TSSnFBhZnMgBqeRVLRO129RV9+ND37of+D3/uMf479/+h/whS98B1/8wtP42899E5///DfwN595Av/tg5/EZx//Oi41jmJi7C0cfuk0/uzP/yd27q3CwPCbmOBX0Xz8GhoPtp7AX3z8CTzxj8+jtfUyPJ7fwul8F8VF5/DYn38eO18oRX//Ii40XsZnv/g9fPbv/hnnmpwYnfi5+Noa25bqCUCVH8pjKQ8ypMHJc6cIp/uGJdzuG0gVPJ6bSAU2tHdDPbfg9W5vcPeh2wCPd0k4VryepQ0OIzqRMnG8BuXcuyQc1T7vLfg8t0JkjrKSChlUZaZmbMfDV7fnJpw6XJ6b4G+PkAPKBXee3YXbdwduuXDK0LmJuwP9/nvCMeoTMq99MVWOc9JO/gX1o+s6XM73gnC7rq/fi6D3Y+2HYJ0Ryo2UzuO+CS/BV9/DwW2gM446Y6VPpE+0TuqipCB07HGu4xzv9dJ5HmoTZL6NxPMIeRbhLVC+Q+wY1w04CRvbxhzP/EmH+6bWBtmWMKHLnYT6Y6hP8EZvTyJ0G8uJ6tqmP6zaQDuFuszvXYJPfHE59ByxZMuv2Wl07+GaOgg7s1fMcbdeOY3iZp3KmFYciMNp5HK9h/r6XnzoscfxoY/+NX78Qh727a/CoQPVOHywGkcO1+DwSzXYt68cufkn0N8XgHv8bRTmvIoPPfY57D9wDKOjb8Ppfhdu73U43b/Ba+cm8LFP/qNwGjW1+ODyvguP9wZamibx+c/+E778pX/BufOjKCi7gA9//Mv4wQsFGJl4CxOu30BboGab8ZL+9MhFNHdesA+GR36Bru6r6OqeR1fXLDq6Z9HWOYPWjukg2jqm0d45kwIE0Nk1m3R0dAbQ3jGjYOABeUJeMxT86ZxBW9cM2rtm0NEVEOjqnsPA4JvC8TtpudOIr6tpu3CSbailojzZVoZ0EgyP/RI9PYvo7JhFW8cM2tqn18N2/Xf7NNrbZ9Deto6O9gCsYEyjXU+jvS0W6HUY+6kjgA4LsM1bBWN7Mnpc6X3c3j6Njo5ZdHUvwuH8LVzuW3B5b2vggpqOo0xbWOvOLp//LiYn78PleA8DfW+ip+cKOK47u2c1CN04jbb2KYHWtstoaZ0U4IMf/m5tnwqirW0KG6DnlWXEFVqVG21c+xTaO6bR0TkTFkwj2hZtuXo6yocdOjpmYIY57QZ+hanfnNdcdry/xZzNtnbNiP7r6V3EhOPXmJT6O4Odo9TnYocWaaFj1H0DfX1voKNrHm1dAWGncE5r76R+nwqitWMKVlhPw/SxQ+pEObeaQ94Xcw3nm0iIo/4NbW6fRmvbVMzYUE4MbYmpPl2/mOuTfAwJO2eE3dLdM4/enisYHHwTbs91uH1L4hXzVOhq6TQqKTuLrv4x3Hu4ikera2m1BFSN2RwOKKfR5vBZ1ZJqDsThNOKTubOvuPHpv/5f+Mz/fAJnXulFZ08AA0NvYGTsbYxN/BLd/VfRcNGFxkteTIy/BffY2yjKeRUfeewLOHTguDj/yO2mY+g9OF2/xNmGMXzik1/DE1/7MZpbfOKsownnOxgZfgs7XqjAxz72JRzJO4ZvfXcPPvU3X0dpbSOGnW+L3Urc/psKhZ9xxv4WLE7EItq3BKf3Bo6fHsKhw8dRUnoK5ZVnUFRxCgVlx5FXUrcB+SX1CEHpMeSXHkNB6fG0QmHJcRQUH1Ow4EF+yTHkldQjt6QOOcU1yC+uRVFxHYpK6nDocAXKj57DyOhPMem7AyvHkXxtjYtTr9h9FOGQzy2Qb+oA6TDi4mKSu0g8N3Cu0Y9DR47jSH498orrIeSk7DiKSk+I6/ziYyAKiik/GgqLee+kNYpPBNMxvcwfbSjrMIaiPtZpRMlJFJWc2jII+vX2xENntPxIZbrC4mMoKTqGosJaFBXV4dCRKhzJPYWR8V9gwvkeHG4ebnw7c3ca8TB//234J+9h0n8P7W0LyM15BSVFZ1BceEyM8ZKSehQX16OguA55RbXILawRYR5/F9eF6nZd14t7RbVauu0Q2vAhZN6TvNHDAtO8GDXPLOoq0OdUWR91dTzILaoV/VlUdhz7DpbgcF4d+gYWMOnnTqNlXc61M+syyWaiXvdTp/vv4DKvPTcxOvQz5Bw5hZeOcD6rQ1FpPUpKj6OY10XVOmpQJOY6znehKCyqQUFhtUB+QRXsUFBQAzsUFdYhnVBYUItYYWx/YWEtYkF+fjViRbTlFxUfQ1H5KeTmH0NF1QWMjr8Nl/cmXNJxlGQbw+tbwsjQz1FS9ho6+0eV0yjV69k0Ll85jdK4c1TTYuBAHE4jbp1ua53Hk9/Yhcf+4rPIK34NrT1zGBj7GYbHf4GB4Z+iur4LT//zARw8WI+hgQU4xn6CgpyX8dHH/hYHD9Jp9Bbc7t/C5+W279+goWEcn9SdRq1tk2L30YTzXTid76C2thMf/9Tf42+//DQ+9em/xz8+9RzONzsw6vwFHJ7rcEnDJckKP5MMoK1sK5/UOL3XUVzeiNyC4+jqGEJf3wi6ekfQ2TOI9q4+tJnQ3tUPI+R9Y1y6XLd19mG7o72zD2aQJ61dfWjp6kVzVw/aOnvR0dGLjs5elFXUYe/BUgwNX8NlOo18G881yjSnERcYl0nH5DJeaXDiYE4dWjqH0dVLDKKzdxBdvUOazHf3o717AB3dgwYMoaPHHu0cKzrauvsRC1gX87YZwLrae0PR0TuMTo7LLQLrD7ZJtHUAbT2Zhc7uAXSzbzt70NnVh4qak9ixpwiDo29i1PErjLneg5OLkEzdgSGdRjzc33cbFy76sGtXBbo6xtHVOYiungH09g2ht4+yNIgOIbOUvwFx3cE4I3pC0whZpbxmOTokP3T6ySc7kBecKyU/ZbpoeWRVV1cfdY1eZwK87mDbhH4bwisNl/DD5/ajvdOPSf+tUKeR/26G7apb1hxG/juY8t3GlHcJA93X8OKOItSfbBBzW0fvAPr6RtHbO4ju7l4dfejp6bdEd3c/egT60N1tj57uAdihr3sIVujtGUJf7/Cmg/XGitB2Mv9g1LDjS7j4qMvvHUFb5xCKS4/hSG4Nhkd/AofnPbh8t/Sz2ZK7M1RzGr2N4tJXldMohmVpNiZVTqNs7NXtSFMcTiO+ntE//DMczn8FH/nU3+PvvvZj5JU24vTZCbxyfgIlFRfw5DdewCc/8SXs31eOwf4ZjIwsIjf3NB577As4cPA4huk08lyHn7uEPO/h/AU3PvEp7fU0bml3uN+B081X197DpeZJfPmr38cf/clf4UOP/Q8cOFiFweFFjDt/BZePTwn0p13KabQlRpt2BsB7KC47j+rqBszNLOLK3FVcWXgdC/OLmJ9bCIu5uXnMzc6lLWYDs9jWmJ217JvA3BxmdEzPzSEwO4/ZwDxmAnM4fvJl7NlfiKHhRUz5dGeLxWtqdBxlyk4j6TTy+G7i1GtjKCx9GZdnrmFu/grmBP0BzM7OCswEApiZnRUIzJI3c5iJEtOzsyCmZgMxQcszi6m5uSCm5+eRdhDtYzszE9Nzswiwf2amMR0I4MzZ83hxdy76hhYw7HgbI67fwOm7lfFOI+7edXFX3QUXdu4qwdTUNUxPzyMwN4/5K4uYX1jE7PwVgcDcAiRknAy1eC0f885ST2wDzM0taLqB+sEOcwuYJWbnRZp5oUvW88l7kfhlVdfCwqKum7TyI5Vhd59ls10zc/MYHnXg2ef2oaPTB5/3emY6jXRnLu0Wn3dZvGZHp9GM/w76O6/i+Rfz0dYzBP/sHC6zXxauif6ZmZmGQGAGgUBAYHYmACPmArOIhPnZOczPzltiYXYBV+au2GJxfhEarmJxfnNwZY72XGwIbRvz2tNkvmfHm3Dx5jLsfi/MX8XU9AJOnjyHgoI6DI28Dqfnt+I8Ru0QeOU02o7L4M2gWTmNNoPLqo7UcyAGp5F8VYOhy72M5rZ5PL+nBo//7ffw5a88i28/vQf/9C978aWv/BMe//xT+Ndn8/Da2VE4nD/H6PCbqChvxH//9NeRk/8KRsZ/Drf3pnifnGcXNbfM4Itf+lf887/kivfJncL7vwSH+zp6B97A3oN1eOwjn8Pjj/8vnDrZBYfjbThc72iHFiqn0ZY4i4K7m8TBke+hpPQC6mrOYzHwOt6YfwOvX/kJri68jsW5RVyd34jF+SsgrszRUJKYx5W59MECF0jCyKOht/2wMDtn2x/kDR1+s/PzCMzzegELs1cwF5jHieNnsH9/EUaGFjHtu4vLPFA3BOs7jzLRaXTylREUlZzB/NxPcW3xdSwuXAH5sUAeiEUWHaUaf4RTlHya0/hEXkWD2fkFxAKWOWNCNPVsVZpYaEu3tPPzC5ojdW4e5y40YfeefAwNX8W445eYcP8Wbv/S+heEMu1hhr7TiItqh+s9nLvgwAs7CjA1tYiZGTp/5jC3sICFhSsgHyQW5hdAzC9okL/n5ufFWOB4CAc6XuOBNs7iyxtPfdHmYbskD+xC2XY6m428kekTqesKdRL7Q+ihjQ9lon0QItsSCMxiaGQcP37+ADo6vPB63gs6jfh6sc9/Dzw8PWgXpKnc87PtdIjyq6jiQw3eZUx56TRaRm/HAl58sRB9gy7MLr6BucXXsbDwBubmriAwS0cRHUbrmA3MwIi52QDm2ZeiP9mnVpjT5wrOF6G4Mr+AK7SJLEBn0dWFRTG/SNtpM8J120zaaJFDY7uY30xn2N+zc6DdERNMfLQrn7pq8vIMTp18DQX51RgauQqX+13tQyZ8gJ1kmTXvNLr7YAUPV1dTv65TNaQdB5TTKO26RDUoLg7E6DSiUvUK4+B5JRKlAAAgAElEQVQBJlw30dx5BaVlTXj++RJ897t78a3vvIAfPrsfhcVncKnZj+HRn8PruwXnxK9x8aIbB1+qx6tnxzDu/I1w+HAhyS8aDA7+DEVF/z977wEeV3G1j/+TL0DohBpTQ2+BJJSEkp7QEooNuIINmOJCDdjGhY4tW3KvuEmyZcm9d1u9bC9qq2KTL7/kC8EB3BuBgN//8567s7par6Td1a60K430zDN3b5mZO/dMOe+858wqzJmTi8IiAkrGSq2FTmdLP8WylU5hKI1Py8LWrT4xaSNTibtc0AxATAFi3OHHegDpsOnRgaRjD6YQNJq1DDuq/xd/q/sb/lb/d/y19q/Y4avHzpodxwWer/fVSeCx+h3NJCVez9QTzKqu6bShlu8eAPQaTxbNAAmBIzLK6rhSWl2LBemL8N5baSguqEel6yjK3V+KU1061mVQpmnJxDSib6ZymmA49yI9qwATJmaipvp/8XHdX7GzdochxzUNq6pm8MhQ3AzgiOBRc0FYA+GwFILZC3xGmAvNp99c3m1xLdT71ZCRmCSB7Mm6mnooVsCK5WsxauQ4FBd9DIt1lyx0ONxJ7GfPP55anfsFNFq23II3h6fC661FZSUZc1XCtBJ2qB/oqfH5wCDKWg3BEkMZVufDAdx9wmgkqzHSQEAk0mfif7+8s79eAvUQ9FuVu7qqSt4hUE/++9T1cOLgPPgNpN8RFm8ItmwQS8bMmDEfq3QrKyuRV1iMN4a+exxoRMAoWUAj8X9JFp3MW7iT1kHxaVTuPoCtm2oxYvgkbM21wlf3V9TWfYy6uv+VvkmYo1VVKK8iw7ASlSbwSAFJ1dVkmzYEn68ax4UaH2r4bUxB2ktNDZoDjRSQ1BzjJh7XfFU+RBoalyOy9qlkr6qyCuEGgq7htBHe5/Z6kD5/AVJSpqKwsB4O++fwyG5qsWUZia4kPo0azNMOf/VffP3tN6KqHYN2iB2VzpqkD2nQKEk/nC52UA1EAxpxO2HnIVgc+1Fs2y3A0JYtdVi7vgLLVzmwaUsVSkr+AZv1M9hspDAfEFO04pJPkJ/3MYpL/gmLfbfYEJNlINt1O/aiuORTlJZ+ZmyJ6TkCm+sQrI79KGMeJf/C9vy/Ia/gbyi17pJd1xwubotKu/rYd/YdFuCJR105+X13Y8LkpZgxMwc1VTuEfbGz7q+iXKkV1KZWf6hcN0Unjsd5BXaEGzeeAIWmlat7jHesDUk9V/ckckxFODg09Q1qfQbTQNhGnBxzdbWqWgC2hRlZeHtkCooL6sSnUUdgGinQiDs+zl+Yh7Tx81FZtRP1dTvBVX3KuZIpJfNmpkC1rxrNBx+qfUZQ7KRoYpXG8XFL+Ud2XVbeqSCZ3stXw/KHSqfh3VS5zO+m2CqJF1PGGwfKPduErIT7arBy+RoMf3M0iot2wmL9tMOARtxgwmbfi+U0TxsxHhXeelRV1RqmljTZVSbFfgaRYqSEilV7aCk2y0RHOG5JntU7Sl2yHv3MIPWcuh5OrJ5RsWKCqWeZRzRBpVdZVY18Mo2GvZ/coJEsfBqMKMq4y3NYGO8e9yFs2VQv5mnrtuShimxCYdLVC7uuvKoSEqorxSxVTJBphmwKNFs1h0pfNY4PPjHxpKmmmGsGMVJVfTcVq+/Zktl/LK4zr6hkxuSSQJU33Fjlp8y6w4mDFzuayotjk8vrxNx56fjww4koLKzToFGQSqh/xqcGNGgUn3rVqbZ1DUQIGilqL3cbsDj3o8yxDzbHPtA5tt21D8VlZBDtlZ01OAhzdw0nVy6d+8U/kdX6ubHNpcNwPEc6M7c6lftcB+B2HYLXc1R2brGTRswtrml+5uBWxvskWB17YXHtg9O/ewd3NdLAUTsCZ37QaPykJZg+MxuV1XWor9+JurqdYsLQoCSGNiEQRUImZ4apg1K84xUHT8Zkck2fHFXVqKysOi6Ul1egsrwS1ZXVErjq1hTwwzJL+k34LGjqucQ5T8CrcaCSHCrwPY3JGifB/tXVyirU+XzIysjCuyPHoDi/Vto0/QHJ1sbuw41YRmQaSR/AfiBBTRvU7mkCGrkOw+bcjXkLcpE6fh4qKupRV7tDvjknu0opVmBRIwDFtAJtXo0OHJvAFvV8rGIpR0v5V1fJqjhX0MvLvfB6PXA6HXC6nPB4PXKOQJEqbwV9fNA8w3TOnA+vM42KinLwmO/ClV76A5GVYZM5kqq3hItN/ZLqN9jGyb6jCQqB0pXLV2P4sA9RVLijw4FGdvs+YQiPHDERld6dqKmuF99lFWQBKOBIgR00T6NJlCmoOgsn5nNU0slEU7592B+z//V4y+H2eFFRUYnKSrI3DHNY8QWk2HV+UITXpC0G0jLSY5rmssXiWAGKRpnpO8iHioqqQDnVezeVF68LO5DjhciaUQfqfnU9wM7zswmDf/M+9YyK6+h3yu8jSfrpKP1IMT2mQ59sBUVlBmi0ydXIPC2pmEYEjTyHA8FdfhQuzxFx+r5l004MGT4OazZtNcwwa4w5C1lG3qoK8TEnPufoyy+UjzqTnz/x+ef3a6f82zHm+WD/UWZgJHDNJONVVUquKFtVYPtjOzBkzThWbcGQxcZAt5LTaOJgWWvptyq/Kh/bhGqTBghngHHS1sUE2zBxJ1tZgjLl9oNqClxrLq6urYUKod5RtQkDNHJgztx5eP+D8SgsqBXQyC06yKGYmxQHm6dpplFbK7iJk58GjRLnW+iStKYGIgSNAiCO6wBs7gOySwzpvgLcCK39oGxfSadyStkyAJ2DcJAO7A8GSNSwnbX5XuN+owMnSGWAQrQ3NgJpxdydhmCU+TnNDmon4EiBRhMXY9rMRaiorkOdHzTiAM5JkkyUTEoiFciAgmhWzFrwexF4prX3mfOsqUW5pxybNm3G0sVLkZ2dg5ycxRIWL16CRYuysXzpcrleVFQs98okXSbwarLvB4uC0jUUASoGzTOUIgWNJL0m8lJ5Rhw3VadibmL4KzGzCOirpIrMkhofqmo4GTacQO+orUV25iK8N4pMo1q4gvoCtmczWJTo7ZZ9DMtM0IhbM9NxJkGjcWlzUV5R53cIXCNOrwmQKqDHDKA0AlbMIEsTx8LaisKHlso7VCzlMQFT5t9kCDGUV5SjoKAAy5cvR2ZmJiZNnoSpU6ciPSMdS5cuRWFhITwejwA/FRUVBgDkT1Py9CtZ5eXlWLd+HRZmLZTn1q5dC7fbDZq4MBB8ClXGSM4ReIpXUOWQ/iaonSnQiP5LGFYuX4Xhwz5AcSGZRrvARY2OYJ4mizUtgEZUdlU/I32D348Oj9X5SGI+pxTM0tIyrFi+AhkZmZg1cxamTZuOBZkLsGrVahQXl/iBmSrJh88I4O8HbCxlFpR7yw2zGj+YqxTHmMZ8Tyq3ZFjW1sHpcGLFipUyhnA8IcgVSoZUnbDcEqoMFhDvDS6fujecuDXPNpW+SpPlzC8o6VCgEcEiT/mXTYNG/r6t0leFcl+VsfGDgBuGA/hGDs7984HAN1XfNigOrmcCeg1zJAMMDQAzflCxvKIS69atR9aibGRnLxb5Yrxw4SIsXJiFJUuWYd36DSguLhWANZbAUaAsTQCWwdcJGtlsdixfsRJZWdkyb/J6vP6xwoda+jzzm+aJP0T//FDVgTlWC44txZyLqMD6VTJrjtk+aSro9hqg0XsfjEeBHzRyUZ/gAnWMd7zUoFFrlNOO9awGjTrW9+y8bxMlaESmEYOAN7JqcySwctNUx2sGeMgqoCIWHMysA+O4MTDENJRNeuP02gkwiYe5V7Kl2Qg0ykZFdT3q6j/GjvqPZYUyeBLQnELGSbO6Hq84eBJPJbCwsAivvvoafnnXL/Hz236OO+64U8Jdd90Nhnv+cA+e7PMk3n33PVFavN7ygLISPAls7reaUEYKEgXfz3Sayyeqa83UvZrkmWOCDAIWETCqMWj4pOYr0OjdMECjRAeMWD72QwS5jgeN5shOLL7aOjEr4yrycaCRAGkN7JxwwCPxgSHOVCN0vG4CrCJtO/yudrsdmQsy8caQN/Dggw/i9ttvx49v+jFuuukm3HLrLfjjH/+IV199FYsWLYLFahHwJzifmlqj/ebn56Nfv374xS9+gbvvvluOCRwpllEw0yg4nXB+xwswUumyDMF9BdsV+wsG+jGprq7EimUrMeJNMo0M0IjMWy5oyDiVbH25f3wVP4Fk+DYDGgnbQWTeAD6krpoCnsM4Tx9JTIMK5upVqzFs6DA8cN/9uP2223HTj2+ScOvPbsED998v1zau3yAgjdp5U551e7B+3XpMmTwFmzZuCux6GfAVFAUQ29KzzJ9OpZl/3vZc9OnVG7/99W/wxuuvo6y0zPBTQ4VVmfOZYsMZdRWqKirFf4tKxwzOt3QcXO/q/uDzrfpNoKTah7z8opCOsDsS02joiFSs3bxNgBz2xeyz6ceLuyZyowHuCuir4c50jYPBcIkcLOVYbgZF1BxBxQRW3G4PBgwYiF/8/Be40z83UXMUxr/61a/x8COPYMjQochZvAQul7sRiBLVfMAP/KpyRBITMO3eowfuvvuXePW111BYUAD67aqqrDT8nfn9nhnmzMebLqv6CGcckH66kX+o0M7E6Zy71lcNj4BG8/H+hxMCoBHBHfbXdIkRS/+oGjTqvKp18Jtr0Ci4RvTv5KyBVoJGBI7Y2Qbovv6dKZqbMAsY5N9qm8pYcyEYGGrudzIooB2yjAo0mrQE02bmoLJ6B3bs+Ct21v8V3PaXoBFX04zVrxYmVc0AF+FOIFq6TybPppXw+tp6AY26d++BU045FaeefCouueRSXHfd9RKuuPwKXHLxJejS5UJce8216Nu3n7CQKisqRREwT8i4siW/Fagj7+PfNciUp5qABYNB5t+8x/zbfCzXTOmZyxD1cQt1bwaMeCygEbcfbwQaVaG+pgaLMhfhnVEpKGqBaZQM7aEp0Ghs2mx4y7klc2jQqCU5TKTrTqcTU6ZOwb333ovLfnQZunTpgiuuvAI3/+Rm/OxnP8Nll12G888/H5deeim6du2Kjz76SEAmAVjE2atheka5IJNowYIFuPHGG/G9730PJ510Eq677jqkjU+Dy+UKgMIEmLjqbA7BMtbc77aov+C+wty2xPktQaOlK0yg0b9BB9Iy/hE46qCgUXllJRjoz8Xo3xsYdlF/Fz9QunH9ejzX/1lc/qMf4cIuXXDTjTfitltvxe233oqrr7oK555zDi675BI8/9xz2LhhgyijZOa5HE4szMzEU3374d4//hErli837dpEJ90+1Ckn3eJ0mI6HGwflkJhx8LXg30yPTqLrKMP+3Zu2bdmK+++9D9dcfTUGDhiA0uJiMWE0nm24z3B4zN+Gk2AxdaTZZqXhEJvp8RlVZnPe6po6x9/irNoPiKmytAR2hX3d/55cENieX5j8jrD9Po3IYue81e09KrHLeRCbN+3E0BFpWL85V+YrAmqQDSq+ibhIQtOqppz2+8f+SMflZsZd5ssysH/u1q0bTjnlFJxxxhnSD197zTW45tprcPXVV+OSSy/BGWeeKXGPnj2xauVKMR1mu+DzofrR4PPym9+aAIz/m/Mc27OUo6lFCT/jM3BfdbWwTLlgcNaZZ6JX717Iz8sLyLq5jTGfqPuLJp5ln62AfRXTnJibmijQaPbcxqCRWEBo0Cg5ddgkKbUGjZLkQ+litlADsQKNOAD7Q0sT5UhAIzKRmgOKzNdayldfj5MSEwZoFDbI0cwEKpaTC/OqK2nLxUXF6NWzF75/0vdxwQUXoHev3hg5YiRGjRyFN15/A/2f6Y+777ob5517Hn54wQ/x5JNPYtvWbbI6zJVdTrTUCi93/OBqOU10aMLDoFaQeZ9Mrvy+XXgvyxJYhRYlwieMDFnBFr8px2+XzGvmd4jFcaT1KxNprsIKbb8KFTyuavBp9PbIMSjMrznOPI1t1mjXib89M/uMcEAjTq6pVJmZRpHWZ1vfz+9HeST7JycnB7///e9x9tln45JLLhGmERlH41LHYfz48Xjp5ZeEaXThRRcKeEQFZtmyZQIQKdYQY6ZXVlYmjKRzzjkHJ598Mk4//XScc+456PdUP2zZskXahTJP4/3mEEkdKEZQXGI/ECbtqgklUDGNVi5dgVFvjjaYRraOAxpR9u32/U36NKqIMWjEuq7wepE2bhxuvOEG/OCss4RpNPqDDzF92jTMmDYNr7/2Gn5+++0447TTcNWVVyJ17Fh4aS5ZWYnt27ZhwPPP46ILL8SPb7gRS3Jy4PPvSiax/5hgC5Xp6spKVJSXS2xske7Dzvp6A+SpJVvBUJ6p5PLecq9X0lNATyXNMxVzgop1VRWKCgvx7jvv4PW//AUzp0+HzWKR9PiMYlpUVVSAgA3LUFleDo/LLWmzDLyHQZRpAdGqRdnmtcryCrmPrCRfVbV/hzojXfWezCcegeXtSKBRYC5I1wreI8bc1Q8aDRs5XkAjY/GH36kBNFIsI/NOjzRRO45lFAazTo3Z7PMCII30Ow07rrGPqa0lC9SGbl0fwcknfx8XXtgFPXv2wPDhb2LUyBEYOXIEBgx4ATfd9GOcesrJuPSSi/HWW6NgtVqEJWX0Uwbb1WCx0i8S5ybl8m41AgzRPxt9I9HkuFJ80XncrsA9PCfPmsrH5xgqK8rh8bgN/3XlXklj/fp1uO22W3HKKSeje/fHkZebG5BXBXaq9hVJnx/OvQKqhtjxtQE0cmLOPD9o5HeETdCIDCPNNGpBX9SXo64BDRpFXXX6wYSqgRiARvR9EBiEw1hZ1aBRnMCbMOo+ku8U7r10cm5z7AYdYTfFNEo00Mg8+aDSSl8tPXv2xIknnYhrrrlG/LgUFRWhuLgYjKnsTpo0Cb/+9a9FEb7iiiswceJE8dNCpoRatSOTYuvWraKEUxFftWoVcnNzZaWQ4BHzdbld2LZtGzZs2ACa8ZCZocrDtAg28ZnNmzcHnj1OMfYrteq59ohbAo3e8oNG3NLYJeBLCFPTdpLZcGWb97UEGpFdxu/Pb9Qe36E1eVL2LRYLnn32WZx55pn4wQ9+ICva8+bNE9nnCrfD6UBeXh5mzZqFBx54QEAgMo6GDRsGr9cbeG++P9NbsWIFfve73+H73/8+rr/+etxyyy047fTT8POf/xxMl76NDIfaRn0pkzU+Kyvbfv9KzR5TCfevcMclDgM0otlKTXUVVi9dibfeHI2CgnpYrAZoFOmYGIk8xv1e8U3oH6McB7ByhQPKEXatb4c48aVpWgV3jVKOfZtY9W9KNvmtgwPBGZvVildefhnnnXsuLjj/fLz79juwlJaJfyKCJbnbt2P4m28K8+gnN9+MoUOGyjN2qw2ZGZm4/777cOopp4Ls0EkTJmLL5s1wOhyo8AMuVosF27ZuxZrVq7GEfuuys7F61Srk5+aJ4ltfVyegDdlDDASFSktKsGbVamQvWoS1a9aIqY3dZpOy0ESOQBHBJ97L88uWLJV0N2/aBLfTJecJOG3auBGbN2+S5x12u+S5csUKZC1cCMYlxcWSjgBarFv/YoPH7ZYyL1+2HDmLsrFh/XqUFpdIXgTKmG5JUbGUm3UoAITJBC6wINHKc50JNNqwJc/PGKaJcPOg0XGAEUHmCBa/CMgpoE/AS3+/wnyrKrngRLmy4pGHH8L3TzwB11x9FcaNTUFBfh7KSikHVmzetBGv/+U1XHLRhQIcPf7Yo9iyeRNqfNUoLSnGpo0bsG3rFljKSlGQl4ulSxZjxfJlyM/LlfSZB0GikuIibNywHksW5yAzIx2rV61EXu522GiOXFEudUFwiWVjXFHulTRWrliOnOxFWLVyBYqLCrF2zWrc8rOf4uTvn4SePXoI04ggEd8zkUAjtXuaBo0SSivtkIXRoFGH/Kyd8KU0aBQR4BX3CXsSKNHBdSA729m/SFrQiIoNnf/26NEDJ5xwgoBGNK8JOPr1s4LIoKCifO6554rJzVNPPYWSkhIxr6ESTHBp+vTpeOaZZ/CnP/0J9913Hx599FG89pfXkJWVBavVKoouAaNXXn1FQKq3335bgCMqzgSMqEgRMBo+fLiwmUaOGont27cHFPOmlLD2ON+5QKOj4tPI4zoYcIStzNOSFTRSSvuaNWvw4x//GN/97nfFpGzy5MliekaZIiCjQB0CSCkpKbjyyitxxplnCIBEmec9AvD4fHB73HIPzdlOPfVUPPfcc3jllVdw/gXni8nbG2+8IWAUn2H+jMUxNtkVIYCE5s61hcw3xzSqrfahzleD1ctWCWiUn1+LUuunsquoLcKFlOA+tV1/NwMa1SjQiKAGTdOiZNeF+q78nharVVhq551/Hs486yy8MGAAVq9Zg5LSUnjKvSJfBNspo2PHjcOChQthdziwcuVK9O/fH1ddfRVOOPEEMeGhqeWLL70kz5dXVEj/PHnKZDzTvz+6duuKe+65B/fedx+6PdoNg198ETmLcwTQ53vV1NbKjn9r1q7Fm8OHy/1/vOcePP744xgyZAhmzpqF14cMAU2BRo8eLX07mVf5BQV48aUX8cQTT2BcaiosNht4PjcvT96lzxNP4IPRo/HR7NkyLpCx98d7/ohujz6Kd999F+s3rBdn9BxPWA6ny4WMzAw80/8Z3P+nP0l5n3jySYweMxpTp01D33598WTfvpg+YwY8Xq+UW9oV226MQ2cBjd4cOQHBoBE3eagy+TMi00g5wTabrAaOYwgaEawhMPTwQw/ilJO/j+uuvQbTpk4RkIdgjwJvCPLceMP1OOmkE/D73/1WgBuCTouyFuLJJ/pg0MABSB03Fm+8/hf8+U8PCAg1ZfIkeD1uSWvN6lUYM/pD9Ov7JB5+8M+SRteuj+DFwYPw0ayZKMzPE5BI5UmQiSDR0CFv4NFuXXHvPX/EY492w/A3h2HixAm4/rprBTTq1bMHCvPzBczUoNF/8fW334iieQzHOqHC2XlfWYNGnffbd6w3T2DQKBLTNJq8tOtEuxPnb3fsg9X2GcZPXIzpM7NRVb0D9fUfN/Jp1CLTyETnbgtl0JwHwY/8gnwBjciOuOGGG5CdnR1QlhUTiArunDlzBFSigv3LX/4S69atE8WXgBKVhzvvvBMXXnihpHHbbbcJ04KsJCoHixcvFiCK7KJevXqJGRydBBOgUko0mRtkY9AJ8cUXXywKFIEpc3kT5Zj1JspNE+ZpHYlp5PF8CTcdYnPnRsfnsntasoNGBCkpd2QQnXfeeTjp+ycJ0Ll+/XrDhIzAAE14/Ay5uvo6EGAii4h+iq6/4XqRaaah0iLgSTCVrKUf/ehHmD9/vuzCduuttwpD6c9//rMo+GTTiXLrB42YBoGnUGBCU+faoh0oE5JQcW11Deqra7F66Sq8NfxDbM+tREnZP2FxGaYOzfn1S+ixqknQaAcM0Mgn/lIUmBjNdwj1Tfn9veXlSE1Lw3XXX4+TTj4Zl195Jbp264Y3R4zA9JkzsXzlSmzdvh1lFgusdruAKm6vF5kLFuBXv/m1+HX5/77zHfzP976Hiy6+GAR6srKzUWqxYMLEibj9F7/AxZdeih/fdBNuve023HTzzbjwoovQ5cILQUBnE80nubufz4cNmzbh+QEDcOVVV+GCLl1w/Q034I677sIv7rwT99x3H6674QacfuYZ6NWnDwqLi+W5dRs2yPVzzj0X/Z56CoVFRfDV1oLg0623344fnHMO7vrlL/FI165SXp67+JJLcPKpp+Lqa6/FiJEjpay+ulphci3KycH9DzyAs84+G10uugg//dnP5B1+9/vf4w/33CPluvjSSzBi1CiwHpgXg3nziVgdk1XWUXwaBdqf3zxN/HL6zdPeHNUAGhmsL8qDHzQSVimZpf7gC/LRGMU8RjHDlMmiebMEgj5ksTnstgBodPXVV2Hy5Elwu5xiClbu9ch1AjVXXnmFAEt/euB+bFi/Dm63SwCcLj+8AJdf/iPcffdd+MnNN+GKy3+Ea665WsAgmpZt2LAegwYNxM0334TLLrsU1157jQBQF110IS679BL84fe/Q8qY0cJEYplolrZp00b069dXzOEuOP883HD9dbj9tttw55134P7778P5550r5ml9evdGgR80ElaVya+YmGFGyFJsqb9hX618Gam4sU+jBvM0zTTqWOpsIr+NBo0S+evosoVfA98CLlc5xqRMwfr1TpTZdsHq2gurcx+4WhpyJwH/zjBCwY9ylxgxUXPRX1Fz4XhzFrMPI/NxYBLQicGbNq8DOkB3H4bdsRdl1k8xfkIOps9chKrqetTX78TOuo9l61NOWhVopAZxc8xBvqWJQDyvm0Ej+mAJBRpRqWUgmHTzzTfjO9/5jjgI5go3lWoCP3fddZewK2iOw1VjOgsms4Lp/fCHP8SgQYNgs9kkjBkzBhdddBF+2OWHci9ZHFS8ef31118XNhN3rWIaTF+U6hhPrlpbpwo0qvLRGa6xwwxXx7mauDAjC6NGjkFBfg06hnnal8ZOj9wx0g8apaTNhqfc2CKbCm8ifqOmvrFS2j0eD4YOHSpye9ppp8kuZ6WlpQH2D4EBpqHejaw3OsI+8cQTBfQk4KSuEQhasHCBAKcElWjKRrM2mmuSEUEg6dprrxWWCE3UWAamT2BK0khA0Kip+uP5miofyp0eZM1fgCGvj8SqVUXIK/orytz7Yfck/+5pMp6IeZoTI0dOQnk5QSP6/IkPaER2D3eKWrd+PZ565hn86PLLcfoZZ+CUU0/FeRdcIEDSPffei8EvvYRpM2Zg89atIIOIYMn6DRtkl6Zrrr0W3/nud3H2ueeiZ+/eePe997B23Tps2boVz73wAq68+mrceffdGD1mDNIzMzA2NRW//d3vBGy69vrrkZGZKeCP2+MRJtNV11yDM846C7//wx8wJiUF8+bPF4Dmtttvx2mnn44TTjpJ8ikqLhZm0Jp163DLrbfi5FNOEQYQQaPa+nphO/3kp+INInQAACAASURBVD/Fd7/3PVzwwx8KaDR+wgTMnjsXT/fvL6AQga4HH34IW7ZtQ21dHZjm8y+8IMDUueedh8e6d8fEyZOFYcRnLrn0UnzvxBNx7vnnY/iIEfCUl8uOWS1tYx4tiNRhQSPPEWMzlxZAI+6cxk0PgreYVxt8cI7TXH8R7jWOq4FQVSWMN4fDgYcfeggnnXQiLr7kYgwZOgTZOdlYvGQxli9fjokTJuCee+8RBigXAF568UUUFhXCW+7FhAnjcfppp+EEAqkXXYT7778fA154QVigW7ZuER90b739lmyAcP555+G+++/DsKFDMTYlBU8/8zSuv+46cWj9m9/+Rswu6QupsqoSEyZOEGf1dMz9xz/8ASkpYzBr5kyMGDFCdtv83gnfw6mnnCILZASNCMBJv2lmlMZhThMKNOJ8k8ARzfU83gbQqKCgFg7759DmaeGrjPrO6GpAg0bR1Zt+KtFq4NtjAhqlpEzBhg2uAGhkc+2PuVO4Ngc1NIAUX/aVGTSy/AvjJ2QLaFRZXYcd9Tvxcd3OAGhkHsg5eKvAwTzcyVS87uMEzcw04k5P3FbcrDArxXj5iuUCFnFXqJ/85CfCmuBW5TQnowNt7jD15ptvigkOJ3r0hfT0008Lk4PMIz5PRX3p0qX47W9/ix+c/QNhOPE+5kHmErc2p/NgspPI+mA5KioNf0jxqoNo0pWJLf090PdCEGi0IDMLI02gkdt92ABdghzbJ0OfYPg0MoNGXwjTKGX8nABoxBVTOjuPph7b4xkCNsyXYOWrr74qzCGCRi+88AIotwLmiPNTg/3Db01whyy5xx57TO4/66yzMG3aNJFb3k9GHJUZMu3YFqg80McX83jv/fdw+eWX48yzzhRgSrHnyFTjs8GgUXvUSaR50jHxhtVr8faIkXj+2UFImzAX6zZ7UezaDYtrf3z73niObX6mkSzoOA5i5QonRoychIqKnajxGVvH83upEGm98X4FWprj2rpa1NXXw+31CNDz8quvCKuNQBBZQ2f94Ac49bTTcO5554IAzAsDXsCq1auFnUSG0uo1q/HnBx/ECSeeCD4zd948YSIRWLJYLQIIEUSiiRqZoTSFW7d+nZiNnX3OOcI2opkXFW2amdHsiyZy3KGKLCWrzSrMyuKSErz88sv4YZcu+P7JJ4PmYqVlZWKqR6bRz265RUCjvv36gfcSAKKJHcv8vRNOkHjylCmyQECTr7Xr1uKOO++Ua2SeEgTg+cVLloDgFJ/55a9+hYWLFsHmZ1fxve+7/35893/+B2Q10YSOdUDgzUczKp+vkb+pWJiqdVTQiDuokWkku6dt3IHhJvM0M9OIoFE161fmLI1j7g4bj00Q2Deyj2Q/+tBDD8lulJwbcEdLblzwq1/9CpQZ+o5j30qfdGSCcrGJ8wy2tQkTJoB9O1nUf/jDH2SBiwsD7MtpTkwfdDTl5M5s3PGMJva8zgWsbdu3yfjAPp0LX6+99pqYLtPUvnv37jjl1FMkb+bBcYN9PX3kDR48WMrCRTia/TMvjiHBbT+avqOlZzjXDJgJ+jcxUIuUwaBRfn4N7LbPBDSiDHCRPORCeZT9rdN1AAUF/8DEydnYnFeCI1/9F/899i1omqbN0xJNGY5veTRoFN/61am3UQ0c++YY3K4KpIydig0b/aCRcw9srgMaNIpyoEgGRTgmZYwCNFJgkYoTDTSiiQ7ZEPRBxAmbmqAoBYlgD/2/0PcRGUdkGilzM/pwoUkZlWU+v3DhQqSnp4uTYU64GKhkkzlEpfnFF1+Ucz/96U8xe/ZscRA8c+ZM2d6cO1iNGsUdUAw/SMpETpUnEeKWQKMRBI0KalHuOgyv6wjcbiOYzU5jIodxbqchQaOFeQgGjbijEen35pAI3ylUGRRoRMWCfro4uafSQH9cnPQreVdKC9PgOcU0ogJC315kGlGpoUzTdI2+vJgO29CUKVPEPxeZRjy+5dZbhKFE8JRO4gMMI8VkMjGNQpU50c7RbOSjmTPRu2d39OjRCy+/OgLZKwpR4NgFi3NvBwGNDmHlSlcj0EgACAUatcIhvxkwUsf8xpQnstbYr5LZ+f777wtA9OCDD4qyzD6WoH2XLl0EvOFmBXyG91NBJcvnqquvlj5YyS2ZEQT3KYvc9Y/yR0WXPuWUwkx5JqBEBX3t2rX4zW9+g1NPO1UUbYL55RXloviyzbCfpqLOdtO3b18BoJgXQX4q9BwLaJ7Gfr6uzjDrZD9PBh6ZHmwrbDN8byroD9JfzSmniLN4jh18f+bB3QqZB00+yRzhMywHFXouTpCFxV0KeUywS7Vr9s3ibypGzvn5zTuqTyOypTkORQsaETAieyteoBH7XTIzCRpRfhgo+/Qtd8WVV4Dm7wxkOD/88MNIS0sT/12UBbKXufslgSYCSgMHDpQFLfbrak4xbfo0MbnnPZQz9vF8ljLIe8iipnnxyaecLLtqsg0x3HHHHVIWAlGUZ2m7/nRnzJiBy6+4XNoB22Refp4xpvh37GT6Slb5XCxDJKBRXp4vCDQ6HDfQaEteCY5+9Q2+OXYM3xI4OvZtG2l5OptEqAENGiXCV9BlaF0NHAOO/fdbAY3Gjp2KjZvcBtOIoJFbg0bJoNC2axlNoFFp2SdIm7AI02YQbKkT8zRhGtXUymSTA7kCisxxwoFGJ52Eq6lwLMqSSY5MhPxsCDWB4mSIPo24GxSViU2bNsmETinS9NtCn0Xcja1X717icJXsJQZO4DgZo+LBiRUVCSoGf/nLX0TBpuNgTt7oLykzM1N2p2IZOHGM5cQqFmlFCxoRPFKmpe0qv2GCTU6CXZ7/COjlIpju3I35C/NDgkZqFxzG4qMixhPiWHw3pqEm7ZTp1LRUkDVEZYTsNsV64z1UoDnhV+wjKgdkwvFe7qBGGaUCwusEhqhI0xExWUV0TEwn2C+9/JIo1tded62ArVR4qORS8aVSE1Aekgw0ovI+bdoUdOv2sDgyHvTiG8halos86z9R5tiT/KAR26mjATSqFKZRvfRDClRsrTwqOVQyQOWYO1lSBqmYsp8kiElfWWTgcAfLfv36CZONfTB9yK1evVqUW5pC0lE1AZurrrpKQCNVTqZDsIggERVjsiSoYBPkZB9Mc0ua9RDUZ//MxQClKHMzA+ZPWaWs8zrlnuAQGRwCGlksUi9kLjE9loH5BINGHCOo/NMsSNUdGUzMg6AR82TabHdp49Nw9jlny3gwcNBAWUBg3gIclZdj3LhxYvIZEjRSoF4Mxw0NGjVmGhnsIgMwaivQiPJDOaXsku326muvijn7yJEjZTdX+k1ke6GckrkXAI3OOF0WqEa9NUrYQOz3eQ/HcJrKd7mwi4CPZBLxebZHXqeMbty4MQCsktnEOQ9BVco/y8M2tHXbVrmX6VI+CfbeeOON0j569+4tZsqqLQa3edUOYhVHDxoRMIojaJRfiiNfa9CodUpr8j6tQaPk/Xa65KoGNGiUvBP7MBXeuCrlftDI5tgDgkap47MENKqoqkV93Q7spHlaTS0quT0rt1o1maWp40QDjag8CGiUlSVl5kRHTZ649fjYsWPFPIIr3TTT4er25s2bxc8LV4SpEFOJoLJMsx/6J+IxJ2MMBKM48Wd98LnuPbrjnHPPEf8vU6dOBVkYXBF8/vnnRVHhJCxWk6lYp9OZQCOP5yu43UdB0Mju3IP0rAKMHT+3kXkamUbJAhpRFpRiQGYDV63JniMQOnvObFHWKfsEibhbFAFOyivZGWTaUdZ5L01rKKNUqimzlF1eo2JzzTXXSOCOVlwJp8kaFWMG7lxFVgZZGFRsYi2bbZGet8KLydMm45GuD8ruWgNffB2LV+ajwEbQaHfyji3KPC0EaFRbUy+KJpk9lI9Y1LNSIpkewaL33ntPZIlMS7KIBCihQ+CKClF4yRKiGQ39yrGvJqOT1yiDBI0I5FD2qLgyTconFV/KJ0FN9rFk1DF9Ksz9+vUTuaV8sg9mfqtWrZI8FMjDhQH1rmqzgh/fZLSDJ598EmWWMqkXKtRUpmm2w3RDgUZU+Ddv2RxIz+6wG6Y+p5wibJGMjAxhlrCtsR2xDP2f7S+MJL4LxyOCSjSJ5gKDBo1asQmKfw7DeVKkTCPFMFI+otqKaUSZ56Yb3IWVu75yB0sCPZQJtgMlp2xXPFZMI5qY8TnKN9uvgEbV1cJMInvv7LPPlrkKZZnPse0wcAygKRzlkKAR2wLHAm7Wwb6eoJECQSmfDGx7bINsi1xA4zyJ8wWmq9q7Kp8qb6ziaEEjminGGjRyOPejMN8wT9uiQSOleXbKWINGnfKzd7CXPgZ8+99vNNMoEQCYZCxDM6BRHUGjWjpOrUkq0IgMCk52qEhz8sMJFpUEMim40s0VYaUUv/POO6LEcOJGJYRsDTIsOEnLzcuVFXMqMpxAcUc0rgLSFIFpcoJEZeH9D94XczTuNEXzCyoAZGRwRZ3+AThpi9VkKtbpaNAo+UEjyheVD8re6WecLsAOGUJUmun3hcwLKgf0k0EWHO8jMETfXfTVxXsoz5RxsuMICFEx5309evYQth0VeTI76ECbCjXbz2WXXSYr41RyFNtIKROxltN4pVdeWY7J06aga9eH0bVrNwx+aQhWrC5GqZindUymkQKN6McslvXKb68UVMoJHfYS3KHZLs3KKGPsj8kYYj9MPy4E7sneVOZcNKuhrFEGFZiknqGpF2WPffSzzz6LDRs2CCBFdhI3KyA4Q9Bo4qSJongTZFKmlnyOu2ZSKWc5qKTTBJlKOIHWJ554QtoBy0/QiGwhloGLB8GgEccXMo02bd4k78v3JruK5Wa7YF4EjZgPdx4kY0rYHH/+k7RJ3svxiOVT76pBo1aCRvRp5AeNtmzaiaZ2Twv2adSWoBFlj3JDGeHGGgTxPV6PyBBlXAFAqk2qeQNjBRrRPD4lJUVki+cZ+BzljGkSgORCGGWYMsZ0uVBGH0fclIPsObVQxn7/vvvuEzm/8647xQckzSMptyzrxIkTZYzgM3369BFwi2VTfbyKVXljGWvQqIPpqR3kdTRo1EE+ZKd+DYJGX2vQKK5snGQEg8ItcwcCjQj8ULHlBJ0ADv1oEORhoLkAQRwqATTJ4W4hv//D77FylbFzGs1sPvzwQ2FrcLWOK9pkURQVF8lE/+VXXhY6OVlHVGw4USPDgn42lixZIg6xuSJHnxpUKrh7CVf3OGmL5WQq1mm1BBoNHzkG+QW18LoOJbdPI/cRhMs0MvszSlTzNOO7VcsEnooDJ/lkNVBh5SSf/ojoEJv+iniePl+oxFOppnxTUf7ZLT/D1GlTRbmgIv/BBx/g0ssuFeX7mf7PiKN3mizQxIisCjJIKNNk2zEdKj9UtmmKRAUiGdlG3soKTJ4+FV27PoKujzyKl14aijVry2B1fgarowP4NGqGaaRYA7HuUygP3GWSCi5326Op7+TJkwUooskY+2Ka5ZAZwb6SDAgCQIppRFYDARsCOvTtQtCeIA+PyaZj303mJ88RwGf/S0WYYBKBIyrY7HfJcKKskjlKee3Xrx/mzZ8nZms0G6O/I44VCjRiWmRvsN8n2MUy8Bmer6+vF9mnzxk+Q1CMbA3Vv3NxgGahfB+atvEdqXwzLSrmVObJ1iNzlf5lOCbRD9mNP75R8m8z0MjnQ25BEd4Y+i42bnTC6dgNp3+HXRdZmO6jshtu0syn/Dv/mh1hJxpoxP6ZbYyLVgSNyGAjwEMQlDKi2p8ZhFFgEK/xmH045Z5tisw6AkK8poAmyiLlj22AgD8BUZp8ElAlgPlk3ycFACJb9O133hazYvb5bKdsM/S/SNlk++QCBNsU/RixDTCwn+f8inmqcqpYlT+WsQaNOrVWm7Avr0GjhP00umBh14AGjZLXhCBcYCee93UQ0KimtkaUCIJGVJo5weLE7I477xDlgA4faZJD5YGBv+m/RU2+GHOCz5VfAj9UsGmyQLMeAk1XX3O1TKzI4KCywgkSFQkqylRO6BCbky+unHNnoKHDhsrKNZWQWE6mYp1WOKBRXkENPK6D8LiSePe0MEGjZNo9jbJA+VPKPxkR9DPEFWUCQwRHyZi4/4H7xWSGck0FmdsoUxGg81Pu0EOzCCoEZBXRaTDbDcEkKhVK4VFyRyWFCjHTpaxTieZvnqcSoe5LlliBRt26dkW3ro/hxZeGYtWaUlgdn3cY0MgR5NMowDRqhQPspr4v5YVMGpqbkeVDMISsNm44QD9aBFBolkYl9bTTTxM2EWWWrAfKEGWRgBBZcOzH+cxLL70kii9llWAOwUrGfI5AP9lyBGrY57MPpvkOASgq5GQw0Wk124NiPlHuyXJiOyGoRRCISnFpWam0JY4DLCOBHvFpVFoifT19wHDc4HmOMzTvUaZEBATIYOUmDGwTBIa4W6bLbYC5VOSZFxczfv3rX8t70TSU9cJ2FG/QSCn4NL/qSKARwaJA4K6ezoNINNBItRUuTNGskXJN2SNopORH3aNi6Xf9/uF4jqwfyjDbDWWebYzfVPW7XDRgn03/YGw7ZO9RHrlwwDZEVihlj/JMBirz5ZyHO8xSHtlGyYjjM2TxPfLII9KmOGawXdGnEccINR4oeYpXn69Bo7A1QH1jG9aABo3asLJ1VnGqAb9PI4+bu6dNwcaN2hF20qySxRMMCjdtP2hkd+xFadm/kDbecIRNn0bJZJ5G1g+VZjobvf6G62WCxIkSg9qZhMAPzXQ4ASI1nJM4NUnjijEnXqR5c2LHCRQnWTSRoKkbJ3lULLi1LSdOzE+BRpx8qQkb7/3lr34pkzGm19SkUOXb3nEkoJHbdSjg/Fo5wWacDO2NjrBbYhr5ahLTWXlzMqIm7UqBICuDSgWZRVRUqSjTQSpZG5RnniN4SpYHd+0hC4SmCzS9vPe+e0XWqRDTvIFKN9uFAqUo9zxHph1NOamYUFmnkk6mRXPlTNRrDaBRN3Tr+jhefPENLF9VBIu94zCN2hI04nemzHDHSJqDde3WVeSEyq7IYpcuwpYgoPmb3/5GGBFkQ1D55bOMKY8EdfgM5ZSKME0sKXdDhw4VoIXPU44J7lDWCewrIIh+giindCJMMIqLA2R40KkvTY/5HGWcQD8ZeQRQuUBAwIoyTtYTgSa2FTKiuCjA82Ta0Y8Xz5OJSufyqtzs6wlecYxhOyJoRlMfvhMXGVgmKuccTxj4TtzSnIAYTUrjCRqZFfyOChq5PEcM8Mh5EFs3f4wRoyZi45Y82bbdRzOuqkpU+arRHuZpbA+UEwKLlDPOEShHGZkZzc4POMdQ/SblnwAj5y9k3BE0okwyXVk4qK5GSWmJXCNYS7mmrLMNcf5DBir7bIJE7KspE+zX2U45XtB0mfdzjODch36PyDwiC5DlJfhEBiHzZDDLlCpjLGMNGsVJX9TJtqoGNGjUqurTDydEDRwD8M0x8Wk0JmUKNphBI9d+2FyHYrr9ZDIoiLqMESjyJtCorOzTJkGjiqpK+KoT1xE2JzGc9BP0oRLLiRCdsXKnnXfffVdMb+gLgIoMTW4I9KgJPydnauJF3xtLly7F6DGjRTHgyhwVB5o8cAWauy1xcmSeNHHytT13u6wGkjpOJUVMHfyKUCwnU7FOS4NGDT6NkhU0UrJIeVYKO5UDtgMqxlw5ZqAcUz7HTxgvu6L95Cc/EXMfMjtowkCZZ7shgERAlelRQTDLHOWFDCSyi5gWTdros8YMwJrvT/TjxqDRYxg8+HUsW1moQaModwxkP0p5pNwQuKGJDJVc+hyiDJKpSZMY+pIjG4dKa7Aiyr6T5mw0LSMQQ8BFmfoSFGVfTLCFSjDZRpRXgpwEmyiPZCQpwJ6AD0GgOXPniLnyW2+/JWbKTI9MDwJIBI2oFFOpp8yTUaFkm2Xkeb4LASi+C/NgnvzN9sbAd6ApKK+RFUJzIY4xDHwfsjuo+L/73rtSDrYZ3sM2esaZBkOKTr25yMD6Y7tR9cI42nak+gYVa9Do+N3TlBPseO2epsYVygnnBu+8+46Ym9EMrLnvyu+u5ihsR5zPpKamSlugPCrZYxr8vryX/TB3GOS9AwYMkDZCk3q2Gcob+27zQhafYRtJT08XdjTbKNsdf9Msme2QPhs5PqgxQeWnZKq5d4j2WqSgkc36b9gc+wU41I6wE0Iz7ZCF0KBRh/ysnfClvkUDaLTBhTLbLlide2DToFFSsCDaFeTqIKARJz+Kcs2JESfrdDJJ5YErazzHiRbvoymbeTIj29rW1YKTO5UOn+HKGlfBi0uKJR1RDnzGKpv5efWcUhLUhI5ptWbC3yiPKJW4ltLobKCRx/MlXPTh4dyL9KxCjBs/D95ybmtcJ98/0b/Xcd+zxiflVooJy08GHNsCZZjsOyralGUqB1SA3R43Nm7aKAorHWNTQaBDd7YV5aSXzyv5ZZoqMH+e530MNL+h3CddvfnbkwaNfI36wuPkK8J+h4qkGTiirFA+qHBSDpUsKiCG9zNPJV+8n8Hpcoq88n6CM+xTlexRTgnEsG8m6ERZVX0/81L3Mo+5c+di5KiRsnBAoJM7QLEsfJ6ADVkYNOd56623RJ5VeZk/mUJMl2Vj389rqn0wH/4Wua8xzERZLjXm8Dk+Q5YRfekRrGJ+BHMJSvGdyJwi24jmP2R30IE3nwmuk2jbllLqzXEo0MjlPigLi8no00iZpiUy04hywsDvoPpNzkcoz+pbN9Xu1LenTIt8+UEflaaSMyWH0kaqq6TvZ3/P9sMxwJwf71WBbZXPMH3KJGWTbUPJO5+jTPN6IC9fdaCNt1T+pt6rpfMtgUZurwOz587D+x9OwPbtVbBadsFu3wenW++e1gk14DZ7ZQ0atVlV64ziWgPH/KDRmMlYr0EjDRRFYjJkAo0sll1JyzTiJERNYNREi79bClS2CSJJCON+c3oqT/O54OOWJkftfb2zgEZUiLyer+H1/Ac0s3O49iEjqwip4+fDW0GmWZKCRhEq9ZQ3tg86cLfZbeKXhcoClQMqIkrhV/cp5aKluL3lONr8CRpNmT4V3brSPK2BaWTV5mmiTEZbr+wHzc/yt1JERZZ81WIeI/1PuMd+ZdecbnPHBI3InKMfIpqU0V8LmRpkIpF5QTMe+kCi6Q6ZP2wDLA/bAWOW2dwemssr1DWmQ7CWpmw0LaIpZ79+/YSJRFYUnRX/4o5fiK8jmiutWr3KAKH8bdrc5kKl39K54LGIv4NBI5djN9zugzJn0qCRT+qnpXqN5jq/Jes/mmeDn1FyQflim1LtiveZvzl/8171vDl/lUY41zhHUmnzOfppDM5HpROruDnQyFddheKSAoyfOAkjRo3GiuUlKCv9BE7nATjchmWFnQ7SI5kHN3evcz8K8/+BiZOzsSW/FEe+/gbfHDuGb499i2PHvo2raqcTT6wa0KBRYn0PXZpoa+AYQJ9GYzRoFLuBorlBpCNdC4BG+1Bm2YXU8YswdUYWyoN8GiWDeZpaNTNPlIInMebJTlscB+efaL/NoBGPK6urUEnwwOfDgswscPc05Qg7mX0aKdDI7f4SDtdB2Jx7OyVoZHxvv0JcV4uKysoAU4jtQSnJPKasUskMGfymE6Jgm1auE02+WypPeWWF+CMzg0bLVxbCZv8Mtg6ye5r4NFrhxMgRE1FZvgN0hO3zAzUt1U+k15Uyao5p1sx0VL9sKIQtA/rm/lkprpGUh2wgOsLu/nj3Rr6E6K/lzjvuxLXXXIuf3HwzXhz8YsCczJyPyl/laX6nsI59hlPwaVOnBXzGkFFEf0bcuY3mofxN0IrmejSvNudpzkOVIdxYpRMcsy3nFRRhiOye5oDT/gVcrgPJDxp5G3wabQvh06iqqhKV7eTTiN9MyX6436+l+5RsCHBUZZhH8hn1vVWe5nx5TaWrnle/W7rG64H5lR/UNOel0olV3BxoVO71ImfxIrz82ut49oVXkZa6EPl5/wuX5wDsrgOxd8mhQaNoNdMO95wGjTrcJ+2kLxQCNLI498Dq1D6NYrba0JGAIvO7+EEjm3MfLLbPMH7iYkyflQNvZS1qautRX1MPDuCyC1i1D7W+2pDB5zNWMUMqmE0pnjE4z3wZZJIh5aTTS9KvqagY18yxuq+tYubd1nUSWX7Gij8VO9aJlJd1V12NDIJGb6Ugv6BWdk9zUW6cBxsHl7FKnbDtTG3J7D4iTCOCRzTbtboM0Gjs+LlwVdSgij4h/KAZYwFX2iFuzaQ7nO9eJSvFxupzTW2tAIRUPGrr6hrJqSpHc2mSrSTKh7Rj1lkTAFPCnq+G2+vGlGmT0e3Rbnik62MYSJ9Gywtgtf1bTBgTVq7NfXioY7Xi7joMh+MgVq5wYtTISQIa1fjqUOnzs2lMfWcs+kTVf0gfXFUd6JeNvsXoYySfCFidtTW1jdIJt5wsg6XMggWZCzBs6DBxQkxw8P777sef//wg+vbthw/e/wDr162H2+VGZUVlo3ykDVT7jPGkymAgsa2EG9inMk2rxYoZ02eIKRrzf+D+B/DQgw/JhgvPP/e8+Emif5uK8grJS0A2U76yo6P0yeyXWw4NQAHr36jzWl+NLASwX8/PL8LQYe9i00Y7nPbP4XTtTwrQyLz5gvnY7TkCBpf7MFyOA9i6cQdGjpqIDVvyUOXj7pI1qKyuRkVNDSpq61BVW4/qmrqG4KtFlYzTHKsbgtnXUVsdm+cq4RyzXHw3xtL2yCYTcIjjmS9wXtIynef8SD3HftvXzDWVno+mbKb0G/X3lNdWBjU2qbgpWXe5nJg6Yxr6PPEUHu/xFIYMTcXmzdVwuvfB5txv+HDVTKNOqgzH97U1aBTf+tWpt1UN0DwtiGmkQaMY0lNDTco7yjm/Um137ofV/gUmTV6O6TMXo9TuhdXmgsvugcvugsPOVUknnHYX7I5QwQm7o/2Dze6EColQnmQog8PhhNPhhsdZAbezHA6HB2UWKz6aOx+j3h2P3PxauJwHuSmfOQAAIABJREFUjEk5tzU2BdLBJSRqe/Arzw43FYv/gE4yLc594vNtQXYJRqd9hIIyO4qsVpTabbA6HLA5HLA3E2j2Eutg5GeXfNnW+E0Y7HZH2MFmd6ClYLU7wKDus9rtQb8bX1f3hYr5bKjzyXPOjtzCPIyfPB7d+/REtx698PrQd7F8VQlsts/gcBrKdFICR0runYfgch4yQKNRk1Fm8cJidaDMYYPdabR7h/Tv7OPDD067G00Fczpyj8O4l+ftdsp05IH9kzm4nB60FHi/3eZEaYkFebkFWLtmPRZnL0HWwmzkZC2W3/l5hbBa7IF3lzykHpxw2J1w2JywWx2tCjarHSXFpdi8eQtWLF+JrKxFWLggC0sXL8PGDZtQXFQCq8UG3mez2WG3OVoVrDabmJ7abFbYbTa47E54bE64rQ44rDZs3rgZQ4e+hXXrSmG37oLDuRc2F/v3I3C7j8LpOiy7ZCaK3JsBIi5cMJD1yuByHkS55wjKPYdR7j4Et20ftm3agRFvT8KydZtRbHejzOmFxelBmcsrx4ytTiPYnF4YwQM75cUfbA4X2iPYnW7EO6j3snKu1MR7mq+Zy2NzxqdemJ8am4yY41LjYLHZYLHbUFBcjNTxE9Czd1907dYHg14eibWbnLA5PwcXP2M+J9FMo7bSZBM+Hw0aJfwn0gVstga4cxr/NGikzdJaq7Q7D8Bm341pM9bhwzFzMX/BCsxLX4wFGUuxgHF6NjLTFyGdISNbhw5UBxkZ2ViQsQSLMpcjK3MZFmQuxex5C/D+2IlISZuL3Px6WcGVlVy1tbHnsOxUwgmaApESRcloVA7FuHAfBoEjq+sgSsnCdO3F0hUuvDdmFmbNz8bs+QsxZ/5CzE1fiHnpCzG/iZCevhAZ8Q7zFyIjwpA+fyHm6xBxHXw0Nx0j33sf/V4YiAGvDMWczNXYllcLh2MPHH6znUby1Np+tq2eF7k/DJvzINzuw1izxosRI6dibvpyzJ6/CB+lZ2JOBuU8C/PmLZQwf14WgkP6vEUIFTLmZyPSwHSC0w/3tzmvzPQctBgycrAgc7GEzIwcpM9nH7cYWQuWYmHmEik7z/OYQe7NWAyey0jPRkb6Ignz52chVsFIsyFt6Xczc5CZybLmIDODdbqolYHlXSAhPX0BMucvRFZ6NnIyFmMR056TjtSUNAwc9Crmp69CQf5fUWb7DFbnPgGLCBqxnydQkyhybwaNeKwAIwUaeT2H4XUdhMe5Dy7bHuRu/Rgj35mGibMWYlb6UszJXI65mcswJ3MJZmcsxpz0HAmz07MxJyMHczNyMC89u1GYO38R2jQw/4y2C3PTF2HO/EWN8pybng0VGq7lYB7rR8qWg/mZDIvjEHIwLzO7IWSwbFmNwtyMhZiTvgCz52fizRFv4/HuT+Cx7n3x3OAhWLORgNIu2AkaxVp2NWjkVzR1pEEjLQPJXQMaNIr9ABHrASdJ0rM7D4g5xqo15Zg8dSXGTcjE2NR5mJCWgbS0eUgd9xHGjZuJsQyps3ToMHXwEcalzkZa6hyMT52L8fzWaXMxJnUWxkyYhwU5uSgq+z9Z0eWE3S47j3H3MX9IEvM0glssO1lGxc7dsLr2YdOWnZg4ZRnGjU9HyriPkDJ2poSxKTMxromQOnYmUlPiGMYy7xlRhbFjZyBFh7DrYAzrKvUjjE6dhVEfTsXUOSuwtaAWJbZ/+ZWPBDe9bG5s8YOkdtcheDxHsHXbTkydvhpjJyzA6LQ5eH/cdHwwbhpGj52GMWOnS52NHTsTwWHc2FkYJ30/+/+GkDpuNiIN8jzTizSM+6hRXoG+iv1VUyFtLiaMn4eJ4zmGzUXaOPZvczA+zXiGaaSNm90oMK0Jacb949PmIC2N/SLfk/m3Lowb53/vcbMkTUk/dXajumhtHup5js+pqcxnFsanfoRJaXMxbcJ8TB47C6OGvY8ejz+Jnn2exvBRqViz1oNSyy6QmU5fb7IwkGCgkQIBgsEj4/dBuDyHxMTO7tgNu+MLFBX9HTM+WofUSdkYNzEL4yYsQCrnM+PnY0zaHIxJm40xqR81hLTZSGkijE2bg3Fpc+MaxqbOAcOYVJarjcK42RjD0Ex+qlzq/VPS/OX0Pzt67EeIXZiF0WNn4kMVUmbgw5Rpx4cxUzE6ZSpee20Uuvfoh8d79MNzA9/A+s0OlNk+jY8fOg0aJbeeHMPSa9AohpWpk2qHGtCgkQaNmlMcIrjGCRgnjVb7HuQX/gPb8j/GtrydKMj/G3LzdmJrbi22bPdh8/Zqibfm1kCHjlMH27bXYDtDbq181w251diUX4eCsn/CYt8dMFkIgEUEjQggJTpo5KJCYcg2gVGraz9K/eYYNvte5Bf8P+QXfCxsqtzcOmzPq8f23DrwOFTIy61DfhwD0+e3iCbo9hh5e9zCfi23Fpvz6pBb/DcU23bB6twLZ6KbXbbUt/uZRsIC9BxCmfUz5BX+P+Tm/xXb8nZgc24NtmyvwVbKWm6tP9RhG+Uv8FudD47rsD2X7SSywLSZX6TBKE/jPHPzdqDFkL9T7mE5t22vw3YG/3NS9rwdDe+g0uMz+TuwPb8e2/LqAoHjX6uC6b2357EcjeuC79iq9Bs9XyNsue15tcjPq0dh3k4UFexE3tYqzJ+zBs/1fwNduz+J/gOHYMmyMpRY/gULARfnfjhdB6W/NPrMxGEbKeDo+Jig0WGZu9gde2Xhy2L/HIWln2Br/l+xvfBv2F74v9heyOOPsa1gh4StBfVQQZ07Ls7fgVyODfEO+TuxPX+ntEu2za159W0WQuXHcxLyd2BbGwUZd9kuOAb7+6CtuT5s2+7Ddn/I3e5D7vZqbFhnxYfvT0Pv3s/ise5P4vmBQ7BpiwtWG00tNdOoHTTRTpOlBo06zafuoC+qQSMNGrWkPIR5XfwYuI/AyUDnqaI00Q/MV36znv2wOPeizLlHYtLZdegIdbBX/PvYnHtgd+yBzcHvuweFzi9QzG/tOiCOJUUm/LKULGARFQxjNVrFBshFEzVek1V1UZIOwEGmHXdVI5uKst9Eu2mcnko3ljEZXMYuMNwJJpJAvyRWHZqtA9ZR03VqyIfRF7IPpDLatCwk/DU/8GV3U673+0EBQ1a5QKBkWVh4fpCJsm+TdsBnYhsM2aQT+kgDd0QKKov7oLRTlre5IM8RLKb5tT8NdX9T12ysL/cBCZGXNdJ3i/X9Rh/Ab+5wkzlkMM3cfHfrZ8hZVIKnnh6KR3r0Q/8BQ7B4aQlKLJ/A4vjCYNc5DzTIRZLIPoFRxSSlXMsOWvIND8LuORQIDs8hBAen38yacahrLu8RxDtIGfzvoN5DjbHxjkPlx3PNBZYp1HOtKquTY/B+OB1GcDj2yXzEbt8Dhz+47Hvgtu9Gcf7HmDR+IZ7oMwDdHuuDAYOGYeu2ctjt/9agUQdVdRPltTRolChfQpcjuhrQoFFyT+rbeVKmlAYjph+DhkCnmF7PV6j0HoPH8x9jJc+1XxwN2v0KCFcmdUjuOhBnv1ydc+71BwMksgQYOXQGfAAuAVr8zKJmQJVEU6Qp28rkgr5dKON0hs3YAI2M6+q81X0YNrdxD+8LFcztJC7HLF9wUOXlDkFNBAE5RPnwAx762AB+gurBXLdK+THLrVJ+zOeS9ZjvQqDMCAbwot6v4bwBNChQJdxYgS/hxkw3GlCTz4XKg/JuVvqDjx0etl/DLFXS8APCBkDQzDUBopinUXfRlLm9nlHfjnJNthz7CponuigD1s+wKCsfT/Z7DV17PoNnBw5DzpIiFFv+mdSgkWqb7OsJGhnBAD4a+kpjhzXusubxHPWHL+H1/gflnq8k9ni+RENouKfhnPl67I69zNd9VJyQ06cUA3+3RVB5q7xU/ox5zev1v6e/PKpsjF0uylXrg9t1BB7XEbidh+F2HpJAB+dOApim4HLsh9uxD6VFf8fUCTno02cAHunWE4MGv4lt2ysENCLbTMlDzGJtnhadftoBn9KgUQf8qJ3qlTRoFPsBop2BnJgNdC28R2PAqDFTghMtt5s7khA0+hZe939k9ZFsDB06Rh0YZggHBQzizmhOrvKJeQIBh6N+1o0BiBFYotLBb28wNZLH14sCjTxu/8TUxKZT1wiQ0km23X0ENo8R8zhU4H3CxvPH/B1NMKdx3LEJvFWglMt1GO5mAq+re3Xccl2oflYBKA4n+8DDhskl5ZyAuJ+Rpu5NxrgBNCIAckgcwRPQMACj/Y3YomQjmYGklo6lflpgJZgZCw1lUfmHF4eXD5kiQcHP3uDzkgbHRJaX9zVzjUCTwTYyA27hlbWlOovndXM9KbDELcDRIWFgWCy7kJG5FU889Soe7dkfzw0ajuwlhSgu+z+TeVrDXCBZ5J3vbZ7POJwHwRB8vqEPPSKAjNf9JbyuL1Hu/o/EPJbg9oM4BDLaMCjgpi3jYNDInHc5QSPPl5CYIFIQkBXfujFMDhtAwIPiV9HtPIDSwn9g8oTF6NX7BTzUtTsGvjgMW7d7YaMjbMceY67awvw3ItnWoFGnUqube1kNGjVXO/pa4teABo00aNSKwdE80Tr+mIyG4C141Sqejs2TmWQ8Vt+7QbkgUGh8cwFGZGtjA1RyumiycMDPNjOo6RFNuloho63JJ/gdCRwRDKVc873VdQWykFUUKcsoWnaPyrOpWH2XcGOmE21ZOvpzdAZ9fPCbAcoGAIZsq3ZM80Bu3cyY5ygnrZHDdn3Wz7QRIMQPGjVm/JjNo8Izb2yK+ROKDWQ+1zjf8PIyAK7QTCNz2rE8jrac7cUuMufLsgvLyMO+nGwjAl/7YXXsRanl35ifsQVP9nsFj/Xoj+cHDUcOQSPLP42tykXWG/rFdpXbKNqc6s9ZbuV7TwFIRkzwrCE01fdKX2q6z/xMvI6bK0s8r3EsbCp9Y5w0xsvAPYoBG/dFCjNrzD/fdB4AF7iKi/6BKROWomev5/Fg18fx/ODXsXmbU5hGTgd3AVQmuDHqtzVolPi6cBuVUINGbVTROps41YAGjZJ3Mh/FpCjZJnG6vDGatMRJVjgRVBNDgikMZL0QNCJYIVsa+8EjMpMMpTqx38ksc2ryqOJgAEadZyyKhvhzidynkTnP1h6zLMHlDPd3sHmO/m2YL1GJJusgZBDQSJmYEiiiqabBqks+p8BNtE0xt2rw/WOAIjQViy4Yfr9Cm26GMudU5xqYTpHnq9Joi7g15Yy2TmP1nAKNjD6D3/wALK594oew1PIZ5meaQKOBw7F4SaH4NCIDSoABP4jQ2n5MP99EW4zTWB5tfYupZhNlCowfZOWpexSzUP2OU8y+OpiVRxCfi1clRf/E1InL0bvXAD9o9Bds2eaE0/E5yERS43qgzK0towaN4qTAJl+yGjRKvm+mS2yuAQ0aNQxmrR0Y9PO6LjuhDJiBI1l19DNxhHUkgFHymSuoyaKaPIYT8xmyFQyFuOkJf6i0VH6xisMFicz3yeQ/2DxH/xZTpFDMEZ7j9zYApQPiAN7m2A0GAkcN39mkMCVz/6CUPROARFmPJhjATWjzzVAmnQ3nDkeVn9Emo8kv2meiL2c09RnLZwyZVosBZB8ehNVtmCGWWT9HRuY29H3qNYNp5AeNSi3/Mky5pO8/KuBRrPoynU7TY0ki1E2LoJGfWdTWZW0ONCot/gTTJq5En96D8FC3Hhgw+A1s2+aBx7EHXjEz1kwjs5qoj2NXAxo0il1d6pTaowY0aKSBjmRWZHTZ211+A6vLfpYRgSODdXQYLtPuY209aYxFfg2KfwPw1dQ55tduoJFJoRefK6bfZqfNzR3TxKwtWBixyuM4/zNxArhYXpsfKAlmc/B709mxxb4HpaW7UFa2C1bLv2GzG9uPG7vYkWGX2IpfxOUzAUdGHRiyH/4xwYjIfXkZshNpXrw/uvyiKSOfib6c0bxb7J9hn+4WZ89kjDJ9+mPaD4v1C2RmbsdTT7+Ox3s+i+cVaGT9VGTcRefGbg0aRdyekrh/aBY0MjGMglma8a6j5kCjkuJPMHXSavTt9yoe7dEXg18egS1bveDual4Xze00aNQe6mhnyFODRp3hK3fkd9SgUceb0CfxBCTeEwmdfuyV12DQiICR7GRi8vmTrPWuJo/hxHzH9gSNzIBQMHAUye/wFf/YK6uJmrcBGjVmj6iyUpnemvu/WL7MiVXLXVi/pgIlxf+Exf6F+IHhdSowydoGQpbbBEpGIlvq3uA+4zhH7n4A+rjz4ner+e28VR7mOOr8mipHS+ejLKe5zO12LAozd0zj7l9cAGB90zH0AVgtX2Dhglw8/fQb6N7zebwwaISYp5Vq0Khjte8I5pDNgUbmvqOt+8CQoJF/Mw4C/PPm5uL1IakY8PIIvPXeVGzN9cHh2Cdyby53TI61eVpH1qIjejcNGkVUXfrmhKsBDRp12sE+JoNhBJMLnV/sAZtEqVNRyvyOLWnyZGxN38DOSZRyRlqOcMAidQ/Tbi/QSJVBxcohcyQxJ9k6hKiDJlg1VOpZ31bbF8hcUISRI6ZjxJuTMD51ATZtrIDN/jlsjr2BOo1U9jry/VGDOARjohhzos6vJXCoqetRljOad4vHM6wvBRqRaSSgkeuAMI0WLsjDM08PRfdeL+CFQSPFEXbAPE183GmmUTy+SaKmGQ5oJAAOfb+1JXjOfjvEmMYx0Wrfi82bd2LR4lLMzdiMnGUWlNn+LX2L2/uln5kYw/maBo0STvVtrwJp0Ki9al7nG5sa0KBRVJPQRB3AdbliONBHoZzo+m8AihSAwThZ68X8Di0dyzuaAIam3jlUOk3dG+754DQb7/hjbB8dzrlQk+zOfq6pb6DqnKvW02esw1NPvY4+vQfgjb+8h7WrLXDYP5Ntypt6vjOfjxrEiRKMiTq/pkChls5HWc5EkQnWl5gZewzzNAM0OgibfQ8WZhXi6WfeRPdeAzHgxbexaEkBii2fiPkayy/ssCR//0T5DslQjnBAI74Hd6NLlPfhmGaz7wN9dBWX/gulls/h5CKA5yicHoJGholpzMqrQaPY6KsdIBUNGnWAj9ipX0GDRgkzkMVsgEpiJV3XQfICLOrbKWXaHKtryRab36GlY3k3s9lOE+0wOJ1Y1ElwmtH+jkVZOksaqo5LSz7FtGlr0Kf3QHTv3hcvvTwUq1cXy048TpND7M5SL+G+pwA5EW67HW7aoe6LJr/WPBOqDMlyzpBtAkcMiml0EC7XQeQsLsOAge+h95Ov4MXXPkTWkkIUWz+BlbsGUvFWgJoGjjrH3JLy0cRYZz6fSKCRUa6DEJ9zTu58ecCQXc9RODxHNWjUqZXi+L68Bo3iW7869XjXgAaNwhrwzIOfPg5vkqDrqXPWk1KmVdxR5UC9H+NEfEdz+SI5TsR3SYQyHQ8gGKy6stJdmDF9LXr0eBaPPt4bgwa/hlWrCuF27obLuT/2TlUTVN4S4RvpMsSuLwr0GcKePChMDI/3CFavqcCHoxfi9SET8cGYDKxY40KZ/TMBjcjgMLcT/T1i9z2SvS4TDzTyfxsTO9hwYG9sCMGNIWJW55ppFG9NNmnS16BR0nwqXdCQNaBBo9gNDHoyr+tSy4DIQEDh6MD1kQzvaC5jOMcxmyR3sO8uirBiUKhYWDKHYCn9N2bOWIfu3fvjse59MHDQq1i9ugge1x64XBo00jKVvMAB+wz6gOEOgTTfcXmPoLDoEwGOVq32Yv0GHwqLP4HduQ92Vxv7rOlgfYxuJ+3UTszs4ODjWMmYBo1Cqp+d8aQGjTrjV+9I76xBIw10xGpg1OloWepEMmAGYfSEv50m/G0kb02BRjTfsZZ9hpnT1+FxgkaP+0GjVUXwOPfA7TqgmUZt9I10G4x9GwywhrgTpucwXPRxRDaRYx8c9r3+3aYOw+M9KqZsgftDmB3q7xP776PrNPo6NY/fwccxr1cNGnUkrblV76JBo1ZVn3643WtAg0Za0deTei0DWga0DGgZaFIGQoFG4ijYfQTWss+FafTYY0+j22O9DKaRBo2arMuYK2RabuNW1wH/RG46xFbB8HXkdh2GBM8R2WnN7b9ufqbRsfZxFLfvpNtUZOBRMEgU/Dvm9alBo3ZXdROlABo0SpQvocsRXQ1o0EgP5HrSrWVAy4CWAS0DTcpAc6CR3fIFPpqxHo8++hS6PtoDAwa9gtWriuB17dVMIy1TTcpUzBXTONR1aOYQFXTuhNUQeJ8BopJxdLSRM2yVRjK8ry5jZOBLstZXMEgU/Dvm76VBo+j00w74lAaNOuBH7VSvpEGjpJ7UxXxwi8PEU5exc0zE9HfW37mjykCLoNH09ejWrR8e6vo4Xhj0MtasKkKFax+84hjYcJjdUetGv1fnaveyXbnrAGymQBkgq4iAkdv9pQEaaWaRnlsm4HyS8iu7pTlpOnwQDu6cxiDHdOTO/jqGTrBZBxo06lRqdXMvq0Gj5mpHX0v8GtCgkR7YE3Bg14pI51JE9PfW3zvRZUAxJswxfRoJ02j6BnR9tC8e7PoYnh/0ElatLkS5az88GjTS42uSj6/HszAatiq3ufbDLs7ejV3TlAmbaiOJ3qZ1+TrPuKPkmICR1b4XFvtulFo/Q1HZpygu24Uy224Bj9in09TSkOEYAf4aNEp8XbiNSqhBozaqaJ1NnGpAg0Z6Upvkk1o98es8Ez/9rfW3ThQZUEqI1fIFZkxfj0e69cWfuz6G5wa+iJWrCuFx7YObu07JyrX+bony3XQ5IpNFJb+MqVAbvw/C7uDOgAfh4q5qbkO5brjXkHtd15HVta6v+NWXWTYttt3YtO1jLFxmxbxFBVi03IqC0n/C4SLriDJt+O1Sz7T6u2jQKE4KbPIlq0Gj5PtmusTmGtCgkQaNNGikZUDLgJYBLQMRywCVijLL55g+fR26PvoUHu5m+DRauboITtceOP27p7Va6dDfJuJvo+s8Ngq4UpxFkRbfRQo4OiQOsL2eL4WZYQBKZCHtbzD30XKr5TZBZEDJMeOSss8wN7MQLw2bhL4vvo2RKXOxKb8ODvd+2B0NO16qZ1rdl2jQyKx1dupjDRp16s/fAV5eg0Z6UE+QQb3VA7N+Dy3LWga0DLSxDJRZP8esmRvxRO/B6N2rP157ZTjWrC6Fw7kbDtd+/T3a+HvocSQ2YBHrUSnNKiYLg0H9JlBkBo3oG8bu3CfAEVlI6j7G+rvoOmhPGTDLYlHpLkyesQG9nhuOh/oOwgtDP8SabV7Y3Xv9DLrGst/qcmvQqAMoy7F5BQ0axaYedSrtVQMaNNKTGT2h0zKgZUDLgJaBqGSApg7ZOWV4a+RkjHxzHFJTPsLmzV44nHvE30urFQ79XaL6LrreWwdSmJVsdUxQyGLdg5Kyz1Fc+hmKSv7tZ2YQIDJYRk2BRho4at330PLcuvpTMsy4qPRTTJy2Ft2feQP3934Wzw99Hyu3OOFw7xGn1eZ7YyK3TYBGx2D8t5f6p/Nt+xrQoFHb17nOMZY1EAQajR4zCes3OFFm24Uyxx5YnPthcx2C3d26DlsPeLr+tAxoGdAyoGWgw8iAm+PiYVid+7G94O9YsdqOpStKsHqdHUWlf4fdtQ/cqcfhPgyHHj818JNk4F+w4kxWEVlGW7b/PyzItiEjqwwLF9uwNe9vsNi/gM2x188y2ifmacFMo5go30lWhx2mr+sA9W6WZwM0WoPuzwzBn/o8jwHDPsTKLS7YXV/A4dzXiCEXE7k1gUZb80tx5Otv8C0ApX7FUqXTaSV2DWjQKLG/jy5dSzWgeq1vj8HtLseHYyZi7QYnSq27UOrcgzLnflhdB2HjKlKcQksDazzybS7PWOTXXPr6mlactQxoGWh3GYgWyGjr59paYeH7hREIGNndR2B1HUCpYw+K7buQb/k/FNo+gcW1G1b3AWOxxX2kATjyp+ukQ+FmQjj5t+aepvJulCYXi2TMNxaNuHAUTmiURhj12Kr7m5ENs5Kojxub27RcH/RbZDgD5k5SDF7PUTgcB7BkuQfDRs3FS69PxvB352HpapfMF21Og6XhCjJLM+fV7n1eM/Kiy9Zxx2SzDPJYgUY9+g/Fg08MxMBhY7B6qwc21+dxBY0mTc7B9gILvvz6Ww0ataSbdtDrGjTqoB+2s73WsW++gdvlRUrKJKwzg0aOfbA5D8Q1tAjSxDh/brnZbJ4xyM+cfjiTEbVFrY6NyaquB10PWgZaIwOhlcRAX+QHAERhb0KRMk+02+K5QB5NlCfW15t7v3DAEeOew7KgQuCI249bnHthIcPIcxA2t7HYEmDqeg7D0ZogIFV4wE1T5RfWUzNlCH6OZeeCUSTBnIbIVzP5tao+PM0Db+K42b8Lkj42AKDw6+EIXJ6j8Hj+g3Lv16jwfoOK8q/hdh5Edo4Vzw0eje5938CAV8YgZ3kZbI7P4HUdRLn7CMrdX8LtYt91fB8U3IZD3aPPHV9vuk5aXycu1yG4/aG4dBcmTV+Hns8Mw0NPDMKgYSlYu7UcNieZRvv9uwS2Zvxt/KzLeQBFeX/HlMlLkF/gwFf/RQA0Uuv2nU3n7Kzvq0GjzvrlO9B7Hzv2Lb7971dwudwYO3ZywDzN4qR52j6h35OCH69AEMcmk+7QcazzbSk/gmStydPm2C8gG4Gj4EmS/A6x+qpWfsOf1EU6CdT367pNTBlQsq/j45VgJbNSNyGUsEiViUB/ZGKNBM75wZpQaQbuaaPnQpUh+FygTBGCTMHpqN+Snun9zOBHc8fCwmWf7iHzyDBZc3qPyLFVxjY/U7dR2pEBSM3lH8m1SEEag03VWqAqPOZWqxhHQWOq87gt4FuvdCo56Qyxy30ELjdBo6/g9f4XFeXHUOn9Gh7XIWQvtuLp59/Go31exrOD38Hi5SVwOD9DhfsQKlxHUO46CpfzkJiyKcfZOjYciOt6aJ96cDoPwmUKxSWfCmjUq/+bePiJwRg8NAXrtlXA6iDTaL/453LI/J1z+Nbor4wrAAAgAElEQVQHp3M/ivL+galTlqGgyIP/fA184zdP06BRB1Kmw3gVDRqFUUn6lsSugW+//QZffXUUDqcTKWMnYcMGByzWT2Fz7IbVsTcAoAgYQkAkxsFg/pD9EzrY6Fcphnm2lJ+ASq3MT/KQnUQMVpMaeGjnT2eSDlfoYPgBMJxK6mNdD51HBrjNbfiB7SeS+5P33oY2IP0G+44wQnNyo/oixtLnqn7KH4dKn/2Z+Tl5NsznpD81LQo06hvDeJdQ5eG54HTC/R0qPfVsc4sXTV1TzxKoCNSR55CUz2LfB6tpLFH3tmXMcqtvLbGbfpbCDBEqTHyvQB1QvlrxnSJ9NtR31efC6y+Oryf2O4fhch2Fx/0Vyj3/RbnnP/C4D2HxUhuefu4tPP7kK3h+8DtYsrwYdvun8Dj3wuPcD7fzAJyO/XCG0bZ5j8uhg66DtpWBopJPMHHaavR6Zhge6TMYg4ekYMO2Clhsu2Cz74bdsVd8dNFPV2sC9ScbrTUce1GQ/3+YOnUlCosr8KUfNNJ+jRJbN45H6TRoFI9a1Wm2aQ18e+wbHP3qMKwOG0anpGH1mmIUFn2M4pK/o7jsE5RY/o0Sy2cojVPglsVltqZDqTW2ebd1fix/mYTPwbwtDLYmgrquY6OedD3oejDJgNX2hbQlAtpsR2UWo239/+ydB3gV15n+N213U3fj3ayz2eSf5Nk8SbbE2c0mm+qSjePNJgEDLrHpIKHeOyCE6NXGNtjGGNQoohlEccXg2AYbcAFJqCFRbdNMb2r36v0/73d1rkZXV9KVdK90yzd6jmbulDNnfufMzDnvfOc7jnvqY+x52xo6ucc6u/f8eb25Vl6vS3jzrTN4c0/74LqP9TefR3ym85g3dp+W8LplzmVrcMbN57DzWcZnctvxjMd6jHW5s23Wc1v372qZx7y5xxF6enx3+3N7V+fuaht58pnO9xjnb+11lFP6znj9zVPO/HG8S/k+7Xtw5otL3pt8MdvNucx6/pYyw3Ljg+B415l3Xttc3uOWsie/95wR5qZcMY3k7Mhnps9R5nTe3xxYls9jz9sX8fbey9i77yr27eP8PFaueQOjwybiQRGNpmDN2tewe/dx7HnzQ+zZ/RHe2nMau98601rnacv/zsrFnrfOQoMy8HUZeGvPWZiwY2cd5j5SjAfHpGLwQ1GITp6BkhfexWuvH8Obu08561zSVuC7t5fhTTnuY4nv5Zfr8PhjG/DG6+UqGvVrC9e/TqaikX/lh6amFwRsLc240XQdb7+7F9Nnz8aKgo1Yt2EX1m34MzZu2oNNJe/4NGze8i66Ct4+f1fnkm0l73r9ejeXvAsTSkreQ2dhc8l70KAMtAx0LAMlW97Hlm0H8NxmPo/eRfHaPVi/YS82b34Xsm3rAWxpDSWWZbMukOe8PreBz4vW5yefk2a5szn3ea5kP54r2SfzjZv34bnN+8C5u7DBst5x3H5s2vKOIzAey3Z3x5t13M81mG09nbvG4+lvT87jaVwd9ivZj81b30XJtvckbNn2nvx2smpltnkL88g7wTVu62+TV2157SafN+3Fxi7Cc5vcl4nuODrKFsuXa2C5c5Q9x0hze7Bm7Rsy6pxJL+PesOltSZcwlv3NcTo3nHw/fwfPbXkPm7YcQMnWMmzddghbt3H+Ph5/cj2Gj0nA/cMjMTY8FcuWbcKWLW+jZNNelGzeh5KS/ShpfSaVbH0fGpSBP5SBrVvfx9Yt70nZXLvuDUzOXYL7R8Ri0APjERadhaI1L2HDc3vA/bZvK8M2lvftfQ3l2L79ELZtLcX6tbvx2COr8PbuQ2hqavVp1KIjqPWiyRrQh6hoFNDZp4knAVuLDQ22BlTVVWNFYT6WF6xG/sqNyCvagJWrNmH16hKsXlWCNT4Kxau3oKvg9fN2cz6mxRvnJDNhR36rtzjDmtVbUbxmW1tYvQ3FDGu2YY0GZaBlwG0ZKF6zHcXF21FUtBm5uY8gLW0aHn88D2tWu79vuO/atc9j3doXAj7wOtYWdwy8xjXF25yhuHgbJKzdjmITuH3NVgnFxVudz6Q1a7aAoZiheAvWtIbVxVvgDGtKsNoS5JjW/dau3QrGx7CmNaxeuxVrGCzrzD5m7u446/5dLZs4ejs3cXuaTqa1y1DsYFe8pgRri7dgbfFWma9ZU+LgKnMu9z0wTnfBk7jdHbdm9WZ0Fkycbo9zkw7u3+W+qzdjtSUsW7YKOTlzkZU1Hc8+u1qOlXLGfaTOsVnWmXR0NTfnNeV01ZoSaOg9g9VrtmAVnxN8tqx9AWvXvYT163dg3boX5V6fO/8x3PfgQxg67AGMGRWGJxctw/qVJXhuzXZsWLMNa1l/Yn1Hni/un83Wek67upC1XqTLbXVEZdFnFmtZNtdslVCUvwGTs2fiTw+NxuChDyB8Qizylq+WbeuLn8f64hexrvgFFBc/36ewtvgFrF37ItavfRFrV2/DqsKNqKo4ArvNIRbRn5H6NAqtdriKRqGV30F5tfYWOxrtTbhw9SKqj9SgrLIK5ZU1KK2sQkVlFaoqK1FdWYkaH4XDVVXoKnj9vP10PjIjO9dQXVmFmqpqCVWVVeBvBi4zVGpQBloGOi0D779/ABkZmQgLC8eaNcUoKyvHoUMVzlBRUQmGqqpqCdXVNaipORzQgddQXVXtNlRVVYGh0hLMOplXVqKyosIZKioOobI1VFdWgKGmqhLVVWTmCJVmmdvNtsoKVFZWwBxfXeU4zhzjyZxxuZ7Lk+P6ex+TTqa1u0B+VeR5qFxYVlUekt9Orq2MDWvu62mornDkjznW3by79Dl4dx+PNW6Js7oSNZ4GKSMdz2FYVFaUwxpefeVlZKanIT42Bq+89CIqystwuJrvQZbTcic/a5o6W65qLZcsmxq8xKCqUp4n1dWHUVNdi8M1R1BdVSPPkHXrVuO+YYMw9N4/IHbCBLy8ZTvqDlXjWFUt6qpqUH2oApUMFRXOOo2p27ibm/qPztvqgsrCeyxY5sizpqIKhyurJRx49308tWQJRo0cgaFDhyA9JQXv7t2Pw1W1qKk8jJrKGlRVVEk9wtQnPJ3zOGsdvqqyGtWVNThcdRhHautw9fIVVYqCsiXt2UWpaOQZJ93Ljwm0oAXNLTY02ZrQYGtEo82GZnsLmm122CXYYLf5LrTY7egqePvcLbb+PV/H9BuujrnNZocGZaBlwLMycOnKFUybMQMxcXHY9dpruHHjJhoaGtHQ1IRmPrtsNrmf7PYW2FtCJ9jsdphgt9vhDMKDTByh2dYME5zPJrsNHBDB/G5uduxjszXLOpudxzbDxvXNjjmXJXC9JU7GLft2NudxnW3rh/Xm2j1Kp7nGzuatfG7evIFzZ8/i0qWLuHL5MhobGoQbWlrA0Un5fjNse3Lt5hi3c5NnXpi7ff8y3a2B19FVMNco12nKipu8bG5uAkNNTTWm5eYiIz1dhMqmpkZhZGXDa5Zyx/g0DAADx/OEz1Fmv63ZhqbGRuze/SYe+tODGHLvYCTGx6P8YCnN1QHWq5ptaG5sQnNTkzxvHPXH9vUdXac8+rMMmPcez9nCOoG9BVeuXMPG5zYjJi4eI0ePQe60GTh37gIaGvmeA2y2FjQ329HM8tzDYG921GOc19h6TrmPbHbA7niWst2lU+gRUNEo9PI86K6YDy9bi90Z7NDHmS8z2Zik6ry9ia7yUB7dlYFmux0XL18W0Sg2IQE7X3sN1+vr0djcjCaKz5ZhbEN5ua/PrxYRO9hY1NAdAzZK6urqsHHjRjz33HN47bXXcOnSJckCHhsIE9/4nf15mn7n8R6UmdraWuTm5iI9PR2HDx8WgZPn6Y61bh/Y+5Fl/a233sKIESNw7733IjY2FhUVFe2KSKCU+XaJ1h8hQ4BP5JsNjdj/zntYkV+AxU8/jeJ1G3Dx8lXUNzS1fjSnYOr44CSP8N5WJlyptsYjIj0FeRWOXAkF/W8VjYI+i0PjAp0VvtaqY2hc9cBcpSfvHw7FqUEZaBloXwZoBXn+0kXMmD0bSampeJWi0c2bIhjZaFUUAveNJ8+Pvj7ZtHHueeO8vr4eL730EsaNG4dRo0Zh5syZOHHihAggbGTT4svXDWnX/Opr/vv6+CNHjmD27NmYMmUKampqxHrN9Rr0t+dlsD9YsUywLO/Zs8cpGsXExHQQjVzLTn+kTc/hX2XFH/LDtRya36atc4PWoefOSvj444/R1NwkobGpUSxx6bbD66IOX9603JMPXPyhU6gRUNEo1HJcr1cJ9JGAJ40+3UetbrQMdCwDFIau37iBkq1bUbRqFcorKlDf2AhTvVNmDmZ9fESpxYcH1jKmYdTQ0ICtW7di6NChYn2RlZWFo0ePSgNbuvLZbf0uGnm9sdPXAuVy/OnTp1FSUoLNmzeDy+REQUK6kviiK5p2detz9zaWdyMajRw1slNLI5es1p9KwG8IiGDUYoe9hc9k9q5olsDfdnuzrDfbfPYMbX23+A0UTUi/ElDRqF9x68mUQGgQ0MZvR8FAmSgT3v1sYFI4unLlCuobGsSPT2g8FfQq/ZEARSMKIMOGDZOGdGZmpohGbGSLpZH4BeLTSycSIJfGxkZcu3YN169fF0ZGgNO5/1qM0PKC5Xnfvn2IiY3BiJEjMHHiRLEUY75RUNJJCfgzAQpBFIVELLI3odneiCZ7g8xt9qZ2IpL4afNF9zF9FfhzEfF52lQ08jliPYESUAJKQAkoAYpmjsYJGyjSwPRFpU5BK4EeEKBotGnTJhGNBg8ejIyMDLD7lWlIm7lrlPLVu7U7eGfLrsf092+Trp6e1xzndi7O6R0ChAoNPSU7cPsb0ejosaNYuXIlli5dinXr1+Gjjz5yWooNXOr0zEqgewJ8HjlFI1oZtQpHnIulkd1heURRyWcWRyoadZ9RQbyHikZBnLl6aUpACSgBJeBfBNgI5xdv06XFNXUiJvWge1Ew7u/KRH/7jgBFIzrApqURRSM6d647UucQOFutjFjGXCdPyp3rMcHym9cuPkO0q0bAZCkb3JzqG+px5swZEYs4p9WYEfED5mI0oSFJgGXYJl3RWkcLZZc0ZzDr2ua0NnKMgOm5BWC3YDu+Cro9RHcIHgIqGgVPXuqVKAEloASUgB8TkMamnUPhNovTSopHrpMnjfFg38eVif72HQE2ojlymqtoxDOacua7s/tnzOa6O5tTZLC5+HrqbF9d73mD1WesLBad5hzMQ7UU88/7T1PlnoDD0og+jWip3HmgUGQNpsx7Mnd/Zl2rBBwEVDTSkqAElIASUAJKoB8IsNLGhkpfRaN+SKqeIkQIuIpGpntaiFx+ry5TRCOXkeU8aZBxH52UgBJQAr0l4Mlzprdx63FKoDsCKhp1R0i3KwEloASUgBLwAgEVjbwAUaPwKoF2otG9g2EcYXv1JEEUGe9h072Uw1xz2ZOGnNkniFDopSgBJdDPBMxzpKt5PydJTxdCBFQ0CqHM1ktVAkpACSiBgSVAK6PKykqUlpXi7NmzHbpIdFUZNNsG9gr07MFEwCoa3XvvvSoadZO5vAc58mFFRQXKyspk2erfyNyjnc27iV43KwEloAQ6JcDniula6TrnNp2UgC8JqGjkS7oatxJQAkpACSiBVgKs1N24cQOPPPIIcnJysGfPHvFtZAXUWWPTut66vy4rgb4QUNGo5/SOHj2KBQsXYObMmc6R5qz3Z1fLPT+bHqEElIAScBAw3duvXbuG8+fP49y5c7h48aJ0eVdGSsDXBFQ08jVhjV8JKAEloASUQKtjYVopUDCKj4/Hrl270NTUJCNVGUBdNTjNNrOvzpVAXwmoaNRzgjU1NZgyZYqMNFddXa3d03qOUI9QAkqgFwQoGt2sv4nS0lIZwGDdunVSj+AogJy4XScl4CsCKhr5iqzGqwSUgBJQAkrAQoCiz+XLl0U0SkxMxGuvvSZfCK0VPSMMdTW3RKmLSqBPBBoaGqTxcd9990G7p3WPkiMYUSiiaESn4bW1tSoadY/Nb/bgc1UnJRCoBFh+aWW0afMmREVFYezYsZg7dy6uX78ul+RuRNZAvVZNt/8RUNHI//JEU6QElIASUAJBSIDikFU0oqURK3nGmS4vuSuxyGwLQjR6SQNEgF+ot2/fjujoaIRPCMfs2bNx8uRJSQ0FEp0c96ThwHuQohGtBSka1dXVeXTP6r1rCA7MnPw58Rlsljm3CvYDkzI9qxLwnADL7NWrV7FmzRo8/PDDIvRnZWWpaOQ5Qt2zDwRUNOoDPD1UCSgBJaAElICnBEyFb0rOFMTFxWHnzp0iGLk2ZLhfV8HT8+l+SqA7AhQs6dR58+bNWL9+PXbs2CHCpil/3R0fCtvJwky8V6uqqpzd01Q0MmT8d878M+IQrTROnTqFDz/8EKdPn5bGtjV//fcqNGVKwCFgUzRauWolHnzwQQwePBgTJ00U6yPy0bKspcSXBFQ08iVdjVsJKAEloASUgIUAGy3s2hITG4NXX321nZURd2Olr7tgiU4XlUCfCdy8eVO+XtOhKn1uGcs3bYA40Fo5GNEoOzsbaelp2j2tz6WvfyIwz1T6oyooKMDixYtBfzAnTpzQhnb/ZIGexQsEWI5ZhzCiEbsUT548WZ7fXoheo1ACXRJQ0ahLPLpRCSgBJaAElID3CBhH2JFRkWLVwQa6dTKNm67m1v11WQn0lYApgyxzZrIum3WhOreyoGhUWVkJikapaak4fPhwtyKv9V4OVYb+ct1vv/02IiMjQR9e7NZTVlbmtELylzRqOpRAZwT4LKH/olWrV4ml0ZAhQ+RZxHqFTkrA1wRUNPI1YY1fCSgBJaAElEArAfo0mjVrFmJi2iyNrHCsDczOlq3767IS6AsBljGduiZgZWREo6lTpyIjU30adU3Ov7bSRxdFozFjxoCN7ZSUFBGNbPb2wr1/pVpTowTaCPBZRNFo9erV+NOf/iTlmAL25SuX23bSJSXgIwIqGvkIrEarBJSAElACSsCVACt8RUVFWLRoEd599124Nlg6E4qs613j1N9KQAn4joCraHTs2DGsWLECTz75pDgNt96b3S37LpUac3cEmDdW0SgxKRHl5eVqadQdON3uNwRYhtk9jaLRQw89JI6wVTTym+wJ+oSoaBT0WawXqASUgBJQAv5CoKmpSUZfKi0txblz5zr40+iu0cntOikBJdB/BKz3HC2NLl26JM7DeQ/TKa0n96zZp/9SrWdyJcA8sIpGCQkJOHTokIpGrqD0t98SYBmmaMTR01Q08ttsCtqEqWgUtFmrF6YElIASUAL+RMA0HCkcNTQ0iMNhpo/rzWT26Wpu9tW5ElACvifgen82NzfD3MMUkTh1db9at/k+tXqGzggwH1Q06oyOrg8EAizD7kQj9WkUCLkX+GlU0Sjw81CvQAkoASWgBPycgGk4MpnWZfPbJN9s62pu9tW5ElAC/U/A9d5kClzXdfa7/1OrZzQEmCcqGhkaOg9UAuziXlxcjIcfflh8GnE0Vlo86qQEfE1ARSNfE9b4lYASUAJKIOQJsMFinUyjkuvooNVMZn1Xc7OvzpWAEuh/ArQust7PXd2rrtv6P7V6RkOAeaGikaGh80AloKJRoOZc4KdbRaPAz0O9AiWgBJSAEgggAtaGpL3F3s6nhnVbZ8sBdKma1AAgYO1ixWWWSZY9nToSIBebzdbje9bcyx1j1DX9RYB5oKJRf9HW8/iKgIhGa4sxYsQIDB06FBzJkaOy6qQEfE1ARSNfE9b4lYASUAJKQAm0dmEhCNPoZAO92dYsv00j3TQuu5orTCXgLQIsZxcuXMCJEydw/PhxnDp1CvUN9SoadQKYvHjf8h6mbyP+5tTV/Wrd1km0urofCDAfVDTqB9B6Cp8SoGi0ddtWJCUlISIiAo8++qg45zfPIp+eXCMPaQIqGoV09uvFKwEloASUQH8QYIVOrDjsdpw4eUKG6ubXQTY8ud7asOxuuT/Sq+cIDQIsf3v37sXjjz+OJUuWYMOGDTh77qyzPIYGhZ5d5c2bN/Hhhx+K0NbY2CgHd3fPmu09O5Pu7U0CzAMVjbxJVOMaCAINjQ2orKzE9u3bsWnzJrz+xuvgc4j1CJ2UgC8JqGjkS7oatxJQAkpACSiBVgJstNy4cQNr161FUVGRDNtNiwXrZBqXXc2t++uyEugLATY2NpdsluGbR40ahezsbBw7dkyitPra6ss5gulYMvnoo4+wceNGrF69WiyzeH1d3a/WbcHEItCuhflAgXT06NEYPHgw4uLiUF5eLnkXaNei6Q1dAhSH+NxmXeL6jeuyHLo09Mr7k4CKRv1JW8+lBJSAElACIU2A1kXTZ0xHSkoKXn/9dbE0sgKxNjA7W7bur8tKoC8E2PjY+NxGGYXnwQcfRFpaGo4ePSpRqmjkIGvlwHuypqYGM2bMwMRJE2W5s/vU3fq+5JUe2zcCzI933nkHY8eOFdEoNjYWpaWlKhr1Dase3Y8E+CwyzxWelss6KYH+IqCiUX+R1vMoASWgBJRAyBO4cuUKcnJyEBMTg1dffVVFo5AvEQMLgKIRu6QNGTIE9913XzvRaGBT5j9ntzbM+JW/qqpK7uG09DQcPnzY2Ygzjbmu5v5zVaGVEuYJ866iogLTpk1Damoq5sydI6KfdusJrbKgV6sElEDvCKho1DtuepQSUAJKQAkogR4TuHr1qnQBiomNwY4dO1Q06jFBPcCbBCgarV+/Hvfee6+MxGO1NPLmeQI5LlfRqLq6WkYsSk9PV0ujAMpYdgU+e/as+DXavXu3WB1RxLfmbwBdjiZVCSgBJdCvBFQ06lfcejIloASUgBIIZQJspNBvTFx8nMPSyOYYgck0XDjvLoQyP7127xKgaLRu3ToRjWhtJKLRMUf3NO+eKXBjM/cmr6CdpVFamlgddXe/WrcHLoXATznzgY7f6cicoaGhIfAvSq9ACSgBJdBPBFQ06ifQeholoASUgBJQAmJpNCVbnLDu3LkTNrvNKRKRjrWB2dmyUlQC3iJA0YiO2WlppKKRe6q8D81E0YgjF7GLKbunsataZ/epu/UmHp0PDAHmCS2OXAcgGJjU6FmVgBJQAoFDQEWjwMkrTakSUAJKQAkEOIFr165hypQpoBNWikau/jTcNTRd1wU4Ak2+HxFQ0aj7zOD9ZyarpVF6hnZPM1wCaW6ep4GUZk2rElACSmCgCahoNNA5oOdXAkpACSiBkCFw/fp18YdC0WjXrl0qGoVMzvvnhapo1H2+dBCNqqvkHs7MzERtba1aGnWPUPdQAkpACSiBACegolGAZ6AmXwkoASWgBAKHAEWjJxY/IY3Ot956SxqcTL11WO/AuRpNaaATUNGo+xy0ikZcPnL0CB577DHMnz8fJ06cUNGoe4S6hxJQAl4mwC6W9NHFuVrPeRmuRueWgIpGbrHoSiWgBJSAElAC3ifQ1NSEvXv3Ste0kydPygnY5cW1m5r3z6wxKoGOBFQ06sikqzUUdy9cuACOvvX666/j0qVLzgababh1Ne8qbt2mBJSAEuiOAOsK58+fF39q5eXlOHbsmIhHfO7opAR8SUBFI1/S1biVgBJQAkpACVgcXBMGR+6hxRG/EnJSx6xaRAaKgIpGPSfP+5b3L53am3u4K6HIuq3nZ9MjlIASUAJtBOrr60WwfuSRRzBnzhysXLkS9JWoolEbI13yDQEVjXzDVWNVAkpACSgBJeAkYBqOzhWtC1zPL4dmuydz1zj0txLoLQFavm3YsEFGTxs6dCgyMjJQV1enDRAPgFotBD25b7mPTgNHwOSRawpkPTRvXLnob/8kQIGouLgYYWFhGDlypHR1v3Llin8mVlMVVARUNAqq7NSLUQJKQAkoAX8l4NpoNI0Y1/X+mn5NV/ARoKUMHbLTqXN6ejqWPLlE/PSIkKkN6S4zXESjFrvsY72Xu1ruMkLd6FMC7FrIPGtsagQt7CiYqj8YnyLXyH1AgKLRqlWrMGrUKDzwwAPy7GY3WZ2UgK8JqGjka8IavxJQAkpACSgBJaAE/JAAG80fffQR3n//fbz99tuoqKiQrlcqZHafWSoadc/In/ZgWadFRmlZKQ4ePIjKykr5rWXdn3JJ09IdAYpG7JJGK6Nhw4aJ2G9EIy3L3dHT7X0hEFKikevNxN+u6/oCU49VAkpACSgBJdAdAX33dEdIt/cXAZZFNqabmpvE+sL46Omv8wfyeUQ0squlUSDkIcs5y3Z1dTXmzZuHmTNnYvHixWJVFwjp1zQqAUPAWBqNGDECQ4YMkS7Fly9fNpt1rgR8RiBkRCOpGNkdwxKSpnmB2Ow2n8HViJWAElACSkAJWAnw3cOv3fwy2NDQAHaZcJ24j05KoD8JNNscTtn785yBeC7em+zWdOWq5R5u/QDJbd2FQLzmYEkzRb79+/dj3LhxeOihhxCfEI/KqkrYW7sYBst16nUENwGraHTvvfdK9zT1aRTcee4vVxcSohFf4nxZ8Gsa5+Y3vzqwosTf3pjcVf69Ea/GoQSUgBJQAoFNgO8HvmvoS4PDdb/yyisyVC7fS9bJvJ+89V6yxq3LSqAzAu5EI63TdKTFOiSHu37zzTfFFxSXea96GjrGqGv6iwDzaN++fdKt54EHH0BsXCzKD5VDPx73Vw7oebxBwFU0ysrKAi2NpH3r5iOUN86pcSgBEggJ0YgXyoo6h0f9+OOPcebMGZw+fVrm/M3hj3mzdTfxhcP9WMmn4MSvTQxyo7LSoDdrdwh1uxJQAkogpAmwwsduEdOmTRPxiE5ZO2twhjQovfh+JeBONOrXBATIyVjfO3LkCBYtWiTDXXO5s/vX3foAucygTSYtjYYPH477H7gfcXFxKC8vlzp90F6wXljQEXAVjSZOnCiWy2yb8pmjkxLwFYGgFo34cr9x4waOHz+ON954A6tXr8bjjz8u/Znnzp2L+fPnY+nSpXjxxRelnzO7C5j+/OZlb0MrjB4AACAASURBVMDzN7sSVFRW4NWdr8pX4ldffVW+NvE4vVENKZ0rASWgBJRAZwSuXruK6dOnIyEhATt27EBDY0ObFaybDw/mXWSddxa3rg8tAmwkyAhQ7HrfasnWWwIqGnlGjsyrqqqQk5OD1NRUWbbem90te3YW3ctXBGhp9Kc//UlGnYqPj8ehQ4c8+mjsq/RovEqgpwRcRaNJkybh4sWLjnqEdrXsKU7dvwcEgkY04ovaOrEideLECWzdulVe7nQW9h//8R/41re+ha9//ev4p3/6J/y///f/8C//8i+46667pAJPUenw4cMiDlE8ouhkJsbPPqOPPfYYfvvb38oxd999N8InhOPo0aNOscnsr3MloASUgBJQAq4EWOGjlRG/cvPDA61g+a6xvm/MMd01QF3fe+Y4nYcAgZYWXLx0EQcOHsDJD0+KI2t3ZchTEioaeUaKohGdKU+ZMgXJycmy7Ml9avbx7Cy6l68IUDR68MEHcf/990NFI19R1nh9SaCDaDR5klga8fmvdQJfkte4g0Y0smZlfX29fD1YuHAh7rnnHhGJPve5z+ETn/iEhE9/+tNg+NSnPoVPfvKTMr/lllvws5/9DDNmzMCBAwfAm9L15mOf0bT0NHzxi1/EZz7zGQl33nUn6urq5GufNQ26rASUgG8IODqCdvzvm7NprErAuwT4bsmdliui0c6dO+XdoQ1K7zIO+thagBa7HTWHD+PRRY+icHUhTpw80aePVyoaeVZqKBrV1NQgOztbRCN+aDT3rydzz86ie/mKgLE0GnbfMHkG09LIta7vq3NrvErAGwRcRaPJkyeraOQNsBpHtwSCTjTiC/3gwYPyFegHP/iBCDwUh/7yL/8SX/rSl/DVr35VLIy+/e1v49Zbb8XnP/95EY3+4i/+Qvb5/ve/D96AfJHQWsk6UTRKTUuVOClA8Zjbb78dtbW11t10WQkoAR8RcHTB4NcUN8FN1x4fJUOjVQK9JsAK37TcNtGoualJBABtuPQaaegd2ALYbTaUlpdjYvYkJKYnYdX6NThy/Cia6VjdGF5zbg1dkFLRqAs4lk38mk/RiPVEdk8zopFlF130YwJGNBo6bChiYx2OsPXZ68cZpknrQMCIRiNHjgRHT6OAzfapluMOqHSFlwkElWjEG+ajjz5Cbm6udDujNRDFnS984QuggDR06FCkpKRg6tSp0mUtKjoKv/vd7/DNb35TrIY++alPyvy2227DE088gVOnTrW7CcXSKC0Nf/M3fyNCE+P+5S9/6TRP9nLeaHRKQAm4EFDRyAWI/gw4AlevXEXu1KmIjYmR0ZfszTYVjQIuFwcwwa0iEMWLsrJy5MzIRXJOOtJnZGHZ6uU4/sEHaGq0jMjngWjELpJsiNAH5I2bN5xdJbUR0jGfOTw7RSN2T6PluYpGHRn58xqKRg899JC0B1Q08uec0rR1RoDP6nXr1iEsLEy6WrK7O33r9qV7cmfn0vVKwEogqEQjVnh4I/3nf/6niD+0BGK3tJ//4ueYNWuWOB3lSBcUgz788EOUlpaipKREvjZ84xvfEIGJ3dV4zB//+Edxcm21NqJolJ6eLpZG3I/hV7f/ShwhWqHqshIIegLWhkg/LncrGvVjWtp9wdfztrdoCCUePbzZr1E0ypmKmOho7Hp1J1psbb7z3EblytLtTv6z0nGPuh+C3H9SGaApsZQFu82OAwdLMWX2NOQ8NhMZCychakos8tavQs2ROjQ2t1pKW45xd9WM5+iRo3j99ddlwJD33ntPRpqlYKSiUUdiZFJzuEY+PqalpclIah330jX+SsCMnsaPyCoa+Wsuabq6IsARv//85z+DLlg4qEZhYaE8s9WnUVfUdJs3CASVaFRdUw2a633+C58XAYjd0mhhtGDBAvkaxBvNTHzx8+sahaDdu3djxIgRIhaxG9tnP/tZcZpdUFAgX9/MMZevXEZ6Rrp0aaOVEUWjO+64Q0UjA0jnSsDHBLoVjXx8fo1eCfSVwLWr1zBzxkwkJSZh185dsImlUQta7HRU4yZ2a6O/ddk06K1zN0cOyCprmjosu73AAUlmYJ7UUhYo9rx/oBRZM3OQ/cRM5Cyfici5cYiZkYTFK5ei6mgNbjY2dBRzXa68qakZO3a8Kh/EMjIysGTJEnzwwQf61dqFk/VnbV0tZs6cCY5adOzYMesmXfZzAhSNWN9X0cjPM0qT1ykBumE5c+aMuFGhOxZaPprBm9TaqFNsusELBIJGNOINQyuj7//L98XJNUUddiObMGGCOLa2WgwZbqzQ8gajqd/69evx85//HD/60Y8waNAgGU2NVkhXr141u8voaaxU0RKJVkwUje68804VjZyEAnPBNGwCM/WhlWoVjUIrv4PualuAG9dv4LmNzyE/Lx/l5YfQ3GyDzWYHRQAZBNQIRxaBwNWqTd5dLXawq4x5fvnTnOlyFzxNY9Dlu7cuyFImWHc5WFaOjBnZmLh4BiblT0fSs5mIeTQZ4dNi8fjKp1BWWyHCkZ0FyxzrkhZbkw2bNm3GsGHDJGRmZor1jDY+XEBZfp46fQobNmzAqtWrxHLdskkX/ZwARaNRo0aJL5iYmBiUl5erRZ2f55kmryMBvkspHjGw/cvJvF877q1rlIB3CASNaESLIX71+fItXxYxh6LO9773PazIW9FO+HGHjTfaBx9+gOXLl4uZH83+6Aj77NmzzpuRx125cgUqGrkjGNjrWDlmA0en3hMwLyudu++W40suzsagaRT64dyX1+8atz/zoDBU39CAc2fP4dTp0+JDhhZGNj6DKBrZKYu2te+53GGFrORqx1/v71rfHWnS5jrv7RkZj07tywLLSmn5IWTOnIJJT87E5KIZSC6YiNT8bEQvSkbYtGg8unIxyo9Wod7WflAPK0t7sx2bN23GkCFDJLDL1dGjR7UhbYVkWebzhiP0njt3DqfNPSxqr2UnXfRbAvvf2Y/IyEgRSBMTE0U0UoHUb7NLE6YElIAfEQga0ejEiRN44IEHpGuZsQL6zW9+g917dntkZs2KAB2J0bKIFQJ2XXN9kaho5Ecl1xtJYTvE1oLmpmY0NbeFxtZlqve9CU3NTQju0MbKyi14lpvQ2NTod8FRptyzp7WKv4aBKBf+wqKp2QYTmKbGhkbcqK9HfWMj+JxpttvRbLPLMrsJeRLkedXUJKN7Wp9P5qtjsMz5/uW1iKhPUU2Dowsjv2+QTbMN7x8sRdasHEx+ahayV81EyqrJSFuZg5T8bIQ/EouxUyPxxJqlqP3wOJqM7ywX/Y1Wbps3lzhFI/ptpGikk3sCrCuauqERrN3vqWv9iYDJN7qxeOqppzB37lwsW7ZMuhea/PSn9GpalIASUAL+RiAoRCO+DMrKy2Qks09/+tPOEdMefPBB8AXh6cR4zGRdNutUNDIkgmPe1NCIk0ePo7KqEgcry3GgogzvHyrFe4dK8X75QRzoQThYXgoGxzEHcKA8eAPZBHN4r/wA3it73/8C01V+oAP7Ayx3h8r8N5Q77qf+LDMDzkOeBbzuUrwr94tj+f0yPiPK8H5FOd6rKMN7lVwuc+apo+wdxHtlB8F9eXyHINsO4P0ylgU+Z1qfVYcO4oBLOHioFP0dnOkx6bLMPU5LRSlKK8pwoOygzLkc6qGsohzllRWoYKgol3zd9PxWJOSkI2vJdExaNQOpa7KRsioHiQWTELM8FeMWRGNsTiSWrsvHkQ8/kI8jrkZbLbYWlJRsER8v9PNCa+qjx1Q06qyWw7qhzW5TS6zOAPnpegpDFKHpjoKiaF1dncyvXb+meemneabJUgJKwL8IBIVoxJfBnrf2iPNqWhnRn9Ett9yCsWPHetVJoYpG/lV4+5qac2fOYmV+IR5Zsgizn16AWU/Nx/Qn52LGkrmYvnguZroJsxbPBYNz2xOO5VmL52G2l0LbOeZg5uKBD7OWzIU1zF4yH87w5HzM7muwxueyPGvJvHbntqbDn5eZbzMWz/ZqMGWh43XPa8sPF37OfBrA9QORhwN93eaaZyyeg2lPzMK0xbMxdckc5C6ei2mL58nzJZfrFs9CzuLpmPrENAk5T0yXdVN53GLHc2jG4rmwBj57Zjwx2xlMufCXuTVtrsuep9FxjdMfnyXPW5Z5Xrd5Nobq3PnekefLHGTMm4Lx2XHIeGo60oumInFVFhJXTUJMQTqiC9NEOBoxJxxhubFYujYPtSePiVWbvDv5jawF4k9r8+bN7UQjde7cee2ColG74KrCdX6obhlAAtY8o3hEK03OuV4nJaAElIAS6J5AUIhG/Oqzc+dO3HbbbeKgmsLR5z//eYSFhYHd1rw1qWjkLZIDHw99ZBw9cgS5U6cibUYW4hdmIG5BOmLmpyJufhpi56UiZl6KM/B3/II0JCxMR+LCDCQsyED8gnTZl/MEBq73UohfmIa4Bal+EZgWazDXSA7eCMLOMHSZk3n8ArLveYibn4LOgiM+xu1J6N25Y+cnw5eB19bGxZPrGKh9eE91nhfe3tazvPUVE8c1x85PQvS8eETOS0D4/EREzE9G5Hw+V5IRNS8REfPiETE3BhPmRiF8bhQmzI/FhAWJiFyYguiFaYhdmI44PgtcQuyCFMT5aWCZj+kkeJbuVHne8PkX2/oMlOdh63MoYSGfw6ES+F5pCywHsQtTJcQsTHWUpcczkZ43A0lF2YguShOxKCI/BRMKUhCZn4KwZ+Ixdn40xk+NwVPFy1Fzog71TY0Op+vsod1MR9ibtHvawFdLNAU+JGD1i2YEJB+eTqNWAkpACQQdgaAQjWhpRNHohz/8YTvRKDw8HMePH/dapqlo5DWUAxKR9YsSl6trazBlRg4mLZ6GtLxpSM3PdYSCXCQX5CAhPxvx+ZMlJBRkI7kwB8krpyK5aCqSC6ciqZDdAKbInMuObTlILmoLSUVT0FVILMqGhMLJSLSEhMJJiC+YOCAhoXAiOoSCiUhoDUmFk5HcGpIKJiOpYFLvQ/5EJHYbspCQl9ltSMzPQvvQFndS/iQk50/uNnA/a3CkzTXejr9d0xefl4H4FeneD4y3NfCcbdc7sV26rdfgD8vd53FbXvV1X3+4XqaB18G8il2RiugVqYjIS0XUijTErEhHQl4WElewXGchTtYlI2pFEqJWJCM6Lx2x+VmIK5iEhILJSCh0CbK+7X5MkN/ct2NgN6X+DvKcyJ+IBDfBo7Tw2cLnYuv1xOVlIZ5x8VoKJ4PPn1AJ5OAIfI+0vita5ywbcQWTEV+YjbiiyYguzEBkYaqIReH5yXCGghTE5mUi7JEEjM+NwZLiZag+VouGJodzbPo0eu6552Q0KTrDpiPsI0eODMg7OlBOyjqnNQRKujWdSkAJKAEloAR6SyBoRKM33ngD//Vf/4W/+ISje9oXvvAFjBkzxqsOHVU06m0x84/jXEWjysNVmDQjG5lLpiJhxRTEr5iM+IJsxBdlI7ZoEiIKMxFRmOEIRZmItISIIm6zhNZtzv3NcYUZmFCY3k1Iw4TC9iG8IBVhhSn9HsILUtBVmFCQiojCNES2Bi67hsiCNER5ELhfZH5qt4FfzSPykz0I3K99MPE70pOOqIKuQsf0tJ27fbztz+M+beF5ifBmmJCf5IaBI13mOnXefXnqT0YTpPGehPH5SRibn4QxK+IwZlksHn4kHMMfmYDxTycgIi8FYXkJGMdty2MxdgWXkxCWn4rwfIoAaYiwBq6jJUl+1/cq7+MI3q/9HCRdVtHCskzrl+7SM6EwFVGF6YgsTEdEUTrC8pIRlp8MPnvkmcHnhiW4PjuD6bfkOznIO6T9O8JRPriO75c04UO+ZMVA0SisgIHM0xBXMBHhjyYgfHoclq5dgerjtc4BIGhpNHjwYNx3331O0cj6vvSPN7h/pIJc6BentrYW1dXVuH79un8kTFOhBJRASBPgs0mf2yFdBHx+8QEvGvEGYb/kffv3iSPsT33qU+LT6K/+6q9kSM3Dhw93C5HHc2JF4MaNG532c1bRqFuUfr2D9WHK5cqaKkyaNhmTlkxDSh6FI36V51f9SYgpzEJ4QVqnYUJBOsJbA5e7C+7EJLOuu2P7ezsbKF2FyKIMeCPI9RekI6K70E16rGllA9sECm/WYNZ3Nrfu225ZGueOxru7Y9vtW9C2n+t6b/y2np/xWX/rclve+w8LNugpHGcivCgT4/KSMHZpHP4naTB+HfdHjJgXKVZFbNSPz0/GmBUJGJ+XjPErUhCeTxEzHZEUOvPbB1fhKyI/FdZgtotYKvH0n5hGEayzYNLV6bxVDKLVTHRRpoSIvDRE8BrcCL5cZ73/g265gPnPDxd8x1jfR6kI44cFecZxPQVGh4hoRCOZUzRqFZEotMWuyET4Iwni42jJmmdQe/Iort28Dvo0opXR/fffj7T0NBw5qpZGXVVmPvjgA+Tl5eHpp58Gl61dn7o6TrcNLAFrHXBgU6JnVwJ9I0CfXBzpu6mpCQ0NDRIZy7eW8b5x1aO7JhDwohEvj2bCHCVt0KBBoFhEn0af/OQn8etf/xr79+93Do/aGQqKRlevXpWKE7+4HTx4EGfOnBEBiXGbSUUjQyIw59aHKZeraqowOTcb2UumI7VgKhLz2CUsC/EFmWIpE0Z/EG5Czxv/1sp+18v9LRD15nxG7OrLnF/HuxLlzLbepI/HOI5PdZt/7vK0u3U9y3OKF90LiX3Zx/DpWbrai2j9d6zveVhZmrzvv+vrims6wkU0yhLhiBZHY5ZG41cR9+Bno/8Hw2eEI6VwCqIKMkQsGpvnsDCiQEChRMSSVsEoms6NRUBqs4iLKkgFg1WEcVjVOdabbe0t47qymvPCtrxkTOgkdJcOuQ5aKRbSkXOGzI0YZrUusi63s8KyWmQF2bJYebaK4m7Ltryr2kQiY20kFketwhFZxqzIwPiFcQjLjcGzG/NReawGxevWyUe2YcOGqWjkQfWGI2/NmjULkydPFosja93Cg8N1lwEgwDzSfBoA8HpKrxNobGxETU0Ndu3aJeGdd94RAYkn0jLuddwaoYVAUIhGvEk+/vhjxMTE4Etf+pJYGlE4+sEPfoC1a9d2az7M48vLy2X0kNtvvx3jx4/HokWL5Ga8eu2qE5eKRk4UAblgfZhymaLRpNxJmLQkFykFOYjPy0JMfjqi5at9m5m/+VJr5vJFl191fRFcrGPcNg4GeB82XvoapAucp/x6e71uGlEmD3s671Fe9za9PT3OU34DvV9Pr8sb+w/0NbeeX8RIuR6HWDw2Lw6jnpqAOyJ+i1+N/g1G5YYhc2UuYgoyEL4iWSyRTDcsNvAn0Gqndc7ltpAMdn0z3Se5bA3tunNK9yR2UeqfYE1Hh+Xu0tB6HZEUwgrZHY0MHCJUd4JTaGxvb1FmBDUpIyxnXTzzRDzKSxKBMXp5GsYviMWEGbFYum4FFj6xCEOGDcXQYUORnp6Go2pp1Gkdh3UHdk3Lzc0VgY2NN2vdotMDdcOAE2A+aV4NeDZoAvpIgEYOJSUlSE1NRVR0FB5//HFcuHBBYtXy3Ue4eniXBIJCNOIVUnldunQpvvWtb4Fd1Cga3XrrrUhJSZF+51aLIVcily9fxrJly/CNb3wDf/3Xf40vfvGL4lR73rx5IkZxf96Ily5dQkZGBj73uc85rZnuvPNOVFVVuUapv/2QgPVhyuWKmkpk5U5E5pIcJBVki4PaSGmkJSE8L8nh28dN47OngkNP9u+ROOEmbf1yfDd+j7ryieTc1vrl2xM2vb0mT+L2xT69TW9Pj/NF2n0RZ0+vyxv7++I6ehMnLYvY7YyBjfbxefEY+1Q0bg+7G78YfhdG54QhoyAHcfSPlp8qvo94/W1CUbKISWG0QLKGFYnym6JMeD63JSKM62R9oqzj+gEJkk6mr2OQ56oH6bIKXHJMXlI7UayDGOUimgXr9jZhzL14RMHRallkyqyjHCZiHH1n5SUgbHkCopalYsycSETmxiMsORJ/HDYID48ajim5U3DkWJ10uWK3K+161b4yw7okhaKpU6ciNS1V6pfWukX7vfWXvxBgHrFXgWkL8DeXpYSrmOQv2aTp8IDAtevXsH79evHbSz90fBadP39ejjTuVjyIRndRAj0mEDSiEa/8/fffF2eOFH7YPY1d1egc+5lnnsGHH34owpIhZF4gFy9exI4dO8TK6C//8i/lOIpO//7v/478/Hzxc8Rj+HLhvioaGYKBN7dW7LhM0ShzahYyFk9BQv4kRC3nCEf8Yu9obEkF3J3VQxdfc00lXeftu0koD+URamXAIRYlYVx+IsbnJyIsn47RkxD2dDxuH/9b/PyhOzEuNwJZBVMRV5Apjq3ZuDeiUTsrEhGI20bEMgKSQyBIwvi8NkGAogDPF8iBYheFH4pHwSoA9fa6HMKRe9GIZcZVNGI5HCeO2BMwJi8OtHYbtyIekStSELM0FZHzE/BA/MP4vwd+Lx9RijcU46MzH8HeYkNLi90R0BJ4L3wvpthad2BdkA6w2VDjSHP0m2nd7sXTalReJMA8YuAH5gsXL0gjmz0U6BPGbPPi6TQqJeAzAtdvXMe6deswfPhw8UXHbrJGNDKiqM9OrhGHNIGgEo1oCUTHhN/97nfFYujTn/60WA3dc889ePLJJ/H222/j1KlTcnPRZ1FlZaXceBxl7Wtf+5pYD33iE5/Al/7mSxgxYgTeffdd0NkYJ6q3NP9T0Shw7xdrxY7LFI0ypmYifXG2DOlM0Ui6Qqho5HSeGmoNfb1eFbe8UQakoV6QLCOmWUUjCgVhSxNxe9g9+PlDdyF8WjSyCnMRm5/hsERqFY0oWLfz1UMxwGLhZ02jw4qEFk2BLRRZ0x8mHNpEMgohGly7IDos0qziolioUWC0jKJmRCOWw7F58RiXnyAWaJH5aYjLy0LS8kyMmxmO3436PZ5Z9SyOnDyK6/XX0GxvdAhHIS4YscZjrTuwUUbr8pycHBGN2FXNuj1wa0jBnXKTR2wDbN22FfRf+vzzz+Ps2bMOi6OW0BZGgzv3g+vqOGATXa8Y0WjSpEli1MCrNOU8uK5Yr8ZfCASVaERhh2bDiYmJ+Pa3v43PfOYzYjn0t1/+W/zkJz/BqFGjMGfOHBGW2AeUX4nuvvtu/OM//qOzS9tnP/tZ/PjHP8by5ctFJDI3IMUjKrmZmZnaPc1fSm8P02HykodxuaKmAulTM5C+eDLi8rMQuZw+Q9TSyNog1WUVUbQMdF8GHFZFjm5oTsGoVTQaa7E0mlCQjAnPpuCO8N/hVyN+gwmdikZpjlHBWkcHc4yc1epwuxNLR6voEtjLdAbePfNQ3IfCmdVCyVUwavtNn3sOhu3LZiLCCpIQUZiK6IIMJBRORsKzGQibG4nwrEjsfOs1NDQ1iFjUZG8QK6MevmaDcndr3cGIRlOmTFHRKABzmwPd8OMvfaBmZ2fLx2O2Hax5HICXpUkOIQJGNBo5cqRYGk2cOFHcp4QQAr3UASIQVKIRH/o3b97Enj17xDnYN7/1TYdw9KlPiuXRl7/8ZXzzm9/Ev/3bv+H73/8+vv71r+MLX/iCCEv0gUTLpNtuu01GxaDJMc1WzWQsjbKysvD5z3/eaZV0xx13yEvH7Kdz/yVgrRRwmaJR2tR0pD0xSUUjbaRpQ1XLQK/LQPuGeTLGUTByIxrRgiZyeSpuD/tf3D7ybkTMiMXEomni02hCforDpxGtjApbh5K3DCnvKhwZ309GPGmzOKLVUeAGXg+vrbsRDUNzu8Piqr1w5N7iSCzTOnBMxoSCFHD0uViOFLpiIiYsTEDywkxseHETPr7o8ItBPy82O7vttI0e679vdt+nzFp3MKIRLY3S09N19DTf4/fqGfbt24ewsDAZLZDCUVlZmVoaeZWwRuZrAtevXxdLIxpCDBkyBGyXsqeNTkrA1wSCSjQiLIo7VGHfeustpGeki0+jv/3bvxVBiF3PGOiziIF+j4xYxH1++tOfgs6v2V+d/Z6tfUO5bO2exnh4/F133SX7+zqjNP6+E7BW/Lh8qPoQUqemIXWxikam4alztXDQMtDzMuCpaETfQxHPpuDumMH4v6ghSFyYiskrZyC+KEsa8xR7KA5FUCxyDYXpsq3DiIqdWB4Fcj6SZ2iKQl2LZQ6hsL21EQWkNgfZbQJSm08+x8h9Um7y6SMqBRNWpCBqeTpGLohG7NwUbN65FWcvnoWt1TEw37bi00i7pknFw1p3YF3wyJEjeOyxx7BgwQKcPHlSrVT6Xj3rtxj27tuLsWPHYsjQIYiOjsahQ4ck/6x53G+J0RMpgV4QoGhUvLYYtDS69957pQfMxUsXexGTHqIEekYg6EQjXj4f/g0NDdLvnE6wR48ejZ/97Gf4zne+I76LvvKVr4Dhq1/9qqz7xS9+gfHjx2PturVSAWBXNMZhfYlwmUru3Llzpavbf/7oP0WQGjduHI4ePdpu355lge7dXwRc85OiUUpOKlIWT0RsXiYilic7Rk2js1r61KAPETcjlLExFshf8vua9kBujGraey6IKLPumXksGq1IRGReGkbNjsSEufFIf3oyJq6ahtjCTKdPo25FI5dnUjA+j7TMdVfmHO8ovqesgV3SjKNsikZSllqt1sIL0sB1tDKKeCYFI+dHYdy8OKx8oRgfXzzb5sOIzq911LR21RJr3UE+IF68AFqs7N+/3zlYSrsD9IffEti7d6+MOjXsvmEiGpUfKoddLer8Nr80YR0JiGhU3F40Ukujjpx0jfcJBJVoZF7s5gXAlzv9ELEP83ObnsMTTzwhI16wPzP9GdF5GL8Wbdy4EaWlpbhx80Y76yIrbsbNrm984XCoQ4YNGzbghRdekHPQwkkn/yZgygdTyeWy6jIkTklEwuPp0pAb/6xjOOKxMiwxncq6963RV9ElkI8XMU2d0qpTXi0DzjLgEG3a/Bk5BaQCx6hV5n6Xxn1eEqKLMhC9PB3J+ZORmDcRCUUTEdk6mNRb3AAAIABJREFU6hX3FaHa3aiNMpw6LVHaCwom/mCau16j/m79kCHlw+H0nKPk0bE131fGh5Xz+cxR51pFo8jCDEQWZYjlWkxhJmKWZyDisSTEzEtG4fOrceLsCTQ3N8LW0oxmW6N2SXNTjXGtO9jsNtTX18vHSdYzdQocAhT7+CH5/vvvd4hG5eVgfuqkBAKFgBGNOGDT4MGDxUcXR/e2PqcC5Vo0nYFFIChFI3dZUN9QL8NscuSEDz74AMePHxerIopKFIM8EX1YOWhsapTKAv0dMbAbG4/Vm9Uddf9aZ80jLpfVlCMpJ1lEowl5qRj7bDzGrIgHHdeaEY9MZVznbcOGO7pD8It2z4LVD0dPlnt6Ht2/Z/mivPrGi2W5S1GDlouWEFWUjvAVyYgqSJMQKWJQz0YHozgQzM+kLnl2xzsot1M0SkR4niOMbxWMxuTFg4HCUZt45PjY4RhJzTEKX3Rhhji+jl2egbCFcUh6NAsrt6/BidMn0NBUjxa7HXa7TQKtjHTqmgDrD6wPMiivrln521YVjfwtRzQ9PSWgolFPien+3iIQVKJRV1D4YqcFkrzkW7ue8euCVUjo6nhu04pCd4T8e7s1r7lcWVOFrNzJSF88BTF5mZiwPFlGT4sqSJfGnKMxnYSIfA1tDJIRlZ+iQRloGWgtA5H59CPTfZCRGfOSEVWYJs8ZT47pbJ8J9H0UoCHcpUuVWGC5rDMjf3UlHjktuqS7sBtLr6Ba3yYSUjhyWhSJ8/Q2izbyYrdqCka0XmP5oQ+j6IJ0RC5Lwbh50YiZnYhVzxej7vRRXGu8gSZ7Mys32iXNv6svmjovETCi0X333SeWRnSErZZGXoKr0fQLAXeiEbunWds4/ZIQPUnIEQgp0cgp+rDPPr8U9bAfM48xgSWFyzoFDgFrfnG5+vBhZE+bhozHc5GQl42YZ9MRszwN8XlZiMvLRPTyFMRoaMcgdkUqYvPSehVi8tLQm9Db8+lxvcsn5dYzbizT0Z6EFamIZnDZN2p5CqLMerNPN/MoOjIO0BC5IgXdhYgVKegu0JlzqARapoUtT0L4iiRMoJWalI80xKxIR2R+GsLzHNZuIhi1+i0ylmxR+dwvDSPmhCNqVhwKt67E8VPHcKPpJm7am9DUYmuzLWKdxlKvsb4zA+dN7/uUWrlw2frb92fXM/SFgBGN6NMoKioKpWWlzt4Cmpd9IavH9hcBDva0du1aDB8+XLqnZWZmis9dfQ71Vw6E7nlCRjQyWez8nuaFF715weiNaugGxtzkV+2RI5icOw2RuSkYPS8eo+dEY/TcKIyZG43RsyMwcnY4Rs2ZoMGFwei5ERilQRloGehVGRg5ZwJGz4vE6PlRGDkvAsNnh2PE7HBwPRv2wR6GzwlHd6ErBuQUaoG8HpoThofmjMfDc8LAZzDfUaNnTcCYhZGIWJqEqDxaFzks3igYReenI64gS/xnjV0Yi+j5yVj1whqcOHMMjU31aLY3o97ejOYWG25cv45zZ8/i/LlzuHD+PJqbmkAlydRxAuPN3n+ptHKxLvdfCvRMvSXgTjSyDn5j6oe9jV+PUwK+JkB/alu2bEFERATo12j69Om4fPmyr0+r8SsBhJxopHmuBNhFkdPpM2excnUx5ix9DJOWzkH2M3Mw9Zk5yHl6JqY8NR25T8/AtKWzMH3pbA2tDMiDIfcZDcpAy4ApA1OXzoInIfeZ2chZOhPxs1MRNysFGYuyHcc949nxnpwjYPchA5dAXq5h2rI5CLUwddlsTFk2C9nLZso8d9kcKTfJ8zPwcNYYxD6egqT8LMTkp0rX6tjCDMQXTETs8kyMmh+NyPmpWPvaFnx48SM0NN1AC/0XtdjQ2GJDs92GstJS5OfloaiwENu3bcP5jz9uZ3GktYY2AhQV6MuSjTQGLusUOARUNAqcvNKUuidAkfPQoUMyINPKlSuxY8cOsMuaTkrA1wRUNPI1YY3f7wgYp+eNDY049cEp1Bw/ivLjtag8XofqE3WoPFaDyiNVOHzsMOqO16Hu+BENTgbkUYdaDcpAy4CzDBw+XgdPQu3xIyivqcCjSx7D9LkzsfXF7aisq0bNsVqPjvfkHAG7z4k6HG4NNSfqwHD4xJEOofbkUYRaOHzyCKolHEVV67zi+GFs3/Ui4nOSkbZoEjLyp4Ddh2Py0xBXkInEvEkY/0g8xs+JR9HLG/HR5QuotzfCZm+C3d7sGC3N3iyDe2zdsgUjhg/HuLFjMWP6dJw8fsIhGlm6qvndi3wAE3T27Fm89NJL2LZtG7is1ikDmBk9PLVTNBrW1j1NLY16CFF3H1ACfN7Q2ogjplG45mBOLMM6KQFfE1DRyNeENX6/I2BEoxZ7C2B3jH3CAVdpf0QvVfR1JY4Rxb9D60pu0KAMtAxoGehjGbh86TJmzZyFpMQk7Nr1Gm7euAm7zQ4+jzS0MbDbOUKVmyD+COmTMPSCrQVobgGaWoBGux2lFeXInp2D7EW5mJSfi/i8dMTkpSJqWQrCF8UjdmEq8p9fjbqzJ8EmRVOrhZGtxSEacd7Q2ICNGzdi0KBBePCBBzBp4kScOHbc797b/pIgNthqamowa9YsZGdno7a2VkUjf8kcD9LxzrvvYMyYMRCfRtFRYrFhHSBHBUAPIOouA0qAZZTBjNxtfg9oovTkIUFARaOQyGa9SCsB0z1N1rEB2EEPcni+cmzR/0pACSgB7xG4cuUKpk6dipiYGLz66qtoaGjwXuQaU3ATcHzngIhHdqCsvAw5c3KR+8QsTCmaieTCiYjPy8CYBVGImp+IghdW4ejp47jeeMMxOpo0NuxiZUTBSLqoNTVi06ZN4lD1/vvuQ0ZGBo7U1akQ4lKSjJjAeWVlpdzD6enpIiCZbS6H6E8/I8B8Olh6EMw3OsHOycmR/DMjKWs++lmGaXJ6TEDLcI+R6QE9IKCiUQ9g6a7BQaDdQ7VVNAqOK9OrUAJKwN8JXL16FVOmTBHRiL4IaOnR7pnk7xeg6RsYAq0WbjSApWVsM0WjslLkzJ2GaU/OQc7KmYh9JgXjH41FxLwELN9WiNrTR1DfcAPNNnZJ41GQua3F4dOopcWOpuYmbN68Gffeey84DDlFI1rPtPu4MjBX7FdnNfco5xSNeA+npKSoaORXudR1YigOnThxQroVbtiwAa+88gpOnz4tXXtM/nYdg25VAkpACYQugZASjRwdkQY+s3ubDvNSM3NzJfztus5s07kSUAJKQAn4DwFaGrHBGR8fLw4s6xvqpYFunuNm7j8p1pT4BQEjGqFVNGpxiEZT5uRi2lNzkb1iGsbMCUf47Fg8S8Ho1BHUN9fDbrM5HF/bHD4vKBRZgxGNhgwZgmHDhoHDN9fWaZcr1zw3dSyKaRSN2DWNotHhw4e1/uUKy09/0/UA/b9cuHAB58+fl2HKaelp8tZPk63JUgJKQAn4BYGgEY2sFW3j1M5KWDocDbBTR5PG3r6gzPHGJ4+5vt7GZ47XuRJQAkpACfQPASMaJSQkOLunufrU0Gd6/+RFQJ3FIhrR/x67qLF72uRZOch5bCaSFqQhak4c8rYX4fDpI2ikBRtHCpXj6BvKYWnkqAu1CUdGNKKlkVM0Uj89HYqGuSeNaEThNzU1VX0adSDlvytMO4B5aILJV/9NtaZMCSgBJeAfBIJONOILgKIRXwjNtmbxMM+hCG/cuNHOu3xvrX16m23efDE1NTXJdbmKR71JG9NlTZt1uTfx6TFKQAkoASXQOQGKRrRSoKWR8WlknsPWeecx6JaQJNCJaJQ1dRKSp2Ugc8EkrH65GEfOHhULI+fIDs7jpMnc6tvIvWg0dOhQ7Z7WSeEydSMVjToBFGCrzbM2wJKtyVUCSkAJDBiBoBCNzMucFPlCZ6WcJsOv7HgF69atQ35+PlavXi0V9GPHjomA1N/EmS6KPTSN7a3Yw+tkHAcOHMDWbVvxwQcfyO/eXgvjY3ooqOkLtLcU9TgloASUgOcEOETu5MmTnaIRn+k6KYFuCVD8MSN8yiifQGlZKTImZ2LijMkoeXUrTl08hZtNN2UEUOdon5aInbKRpYtao8URNruo0acR608yMo9EYokghBdNPZPzqqoq6WKqlkYhXCD00pWAElACIUYgaEQjVoZYyaGTu/Xr1yMrKwtjx47FuHHjZD5q9CiMHj1aXvQvvvgiLl686HFWs5LAvtAUfoy4InN+s7NY6pgKmbuI6fz07bffxuuvvy79qN3t48k6CjyPPfYYfve73+G1114TiyMex3R4OnFfOgQ8evQonn/+eVRXVzuGmbc5zNc9jUf3UwJKQAkoAc8J8B1C0Wj27Nkygs8bb7whFrHWGKzvFOt6XVYCJMA3vemeVnekDs88+wy2vrQN5y59LKOi0V+RTJ1UCaz+jLisopFn5crUsTivqanBrFmzpD5ZpyPNeQZQ91ICSsDrBKzPJa9HrhEqARcCAS0amZuF18TK+MkPTuKRRx7B/fffLwIRK+YrV66UkUE4Z5eAQYMGYcSIEdi+fTvYbc3dxHitcXOZIgu7u3UQjigotYpJFJasx5m4uY4VC37BmzZ9Gk6dOmU29XhO0WjixIn42te+hi1bt4ilEOM3abBGyPXu0sN9ee1kEhYWhj//+c9iscT1OikBJaAElIBvCJhn7wsvvCBWsGx88mOHPnt9wzsYY6UWJMJRC3D5ymUcrj2MC5cuwMb6B7fwA5LZyY1wZD5umTkt3TZt2oTBgwdDLY26LzGsU3HErW3btqGkpATnzp1zW8/qPibdQwkoASXQcwJsa9IQgc8h9jihU/fe9mDp+dn1iFAmEBSiEV/ily5dQmFRIe68806Eh4eDlfKTJ09KVzWOTsMbjF3TFi9ejHvuuUeGO66oqHBUsiwlgHE1NjZKly2OqmAq9FxP4YiBFXwGs42Hs+JFQae+vr6d7yRu477vvPOOVMgSkxLlJu9tI4FiD0c3ufXWW1GypaSdaMQ4mU5O5jokPa2jpsiG1m2s6FBU+7//+z/HCD71jhF8zD46VwJKQAkoAe8S4HOZ74rzF87j7NmzIt7zPaIVPu9yDvbYjCbEd758zDKCES/cbPQQgopGHoJq3Y1iG+uGbKgxkJ9OSkAJKIH+IsDnz3vvvYeioiIsW7YML7z4Qltb0Fia9ldi9DwhRSCgRSOTU3R8TT8/Dz74IH7zm9+IYES/RmYUNVasTKWcwtGMGTMQERmB3Xt2gyOHmIliEVXbvXv3YufOndi5a6fcmB999JFUEqjuMh7Gy3UcdpWVhg8//BD79u3DSy+9JH6TDh48KN3f2EDguSnQrFmzBnfccQeGDx8u6WM3OpMmc35P5teuXRNLo7//yt9j69atzjjom6i2tlbSxWtn2th9bceOHdi/f7+kkWboTBMfOLt370ZcXBx+8Ytf4JlnnkFpaemA+Hry5Jp1HyWgBJRAsBAw4j6fxfKOsHR9DpZr1OvwLYEe6kJdJsaIRkOGDgEdYfOjFH0asZzq1D0B3sM6BQ4Bee6Ksho4adaUKgErAbYDN2/ejOjoaIwZMwbz5s8TAwlp67aOkmndX5eVgLcIBIVoRLFn7dq1+MEPfiAVHn7B5dc3ijK8iUwlnb8pmFBgol8jCkg8ltsputDnEP0F0R8SA7uTMSxZsgQUgrgvXzicv/zyy9Knfdv2bVi8ZDEmTZqEpKQksWBKS0vDli1bxHcFz0kro8TERHzve9/DL375C0kjj6cVUE8mnpsPC57r7/7u70Q0Yto50apqwYIF0uWM56YwxnRwWGeO0vP44487K4L05/TIo4+IxdV3vvMdscx68sknRXDqSXp0XyWgBJSAEvCMgDRWXLoM02rB+o7yLCbdK9QJeFM04kcwjuLHOgo/JLGLPz9qsbzq1DUBMjL1y6731K3+QkDaBa3WGOaZ7C9p03QoAU8IsB3INi/99NIdS05OjlgtszyzN4xOSsBXBIJCNOINNHfuXBFlCgsLxRLIVMStL3R+UWMFyYwYxmW+QCgC0VKIqi1vwnnz5onZX15enlj18OsbRSTz9Y3CU0FBAe666y5ERESAI2hQWKLFztSpU/HHQX8UX0EUmnh+jrTBrmA//OEPRahZtGiRCFSMp6cTu9kxLbf83S0iTJmK3aFDhzBs2DDce++9IhbxGpgeimB0CH733XeD18PubezKt2rVKnnY/Ou//quIWBs2bJDuEj1Nj+6vBJSAElACnhEQPzKWxrg2Oj3jpnv5jgDLIAfF4IcsduunFTKtlU3dwndnDtyYzX1s6pf8rVNgEOBABCzv9DPKeWe+TQPjajSVoUjAKRqNGS09bKZMmeIsx+wRo5MS8BWBoBCN2P2LFkE/+tGPpNJjYDkr5K2jnFEkMmKSdR86E6Nz6Z/97Gd46qmnxAKJwgrjpVVSeno6bvvhbVixYoXcmBSd8vPzRaRid7OXXn5JHJLRwoniTfaUbOn2xVHc2P2NLyWOmkbhhv6WysrKpFJGwaqnE0Ujmo9/+ZYvtxON6J+J/okoTPEa+DJk+tl1jum48647MWHCBHHCTQsnWlnRYun2O24XM0emndelkxJQAkpACfiOAN9LpkFuXfbdGTVmJdA1AX7AYt2CgQ0SpxhiETi7jiG0tpr71tzHoXX1gXm1zCuWa7puePrpp+VDMz+ssq6s+RiYeRqqqeYzet26ddI1jW5ZKBrx2W2eS6HKRa/b9wSCQjSiH6KYmBj893//t/jxMS8A85IwX4HELNXiLNrgpUOxX93+K9x3333y9cGsp2USrZB2vbYLP7jtBxg3bpx0A6PoUlBYAFrpcNhVfrkwYhS3FRcX48c//jGeXvq0CDGskL3//vsi6jCdFHLM/uZcns6NaHTLLe0tjaqrq/G73/1OLJkoIHEy18uX5AMPPiBWSOzGxmtiF7XpM6bjf/7nf8Q0nWlUh46e5oLupwSUgBLoHQG+l/is5TO3Nx8OendWPUoJdE7A1EdM3anzPXULGbELCO9f1vf0Hg6MMsF84odj+ixlrwLW9+lSorSsVOrjgXEVmkolABH2KRqxZwx7mNAAgO1QnZSArwkEvGjEFzidUscnxOO2224TE2u+GDhxGytDZuKyWWcEFc7p3+j73/++WBuJWttqasxtDBR5/vjHP+KuX9+F8vJyqSzQ0ojCEOfmfDwPGwN0UC1WS08/JaIR19Fi6fe//z1iY2PF2TbTYYJJnydzpo/d0/7+7/++g6XRb3/7Wzz88MM4c+aMRGVGeqMZLruo8eEiolFTq2g03SEa7Xh1hwhJ1usw5teepEn3UQJKQAkoge4J8B1E0Z4Wqe+++65YqFrfUd3HoHsoASUwkAR4v7KBRvcD/ODIrnw6+T8B5hsDXVHQeTBdOdCHF5/FrIvrpAQChQAtjdiDZOTIkeAABpMnT9bnUKBkXoCnM6BFIyO68KVNix8KP/TVw68/Zpu7lwGtbCj+UGy6ceMG6M/nn//5nzFn7hzpSmb6hJqXDPenGPPTn/1UxB/G/+zyZ/HLX/5SblzrObht27Ztzq5u/E0xhhUMV9GIZYfnsB7fXXm6eu2qiFtf+YevtBONeD0Ujdj9jd3SOBnRiOa34RPCRTSiAEYRi9c0bdo0sTSiaMR1FMjMZESjnqTNHKtzJaAElIAS6EiAz3tW+DhMLgcu2Ltvrzx7O+6pa5SAEvBHAqwnsXv/0qVLZYARfojTepI/5lT7NDGPGGhpxMb24MGDpYeCikbtOekv/ydAlycUjegeZciQIcjOzpbuaf6fck1hoBMIaNHIwOdLnJ7kaWlExZWiCSvnnMyLwuzL9W+88QYmTpoo4g59F9Ey6Lvf/S6m5k6VCj3jsx5Hfz90hn3HHXeIPyIKQewLzd+bNm0yUcucJsuM76c//an4FjKikdXSiCOTmPRxznOZybps1lnnFI1oivgPt/5DO9GIXdLoMykqKkocXfMYq2hEf0a0NKJQxvW87tzcXPz617/Gjh07RNgyaeKxKhpZqeuyElACSqDvBPhcvXL1ijx7OaolR60yFp7cppMSUAL+TYD1Q7oD4KAn9KXJAVK6q7f59xWFTuqYdxwledSoUWJpRHcR/ODK9TopgUAhcP2GQzSiMYMRjfgxSicl4GsCQSEaERIteYbdN0ysbVgRp1jDyYg/Zk5LG1rY/OY3vxHfQ+zuxZfIT37yEzFZpX8kY3XDY/gyoQkyrYr+9Kc/yRcmxs2vTHfceQeee+65dnnErgfuRCPj04jd0/iVivGaNJkIXH+b9da5EY1uvfXWdqIRR2ijpRH7ahtzaSMaHTlyRJxgUzQ6deqUCEKXr1wWDhwB7pVXXmn30mQ6OKlwZCWvy0pACSiBvhPgO4dfBvmsFtHI1ux4F6ho1He4GoMS8DEB1t0oGtH5bFpamopGPubtzeiZd6zv0xcMG9vRMdEqGnkTsMbVLwRMDxl3opFpv/VLQvQkIUcgaEQjWs5w1DBa+NDa5s0338SFCxeczgppzkexhqMm3HPPPQgLC8P+d/aLfwmaF9PJNY+lCMTj+PWXLxiKLIsWLRKn13PnzhVBhtZExtJo8+bNUmjMjUrBafv27R26p1E0+sMf/iDdx1jhYBy07OE5Pv74YzmPJ8PcdiYaVVZVdioasXtaRESEOP7j9XBin/zZs2fjzjvvFPHJOuwoH0gUz5gups9cW8jdHXrBSkAJKAEvE+AXQVrEUjTauXOnjLDp5VNodEpACfiIAOtErMPlTM1BamqqikY+4uyLaJl3RjRi9zQ+g9k9zWpl74vzapxKwJsE2EZbv2G9uE1hLxjtnuZNuhpXVwQCXjSioMHAhz4tavj1h93G+CVhyZIlKCkpERFn9erVsu1///d/cf/998s6ikMUeWg5xP6h7KpFs9WVK1di9+7dIjwxDjrB5rCG7AvNlw4FH1oa3X777RK/OT9BU2x6/vnnO4hGNTU1GDFihHQhY5x79uwR/0m8+dnFjT6ZKHSZrgqdZRq/UrN7mqulUUVlhVM0Ml70mVZyOXrsKCIjI+W6T58+LVEznsWLF+PnP/850tPTJQ1GJKK57pw5c1BUVCRd/RiPdp3oLEd0vRJQAkrAcwJGNIqMisSrO19Vn0aeo9M9vUzA1J+8HG1QR8c6Fbuk0WKdlkas25GjTv5PwCoaDRo0SEQjunbQ/PP/vNMUthEQ0Wi9e9FIy3IbJ13yPoGgEY2Ihi9zDi+/6LFFGDFyhFjW0FEYA834OMRmSkoKaB10/vx52Z/HsBsXxZS8vDyxOOL+/ALBQAukhIQE8fvDyj5vSIpGFKG438uvvCxCEuPhNr6UXnvtNRGIKLpwXwpBdDxNsYgvKopW8+fPB30lUbx54oknJH20cuL+nU2Mn2mgA1UKYzwPJ67nddN6ioIS46QzbyMa0ZIqJydHnP7xnJwolu3atUuuj6IYRSWO5sPudW+8+YaIbtOnT3f4QFLRSJjpPyWgBJRAXwnw+UxLI1p/mpEr+QzXSQn0NwGWO9ZdpP4CR/3F+Zsf5LTLZIcsIZ/a2lrxS0ZLI1od6f3bAZNfrlDRyC+zRRPVQwIUjdatWyftRnazZH2C9QpO+izqIUzdvUcEAl40sl4tbxaKIec+PidWOwUFBXh00aNgtzJ2S9u4caO84NkNjPtx4jF8kTCwixudZNOKaN68eSLO0AKptLRUrJGkYtXSIiIQv06wGxq7flnXc/n48eN48cUXxWm2iZvCUV1dndzoTz75JLZs3SICUH1DvQwBSj9I9EvUlaUR00pRhyPu8FooBplroBj08ssv489//rPsw3SYdPF6adnE7eyGZtZTOOOXbna1KywsRG1dLRoaGyT9TM+bu9+U/eUk+k8JKAEloAT6TIDCPy1i+VGCgxDwma4VvT5j1Qh6QcDUfz469RHKysvENyStaOTDEz+EqWjUgSqZkRE/xNHSiPU6vX87YPLLFSoa+WW2aKJ6SIC9Y9jGpCN+OnOn4QHrFTopAV8TCDrRyAgiFF94E7HL1ZkzZ8TSh+qs2U5LHKkw2W0i1PBlwonHUWThMQyMw2zjsSZwP2NFZDKJ+7GSxbnZZs5nKmeMm2niCDqcuN50kfO08cD9uS/TwONN3FxnxDCTJm5jGriNaeJyc6vjVaaTTGgFxUoi46PVlbk2CkjcXycloASUgBLoOwE+j69dvyZdW5KSksTak89bnZTAQBFgPYBWyxw9lkLI8uXLwQFD9N3feY5QNOLos1lZWfKRjfe1Tv5PgGXd+DTS7mn+n1+aQvcEWI5pnEBjAD67OTo3hSR9DrnnpWu9RyBoRCMxpG4VUAwe3kAmmHWcszJkRhbjsgnWfbhs4jTrGZfrvvwt+1rOZd3Hdbt1XxOvWUcxx+xv3dbVsvVc7vYz12/9Ysh1ZrIuc531N5cprvEc1vXmWJ0rASWgBJRAzwhQqGdX6EcefQTvvPOOPGN7FoPurQS8R4ANEFouP/DgA7jv/vvEqSqtZ7he3/sdObMuRSvvFXkrsPSZpc4RaTvuqWv8iYDUZ+12seynz9NBgweJWwZ1hO1PuaRp8YQAyzKfzzQS4EcnGgXwt7TV1DrUE4S6Ty8JBI1oZK7fKo6Yda5z3nCulSFPjmM87o6V9a03Krd3JrK4ntM1Xcb6yXV9V7+Zbh7nrcnKwVyLVh69RVfjUQJKIFQJmHcHK3rsivzee+9JgzNUeeh1+wcBvt83bNgAjsIzdNhQsZ6hz56m5qYO9ST/SPHApoL3MS3FeQ/TlyRFYJ0Ch8C+ffswZuwY8XFqRk/rrm4eOFenKQ0lAqbcmnkoXbte68AQCDrRaGAwBudZ+SDqjZAVnDT0qpSAElACfSfA52pjk6O7sHZN6ztPjaFvBPiRi6IRHapysJDMzExx9ExxUxsjHdnywxqtws1XfmXUkZE/r6HQN3v2bLGoe/TRR8UvqT+nV9OmBJSAEvAXAioa+UtO+GE6WBnSCpEfZowmSQkogYAjYJ7XkHu2AAAgAElEQVSnbKQbv3LWi9BnrZWGLvcXAVoaceRWWhpRNKJzVfrsoSiik3sCeq+65xIIa+nDk4Pb7N+/H6VlpepAOBAyTdOoBJSAXxBQ0cgvskEToQSUgBJQAsFOgI1NikbuuvxqQzTYc98/r4/Wbps2bRLBaNiwYUhPT0dNTY34yvDPFGuqlEDvCYho3+oHhr5gdFICSkAJKAHPCKho5Bkn3UsJKAEloASUgNcIsPGiQpHXcGpEvSTgTjSiTyOWT53cE9D71j0XXasElIASUALBS0BFo+DNW70yJaAElIAS8EMCbHTS2sidxZEfJleTFMQE3IlGR44cUUGzkzznvUtBTUeW7QSQrlYCSkAJKIGgJKCiUVBmq16UElACSkAJ+CMBNjjPnDmDDz74AFeuXHEKR9aRK/0x3Zqm4CRA4XLr1q0YOXIkhg8fjsmTJ+PYsWMqGnWS3RSNbt68KSMffvjhh7KslkedwNLVSkAJeJ2Au+cN17lb7/WTa4QhTUBFo5DOfr14JaAElIAS6C8CrNQ1NDSID5mioiIZspuWHtJVDS39lQw9jxJwEmDZ27t3LxYvXoyFCxdi9erVOHv2rHO7LnQkcPr0aWzcuFFYnTp1ShtrHRHpGiWgBHxEgM9s1hs4WIEZxZGnUtHIR8A1WicBFY2cKHRBCSgBJaAElIBvCVy7dg3TZ0xHamoq3nzzTan0aWXPt8w19s4JsOx9/PHHYl1UXV2NEydOiLDJ9Vou3XOrravFjBkzMGnSJBlpTjm556RrlYAS8D4BCkV8Tr/zzjvYt28fDh06JM9s759JY1QC7QmoaNSeh/5SAkpACSgBJeAzApcvX8aUKVOQkJCAXbt26ShVPiOtEXtKQKzdWhyj+vErNicVjdzTI5eawzXIyclBWlqajDSnopF7VrpWCSgB7xOor6/Hzp07RbjOzs7GsmXLcPXqVe+fSGNUAi4EVDRyAaI/lYASUAJKQAn4isDFixcxdepUEY1Y8bPZbb46lcarBLolQMGDQpGWw85RWUUhsqqpaRONONKcdXvnsegWJaAElEDfCdy4cQMbNmzA2LFj8cADD0h9wohG+izqO1+NoXMCKhp1zka3KAEloASUgBLwKgFaGlE0iomJka+F2lj3Kl6NrBcEjHCkDQ738KxcKBqxGx+tBWlpdPjwYRWN3GPzm7XMP5OHnLN7T2NjowQdwdJvskkT4iGB69evo7i4GA8//DAGDRokgxdQNLKWcw+j0t2UQI8IqGjUI1y6sxJQAkpACSiB3hMwolF0dDRe3fmqjJ7W+9j0SCXQdwJsbFAMMQ3rvscYXDFYuZBTZVWlUzSigGTdHlxXHjxXY29xlG/679q/fz9ef/11vPvuuzh//rzmX/Bkc0hcCUWjNWvW4KGHHsLvf/97sIsa11EA1UkJ+JKAika+pKtxKwEloASUgBJoJcDG5aVLl8Qfilga7dqpPo20dPgFARWNOs8GqygkolFlpTTUUtNS1adR59j8aksLHNZGBw4cwPTp05GSkiKjBVbXVItg6leJ1cQogS4IiGhUvEYsjf7whz9IfeLmzZtajrtgppu8Q0BFI+9w1FiUgBJQAkpACXRJgI3PK1f+P3vnAV7Fdab/xOm9bpLd5J/iTTZ2iu1kk+wm2cRO4myycaG5BEQzoC5R1IVQodmYZpoxxgZJQGxwAWNssOk2HYNtuuh2AIOEEBIg1PX9n/eTzmV0uVe6ku69mrn3HZ7DjKac8jtz5p555zvfqdDhaQkJCbJhwwYdKtHqRTxIAkEggHvTKo4EIUnHJGHlYkSjrKwsHZ5Gn0aOqUa9v7du3SqDBg2SXr16qV+5vfv28r53ThUypyJqVWSGp0E0gqURnGNbn1MERQKBIEDRKBBUGScJkAAJkAAJeCAA3wOPPfaYfh3ECwxNyj1A4q6gE6Bo5B259WUMohGEookTJ8q4cePkvffe48uad3S2OoJ63LZtmwwYMEBFIwwRxnTlsELiQgJOIWD1aQTRaOTIkRSNnFJ5Ds8nRSOHVyCzTwIkQAIk4BwC+CL45ptvyuo1q+XkyZPOyThzGtIEKBp5r1530aikpETWr18va9as0eGm3q/kETsRaCEa3ddLYmJjZO9eWhrZqY6Yl7YJGNGoT58+ctfdd0lGRgZFo7ax8Qw/EKBo5AeIjIIESIAESIAEfCEASwX4NYJD7Orqar3E+lLqSxw8hwT8TcBdNOI96ZkwuKDdog2XlZXRUtAzJlvuRd0ZS6P77r9PYGn07p53aSlmy9piprwRsIpGd99zN0Ujb6C43+8EKBr5HSkjJAESIAESIAHvBCAc8aXcOx8eCT4B3I/mnrRuBz8n9k4RbNB+TTDM7J3r8M6d9X7etn2b9O/fX+677z7BZAR79uxx3ffhTYmldwoBiEaLFy+WiIgI6datG4enOaXiQiCfFI1CoBJZBBIgARIgAWcR4Mums+or1HNrfbE2M02Fepk7Wj5r27VudzQ+XhdYAtZ7e/v27Soa9ezZU0UjDk8LLHvG7n8CxtKob9++gvvYOML2f0qMkQRaEqBo1JIH/yIBEiABEiCBgBLAS0x9Q71+4ba+0AQ0UUZOAiRAAmFIwPqM3bFjh/Tr10+6d++uotG+fftoaRSG94STi2xEI9zHmAUwOztbfRo5uUzMuzMIUDRyRj0xlyRAAiRAAiFAAC8wWDC8BcKRDlXj7D0hULMsQrgRMG053MrttPJ6Eo0wrAc+jSgaOa02mV+IRs8//7xERkYKrI0wi+PVq1cJhgQCToCiUcARMwESIAESIAESEP2iXV9fL+j0Xbp0STt6LosjCke8RUjAEQTq6uqkoqJCndmjPXOxNwGraLRz507p26+v+oKBaIThaRDuuZCAUwhgBtatW7fK7NmzZfr06fLiiy9KTU0NLeacUoEOzidFIwdXHrNOAiRAAiTgHAJ4ecEXwY0bN8ratWvlxIkTnH3JOdXHnJKAvpidP39eNmzcIOvWrZMLZRf4smbz++I60ahvX7n33nslJiZGHWFTNLJ5BTJ7LQhAqMYz6OjRo3Ls2DH54IMP+AxqQYh/BIoARaNAkWW8JEACJEACJOBGABYKU6dOlTFjx+jXQlgtcCEBErAvAYgOZoHAgBc1tOFHHnlEX9ysx815XNuLgKmjXbt2SUTfCLn77rvVp9H+/ft1mLC9csvckEDrBPAcqq2r1Y9O5t5u/QoeJYHOE6Bo1HmGjIEESIAESIAE2iSAzh2GpeXk5EhCYoJaKsCsnAsJkIB9CVhfyvCydujQIXU+m5ycrNvW4/YtRXjnzNTR22+/LQMHDlRH2ImJiXLgwAFpaOTwtPC+O1h6EiABXwhQNPKFEs8hARIgARIgAT8QuHz5smRlZelXbgxvqa2t9UOsjIIESCBQBIzggPiNaIRprpOSk+TIkSMcGhIo8H6OF/WIIcHz5s2TmTNnyqJFi+T06dP0aeRnzoyOBEggNAlQNArNemWpSIAESIAEbEgAlkYjs0ZKQkKCrF+/nj6NbFhHzBIJWAm4i0YHDx5U4TclJYXD06ygbLyNOkSAT7mzZ8/KqVOn5Ny5c1JdXU3Rz8b1xqyRAAnYhwBFI/vUBXNCAiRAAiQQ4gTU0mhUliQOTdThaZx9KcQrnMVzPAF30QjD02AtCNHo8OHDFB0cUsNGOIK1WF19HS2MHFJvzCYJkIA9CFA0skc9MBckQAIkQAJhQODKlSuCoS3GpxEdYYdBpbOIjibgLhoVFRVpG4ZPI2xbjzu6oGGQedQVRKP6hvowKC2LSAIkQAL+I0DRyH8sGRMJkAAJkAAJeCWAFxaXaJSQIGvXrhWKRl5x8QAJ2IKAVRSC4FB0uMjlCJuWRraoIp8zYUQja536fDFPJAESIIEwJkDRKIwrn0UnARIgARIIHgG8qFRUVMjo0aNl2LBhOjyNolHw+DMlEugsAbRhCEU5uTmSlpZGn0adBRrk61F/JgQ5aSZHAn4n0CiNGifvab+jZYQeCFA08gCFu0iABEiABEggEAQqKyvlhRdekIKCAtmzZw/9agQCMuMkgQASwIxbzy5+Vmff+uCDDzg8LYCs/R21ebnGmgsJOJUAPjbBavnylcstnLnzvnZqjToj3xSNnFFPzCUJkAAJkEAIEMDwFszec+bMGcFMaljY0QuBimURwoZAVVWVQCyCeITZuNh+nVP1qCsTnJNr5pQErhGorasVzOD40ksvyfPPPy8bN24UfIziQgKBJkDRKNCEGT8JkAAJkEDYE/D0ooJ9EJEQsM2FBEjA/gRMWzZr++eYOTQEzLPW+rw1Q3zMOVyTgJ0JwMJo6bKlMnToUImOjpYJj06Q8vJyO2eZeQsRAhSNQqQiWQwSIAESIAH7EsBLSkNjS3EI++rr6zlEzb7VxpyRwHUEKBZdh8QROyAOmeetEesdkXFmkgQsBC5fvqxDY/v37y8PPvigZGZmUjSy8OFm4AhQNAocW8ZMAiRAAiRAAi4CeGmxvnBat10ncYMESMDWBNhubV09XjMHoQhWGhgajCHCxcXFUltb6/V8HiABOxIwolHfvn2lV69e6pD/4sWLmlVazdmxxkInTxSNQqcuWRISIAESIAEHEDAvnVhzIQEScA4Btl3n1JV7TmFldPLkSVm4cKEUFhaqT5hz5865n8a/ScDWBIxoFBERId27d1fRiMPTbF1lIZM5ikYhU5UsCAmQAAmQgBMIYOYTDo9wQk0xjyTQkgCGmJq2awQknEEBuCUnO/6Fenv77bdl2LBhMnjwYMnJyZFDhw6x7uxYWcyTVwJW0ahbt26Snp4uFRUVXs/nARLwFwGKRv4iyXhIgARIgARIoA0CEIwOHz6sobS0tI2zeZgESMBOBCA8YJrrY8eOyZEjRzhrkZ0qp428oO527NghAwcOlJ49e0piYqLs3buXPuXa4MbD9iLgLhplZGSoTyOriG2vHDM3oUKAolGo1CTLQQIkQAIkYHsCly5d0qERs2bN0q/eeJHhQgIk4AwCGOJ06tQpyc/PlyeffFJOnzlNSxVnVJ2KQ9u3bxf4gunRo4fExMTIvn37WH8OqT9ms4mAu2gER9hlZWXq5J0Wj7xLAkmAolEg6TJuEiABEiABErAQgMPK8ePHy/Dhw2XDhg3qiBXCETt7FkjcJAGbEoBoBEvB3Lxc9SWCbbZdm1aWW7bwnIVo1Lt3b7U0wnTlBw4ccDuLf5KAvQm4i0YjR450iUYYPsuFBAJFgKJRoMgyXhIgARIgARJwI1BeUS5jxoyRuPg4WbturdTU1OgXcL54uoHinyRgQwIQjYqKimTUqFGSnJwsBw8epGhkw3rylCW8UGN4Wp8+fVyWRvv378eclp5O5z4SsCUBd9EoKytL8DGKH59sWV0hlSmKRiFVnSwMCZAACZCAnQnAYaWKRnFxsmbtGhWNKBjZucaYNxK4RsCIRnhRS0pKoiPla2hsv4Xn7M6dO3V4Wvce3SUuLk6Hp9E6w/ZVxwxaCHgSjTB7GkUjCyRuBoQARaOAYGWkJEACJEACJHA9Afg0Gj16tL6wrFmzRoenXX8W95AACdiRAF7MDhUdEgwJGZE0QoeqUfS1Y01dnyfU01tvvSX9+/dXSyOIRnv27NGX7evP5h4SsCcBd9EIVo9GNLJnjpmrUCFA0ShUapLlIAESIAESsD0BdPggGsXGxsq6desEs6lxIQEScAYBFY0OHRI4nx0xYoQcPXqUw9OcUXVaTyoaDegv3bt3l/j4eM6e5pC6YzavEcCHp2eeeUbFT9zH2dnZruFp187iFgn4nwBFI/8zZYwkQAIkQAIk4JEARCMMT8MLy9q1a2lp5JESd5KAPQlANIIfI0xzDWf2x44do2hkz6q6LlcuS6MB/aVbt26SkJDA2dOuo8QddieAPsSyZcskMTFRBg4cKI8++qg6wsaziQsJBJIARaNA0mXcJEACJEACJGAhgK+E48aN0w4ffBrV1tbqSyeHuFggcZMEbEoA7fTgoYPqCDslJYWikU3ryVO2rKLRvffeK4lDE3X2ND57PdHiPrsSwOQZcMb/2muvyfLly+XNN9+U6upqHWZJ4ciutRYa+aJoFBr1yFKQAAmQAAnYnABeTuB7YMaMGZKTkyNbtmyR+oZ6WirYvN6YPRIwBNCGjx0/JlOmTJHx48fLe++9x/Zr4DhgbXwaqWiUSNHIAVXGLLoRwDMIwlFlZaVcuXJFA07BfvQnuJBAoAhQNAoUWcZLAiRAAiRAAhYC+AqIL4K7d++WzZs3y+nTpy1HuUkCJGB3AngxK7tYprNwQfS9WH7R7llm/iwEMHuacYSN4T379u2j6Gfhw01nE2iURmcXgLm3NQGKRrauHmaOBEiABEggFAjgZRMBC74SXr16lU6wQ6FiWYawI1BfX6/ib1VVFb/sO6j28fx95513dOa7oUOHyiOPPKKz33FIj4MqkVklARLoMgIUjboMPRMmARIgARIIVwI0Iw/Xmme5nU4AX/OtIrDTyxNO+T9z5oysX79eVr22SocHl5aWusT8cOLAspIACZBAewlQNGovMZ5PAiRAAiRAAp0ggBfOhsYG14unsUDqRJS8lARIIAgEIBih7dI6JQiw/ZSEVeDDxAOYjKCiokIwC1VdXZ2fUmE0JEACJBDaBCgahXb9snQkQAIkQAI2IWB9eTFZ8rTPHOOaBEjAfgTYZu1XJ23lyJOvF9QjFxIgARIgAd8IUDTyjRPPIgESIAESIIFOEYB1AoJ5WcHa+nenIufFJEACASdg2qx7Ww54wkygwwTMcEITgXn+Wv/2JCqZ41yTAAmQAAmIUDTiXUACJEACJEACQSCAlxUMh4ATbAQMlYBvIwpHQYDPJEjADwTQhtFuTRuGU3t3EcIPyTAKPxJA/bRWR20d92NWGBUJBIwA7+OAoWXEzQQoGvFWIAESIAESIIEgEECnDi+Z69atkxUrVsiJEyekrr6OolEQ2DMJEvAHAbTh4pJiWbNmjaxcuVKKi4tbFST8kSbj6ByBtl6m2zreudR5NQn4l4C5X80HJ3x0wmL2+zc1xkYC1whQNLrGglskQAIkQAIkEFACsFCYOnWqZGVlyebNm1VEQmePCwmQgP0JoK0eO3ZMJk2aJGPGjNFttl9711tbL9NtHbd36Zi7cCNQX18v58+fl+PHj8vJkyfl1KlTLofufBaF290Q3PJSNAoub6ZGAiRAAiQQxgSuXLki48ePl8TERLU4guURFxIgAWcQwEvZ4cOHVTDKzMyUo0eP0tIoGFXnQVf3Vexp67y2jgejeEyDBHwlUHm1UjZt2iSzZ8+WadOmyQsvvCAVlyr0cmN15GtcPI8E2kOAolF7aPFcEiABEiABEugEAUzzPHrMaImLi1PRCF8NuZAACTiDgBGNcnNzJSMjQ4oOF1E0CkbVNYo0NrgpR/jTbZe3rLQlDOE4FxJwAoHLVy6rUBQdHS0RERHy8MMPS+mFUs06+xNOqEHn5pGikXPrjjknARIgARJwGAGIRrl5uRIfHy/r169Xf0YOKwKzSwJhTeDIkSOSk5sj6enpcqjoEEWjYNwNEI3chR3d55twZK7F2sx8R6uMYFQc0/A3gcrKSlmyZIkKRj169JDs7GwpLW0SjXhP+5s247MSoGhkpcFtEiABEiABEgggAYhG6OQZ0QjOLLmQAAk4h4CKRjk5kpaWpkPVjCDhnBI4L6f19Q1ypbJSqqurpaGxyfFvfUODNNQ3qJjkax3g5XrPnj2yb98+KSoqkkuXLjkPBnMc1gQgGi1evFj69Okj3bt3l5EjR8qFCxeUia/tIKwBsvAdJhCyopE/Gg7isMZj3e4wcV5IAiRAAiQQtgTwkgIn2BieBksjmpOH7a3AgjuUAHwa5eTkSGpqqhw+crhFPzFQRTL90fauO5qf9qZjzu9oet6uMyPQrlypki3btsnud3ZLReUl0ZmjGhtFhaPGBtcMlI1tjFd755135NFHH9WhhVOmTFFH5t7S5n4SsCMB+EWEaIShabA0gm+1ixcv2jGrzFOIEQhp0Qg/YlhgroeOOdaYuaaqqkrX2MZXi7q6OpfneWv9mmvMPvOjiDXiMvHiPPdgjps8mDg0P41NX0as+7hNAiRAAiQQ2gTwe1BeXi6jRo2iaBTaVc3ShTABWBrBWjAlJUWOHD1C0aj5A6un/m5nbgMjGCGO0rKL8lT+PHlk8gTZsnOLXKq8rFE3oD8ujaJrt7418mMNuGD79u0yaPAguefee/QZvHff3qDUX2c48FoSsBIwolG/fv3U0gi+1SgaWQlxO1AEQlY0MsBqa2vVbA8zXOzatUtWrlopr7zyiixdulRWrFgha9eulQMHDsi5c+dUOLL+6JkfGxMXhKCSkhI1aT106JBrjW33gC9RCJia9ezZs4IhCbgeceq6ja8hJk2uSYAESIAEQocARCN86YaVAmZAwQcH6+9O6JSUJSGB0CSA/uS4ceNUOMKU16HYfmGx095//q5tq2h0tqREps+ZJQlJiTJ5xmTZtmu7XL5aKfUQiprdGml+LSMETB/erJG/nTt3Cl6277mnWTTaS9HI3/XG+AJLAKLRs88+K3379pVu3bqpbzWKRoFlztibCISsaARhBo1o9+7dUlhYqB10NLC//OUv8sc//lF+97vfyZ/+9Cf94Rg6dKjMmjVLv0AUFxereIQx09YfGuCCVdKrr74qSUlJgmsSEhI0wDeFe8DxYcOGaWOeOHGivLT8JRWRMDQBLwlmCcXOhikb1yTQWQKmE+gejy/txrRfb2v3OPk3CQSDACxc8cECnT58WIClK36vuHQNAT5juoa7U1PF78kHH3wgL774ojz//PP6IdGpZWkt395+N9va31qc7T0GMQhPRqzPlBTL9LmPS8aYLBn1SK48OnOKbNy2WcouV6ilEc4xi7c84rgRje6++26JjY1V/0Y4nwsJOIWAEY0wPO3ee++laOSUiguBfIaUaGQe/OiAv//P93XMJ/xGQCD69re/LV/84hfls5/9rHzqU5+ST37yk7r+3Oc+J9/412/IbbfdJv3795d58+YJviJBIHL/AoyGOm3aNPn3f/93+bd/+zf5+te/ruFrX/ua/Mu//It89atf1TW2cewb3/iG/L//9//khz/8ofz5z3/WMdQrV64UCFNqbYTx2BYBKQTuJxaBBDpHAH03b8HEbD1u9nlaW8/ztO3pGu4jgQATwLP/7JkP5IPTZ+TypctNjlzdp5JuLQ+e7mVf97UWb2vHfI3f/bzW4uyqY+55tP5t8uRpnzlmXVvP87RtPZfbziDgqR7d9l2tvCpnTp+RM2fOSE11jfffLLfrPP62BZuKL3my0TkmK2dLz8v0Jx+X7Emj5eG5kyRpfLpkTx0jqzevl7IrFYrWoIQGpDpQ88VGRMJxikaGEtdOJeAuGsEhf1lZWUhaPDq1jkI13yEpGp0+fVpmPT5LrYq++c1vymc+8xn5yEc+Ih/60Id0G8LRpz/9afn4xz+u+2/4yA3yiU98QgWf3//+9yoMHT9+XDC0zbqgocJqCOLTRz/6Ubnhhhs0IB6Ej33sY66A4x/+8Ic1IG2k973vfU969uwpCxculPPnz6vpL0UjK+Eu2Da9C127CRYmO6bX4svaXBPKa1848JzOvUiQX+jyw9fzuiYfe40Qi1jXZMB7wFn3QEOjNGLWrvqG4Oe7M30Lh95nyHZxaanMmjtb0idmydjCCZI2O0viHxkuo6aOlvXb35SKyiuuR6k+Vq3CEbp2qiJRNOrM7cNr7UGAopE96iEccxFSohEqEL6D5s+fL7/9n9/Kl770JRVxIODACui2n90mDzz4gAwaNEgeeughueuuu+Smm24SWBtBNMJ5EJhgmZSfny9lF8ta3BOY5hCi0ec//3mXGAQB6mc//5lAbLrjjjvk9ttv1+1f/vKX8qMf/UiFKFg1QbCCePSVr3xF/va3v6lfJcRnfshaJMQ/gkNAx75jGGJT0E9TnsQjh3a0XD2oUMx/e++QUGTAMgX/hc1fzOspFtn++cRnjHPbl7/aKeOxzT1wvuS8zH7qCUmZmCEjC0ZLWkGODJ+TIfETkmTUY2Nk3bY3pPzKZX2s6JC25kesezM2lkZWn0bu5/BvErAzAU+iEdyx8H3SzrUWGnkLKdEIviHWrVunvopg2QMRCNY/3/nOdyQqKkp9G23btk3279+vzq8x3fHMmTPlr3/9qwpMsAyCuAMh6P7775fdb+9u4WvCiEY4jvNwPoa9wSHiSy+9pP6O4PMIQ9CWL18uzzzzjPpSgqAEYQrnwyIJQ9cgXMEBN31ZBLchtXioqlNyfPG/FiAgdfplJrhFCn5qdulIt6fkdskz89H59uV0hrhvUQZ8Dqelkb3vBz5j7F0/wXwWtOde8PXczuTf1zS8ndeZtIN9rYicLy6R2U/NlmETUiW1IFeSF2TLsPmZkjx3lESNTZTMybmyZutGFY6ueQ29vvAQjfr369/CEfb1Z3EPCdiXAEUj+9ZNqOfM8aKRVQTADGgjRoyQL3/5yy5LIAhG2Ld582Z1jI0hZ7gGAX6LMBvaCy+8oM6xYQkEkQnCzk9+8hMpKChQyyVzE0A0mjRpknz2c9dEo5tvvlnFooqKCoGD06qqKo0X52JfUVGRxg+rJohNJo3vf//76j+p8mqliZ7rIBCw3i+NDQ1SXXVVaqqrpLam2rVdU1sjCNW1tVJTWyfV7QxVtbUSsqGmRqpraqSuvk5DjTICp86GJuaGvfd1+9Opbq5Pb3GiPNWofwYyCMI9UFtXp8+Xquqm34qm+87c/+2/vzvf9uyWZhMLPmP4TAreM9m0P+s6GO3Cml77tvG7Fg4Bv9v1NTVy9vQpmT1npgyfkCJpBbmStCBbhhZkyvD8TImbmSyDx8RJ5pRc2bBjs1y8clmdY6NLafr7KtSLyFs735L+/QfIvffcK/B5unfv3iD0PJkECfiPALPy4IgAACAASURBVN414YQfjrC7d+8uI0eOFMzKyoUEAk3A8aKRAYQfBlgOYVgYhB9Y9UCkgQ+hDRs2tBB/zDVmDf9C06dPV4ukG2+8UX7605/qNIYQjazTGEIImjx5sloNwdIIPo0gLsG6CVZO1gX5gRURfBZduHBBh7vdeuutLt9KsIRCg3/v/fesl3E7wASMaIQPZRD13nprp7y5+Q3ZtPVN2bhlg6zfvE7WblorazavUweLa7ZskDVbNrYrvL5lvYRs2LxO1mxZL+u3vyFrt27wW1izBfG2FdbLmq0dDG3G3VbaPN52/ZCRL4zWb98oa7eul9c3r5XVm9c23fdb1+s+tKl128I7aBvnM8aH5yHbmy/tzddz0CZbhqbft0C2x7XbNsh14bp8XMtXU9toWe+rt6wTX4Nh0bKc1+K34/71W9bL1u2b5OWVyyT74SwZNjFZUgpzZERhliQWZEh8fqoMnZ8u8Y+nSOTYBMmeNlY27NwkFy6Xq99QdCnrG+CCoKlz+dZbu2QARaMA97QZfSAJ1NTU6Hvt6NGjdea0OXPmCGbm5kICgSYQMqIRLHzgb+gLX/iCCkYQdWBl9Nhjj+lsZUYs8AQUws6+ffsEHujz8vLk6aef1iFmmA4Z1khmgWg0ZcoUl0+j1kQjcw3WiP/IkSMyYOAA9ZkEQctcC6GrtbxZ4+G2/wjUNzbI8ZMnZPL0KZI3aYyMm/Gw5E0fIyMfGyXpUzIkbXK6pEzJlNSpIyV1apakTM2SZB9C0tSRkjQ1M3TDlAxJmZop6Y9lSaryAaPOBXBOQbxthOTJGdKZkDI5QzS0kU5b+eDxtuuKjLwzSp+WpW0meVK6JOM5g/tS20Bmc5vCMyd8Q9Nzl88YtiHvbSgwbPA7dH3Q3zn81vk7ePvdNOm4H2/OW8vfwHRJmuRjmIznTdNvqOu30AG/iWlTMiVnRq6MeCRZovPiJHb6CEmAWFSQLrEFqRJbkCJDF2RIYn66JD6RJoNgcfRYrqzeuk7Kr1ySBnzAxeiC5u7jrp27ZCBFI/91phlT0AnoDKxnz8o777wju3btksNHDusol6BnhAmGHYGQEY3Onj0rAwYMUDEGogyGgf3617+WtWvXClRZs3gTaCA6HTx4UE6ePKmWQRCIYD1kPd9dNPrwDR/2amlk0jNrWLVA1Prmt76pvpaQx6997WvyxBNPqKhkTcdcw3XgCNRBKDx0QNLzMiX90SzJmj1aUh/PkuEzUiRxxghJmD5cEmYmScLMZEmcmSIJM1MkflZTiJuVIt5C7MxkCeUQN6OJCbgkWLfxdwdD/Iwk8S2MkPgZTSFu+gjxNZhrNL8e0kKZTEA+murd+9q3vPpapsCfZ8pm1m2VkeULbJ0kzsLzJNl1L+O+NMx9bUOJ+lzCs+n64Gscdj0P92nTPdr0jEmclSzW0JF8G75tr/mMaZvRtfvVnGueLWaN/a09R811dl9b26Y1r+a3pDNra3zWbW/3N9p603nt/w00v5Xmt9C61mOW30DT/pCWp/JZ8xqMbfAY+niqxE4bLnGzkiTmqWSJKkiR6PwUiSlMlZiCZA1xEI8KMiRq5nDpnxcpaVOyZMOON6W04qLAxxGcY2PZtWu3+jTq3q27xMfH6wdj9r+b4XDlCAK4X2GMgPdWvN/iXRV/Y7kmjzqiKMykwwiEhGiERgKn0nfeeafc8JEb1NIIM5Z169ZNfxB8dTaNRtfaj4e7aPShD39IfvzjH8u69etcDdZb/WNsPhxj//CHP1RhC5ZQGKKWkZGhvpCQx9bS9hYv93eMQF19g7x7cJ+kjcmQzBm5MrJgnKTkj5Kh81IlYV5yU5ifKon5CGmS0Bzi89Mk3AN4WENCQZo4MXirR5TFWj7rttPK6amM4Vw+1GVX12FiQbrPefBUf9hnvSfdt7u6fO1JP1zLF85tsD33hx3O9XSPtlZ/dnjGtIebp/LZ6RnT9LxMl7j8VA2R85NkcH5TiC5MkejCZInMH6EhOj9JIp8eLoOnxcuAvEgZNW2MrIZz7Morggkrsbz99jsSHRUtDz7woPo7xSiD+obWXGd3rI/Jq0gg0AT4zhhowozfnUBIiEYQXHbs2KGWRRj2hfC5z39O+vbtK8ePH3cvc4f/vk40+lCTaIQhZg2YdauVBXnEzGq33HKLzrxmfCIlJibqWFQ0fg0uI9pWIuOhjhNo7jjU1dXLuwf3SuroNEmZniUpBblq3hw1b7hEzRsmUfMRRkhUfhJDiDKILEiSIR5CKNW5pzKyfM5p057qD/uCWYdIL1DBU/vDvmCWL5Bpeaq/UCof2HkqYyCZBjvucCwfyhxszt7Sc+c/OH+EIAzRew9WRwhJElWA/cNkSP4wiZw7TKJmDZOoR4ZJxtQ8Wb/tTblUeUX7jUePHJMnnpgjUyZPkfyCAjlx8gRnMe54j5pXkgAJhBGBkBCNautq1SnYL37xC9esaZ///Odl8ODB8t57/nM03Zpo5Iviu2btGvn5z3+uohGGp0E4iomJaeGk25d4wuj+9H9RraLRgT2SlJciSdMzZXhBtsTlp8mQZsEoMn+4DNGOCTonDKHKwHRAretQKqu1XGab5XNOezZ15r4OZh26p+3PvwfljxBPIZjlC3RanngFOs1gxs/yOed54um+8FR/2Ofp3K7a5ymPEF8jIRjlJ0t0QbJaHA0pGC4D5yfIQ08nqHCU8GSGRD48VLKm5MkbOzYJZqy8eLFcig4fkcNHj8p7778vFZcqaOXv/542YyQBEghBAo4WjSCwwIIHYzpfe+01wexkEGLgzwgzp0VGRqqPIl/qDdP7tiXYdFY0wixrEI2MI2zkFcLWlStNX0CQz7by4EtZeE4rBNxEo+S8FBkxLUOGF2arU8XB84ZJ5PxhYkQjT50V7mv60kcO5MB7gPcA7wHeA7wHeA8E8x4w4pWxTsKwNAhHsDgaNH+oDHw6QR56KlESFoyU4XNHStTYBMl5bIxsfmurlFdeluraWnUpgWFpxjUEfcG00m/mIRIgARIQkZAQjeAEbM2aNXLrbU2iEUQZiEaDBg2SEydO+FTR+OHAAtHGGqwXd0Y0QpzI420/u01FI2NphDxevnzZlQxFIxeKwGxQNFLT7mB28JgWXyh4D/Ae4D3Ae4D3AO8Bf9wDEI3gxyiqOUA0im22OIJwNGT+cBk0b5jE5KfKsIKREv94igzOjZVRU0fL+p2b5FL1VcEMuljY5w5MV5uxkgAJhB4BR4tGqA4j8Gzbts019AsWPJ/5zGckIiJCp7r3pdoQj3qgb3aIZ+K1XtsZ0Qg+j1atWqU+jYxgBN9LUVFRgpnVrGWxpsltPxOgaETRqNkngj86r4yDL0G8B3gP8B7gPcB7IHj3gLtoFJOfJHH5mEWtaUY1dZCN7fkpEjsfDrTTJXpmkvTPi1EfR5vf2SGXrl6z8PdzL5PRkQAJkEBIEnC8aGRqBbOn/fGPf3Q5mf7Upz4l9957r+x+e3erXxKMOIQhYjt37pTdu3fL6dOnVcipra1tcW1nRCP4XXr++efl5ptvVksjCFsf//jHZeTIkS5LI5MXUyauA0CgFdEIX6UwPG3I/OZAcYECE+8B3gO8B3gP8B7gPcB7wFb3gCfhKKagSTiKLUyVuMKmGdcgHEVj5rX56RI9K1kGj46XrMl5svXtHYJZjbmQQCgQwPsjFxIINAFHi0ZWkeXs2bPqH+iTn/ykCkcf+9jH5Fe/+pUsW7ZMfR4BpGlU1rHLGJaGgGFsQ4cOlYEDB8q4cePkmWeekbffflsgFJnFV9EI8VvTwPUXL16UiRMnyr/+67+6hK2vfOUrsnDhQqmubvrhspbHpMm1nwk0P1fr6xvk3QN7xOrTKCY/RUWjwfOGqkNsdEr49ZAMeA/wHuA9wHuA9wDvAd4D9roH3IUjDFMzwlFcYZogoF8XMz9ZovNTJG5+miROT5H743vL/CUFUn6p3M8dTEZHAsEhUF9fLzBsqKqq0lEyrvdbikfBqYAwTcXZohGkmeYGAkuhxx57TL75zW+qKPPRj35Uvv3tb0t2dracOnXKdR7qGUPFjECDhodGt3TpUvnJT34iX/3qV+X73/++Wi3NmjVLLly44Lo1fBaN4KDbpCFNKkVRUZH07dtXPvmpJlELQ9Mw2xusm9QRX3NZTHlciXLDvwSaRaOG+kbZc3AvRSMKYxQGeQ/wHuA9wHuA9wDvAQfeA0Y4Mj6OjHAUW5Cqk5tEF6RI1PwkiZqfLFFzkyTykXiJzoqT1958XS5XcYiafzvYjC0YBCAWHT9+XGcNxyRQGCFjjA+CkT7TCF8CzhaNmmdPg9CCGdQ2btwov/ntbwSCEfwGYYgahqy98sorLoshFYuahRyINWhoe/fuVd9CX/ziFwUWSgg33nijzJgxQ8rLr32JcBeNkMaPf/xjWb9+fQtRCreTVZS6evWqFBQUqCiFaxA++7nPSlxcnMBCiksQCVA0YsfYgR1jfuG21xdu1gfrg/cA7wHeA11/Dwxq/j034hGcY+tsanCMnZ8sUfnJEgnRaG6y/H3cYIkdP1SWvP6CnCo5LZg1mQsJOI0AjCQgFmVmZsrw4cPliSeeUJcqMIJA4EICgSLgaNHIDC3DGk6sz58/LympKfLlL39ZhZmPfOQjajnUr18/wXT3xcXFytGcjyFjGIKWk5Mj//Ef/6FiEyyAPvGJT8idd96pYhDEKLO4i0Y3fOQG9VG0cuVKuXTpkgpTOMcECE7wtQRfRrfffrt8+tOflg99+EOat9tuu02tm6AYcwkiAQ+iUdL0TBlemK1mzPBpxOFpXd8RZGecdcB7gPcA7wHeA7wHeA+0dg9ANDLBKhxF5SepaBRXkC4x89Kkz8NR8tCYOPnH6ufkZMk/5Wpt1XVuJILYE2VSJNBhAphx+7nnnlN3Kg888ICMHj1aICTBWAHvt1xIIFAEHC0amQZixKOa2hrZvHmzdO/eXb7whS+oOAMRCEPWevToIRMenaDq7Jtvvqnr2bNny4ABA+Smm29Sp9RwTg2h6Qc/+IGMHz9ezpw508KCyJNo9K1vfUtSU1NV6Z0zZ46Y8Pjjj8ujjz4qQyKHyK9//Wudze3DN3xYh8594xvfkLS0NHn//fe1Xo1VklkHqrIZL0zAmig0Ng9PS8pLEYhGIxbkqCmzEY0Gzx9Gixxa5PAe4D3Ae4D3AO8B3gO8B2x6DxjByKwhMEE8gmiEYWkxc5Ol34QYGTw+UQpfWyyHz52Q4opSqbhyWa5UVqpfGPS9uZCAUwhANFq8eLH0799f7rvvPhk1apQaK5h3YqeUg/l0HgFHi0bAbRoJfAjBLA/Czosvvih//etfBY6mMVQN4XOf+5zcdNNNavHzv3/5X7njjjvklltuUUukj338Yy4/SBCYMGwMvoYwdM3q0NpdNDJD4OADCcPU4BPppz/9qYYf/ehHOsTty1/5sgpSGPKG2dK+/vWvS58+fVTcMlZMRiwya+fdRjbPsbU/YBGN9h7aJxCNRriJRpg9bXD+cNfXK9MZ8XXd2lcxOx0z5bFTnpgXflXmPcB7gPcA7wHeA7wHfLkHTD/GusZ1QwqSZMjTw+XB8Q9J5LgEWfDaEnnvwgdy6P1jsmLNKln28nLZsHGjlJSUtPg4bPPeLLNHAjrj9pIlS9ToAZZGGC0DIQkL3iO5kECgCDheNAIYIxwZ0QXD1BYuWij333+/CjeYUQ0WRBBuMPTsE59sChBxYImEYxg6BlEpKipKh6XB1M84szbwsW/SpEny+c9/Xq/DtRCOjB8k6xpCFcQorJEmHGzfeuutEhkZKS+//HILX0km32Zt0uPaTwTwDHULmD1tb9F+SR6dKikzRknKgjyJL0iXIfNGSOT84TJk/vDrviwOyU8SX0JkfpJ0JOiXMXwdC3AwefOlLNedg45YQcfKZ9L1aY00vIUO8m01XW9pBaq8TK9DbcRrHbbCU+8jP98z2gbaStPTcfd84By094JkiS5M0bWv7UtfiprvT2/b7rwC/WzxV/zu+ebfQXjmut+b/Nv7M8pT27bsQ3uOLGwKaNcM3hlEFSaLKxTgWdgyRBZAABquQbfVkqipLzY4P6np4958fORDnw3tBM/SVImZlyL9JkbLkPHxsujVxXKy5JTUNDbI1t07JSkzTYbERsv4CY9I0eEiDunxU1eb0QSHAAQiiEZWS6OKiorgJM5UwppASIhGqEEjuGCN4WpwMA1fQ6OyR6nV0Q9/+EP52te+JnB2jaFrn/3sZ+VLX/qS7rv5RzfL3ffcLQ8//LBs3br1mmIrTXEhTiywNIJzbFgRfe9735Mb//1G+e73vqvb+Ns9YJjbz372M/nDH/4gQ4YMkZkzZ8r27dultLS0xY+UNe9hfTcGuvAW4aihrkH2HT4gaWMyJHNWnmQtHC/DCkdJTH6axDZP0aozblgEHDhVbHKs2Lqw0+SEEePp2xdiMF1sc4idnySBCIjf5Mu84EEYQmfLW7AKR+iQRRWk6PS1mMIWQae09fe6IEVivAV/p4X4vKVl9vs7TROvtzXTa9995Y2j2R9sniZdt7WZ0QdrMyW02Y5fkK5DZPVebM6vaWMe1xp3qsRglqDCtOuCvjgVNB3Xc5BmQarEBzIUpkl8W6GN9JFHBCsrbpOH3e4BtF/kyfz+mfyZdo32jJCwMIOhFQbxC9PlWkiT2AUplgABaLhEFwyTyPyhElUwXDBL2pCCZBlSkCKD85ObP+Q1WWWhfxJbmC5RT6dIxMORMmxCqjy36kU5U3xWaurq9Nvh5h3bpM+AftLtvp6SOHyY7N23V+ob6Dw40N1vxu8/AjBggE8j+OuF65WsrCx1hO2/FBgTCXgmEDKikSkehpNBhIFjbDi6hiPqFStWqNiTnJwsgwcPVudhGCIGqx/4FoKYA0/0J0+elKqqKhOVro2/JMRZXVMtmzZtkmnTpsmUKVNk6tSpMmXqFN3G39aAY9OmT5N58+fJspeWya5du+T06dNSVV3VwnzQCEYtEuUfgSFgEY3q6+plf9EBSclJk4yp2ZIzb7ykPJUtiXPTJf7JFIl7Mlni5iTrdsKTKbrGfk8hTs/HNd5D7JwUaStYr0+YkyKBCE1la5nP2CdTJMZDiH4yWWI8hmvnW/Os23OauMXOSZaOBvc43Zlb00EddTp4qVdrup1Ow5rPYKfXfB9by+O+7dfyMT2PzwllPjdV4q0B94Llb9zbsU8kSUwrIfqJJImeY9pmisTOTZW4p9I8hFSJwzFL/AlzUyWxlTB0bqp0KjyVJkPbCm2kgTxamXCbPOx0D1h/n/Ab53p2urVl5Jn3sm/3btzc5j7Xk8kS+2SSK8Q8OVyi5wyV6DmJEvVEggx5Il6inx4h0QWpEl2QJpEqHDUNRRtckCSxBen6HOw7NlJixg+T5WtWyJlzZwWW5fj2i7Btxw55IKK3dOvVQ2Li42Tvvn0UjQLT42asASJgRKOIiAj14QufRpiMiQsJBJpAyIlGBhjEGAg+8BsEsz1YHh08dFB9FcFfEcKePXvkyJEjOqsaGiFmMsN11kXjaWzQuOAzCUIU4jp77qycO3euaRt/uwUcKy4p1vHSly5f0ny4T4Vo8uiepjV9bvuRgEU0aqhvkKIjRZKZlymJWcNk6NgkiRodLwPzoqRf7iAN/fOGyEN5UTIoL1oe8jEMHB0tA/OiZYAl9M+Llv6jo6VfKwHnWK8JxDbyZQ2+lAk83EP/3EgxYUBupFhD/9wh0i93iPTtRMD1/fIiXaF/XqQMsASkYYKe25xmR7c1rrxIQToeQyfj95Qvj+mY9EM9PdStn8vYKs8uSM9jftAmcgZJ76wB8kBGP7kvPUIezOyv+/rmDJaI7Id0G+vWQp9RD0mf7EHSJ2eQROA6xJsX6T00t0UwN+3G03pA7hBpbxiYO0Tcw0N5keIt4Fxf0vCUP+s+lKUzzxj3a9tiY02b263fR6HOp1/uYOmdNVB6pfaR+9IidBvtF+Hac63p76b9g5rbONd4/nkL5pnXJ3ugmBCRPVAiRg2QPln9pHdOP+k+8kEZNCNB4gszJa4wQ6LyU9XSKKowRQWkmKdSJWLMEIkdM1SWrV0uxaUlUldXr2JRQ6NIfUOjika98bLdo4ckDE2Uffv3Sz1nnPJjR5tRBZoARr3A0gjGD5j4KTs7+9oIGbd32EDnhfGHF4GQFY2s1QhRBgHWR3BuDSEJAlFdfd11w8Ss15ltc71xtm0VecwxT2tcD+HK/Rj2Y5/Vigl/cwkegcaGRim9UCpr1q2RF19dJotXviCLVjwrhSsWydMvFci85YWS//JCKXj5H7Lw5WddAee4B+vxhSuelQUeQqHGjfibgqdzgrkP+US+3cvi/vfCl5+R68KKZ2TBy/+4LixUVuB1/TFP53vaV2iuRRrNYeGKZ8QarNfh/M6GBSv+4UrLpNly3fk03PPYMv5rZW3aH+rpPdPpOmsfz+Cn57l+/yELXvmHPPnc09J/2ENyf9TfJXfaGJm/bIEULMezZpEUrviHx1CwYpEUvrxICpY3B2x7OH/BK894vN7Ei7azcEX7g7XNmW1v8Sx65RnxFsw1beXD2/Wd3b/wlWcEAZxcofn54i1u67OH2y2fxeHKY2rBDOk3dKA8GNNHpsyfpm0T7TP/pQUaCl5a2NR/WN7UbnGMoWMMFoDd8kUy67knZVBerEROGSYjFuZK4oJRElOYKQ89PUItjKLnpki/8dESM3aovLBmmRSXlUhdfdOwM/O9sA6i0fYd0rdff+nRo6cMGz5cDhw4KOgPciEBpxCAaPT8889L7969XaIRDB+w8F3SKbXozHyGhWjkj6qxCj++xGc9v73bvsTPczpJAF+d6upVnb9YUS7nK8qkpLxUzpUVywcXzmk4V1YixRdLpaQcx8rkfHmZlPopXCgvE2vwV7z+iqesvEw8hQsXL0jpxVIpvXg+IOH8xfOCUFpe6goXykvFGvR483nYLvFDsKbnvu2P+N3jcE/D+vf58lK/lMmapjV+9+1QSA9lcC+X9W8rC39st5WeNW2zjWsQDp84IumjMiQqPlqWvfKSnC4+I+cuFGudl1ZcEE/BXOued7PfrHGt2fa0Nnlp79pTXN72ecq/2We9prU8XPDAAfu6Kpj8c+35/gw3LjvfeUuSM1Mkdlic7Hh7p7Zd3NsQKhCsv0vWe57bTc9ATxxKyy+Ie7hQfkH7IaUXy+TQe8dkzKwJkjglXdIXjZOhC3MkdsFIiZ6fJjFPpsqA8TESO26YLF71vJw6f0Y/CqsTI+s8KI0i23fslH79BkjPnr1kxIgkOUjRqJOdaV4ebAJW0Qg+jTA8zcyeFuy8ML3wIkDRqB317UnB9SYIebIw8nau+/52ZImn+oGAWpBhCGJjg9Q31uvazJyndWPtdPiw7Ycs2ToK9RsG32Ee/oFbR0JjIyzyLMFD3K70rOd1MD1rHjXdNtKznu+PbVdZvKTrjzSscTC9jt2XVobW7bZ4tnb8/PkSGT06T+LjY2XNmtVSVXVVamurpa6uVurr61q2g+Z7vaGhXhBw3ISGBljKNu3HukX70SHVzcf0mVbf/GzD8639Ac9FXwIYtVZ2HDfxeMuHeQbX67k4vylY+Xdk250P/7Y8b92eqWTTOpuiw4ckKytTkpOT5NChA1JbW9PU/tzuftd9ammn1jYb1tuW3270s9xnuHX/u+RCmUybN1tSHhsloxY93GxplCFDnkySfg9HS+LDSbJk1fNypviM1NTXaj/EPIvQoTLWRjt27pK+ffs3iUbDR6jfU/TXuZCAUwiY4WmwNDKiEX0aOaX2nJ1PikZ+qD930aczf/shO4yiHQTQqajDy1dj00uXduLq66UB4+DhPLGhaWijDopvR7wdOdV0aoK19iWPptOl6+Zhnq3d3/pSiJfbdoYWnWfLC4yr023pYOo+P3fCW3tJCnZ6yEsLHn4oa2vlY3rXhBdfubfF09txtLny8osyesxoiYuLldWrX1fRqKYGw6ar9eUTbcdTPoxYZNauc0x7cXthdc8D7mP3fX7/23za9/JwaXqOtJ4Pzad7Wfg3CdiIwJEjh2XUqCxJSU6SgwebRCNtj40N6m3Z9bsZjDbn0DRcnqlVMGr2Uu3atqg8zSPHzhWXyrSnZkvGYzkyetEESVmQI/Hz0lUwgtPr51e9IGdLPnA5tUYd4FniPjPaTotoNFyHpx1o4abCy6OLu0nANgQgGi1ZskT+/ve/6/A0zJ5mRCMVYG2TU2Yk1AhQNAq1GmV5fCZgXmDqG+sEQb98W1/Y3DtjAe604ht9sIKrU9tWmdwZ4G+3F0OXiNRWXH48rpzgF8wfwYd8+SUdk9dQTw/iYhv//MrThul5L79I2cWLkpuXJ/EJCfL66tVSefWq1NbVaYAPjrqGpqBipZtQa7h5anOeHnxWAdrTcTvtszILdr6snLh9zSqDLDyzOHL0qGTnZEtKcrIcPnxYGvChScX+lr+P1nua2y0J+NTGm29ArCAaTZ87W0ZOyZHxCybIqHm5MmR8rAx7JFWeW/WinCs+e51ABFH8etHoLenbt5/07NFTKBr5VAs8yWYErl69KkuXLtXZwCEcjR07lsPTbFZHoZodikahWrMsV5sEXF0YtWK5fniH6yt8Gy/Arniaz+uo8OMeTzj/3VrlBYJLOKeHsvubaWs8wyG91sp/sbxccvNyJSExQVavXSNV1VUuochY6EE4wrAsX+qltbR8ud7f59gtP/4uH+MLJwKeRaOjx45JXl6epKamNolGzcOb+JW/tdbfsWNGuDxXUioz5s6WrEnZMnbuOEl6NFkS84bK0tdfkrPnz6lluNv3LHUK7D5r8c4dO6VvRF8d1kPRqGN1wqu6lkBtXa28++678uyzz8q8efNk1apVAusjLiQQaAIUjQJNmPHbnkCLLrC7ZY17L6SN0pgOTkfWbURti8PKyp1RIP5u7XU51NND2f1dxtZ4yo8xDwAAIABJREFUMr32826LZyvHMTxtzLgx6g9l/Yb1OiytyaqoQf0V1dU3zexpBCTXMDSrFaTVh1Erafn9PvLlvrRbfnzJM89pfxsIdWat/PafPHlSJk6cKKOyR8mxY8c4Y1EAeyfoS0E+P3e+RGbMfVzSx2ZI8rhkGTlhpDz/6gtyrrRYZ0nTCYhxsmWBewGXaKQniOzYsUMiIiJaikYYVsiFBBxCAP0FDEc7d+6cFBcXS0lJic4KbiyQHVIMZtOBBCgaObDSmOXAEGghHjW/+LQ3pY6IReaa9qbVFedTNGrdH4vPL+mtvVjjmL9fyJief5m2xdPLcQhAVy5fkk2b3pTXXlsl8I1SX1fryhuO4291ig3H2NZgnGA31Em9xQm23ivu6TXfP94Ep4Dtb/YN5+3+9TVdb9dzv5+eP/5+voRifN5Eo8ZGKbtwQTZv2SwbNmyQ8+fPUzQKYGcEfQ5YXX5Qck6mPzFLYpPiJHNshqxcv1LOlpxr8kfk3okyfzc06tBBa1Vu27ZNpyrv2bOnxMfHy/79+/XpGcAiMGoS8DsBCERm6CXWFIz8jpgReiBA0cgDFO4igc4QMP2V9q47k2Ywrw24cOT+Auzpb3++pHiK332fP9NDXG39Y3ouIcUnocBuPFvJDxxZV1ZekYryi3L1aqXLcS4ElUZYE9XXeQw4psebLY5cXDyl1Xz/NPlZ8exY21cBp13ntXHf+pofV9naiI/nUUQK1D3Q5KjZzSFz8496XW2dXL5yWb/2V1VV0ZFygDsg+L08c+4DmT57lqRmpcqylUulpLREGurheNxD4qbzhYlM6utbnLNj5w6JiYmRBx98UIYNG6azp3mIgbtIgARIgATcCFA0cgPCP0mgSwmYzk6g1+6FbE96AfCBYxVR3LPm8W/XLCvus6504G+PCbjt9GN6KGubi4PT82mmQT+Wz5bptVbBcG7dgJkZm174zamufeaYt3XzTILWNtPqtkV4McPg2rv2+cXck4Dlvs+SH6/xul8T4L9bn8mpA88Uf9/fjE/F1eDWk2fByNVeMbFBQ4PU1dVdGwKFS5qd15vzuPYPgQtlZfLKypWyYtUrcursP6Wuvu6awyn3JEx/pqFRBP6m0H6al3+e+qc6EV60aJG89NJLOsTHHOOaBEiABEjAO4GQE43MDzZ+yC9fvixlZWVy4cIFuXjxov6N/Tinq5bOpo3x2RjLilBRUXFduFJ5ReAkzaRjePj0ouoBSk1tjaYBb/0mrurq6qYvbNVVOmOIh8u4K5QJmA5ZoNa+sPNn2qGeni+PO3/yZHqt31HQIPAig6/g1hcaX+ug9di9HvU1ek/neY000Ac8ZYb7rr0sk0XwWbjd86ZfhN0QkdBHM/0vt1P5ZwcImFu8prZOzhWXqIVRVXVl87PTS4S4CEuzQG8VjaprqvWdoLS0VN8P0J/lQgIkQAIk0DaBkBKN8IMNwQSOwd566y1ZvHixPPHEEzJr1iyZM2eO/v32228LfizMD32wftyRDkQsjH+vqalpu2Y8nIE4cP3y5culsLBQ8vPzpaCgQNdm+4UXX9Cx9mfOnNF0amtrO2w6DZ5Hjx2VxUsWq6d+xIUOEaaYRR727tsrEJWCxdADEu7qKgKmJ8d18F9ayNxezNvbBrX+oBzhLbPZisUaR1v1az23HdttRdva8XYk499TW8sUj9mrHYRLfbRyh6PPhMDFfwRct5WK7U3WXfDp1mR15kM6Hj4So89qDT7EwlNIgARIIOwJhJRohLHlh4oOqUCEqTQxbjkxMVFGjBgh0dHR0rdvX/0bYhK8zgfL6gg/TrB0eu211+Tll1/WrxwdufMQz5EjR7Qsd9xxh47J7t+/v0T0jdDZIP7+979rGQcMHCCPPvqobN68Wb+kdLQTAz5r1qyRBx58QAU3iEYIa9euVY7Lli2Tq1VX2UnqSGXyGhIggfAj0PziAwujBlgk1DcNU7N+CQ8kFNcLmJeRN96OBzJPjJsEnErAKjzodvMwSqeWx675Ns8lk7+OWs6b67kmARIgARJoP4GQEo2Kiopk1KhR0q1bN0lKSlJrHAg1b7zxhry84mWZOXOmQFjBrAlLnluiVjvtRdaRHyv4j4B1Dpzu5eXlydmzZ9ubrOt8lLF79+7yk5/8RCZPnqyWRoULCrWs8+bN0zLGxcXJX/7yF4mNi5VNmzZJVXWVXo9OTXsWWG3Boug3v/mNzJ8/X7/MwNJo165dMnXqVBWlYNrb3njbkwdfz7V23jxdY4c8esoX95EACYQXATxDa2tqBM9OrCHOQ9jnMyq87gOW1rkE0FbRZtF2EczsRc4tEXNOAiTgdALsQzi9Bu2f/5ARjS6WX5THHntM/vM//1NSU1Nl69atOkwNvn/gjweWPhiy9eyzz6qgAgudnW/tdE1ZiMZmbXCmU2Ddbz2OqrX+jW2IM8aqx3oM+/bs2aNiDyygTp065bozcJ71XNcBDxs4D6LRPffcI7/61a9k586dajEFn00IGLp2+vRpHZqXnJws//Vf/yXZ2dkCx38mHX1hqa11xQ7LIby8YD8C8oqA8zH0DI4CkRZEIyzYf6Hsghw9elSH+Xkqryvy5g2Ttvt+/I00YSFm8mDONWtzjrkW+3Gu2Y+/kQfrixf2YYHAp2XxxfGwXsH/SIAESCCwBPD82rhxo1psnjx5Up+zeA6a51ZgU2fsJEACnSWA/tabb74p69ev174X+h9sv52lyutJgAR8IeDpWYN95n3Mlzh4Dgl0hEDIiEZ79+5VMeUPf/iDWhZBiEAjMo1LxYPGRvnggw9k0qRJ0q9fP1m3bp36QAI4nIfOPBxnw5Lm9ddf1+Fk2IZlkLVBYhvx7Nu3T8UoDHXDeUuXLpWVK1fK/v371Xm0iRfHMSTud7/7nTzwwAOyatUqef/993Wol8mfL5UHi6WDBw/KX//6V/n1r3+t1kums2IEErx8oBwQzZAWzsVwMohDSAv+lHAcItq7776recEwMwxlg5iF44gTAectXbZUfvGLX8jcp+ZqFhEHygPfUGCAc06cOCG7d+9Wkc6VHyPcNDaqWIfzET/yhwXnQeRCPiFMIUAEA2uTV/MARDpgCl9Vhw4d0jxv27ZN0z1w4IAO2au4VOGKG9djgYh37NgxvQbiIRcSIAES6EoCeH7iWYThw9k52fr8M8/MrswX0yYBEvCdAPo8sPQeN26c9kNMvwbtG4ELCZAACQSKAN6Nrly5ou+ZWMMwAgufPYEizngNgZAQjSAQPfPMM3LzzTdLZmamihEQWNwXNCiIIhgqhi+9EG6MmAQn1fhyNGHCBBk8eLAMHDhQBgwYINEx0TJx4kQVWCCQIA508lesWCEZGRkqquAFANfcf//9KlwNGTJELZogiuB8CCMRERHy3e9+V/OIeF944QW1sHHPY2t/Iy6IRn/+85/lf/7nf1QMMZ0VXIeyIGAfRCGU5Vf/9St58skn9QFj8g5rpdmzZ2ueYXEFX0+DBg1SdmCAlxqUEayWvbSsSTSaO9dVdnxdgzUXBDKciyGAKB+suAwjky/EsWDBAvXDtGnzJo0XDziISJOnTFbxDukjH2AIQQ8CFOoD+UU8YA2/VE8//bSkpKRIjx499Hz4hxo9erSkp6fLgYMHXKIR8o4FghGGA8IROuqCCwmQAAl0NQE8M2EBGhcfp5YKGNrChQRIwDkE0IdCG0bfA1bX6KtgwdoE55SGOSUBEnASAbxnYbInvFthFAjekdCv4EICgSYQEqIRBJKx48bKTTfdJAsWLlAxxvyIA6D7thmSZSxaIExALIFoAfEDwsWiRYu0QaJj8Le//U2GDh2qgg1EGVwH/0Hw9QOLJQgamKUN+3A+/AnBdxIaNRZYw+CL1M9+9jP54x//qGLJ9u3bdVhCeysYnZX//d//VaslCEjIj1lMZ8UIR7AggkUS/DwZ0QTWOmPGjJFu3bup8DNv/jwtK/w9QSiD4AUrHjyU1KfRy8t1eNrcuXNVRELcsKjCEDnM3AZxB+W8/Y7b1fE4hseZfCBfSA+M7rvvPuUHQQdD9SDu9e7TW/OycOFCzQPyBf44BisoUw48FG+77Tbp1auXxMbGSlZWlowcOVLFJQh2d955p+bJal2GPOBBetfdd8lTTz2lopnhxDUJkAAJdBWBS5cvSW5uriQkJMjqNatdQ6S7Kj9MlwRIwHcC6FvgwyPaMEQjfJzCPiym72P+9j1WnhksAh3xSxqsvDEdEvCFQGVlpY7OgP9aGCGMHz/eNbrFl+t5Dgl0lIDjRSP8OMNXEZxMQ5R59dVXVdSxAvH2A272Q9iA5Qx8AEFggOlxeXm5WutgCFp6RrrccsstKgzBFBCCCgSiH/3oRyq0bNiwweVbCAIRrFsgKD3//PPaiYACDMsmiD2RkZHy7p53VWwx1jjWvLa1jeFZEKVgadSaaISywQE4hsRhBjkz7AuOrbEPjsIh9pwvPS/wB4XjGCJ2++23q5BzrvicclxuEY2MFdGLL74o//d//6eiEayGSkpKBD6Ufv/73wtYmOFhEIjWrV8nv/jlL1Q0g7iH4X+Pz35chTj4oMJXOrMf5YGDbYh0GA4HEQiMIFh9+9vfViEOQ/twDYar4eULwwgxBA8dOOswQjDHPjgNh6VXR1i3VRc8TgIkQALtIYDnMobSGtEIs1PS0qg9BHkuCQSfgOkrImV8zDKiUVpaGi2Ngl8dnUoRfUHUpwmIzFq/nYqcF5NAEAjgPRQuTzBKAxM/wTAAH/Cx8F4OQgWEcRKOFo3QOPADjmFmsECBE+zVq1e7RAtf6xXDoSCkYHgZprQ3ogeuhygC30dwBg1LpPfee0/3YajUT3/6Ux3XDoEJ+UB+oABjqNwvf/lLFTvwA4UAy5m77rpLBZx//rPJMTWuac+C+CGsQCT5zW9/06pohLjhpwjlAhsIKhBn8GUMM68VFhZqWSAOQfSBJdK+/fv0AQTrHFgDYWgZRCaUBUPc8DfKgqF1EK5gpQQ+Ooxt2TL57W9/K9OnT1dhCOVCnLCwwn68HIErOlsQzsACAh/8FcGpZGlpqTrxfuWVV+TOP98pUNAhMEF4mjNnjnz/+9/XoWjwp4Q8QMBCGY8dP6YWTsayC+fjODhhljx06pAG2CFwIQESIIGuIoBnVnlFedPwtLg4/W2haNRVtcF0ScA3Ata+A9owPt7BqhzD5dFnNMdNP8P87VvsPCuYBNAPxodhWIihL44+O+srmDXAtDpLAKIR3jN79+6toykw+gKiEZ5NtKTrLF1e3xoBR4tGKBge9rA0wqxkt956q/rZgYhhFk8/Bthn9mMNoQJD2zDkCRYq5jjWEDrwwwIB4k93/kmdX0MogfULhCTjx8cITRjSBYsdWC1hyFpdfZN/HYhGd999t4pGyK/Ju8mnL2v4aYIlk3GE3ZqlEfIDKx9YJGEYBEQjiGsQxr71rW+pZRAsfaZNm6azzkHseXTio2ot9J+/+E+14EE5URaIRnOenKMsEC8sqFQ0mjfP9YN7/Phx9TME30joREG4gfAEblHRUSoIgSeG5SH///3f/y2ZIzM1/RkzZggC8oKhaRD/oJ6fPXdWRSOwRt3CCgw/8HgwIn7Eh4cnjhvLJ9Qf6v8f//iHWk3hweo+bM0X1jyHBEiABPxNwIhG6ORBzId/OPMsY2fP37QZHwn4hwD6GmZBG0bfC20YFtYUjQwZZ6zx4RJ9Rli1ww0FBCRPPlCdURrmMhwJ4L0H755/7/13/QAPAdu8G4UjD5Y5eAQcLxoBFSx94PQZw8XgGAydcCz4occPvFmwHwEWMO+8844KGbBYWbJkidx44406ow0EBlxjDbCE6de/nwodcOBsRCMMx4KogjiNUAVRBb504EsIopHJC9IzlkawfHFfkJ61Y+J+HH+7i0b42uV+DV48sA/5MBZPOTk5ak2EH0s40f7Od76jljwQaCCUwaE31ggQfWJiYnQ4HZRrd9EI5YRoBOEHvoYqr1ZqVsEEog+G4MGCyJhPQrSC7yNwBgsM04P1EwI6XDCrROcra1SWrvHl7qGHHpK09DQ588EZFY0gFmEGN/g+MkPkUEYEcIMPpgcffFC/+sGnEgQyxAGH2ZhVz5yra7nW+fPEmPtIgARIIFAE8LwylkYQjTCcF9aRvjz/A5UnxksCJNA6AfQdzIK2io936C9hmD8dYRsy9l6bfiBmOoYlO/xnog7hggJ1yoUEnELAiEZqaXTXXWr1aD6OO6UMzKczCThaNDI/AhAyMGTqlltvUUseNCgsRkAxVYMfBpyL2b4wRApfGeDTByLPD37wAxUwzLAnEzeuLS4p1unr77jjDtewLfjcwd+YwQuL6fTjelguuYtGOjzt7rvU6sddNEJa5nqTV0/r60SjoutFI1wHcQYmuBBkYLUD/0tQoWENBH9BsIKCSo0p7uHXCMPzIIZhvWXLFnlr11vqwBoPIa+i0f/9Vebnz9d4kSbKAEEI1lQQ8CBoQQyCA2wz1K26plodjoMbHnYYsoY0d7/dHHbv1vzAGgn5MVZfGJ7285//XK2HjDhn5QOeSAtD1CAgwYcRLJMeeeQRfUEz+eOXfCs1bpMACQSbAJ7N+MiBZzPEeVga1dQ2DfvFM5QLCZCA/QhY2yb6arA0QhvGhy/0q8xxrE2wXynCO0eoF9Qd+r2YnAX+LjHBDQRA7OdCAk4h4C4ajcwaqcYM5jnklHIwn84j4HjRCA97dMTxtaBPRB91QA0fRMYiBVVifsRxLoZowcIGw6NguQJhBEIJhmDhh+TUqVMtxoTCYgdfJmAx06dPH70eX4Zh3grxAz5/rPEjvhWvXG9pBOEEvoLi4+PVgqYjt4q7aIQfO+TF/BiafMBCCF+wYdkEkQgzw4ER/AbBkgi+mFauXKnWQBBhEMALIg2cZ7+56U31M4S4WxWN5s93zUqG+CHeYCY5zMIG6yIMMYNPI8SL44gP4tkDDzygw+TAFXxNwMsTLIVQfxCzcB0W+FOC+AXLKZzrvoA5rMXAF/UyefJkdYoOBkZkUja0MnJHx79JgASCSAD+i/B8hpUmhuTieYghzXxpCWIlMCkSaCcB9B/MgrYK35b4GDd79mzX0HscN30w6/nmOq67lgDqBHUH0QgOhCEawXUD+tHon3IhAacQcBeNMjIzKBo5pfIcnk9Hi0Zgrz8EjQ06kxaGpmHWMggjsGLB8CZ00K9UXlERBMOz8COPae9haYQhY7geHQD8DQscDL2CA2aIDRhydfLkSZkyZYr6PILlCmbsgnCBIVOIB5ZGJg/4QVLRyDI8zYgWELXuvfdeTefwkcOumcFwLcQciFX4Ao2/vS2IHz9w8N8Df0qwqMHMb8aRNBxaI7/4eg1xCjOhYUp6M6sYrI0wZA7D+PCV7MjRI2ophDxCoNm+Y7sKPpjZB36cXKLRr645woa1EKy6zPA0Y9WFH13EAyEOYlXPXj11qBr44BgCygZhCUIS/ENBDEKekS+whpNrWEBBdIJ1EYYRoszYxvA0iEaGp2EE6yHEDb6YehIBnQHEYcpgzuWaBEiABLqSAJ6BEMfxnDYzR0JIwnOOCwmQgD0JWPtlaKvoL2ESDrRh9PnMgvNMMPu4tgcB1AvqzohGcF+AmYXRd0RflwsJOIWAVTTC6A64GME7FBcSCDQBx4tGBhCscCD+QNiBXx1YDU14dIIOQXvuuedU5ElNTdXhU/3799chahUVFfoDjx99iBsQG/AFAiLF6jWrdZjZpEmTpFevXipC4McGX4VhlfPU0y1FI9NRQFyw4oFgg3jwN47B2d6QyCHqQBoi1BtvvqEdDzR0TJ2Yl5enVj6eLGlMGSGOQDTCQ+Kmm29Siyk480OAU2sMC8MwLfjzwTmIE1+yIfTgxxI/jHDaCEEJws6YsWPUkggiE/IAZ+JwcJ2fn6/D23A+LKkw1A4WPCg7XniWLl2q1+M8PLxQPrz44Pydb+3UoWeY7QycIdQZ0QjlAA9YMw0eMljPgx+kVatWqdCFr+8Qe1AHGEIIMQnXgqMZUucuGiFOlA1DCFH3EJcwNA1xGfaGH9ckQAIk0NUE9HlZX68fH/B8M78dXZ0vpk8CJNA2AdN+0d9Bf83afs021lzsRQB14lE02r9P+5n2yi1zQwLeCeC9Cx/RMfoFxggYPYP3JS4kEGgCISMaARR+xCFSwAoIY5UhngwePFjX2IYVCrzMwwoJVj34AcGCHxNY68CCBmPUo6KiVECBiAKHeaNHj1Z/Pfi6hDQgRmDYVkJigg79slYSBCUMd0P6y5Ytcw2ngo8hTHMPMQuWULCygYUR4nz66adVyHn99devs6Sxxo0XDIyfxzTy+EoCgQV5RRkhSGEbghCOI619+/eppRUEHf3BbGzQ/MBCCYKROR9iGvKLAHYQ34zQs2nTJj0P5TXCE3wXgROENjyosN/8IMOqaebMmeqYGkKTsZ7CcSw4F+V+deWrKnDBwgvpwgH28BHDJT09XV588UW1QMK5yAc4Iq+oN3TSsM+6IG48RHEeLLAgiMGKDOeZdK3nc5sESIAEupoAnk34Z56fXZ0fpk8CJOAbAdOv0DbcbF2EK93/9i02nhUMAqgbPGuNpRHcJ8DSaP/+/bo/GHlgGiTgDwIYQQPRKKJvhHTv0V1HjmAfFvpu9QdhxuGNQMiIRubHGqICRAn8MECYwHAnWMTAkmb16tVSVFSkQg3ON4u5FsIR/OzAugZOstEoYfFy8NBBvcZ07rGGeANrIfjgwWLig6gE4WTz5s06BMEIHNgPf0qvvf6aiiJw9gyho6q6Sn+04H8Hw6nM+SZv1jXShfiEa9euXasiCsoEsQnxwhcQBCtYF4EBLIyQLq4zeUQ+kS7ENVj4YGp6lBXWQxCIkHcjzCAvGE6GeGEphWux78yZM+pwGgysvqOQBiyB4AQb1kuwakJc1sUMJ0M54OcJTsgXLFyg+YAD8V27d+mwNKSD9JT1ieNqnYQhfNivIhgejZY6RDpI809/+pNgtjgMMcS5puzWPHCbBEiABOxCAM8oWMpyIQEScCYB0xfB2gRnliR0c23qxV00gvW+qb/QLT1LFkoEIBDh3Q2jMuAKBO88MEDAwns5lGrafmUJOdHIIIZ4cfnKZRUP4BsHIgKGghkRxTQsrI2wgDWuw7A1XAMRCY0TgoQ5xxo/xBcjipjjiA9pwAJHr2t+GTD74RMJ1jdm6JVJ0+TNxO9pjTgghOBcEzDlPbYRH9YQcZAuzsWC+BHwt7keceAclA3lhF8hiDi4HsdwnrnOnIc1FhxD+XAuWEHAsS44jjwgP1gjHk8LzsP1eNAhDwjgjn3Wa/S82hqND+nib/PPxIt9iAeOKfH1CMMDMZROz7UIS+Z8rkmABEigKwh4eiZ52tcVeWOaJEACbRPQ/oelX2Ftv2Ybay72JIBJVmDx37NnT3WEDUsjLiTgJAJ438HHftzHmKEao2Hw/oSFzx4n1aTz8hoyopE39L78iLs3MtMpcN/vnob1uHUb55m/EZd1wX5zzLo/kNvWNLGNr9oqJDVb61iPe8pHa/nt6DGTjknbrM3+1tbWNGEZtXv3bnnhxRd0fO+wYcPk/X++H3TGreWXx0iABEgABFSMb7wm4rfnuUeCJEAC9iBg+iDu7df8bY7bI7fMhSGA5y9GE2BYGtw7jBw5Ug4ePMj+ogHEtSMIQDSCOw7MVh0dE60zsRrRyBEFYCYdSyDkRSPH1kyAM+7kTo3JO9bwrwQfUXDgjS9H8L0En1NcSIAESMBuBMyQWQxFRoA1q3me2S2vzA8JkIBnArCkxnB5tGFjhY0z0ZZN8Hwl93YVAdQLrNXhUgKuGeCTE/3HkvMlfAZ3VaUw3Q4RwH0M37Nbtm7RAB+ueA5BFMUxLiQQKAIUjQJFlvG2m4DpbLlbZ3mKCOdiwXSpEydOVPNMKO/FxcXsAHgCxn0kQAJdTgDPLbxwFhQU6KyQ8D9nnmVdnjlmgARIoE0CaK8Qi0wbhghh2jDWJrQZEU8IOgG4U8BHRbiIgEsG4xIh6BlhgiTQCQJ4xkAcwr0MNyAIWLAfwhEXEggUAYpGgSLLeNtNQDtbbsP5vEWCc7HAtxKcdaPjBpNNPjC9EeN+EiABOxDAC8vYsWMlKSlJv3TD+ogLCZCAfQmY/gZyiD4GJhJBG8Zsr5jwwxzXPkwXuCCwLzl75QwfJI21J+rR1Je9csnckAAJkIA9CVA0sme9MFckQAIkQAIhSABft3NzcyU+Pl5nwLQObwnB4rJIJOB4AkYUQkEgNmCG2OzsbElOTtYZec1xI0KYvx1f8BAsAOsmBCuVRSIBEggKAYpGQcHMREiABEiABMKdAF5YIBphilwjGtEHQbjfFSy/3QlYhQaIRpimPSsri6KR3SvOh/yhbk3w4XSeQgIkQAJhS4CiUdhWPQtOAiRAAiQQTALwqQFfGnjhhGi0bt06DqkNZgUwLRLoAAGPotGoLElNTZWiw0UcntYBpna6xAxVs1OemBcSIAESsBsBikZ2qxHmhwRIgARIICQJ4OUEPo0gGsXFxVE0CslaZqFCjYC7aIRp2keNGiUpKSkcnhYClU1LoxCoRBaBBEgg4AQoGgUcMRMgARIgARIggabZTeCwH/5QYmNjKRrxpiABBxBwF42sPo2wbY4b8cH87YCiMYskQAIkQAIk4BMBikY+YeJJJEACJEACJNB5AsankbE04uxpnWfKGEggkASsIhCsBYuKitQvmTrC5vC0QKJn3CRAAj4SsD6nfLyEp5FAuwhQNGoXLp5MAiRAAiRAAh0ncPnKZZkxY4a+dG7dulWngO54bLySBEggmATwYnbs2DGZMmWKjB8/Xk6+d5KWRsGsAKZFAiTgIoCJNPDhCc8likYuLNwIEAGKRgECy2hJgARIgARIwEqgURq1g7d7927ZtHmTnD59mo6wrYC4TQIOIFBWViY7duyQLVu2CLbRrrGYFze+vDmgEplFEnB/ltFnAAAgAElEQVQoAVg7lpSUyP79++Xdd9+V48ePC8Qj8xxyaLGYbQcQoGjkgEpiFkmABEiABJxPwLxMXq26KpWVlVJTW6OikXnZdH4JWQISCH0CeEG7evWqXL58WWpra10FNu3YtHPXAW6QAAmQgJ8IoP+wYcMGmTBhgowZM0byC/L1WeSn6BkNCXglQNHIKxoeIAESIAESIAH/ETAvlSZGfDGEaTnWCFxIgATsT8CIQmizZhu5Nu3bus/+pWEOSYAEnEQAQ9wXL14sg4cMlr79+kpubq7AVyIXEgg0AYpGgSbM+EmABEiABEjAAwG8XJoXT75oegDEXSRgQwKmrZq1ySL+NsHs45oESIAE/EkAFo4LFy2Ufv37yf333y9paWlSXl6uSbg/k/yZLuMiAYpGvAdIgARIgARIoIsIsJPXReCZLAl0gADaq7EKdG+7+NuEDkTNS0iABEigTQIQjRYtWiQRfSOkR48ekpqaKhcvXmzzOp5AAp0lQNGoswR5PQmQAAmQAAm0gwAdVrYDFk8lARsRgGBE0chGFcKskECYEXCJRhER0q1bN7U04vC0MLsJuqi4FI26CDyTJQESIAESCB8CVguES5cvyaVLl6S6pjp8ALCkJBACBCAY1dTUyJXKK9qG4RTbLKaNY82FBEiABAJBwF00Sk9P1+Fp/BgVCNqM00qAopGVBrdJgARIgARIIEAE0KmrqqqSjRs3ysqVK+X4ieMuq4UAJcloSYAE/EgAotH58+d19qLXXntNLly44HKGTdHIj6AZFQmQgEcC7qJRZmamDk9raGzpmN/jxdxJAp0gQNGoE/B4KQmQAAmQAAm0hwAsjKZNmyY5OTmyZcsWtVowL5vtiYfnkgAJBJ8AZjs8fvy4TJkyRcaOHavbxrLItGPzd/BzxxRJgARCnYC7aDRy5EgpKyvTmVj57An12u/a8lE06lr+TJ0ESIAESCCMCKDDN2bMGBk6dKisX79eqqur2dkLo/pnUZ1NAKJRUVGRir4pKSly6NAhWho5u0qZexJwFAFPohEcYePZRNHIUVXpuMxSNHJclTHDJEACJEACTiWADl/e6DxJSEiQtWvXqqWRdvaEflCcWqfMd/gQMKJRdna2JCcnUzQKn6pnSUnAFgTcRaOsrKym4WkNHJ5miwoK4UxQNArhymXRSIAESIAE7EXAiEbx8fEqGtXW1fLroL2qiLkhAa8E4NPo8OHDYkQjbJuv+1ib4DUCHiABEiCBThBwF41GjRrV5AibDvg7QZWX+kKAopEvlHgOCZAACZAACfiBAHwawdIIotG6detcJuXmxdMPSTAKEiCBABFwF42OHj1K0ShArBktCZDA9QS8iUZ4NnEhgUASoGgUSLqMmwRIgARIgAQsBCAajR49WmJiY9SnETt6FjjcJAGbE4C4C+sifN0fMWIEHWHbvL6YPRIINQLoQyxevFgGDRokvXr1kry8PHWEzb5EqNW0/cpD0ch+dcIckQAJkAAJhCABvHDiK+G4cePUp5FaGjXUh2BJWSQSCF0CRYeLBH5EIBodO3aMlkahW9UsGQnYjsDVq1dl48aNMmnSJBWMCgsLpaKiQiga2a6qQi5DFI1CrkpZIBIgARIgAbsSKC8vlwmPTlAnuuj41dXX2TWrzBcJkIAHAhiShhkQMzIyaGnkgQ93kQAJBI4AnPGXlpYKnkOYyfHEiRM6zL2hsYHCUeCwM2YRoWjE24AESIAESIAEgkAAXwIrKyvllVdekWeeeUb279+vnb0gJM0kSIAE/EAA1oLnzp2T5cuXy5IlS3Tb+CPD2gQ/JMUoSIAESMAjAfQlIB7V1dVpwEmN0kjRyCMt7vQXAYpG/iLJeEiABEiABEjACwG8TKKjh3D+/Hk588EZNSk3L5xeLuNuEiABGxFAe62qqpLi4mI5e/asbpvsGcGIbdoQ4ZoESIAESCBUCFA0CpWaZDlIgARIgAQcQQDCUU1NDb8KOqK2mEkSaEkAohDaML7yY20WikaGBNckQAIkQAKhRoCiUajVKMtDAiRAAiRgawLm5dLWmWTmSIAEriNg2i7EImxbF3PMfb/1HG6TAAmQAAmQgBMJUDRyYq0xzyRAAiRAAo4lYH25NNuOLQwzTgJhRgBt1mphZIpv2jLWXEiABEiABEgglAhQNAql2mRZSIAESIAEbEvAvFQig+bF0rrPthlnxkiABFwErG0WzmfNYvabtm32c00CJEACJEACTidA0cjpNcj8kwAJkAAJOIIAXiYx4wmsFMzwFuzDVLl80XREFTKTYUwAbVTba/PMRWjLCKbtmuPm7zBGxaKTAAkEmYBVwA5y0kwuTAhQNAqTimYxSYAESIAEup4AnOceOHBA3n33XSkuKXa9hPJFs+vrhjkggdYIGFHo0qVLcvDgQdm3b5+Ul5e7hqqZ42zLrVHkMRIggc4QMM8X87wxcbn/bfZzTQL+IkDRyF8kGQ8JkAAJkAAJtEHg6tWr8tRTT8nkyZPlrbfeclkq8CthG+B4mARsQuDUqVPy9NNPy6xZs+TEiRMUjWxSL8wGCYQDAYhDtbW1gr4E1lVVVVpsikbhUPtdW0aKRl3Ln6mTAAmQAAmEEYHLly/LuHHjZPjw4bJ27Vrt9IVR8VlUEnA8gePHj8v48eMlKytLjh49yuFpjq9RFoAEnEMAItGePXtk+fLlsnTpUnnjjTeksrLSOQVgTh1LgKKRY6uOGScBEiABEnAagYsXL0pubq7Ex8fLmjVrpLau1mlFYH5JIGwJ4Gv+kSNHJC8vT9LT06WoqIiiUdjeDSw4CQSfAD48QTBKSUmRmJgYmTZtmlwou6AZ8TSrY/BzyBRDlQBFo1CtWZaLBEiABEjAdgRKS0slJydH4hPi1dIIjnS5kAAJ2JcAhCKz4KUMQhGEX4hG8G1kjpvhIeZvcw3XJEACJOAvAleuXJElS5ZI/wH9pVevXvosOn/+vEbP/oS/KDMeTwQoGnmiwn0kQAIkQAIkEAACFy5coGgUAK6MkgQCRcAqAllFo7S0NDl06BBFo0CBZ7wkQALXEcBQtMWLF0vvPr2le/fuOky29EKpnmd9Vl13IXeQQCcJUDTqJEBeTgIkQAIkQAK+EigrK6No5CssnkcCNiBgfRGDaAShCNaCqampcvjwYYpGNqgjZoEEwoWAEY369OmjolFmZqaUXSwLl+KznF1IgKJRF8Jn0iRAAiRAAuFFAD6N8MIZFxcna9etlbq6uvACwNKSgMMIuItGGJKWnZ0tsDQ6duwYRSOH1SezSwJOJoDhabA06tevn3Tv0V0yMjIE/QouJBBoAhSNAk2Y8ZMACZAACZBAM4Hy8nIZPXq0JCQkNM2eVlerU3ZbX0wJiwRIwD4ErG0TlkYQjTBzGiyNjh7j7Gn2qSnmhARCn4BVNOrWvZukZ6RTNAr9ardFCSka2aIamAkSIAESIIFwIICZT+bOnSuPPPKI7NixQ+C4Ei+l+MeFBEjAfgTcRaOjR4/K9OnTddai06dPu9qutmO0ZYvjbPuVhjkiARJwMgGIRs8++6z07dtXunXrpg75aWnk5Bp1Tt4pGjmnrphTEiABEiABBxPAy2RdfZ1aKuzfv18w4wn2wXqBL5oOrlhmPaQJWNsm2iqsBQ8cOCBow3iBMwvOM8Hs45oESIAE/EnAiEYRERFy77336jBZ+Erkhyd/UmZcnghQNPJEhftIgARIgARIwI8ErC+TcGRZVVWlVkZIgqKRH0EzKhIIMAH4Iau8WilXr15t4ZPMtHGsuZAACZBAIAh4FY343AkEbsZpIUDRyAKDmyRAAiRAAiQQCALWF0nzcmnScf/b7OeaBEjAngRMm/XUrq377Jl75ooESMCpBCgaObXmnJ9vikbOr0OWgARIgARIwAEEvL1MmhdQBxSBWSSBsCdgbcfYhqUgFtOOrcfDHhYBkAAJ+JWAJ9EIPo343PErZkbmgQBFIw9QuIsESIAESIAE/EnAvUPX1t/+TJtxkQAJ+I+Ate1CMKJo5D+2jIkESKB1AhjevmTJEundu7fcc+89kpGRoX7WWr+KR0mg8wQoGnWeIWMgARIgARIggf/f3nnASVXdezwxmv6ieS/JS97TFI3Gp6aZxNgTjSZRYwVEBekL2/uywBY6WOkCwjbACPrE+FJsgBQBAUXpHSlioW7v5fc+vzN7hrvDzO7sMrM7O/u7fA7nlnNP+d5z79z72//5H78I8IPT20em80PUr4yUSAREoEMI2PuXhXPd3ruMbeiQiqlQERCBsCdAf4h///vfERkZid6P9sa4ceNQXFwc9u1WAzuegESjjr8GqoEIiIAIiEAXIVBdXY1jx4/h6NGjKC0t7SKtVjNFIDwIcIaiqqoqcDjIiRMnzLptmRWMrIhk9ysWAREQgUARoFC9a/cuIxwtXrwYq1atAq2PtIhAsAlINAo2YeUvAiIgAiIgAo0EKBS9tPglFBQUYMeOHW6rIwESAREIfQIUhD7+5GO89NJLeO655/DJJ5/I0ij0L5tqKAJhQ4CiEWdvpGh96tQp88cnzuioRQSCTUCiUbAJK38REAEREAERaCRAM/LxE8YjNTUVK1euRE1NjfujU5BEQARCk4C1HmLMv/KPHTcWGRkZ2Ldvn3uIGo/ZdKHZCtVKBEQgHAjwOWOHxjqfOc71cGin2hBaBCQahdb1UG1EQAREQATCmAAtjTIzMxEdHY0lS5eY4S18+dMiAiIQugTsxxhjWghmZGYgJSUFe/fulVAUupdNNRMBERABEQgQAYlGAQKpbERABERABESgJQIlJSXIyspCVFQUli5dKtGoJWA6LgIhQMCKRhR4KRpR+E1OTsbu3btRV1cn4SgErpGqIAIiIAIiEDwCEo2Cx1Y5i4AIiIAIiEATAhSNRo4ciSFDhmDJEpelkf0gtQk9t+1+xSIgAh1DwN6TFI127txphF9aGu3ctRP0J+IcKkJn2VpEQAREQAREIJwISDQKp6uptoiACIiACIQ0AQ5Py87OdlsacTY1+0Ea0hVX5USgCxOw96gVjXgP0y+Z09KIaSQYdeFOoqaLgAiIQBgTkGgUxhdXTRMBERABEQgtAqVlLtEoOiYaS5cthUSj0Lo+qo0IeCNgRSPGu3btMtaCqWmp2L1nt2ZA9AZM+0RABERABMKKgESjsLqcaowIiIAIiECoEuAHZ1lZGbKysxATE2N8Gkk0CtWrpXqJwGkC3kSjtLQ0IxrZY6dTa00EREAEREAEwouARKPwup5qjQiIgAiIQIgSsKLRhAkTkJSUhFWrVqG6pjpEa6tqiYAIeBLgPWwtjYYNG6bZ0zwBaVsERKDdCdCvmhYRCDYBiUbBJqz8RUAEREAERKCRQFV1FVauXInXXnvNfHDW1tUan0ayVlAXEYHOQeDo0aNYtmwZ3njjDZw4caJzVFq1FAERCAsCfFeorKxEYWEhTp48CU6uofeHsLi0Id8IiUYhf4lUQREQAREQgXAgQCe6nJ67vLwcJaUl5sXPzroUDu1TG0SgKxCoqa0BHdrzY42irxYREAERaC8CFRUVWLNmDWbMmIGnnnoKL730EoqLiyUctdcF6MLlSDTqwhdfTRcBERABEWg/AhSM7MK/DHoKRtynvxhaQopFQAREQAREQAScBChWUyiKiIhA7969MXHiRBQWFZo/SDnfMZznaF0EAkFAolEgKCoPERABERABEWiBQEuiUEvHW8heh0VABNqRgATedoStokRABAwBWjkuXLgQjz76KHr06GEm1qDlMp9H/EOUFhEIFgGJRsEiq3xFQAREQAREwIOAFYY8Pzit1ZHnfo/TtSkCIiACIiACItCJCDQ01MMENLhrzbWmoQH1DfXu0ADXP/cJjStGNFq0EH379kXPnj2RnZ1thsvadwjP9NoWgUARkGgUKJLKRwREQAREQAT8IGCFI5vUbvMVUYsIiEDnIeAUeZ3rnacFqqkIiEAwCfB3vb6hDnUNtaivdwxRd4hGdQ0NqGuoR11DHWrra01aT5HJ1pGi0aJFi9CnTx88+OCDyMzMRFFxkT2sWASCRkCiUdDQKmMREAEREAERaEqAH5b0O8BgxSK73jSltkRABEKVAO/Zqqoqcx/bOvorGtn73jO2+bQUe54XiO12L7MFgTwQbfLMo6U26rgIBJqAsRUy1kN1RjiqLC/H0U8/Q0VlhbsoDiirbwDqQeHotGhEkYnCkediRSP6M+rWrRtGjBiBk6dOeibTtggEnIBEo4AjVYYiIAIiIAIi4J0AZ07buHEj1q5diyNHjpiPzpqaGtTW1pp1+STwzq2z7/X8gPXcDnT7XB8rLsfqnmVxOxiLt3LsvnAoz7aBMxXxHl6/fr2Ztcju95erv+lsvopFQAQ6JwErGlEAYjj6yad4Zvp0rFy1AsVlJaitr2syRI3D02xan6JRmcvSqFevXnjggQeQkZGBwsLCzglIte5UBCQadarLpcqKgAiIgAh0ZgL84Hz66aeNHwJOm2v9EATz47oz8wqXutvr6ysOdDslGgWa6On89n+439zDjz32GPbt2+d2PivB9zQjrYmACNBnEYX7etTV15iwf+9exMXGIj0zHUtWLMXJ4kLQlsjt26iezqxdVkkc0sbzPZeysjIzPO2RXo8Y0YjD0zijmhYRCDYBiUbBJqz8RUAEREAERKCRAF/u+JfB+Ph4LFu2zFgY8WPTikcCFZ4E2lvEae/yeNV8CWLcH4ylvcuzbdizZ4/xI5Kamopdu3a5h6hxyJo/i696+3OuTeMrj7but/n6ituar6/zfJVj9/s6r837vXx827IUi0CwCFAwMv6MKBo11GLf3r1ITE5EdGoMRozLxGsr38Sp0mK3cGS6aX0DGvhOQOfZXvqtFY2spRFFIw5Z0yICwSbQpUQj50tUsMEqfxEQAREQARHwJMCXO852EhcXh6VLl8IOTePwNPOSGKQPbM96aDu8CTjfd7x9aIdD6721y+4LZvsoGlH4TUpKwo4dO9yiUXtbGtm2BiL2h1cgyrF5hGJ5/tRJaUSgNQSMlVHj0DSKRrRSjE6OQ9qEYYgflYz0iZl4Y/VbOFFSZOQhY3FE/0Z1nG3Nu9hO0WjhwoWgaESfRhKNWnNFlPZsCHQp0cgTlP3x8nVjeqbXdvgRMA/o8GuWWiQCIhCiBCgajRw5UqJRO18f5+99s+te/rIbqKr6LDcIZXaEaOSzfT4+fs6Wa3uXZ+trRaPk5GTs3LnTPTyN9WnPpbn2t/ZYS/VubX4tpm+hz7d4foNvf12+zm2pjTouAoEm4LQy4vregx8iIjkaw6ZkI2PmaAweE4ehj2fh1dXLUFhRhtp6WhfRarNxzFpjhczzvPGeKePsaQsXonevXujevbsRsDU8LdBXTvl5IxB2ohF/LDwX7rPm//xrLv+yW11dbWa+4OwX3PZ1nrf9nvlru3MScD2EXWOJ3S04s/u4D2lFBERABM6WgBGNskciNjb2DEujBpqle/kNO9syu+L55Ogt2HcBXzGHBXg7LxD7fJfpva5nW6bv8oLTRl/lcf/ZtsXb+e1dnq3D7t27zV/3U1JSwHW78HiHLvZDsy2xPxVvS76+zgnF8vypU1vS+HgW2f7kLW5LMe5z2lIer1Nbl4bmh6Z6bV+7l3c2Bbalfa7yrGjEmJbEuz/ch4FJkUiZMgIZeWOROHMYIsbEI35sOt5YsxxF5WWo5fXjteB/JvD3gc/QerNdXlqKFxYuxKO9exvRaETGCPk0amvf1XmtIhBWopH9wXbGFISOHj2KLVu24NVXX8Xs2bMxY8YME7j+4osvmhkwjh07hpraGvdfjEjRvpBYohyvfvDgQWzatAmbN282gesMH3zwQZPAmTUYtm/fjsOHD4PmhGb4QaPvCpun4o4jUE8x0UxxWY+auhrU1FTzojse1C6533xE8KXXz+CaO5P2pf4Hf/P2la41ZTGtr3z82W/Pr+dwmto61NOPQ129OzTQrFZBDNQHzugDfNpVV1Ri3OgxiI2OwfKly1xp+JLI54XrPdP1UHS/MNoXx64Xe3uOmGedZdNxPx+tL9nW2Vfc+hybP8NXOXZ/82e37ajN21vcthybP8tbOXZf82ee1dH9e/ZiZFY20tOG4sC+/afv2yYebTvZ/doSEcs1UHFHl9fYDj5jTn+cd7JrFqhroXyC2AeMouYyHWoADh04hMikaCRNGYb0/FFIys9AwqzhGDA6BlHZiXhz7VsoqSh1CUT2HjF/TDotGlU0ikb9+/U3otGo0aOMTyN+Y2oRgWASCCvRyBNUUVERVq1ahYkTJ5pxn7/97W9xySWX4OKLL8ZFF12EH/7oh/j5z3+OP/3pTxg+fDhefe1VIzBZsYgikdOxIadKzsnJwR133IE//vGPuP3223HrrbeacMstt8AZbr75ZrN99913Y+DAgZg7dy62bt2KiooK91/cPOur7fYnQOGouq4GVXVVqK2vabQJbVoP118ITs9m0Ny26y8Bzh8J/9d5bnN5ezsWjPJaypPHG8zsDi4hzdjR8i+sevEQA/WBZvsAP1AqysowZtQoJMTGYdmbS1BbXW1E3CaCkX0EkWcrxOfwSlvf2HbGdr1RiLf9zHLyjO1xG7eGoT0nGLGvegSjLObpqzzuD0aZ4V5eI7N9u/cgOzMTw4cOBQUk971r2+/ZH7UdugR4TQO9tPXeams9VJ7351mo8LR9rAH49PARxKXEIXXaCKTPH434ecOROj8byXMzMGhMDOJHJ+Ot1ctQUeFwbE3RiH+cbXxuUzT6v1dewfBhw8yEGnPmzAFnZbUGE21tts4TgZYIhKVoZC2CnnnmGSPuXHjhhfja176GL33pSzj33HNxzjnn4POf/zzO+cI5+OIXv4ivfOUr+Pa3v40bbrgBY8eONbNhcNiaNam0ECkaTZkyBd/73vdMfl/56ldMnszXMzBf7mPe559/Pn7yk5+gZ8+eeH7h8zjy8RFjdaQb3JLtmLi2rtao88dPHsOJomMoLD6BU0XHcar45OlQdAInC4/jhJ/hJNMXnWxDOOF3Gc66tL28k20qj2WfLCQTsjqJE6fI6xSKS4tMKCopRGHxKXPMplPs4iUO4nCq8CQ+/vQIMrMzEB0bhb//8/9w9Phn5n7ifcP7xwbeUyVlJSgt71qhpKzY/TzhuuVinzEmLilCMUNpkZuX5WZjnnc2weYTqLilugSqHJsPn8vNlWnTBSpu7/JY7/Zsn5PTe++/i5S0ZHMPv7txg/v30LxLnHL9RvL3ke8CzdXRecy8NzT+tnbIb0ULdTXtCWD9mJ+z/Z7rwSyPedtA7nyPIXO7z8bO68A0/oTjfqbzJy9/0oR7ef4wCOU0/M0vLDyFk+xjp45j65bNGBg7EGkzMjC0YCTi52cgaUEGUp/LQvKzwxAxOhJp41Kxct1yFBcXusQiik5GkHZZxdHC/9NPPsGWzZvNCBf6WKPLFVoa8btGiwgEi0BYiUa0EOJy4MABPP7447j66qvx9a9/HV/4wheMWPTVr37VCDgXXHABGL729a8Z0YjHKSJR5LnqqquMcLRv374mQ9WYL31RPPbYY/jmN7/pFp4+97nP4bzzzvMamB+PU6himvMvOB833XQTpk+fjkOHDhkrJglHweraLed77PgxLP7bYszOmYWZeTMwI3caJs+dhElzJuFpj/DUnEl40o/w1JzJeHrOlDYFf/L3THM25fFcz/xa2p40dwomz52KyXOmmnhqzjRMy52OGfnP4JmCmZieN8NsT5k7DVPmTlUQA/UBRx/g/cL759HIPniw/0NIG5UO1z3kum+m5kx38+J+bk/L5bGuE8wzJG8G+AwxPAwH13NmGp8veTMwNXe64UZGvp4z5jnFZ1UbgztflhGI0EI9AlKGRz2ba7vKa/t1HfXkGDw8qBe69emBcZPHm9+8SXOmYPKcKY33Ku9j173e7DUwv5PswzZ03G+mfd7wnvMWAv2b3pHl8Z2F5T89exImPTvZXDfe76ZOuY3Pmlw+e08HV335TPIdpuTwecN3pNYF3ovN5evrWFvLY5/0lWdz+1keObW6fW0sj3UJh/Km5Uw3v0N8f544bSIejHoIKTNHYOhzoxE7fwRi5g1F7Lw0JM0bhsRZqRg8OhLpE9OxbPVS80cRIxjxk8Y9/LXBzK5G9ysMFIuskYO+KVv+9lOKthMIK9GIFkYnT5401kA/+9nPQJGIghDFGw5H45CyyMhIDBs2zEyV2rt3b3DI2r//+78bYYcCD62HKDbR39Hx48ebmPvRLxGHulFwosjE9LRguu6663DXXXc1CSzrhhtvwI9+9COTnsLRF879ghGxrr/+ejz//PPGnNAKXW2/hDqzrQT27t+LUeNGYWh2mlH2E8YmIGZMLCLHxmJIY4gcG4eosfF+h+hxCYgZl9imwHNbUxbTdkR5cROSETcxBTHjkhA73oZkxE9MQfzEVMROSEbseAUxUB/w1QcismMwKCsakaPjzb3Ce8qmjRufDAa73fViPlOSQSZ8lvIZEz3W9Uw1LBysTLpGXpZbk5jPqrMM8RNSEIhg6uGjrmxHIMpw5tFceWTkTBuo9SbsPdoaqDKc+bR3eSyb1ypqTAIisqMxKCvK9FGyjh2XZO7b+MdSze8g0zZXPx5j345pDKZvd+B9H8f6NhMCXb/mynIdC+wz8MzyGvmb9zXXM8c+b9xt5XV1hJaeJfZatiZmWS3l6+u4s//4W6ZpWxufiTzX33JsOtc7YtvaGC7lkUHU+EREjk9EzMRERD4ej4Q5w5A4PxPR84ZhcEEyIgoSMLggEbEFqYidmYxBYyKROWkkVqxbidLiEtdnjh2GaD96Gh2e203FIhBsAmElGlVWVuJvf/sbrr32WrcFEUWdX/3qVxgxYgRee+01M/TsyJEjOHDwgHFU/de//hUPP/ywGZ5GEYhiEK2T7rvvPqx9Z61RcO1FoGhES6MLvnmBEYw4zI2i0PS66c0AACAASURBVOTJk7F69WqsWbMGa9Y2hjVrTHk89sADD5ghbeeed64Rpyg6PfTQQ6Z8Cl0Ujhp95duiFAeZAHnv2L0DGWMykPFUJkbNHYsRc7OQ+uwwJM5JR+KcYUiaOxxJc0cgZW6G3yE1JxNpOVlIy8luZcgCz21NWUzbruXlZCAlJxNDc7MxNHckUudmInluJlJzs5Gak42UnKzTYW4WUhTEQH1AfaCNfYDPFT5f+BzhOp8vSXMyTOB+e8wcZxnO549jnc+mUAimfr5Y5PD5H/h6+noGp5JpO5ZnrlEYlOdmNtf1G+/myN/A3Gyk5Y5EWt5IV8zfyBbazD5h8uD1aKYP++rbgdxv6trYDvOb7rEeyLJsXt7KsftsmkDGnnk3aXMjf+ezxfP68fry3cdb4DHP9P5sN5ent3Lsvo4oj++1/rSpSZrG90Vbb39jtq/zl8dnQjaSc7OQkJuJ+NwMJMwdhti5aYjKScXg3BRE5KdgYH4i+ufHmTC4IAlx89KRMHsYhkyIR+akUVi+ZgUqa6qafhU1CkiyLGqKRVvBJRBWotH+/fvRv39/Y1lEAYgWRldeeaURenbs2GFmMKNIw5uMQg3N+miZtGTJEvTo0QNf/vKX3cPO6INo1uxZxhrIXgKKRhz2ZkUjWg9dfvnl+Ne//gX6O6JoRV9IHFvKUFJSYqyVmH/fvn3xrW99yy1mff/73zdiE9PYWdUkHFnSwY3Jua6hHlt2bkHa2HQMn5aFEQWjkZiXjsjcRAzMicPA3AQMzktGZH4qohpDdH4a/Akx+UMRU5DeupA/1K+8vZXfLuUVpCGKoZFBVG4qGMyPXm4KIguGYkget1MxJD8NkflDFcRAfUB9oPV9oGBo4/PE9Rzh84QhqiDd9bzJSXY9Z/JczxrzvGk8h8+hJiGE+Jt2sM5eQzCemWk+ymIdwr281Nb3u9b0FdvPGn/roualI4r78vk7SO6dL5jfbNsuL7Gr/wauXe1fXtrpZ0PjdRqc5+onfLbwvuSzI4If8jkpjc8YV3sj7TuNFy7u500br31LHNz5e5at8rzeZ+3P09GvHNcouvGdnn0nIj8V/QtS0Dc/Gf1z49E/N84V58RjQH4C+ucloF9ePPrmxaN/fiIGz09D/PxMxD07ApETk5AxaTTefm8tSspLTzvdl2gU3A9F5e6VQKcWjewYTraMAhCtjC677DJjBUTRiD6EIiIisGXLFnPcGwHmQTGIFkeXXnoprrjiCuN3iDOeLV68+AzRyFgaXeCyNKKfIopLFIUo/LithhpNBu0408LCQix+eTF+85vfGNHoc5//nInvvPNOfHjgQyMwSS32dnWCs8+Ihg31+GDHJiSPSjWzGKTMy8aQnCQMyIlF35xY9MuNx4C8RAzMT8KgVoSI/GScTWhNWUx7NmXx3NaU52LBc5IxKDcJEXnJJgzMJSPX/oF5p9ftPsWNzBoZiYd4qA800wcKUtzPE8vJPlcYm+dNXjPnh/B9NjA/Gd6CbWegY29lcV+gy7H5hUp5wWyjbau3mL+Rpo+yn/oTmN5r8N5PfPENxH5v7fHcF4hybB6eeXvbtmkDEXvN38v7yoDGZ4y5fo33q7dzve1rSz295ePvPpV35n3iLztv6QLN03lv98tPQt/8RPTLjUO/PIZ49M9zikYJ6EvxKJ/fHcmImT8cSfOzET8rHQPHRSJhXDKWrFmKuhqXM2zzdWRnLQ7Op5JyFYEzCISNaFRUVITRo0cbP0YUjBguvvhicCpCHmtuoYhw8OBBPPvss5g3bx5WrlyJnTt34sSJE2cMT5v42ETjTJv5W0ujpcuWGsHIUzSy/oooaFEcio6Oxr/927+5Z277wQ9+gGXLlplzm6ufjgWWgFs02rYJSVlJSJo2HIkLsjEgNwF95kajb04c+lMwahSNBuQnQcE7A+ePotZ9fQBov/qG+oD6gPqA+oD6gPqA+kBX6QP8brBtPf0NkYgBFI/yT4tG3D593PWH18iCNMTNG4FYWi3OiEXv7H6IHhmH1evfQXV1jVyaBPazULn5SaDTi0bGH1BDAw4fPoxHHnnEOJumryH6Jvrd73+HtWvXnjELmjc2HE52qvAUaBXEYWZ2GJszLS2SJkyYgG984xtGlLKi0VtvvYX6hvomlkbO81jHU6dOGQfd3/3ud03d6N+IDrinTJniTKr1diDA68Hr+8G2TUjOTkHS9BGIX5BlRKO+OTHGysiIRo4Hvn3wKz79IygWYqE+oD6gPqA+oD6gPqA+oD6gPuB/H3AJRS4BycltUEEyhhS4hkrSSXZMfhpiclMRP2coHh05EPFjU/HWu2+juKIMdY0zhpvPJg5X0yICQSbQqUUjy4YiAC2DbrvtNnDoFwUjOsCmg2v6MuLxlhZan9jgTMt9djGi0UTvohHTOC2N7Dn2/IqKCrz88su46qqrTP3srG4JCQl+1c/mp/jsCRjRqL4Om7ZvRsqoNCMaxc7LkGgkkcz9VyHnj7jW/X8REiuxUh9QH1AfUB9QH1AfUB/wvw9YVxGD85MxOD8FgwtcPvu4PiQvGXEF6YibnYZHR0cg9akMvPXuapRUlMN8otrP1Aagod5unP23knIQAU8CYSMarVu3Dr/4xS+MI2sOHeMMaHSKTefYVrjxbHxrtykaOYenUfihI2xaGnFpTjSiJRMdZl999dVGNKKw9flzPo8BAwYYJ9qBqmNr29QV05M1LcMoGiWPTDWiUdz8TIlGEo0kGqkPqA+oD6gPqA+oD6gPqA+oD7RrH7DCkY0pug3KS8Sg3AQMyU9CbEEaBs9MQL8JUciYNhYrN76DsvLK036OjGhUH7Bv3q74fag2N0+gU4tG/PhnqK2rNcLNT3/60yaiEZ1ZHzhwoHkCrThK0cjpCJvD4OgIe/ny5SaX5kQjHnv99deNaERRi6IR4z59+hifS/5YQ7WiqkraDAHbbygaJWU5hqflJULD0/z/y4j+iiRW6gPqA+oD6gPqA+oD6gPqA+oDZ9cHvDvnplP9RETkJyFqXipiOHRtRhJ6Du2DxHFD8X9v/BO7du9CVWWV8XPU0NDyyJpmPo90SASaJRAWopEVZK688kqc8wWXP6Pzzz8fg4cMNg6umyXQioMUjR5//HFc8E3X7GmtEY0oCr3xxhu4+lcuSyNaKVE4evTRR5vM0NaK6ijpWRKQaHR2P3B6QRA/9QH1AfUB9QH1AfUB9QH1AfWBs+sDRjTi7KEeYUDjjJdD8lMQlZ+CmGdTcG9qD/y+9+14KPIRTHpmMopKilBbW42amipAI9TO8utQp/si0KlFI9soWo5wiJgdnkZBhs6q+/Xr12pLowaPu4152+VsLI2Y75IlS/DrX//aDEuj4MR60hqqtLTUFqG4HQjI0ujsftj0YiB+6gPqA+oD6gPqA+oD6gPqA+oDgekDLtEoGXSGzSFq5NqfM63lJZjZ1QbPT3MNV5saj3tiHsQt3f+IP3e7C5mjs1BcWoya2mpUVzdaHHl8y7bDp5WK6AIEwkI04nXauHEjrr3uWvesZnSE3b17d+Mg25/rSGslz8UpGPGYp0+j1loa/fOf/zTCFsUiDk0777zzEBsbCzrJ1tJ+BHhdrU8jDU8LzI+dXhrEUX1AfUB9QH1AfUB9QH1AfUB9oG19wO3PKC8R/fMS0CcvDo/mxmJgQTKiFqSj1/RIdM/sg/sjHsafut+Ne3t0Q9aokSgpLW0cnkYTBde/9vuqUkldhUCnFo2sxQiHfnGWtDvvvNP4NOKwr3PPPRe33347NmzYYBxUt3RBKQi9+uqrWLVqFT7+5GNUVlaecR7TTJhwevY0luOvT6Py8nLk5eXhkksuMXWzzrrHjh2Lqqqqlqqn4wEkYGZPq6vDB9s2yaeRHB22q6NDvUi17UVK3MRNfUB9QH1AfUB9QH0gnPvAgPxEMPTLi0ff3Dj0y4034tGgnEQMfjYZD48ZhISn05E8dhju7nk//nTXHRiRlYXyiirU1NSDk6dxfMzpMTIB/HhSVl2eQKcWjZxX79ixYxg0aBBoYURLnnPPOxe//OUvzTT3nLmspWXnzp3o+VBP3Hrrrcb6Z/bs2eCMbE4rIE/R6HOf/xwuu+wyvxxhnzhxAuPHj8e3v/1tt2h04YUXYsGCBaiuabl+LdVfx/0nYESjeolG4fzDq7bpxVJ9QH1AfUB9QH1AfUB9QH2gs/SB06JRghGN6AQ7Mi8FkbOS0WvUQIyc+xje2LgC0wpm4YFeD+LOe+9GSlo6Tp7i8DSgTqKR/x+DStlqAmEhGtHiiJZBFHq++93vGlGGQ8f+8z//E8OGDcOhQ4eM1ZDncDNjqQTXufn5+fjxj3+ML3/5y/iP//gPXHXVVaAVEMUou3gOT6OlEUUj+lPiQjHCaf1UU1tj9nPflq1b0LNnTyNq8TxaGt14441Yv379GRZNtjzFwSHA66HhaXqJ6CwvEaqn+qr6gPqA+oD6gPqA+oD6QPj3AQpH/fMSMSAvEYOejcegqbHoO2owRs+eiPc/3IYPj3+M3Oefw0N9++DeHj0wPCsbnx4/jtoGikayMQrOl6NyJYFOLxpRAKA/Iob33nvPDEn74he/aIapMb7pppvw/PPP4+jRoyYNhR278JyKygpjUdStezd85StfMYITLZUuv/xyI0IVFRfZ5Man0WOPPYYLLnDNnkbxh+mWL19uxCJ3QsCURQsn1u+zzz7D5MmTcemllxo/RhS0mEdKSgpogeSskzMPrQeHgEs0asDmHVsah6dlIH5BlnlA982JaTQHTdSwJQ1dUx9QH1AfUB9QH1AfUB9QH1AfUB/wuw/QN1GEl+D2WWRY8jsj0Ti9tvtdlkYJoIURh6QNnBKDR7MHYHzOk/hg/zacqCrBZ8WFmLdwEXr164/7ezyI4ZmZOH7ypGtYmkSj4Hw4KldDoNOLRmwFRQCGoqIiPPnkk/iv//ovI85Q1PnmN7+Ju+++GwUFBdi3bx/oW4hWSbQa+uijj7B06VLExcXhe//1PTA9hSaKR/fffz/efe9d1NbWursKz3GKRrQW+tGPfmSGwH388cdGmPr000/xySefmLz37d+Ht1e/jSlTpuD66693i1Isg9uvv/662zrJXYhWgk6g3lgaNWDLrm1IyU5D0nSJRvrrVfj/9UrXWNdYfUB9QH1AfUB9QH1AfSC4fYCC0WAfgcdcIhFFowQzI5rdRxFpQF4cBucmoM+Uweg3JgJPFEzCB/u2oKS6HCV1VThWUowFzy/Cw70exd333ofMrCyUcRZu49CocXxa0L+kVEBXJBAWopG9cLTY2bZtGyIGRxjfQRR1aNXzne98B9dddx3i4+Mxa9YsPPfcc3hm5jNIT0/HnXfdiR/+8IfGDxLTfulLX8KVV16JmTNn4uTJkzZrE1vR6Bvf+IYZXsb8OZStV69eyMzMRFZWFjIyMjBixAgkJSVh8ODBuOeee4yzbPpaYv60YqIz7CeeeALHjx9vkr822ocAh6bV1tdh+54dSM0eipQnhiNt9kgkPpOO2BkpiJmRgugZyYicnojB0+IRodCEwZDpCfAMZNUkzEhCpGeYnnjGeZ75aPtMtmIiJu3RB5rcv573cztut0dbVYbuKfWBrt0Hznjeeb6vNLfteB4214/07qj354hpCRjMb4nGMGRWCvpOi8Gg3EQMykvAwNw4EwblxiPC+C9KRmxBGgZOjUWv0f3x+LxJeH/vFpTXVKK2oR6V9XU4VVyC5xe9iIcf6YV77rkXY0aPRklxMRo4kkaWRu3zIdlFSwkr0YjWRjU1NVizZo0Rcr71rW+5xSBa99DHEWc7++nPfmriiy66CN84/xsmDQUgWhr94Ac/MOLP7t27zxg2RtGIlkx2eBrPoQh0/vnn47//+79N+N73vgcGOrxmuq99/WvuIW/nfOEcfP/73zfD0jjbG+vKOmtpXwJWNNp3cD9GTxyDpKxUpIxJR9KoFMSPSkTMyDgMyY7GwKzBGJAZgf4KhkG/jEHwDP0zBhlG5MRAZoYb2XkE8VRf0r3U8X3A3qu8Fs571N67HRnbuil2PU/FIXw5BOJZ6Lx/W7Pe1rJbU4YzbUeX19J95PksdNbd27p9Rnrm62wn35X6jhio0IUZ9M4YiEczItAnc4gJj2YOQe/sIbgjuQcGzIzF4ByKRrEYlEvLongMyUlCfMEwDJmWgEcy+2NMzuPYsOsDVNRWm6FnNCSio+vikjIsXPgCHnmkF+6/736MGjkSZSWlLsFI35Tt+0HZxUoLK9HIDiXjFParV69GVFSU8SNE6yFa+VAUMjOrnXuuic877zy3YERRif6Jhg8fjs2bN8POuOYUdZyWRszv3HPPdefLbVsGy7GBaRg4TO6a316DcePGmfw5Kxt9Kjnz72J9r0OaS95WNCosLcLWPdvx/tYPsHHbB3hv2/vYsG0jNmx7D+u2rsfaLe9g7dZ3sGbL2i4V2GaGd7auOyOs3boOa7a8g9WNgeuuwP3rsHrzO80GplEQA/WB1vWBtXwedaGg/tG6/iFeXZPX2i3r2vxcaGufaetzKNTKa+ld5ayPm3ejVvZLvl+1NbTl3aqtZZn3wFa2jfXrQuWt3roOb29dh9XbNmDN9vewetu7eHvbBjz35svokdQX0dNTkDR/BIbkJmBIbiKi8lKQNC8DsTPS0D97CCbOfQof7N2K4qpy0BMvzQtsKCsrx6JFL6DXI73wwAMPICsz0z3Tt74pO+TTsssUGlaikREE6uuNGEPhaNeuXZg6dSr+8pe/GPGIlj+cHY0iDuOvfvWrxhqIw8W6d++OuXPn4uDBg+C53m48ikZPPfWUsSRiXrRc+s5/fsdYFXHdWhkxvvDCC3HxxRfjiiuuwK233mqsi/7xj3+YmdwqqyrdVkwsx1tZXaYHtnNDTR9pqG8UjmpRVVuDypoqlFVXoqyqwh1Kq8pQVlWG8uoylFWXdqnANldUl7tCTQUqPEJldSUqPAIZVjBUV6LcR+AxpquqqVYQA/UBP/tANdPVdq3A54SCGIRzHzC/l47fTc/fVH+3+XvbFk4sn+f6W44zXVvLs+8Izrz8WQ9Geb7eU9qy31sbDFt7fZuJm7StthqVrQjkac9v0p9UnotLK1iSe6B50kKIobK2xsRlNVXYuGsb+qZGImHqMKTPH4mYvGRE56UgPn8Y4mYORY+U3hg383G8v2szSqsqUFNXjzqOOvMhGnXr1s24R6GvXi76nmznj8ouVlxYiUbOa8cbhy/b9Eu0YcMGPL/weYwdN9bta4j+hujjaMKECcaR9abNm1BSUuIWc5x52XUOJ9u4cSNeeOEFLFy40B0WLVqERS8sMvtfePEFMLz88st46aWXjLPr9evXG7GotLTU5N9gbn+bq+KOIuB8CHOaynq4Ql1DPeoa6lDXUIu6+hrU1Fd1qVBbXw0b2H7DoaEW9fW0jGscM00TWBMcv2QE6rnphKz1pr/84tF1eNiHnL3mzhuFNufGgaXHzWPTdmRs6xbsuCPbqLK7zn0YqGvt/NO/c93e562MWa0mX4VnU882lH1W5bd3eaay/hdqUTbH16axsTOt3ddc7H9tApSyucq0dKwtVWgpz+aOt6U8ntNcns0dC+HyWO0d+/diYFo0kqeNwPAFoxBfkIr4/KGImBqPXhn9MWrmOGzetxWltDAyRgWnX7Vt02hp9MILL2LggIF4+OGHzXesFY00G7elpDgYBMJWNLKwKB5R7CkpLcGxY8fA2c0OHTpkLIqOHDliprynBRHTtLQwLw4rY/ryinIjMpn18nKzzX0MTMMbmCKRzZs3shTglgi3/3Hnb48p3bnDPLBplVRnBBOKJl0tNBWJ/Pgh97yETXj6cb7St/1lSexCnx0dEvDPhnX1qCyrQH1NXct19rynArmtPtMyfzESI48+wPu2srQcFSVlMGNH2nJPeuTZ5o9k5ROY/um8hp5MncfsumcabQfmOoQbR772NvD7zxV27t2NQSmRSJkyDBkLRiNhXjqipiXikRH9MH7u49iwcyOKqkpRY/5w3RSp7XqVlVVYteptzJ4124ymeeWVV8zM4Pa4YhEIFoGwF40sOAo29CFE8YYx/R9xX2uFHHN+fZ3J1p5Ly6Ez/jX6zrFpbD0UdzwBc60cD3FumyXcfqw6oj2el7cj6qAym75piEdI8airqsE7q9fizdfewOEDB1Ff64dwpGsYUtdQH/hd+w8ARScL8faKVVj65lIUnix09U3P3z5td14Cns/b5lrimbYt283l7+tYW8qx5/jKs7n99ty2xM3l6+tYW8pxnuMrX1/7nee2Zd1XvqDz6lp32L53JwalDEHalHRkzBuNfpOj0S97MJ6Y8zS2f7gLHMJWxuHo9XWobXzMMmtWyS4N9Q0oLi7Bxx9/jI8++ghHjx41fnhlnGAJKQ4WgbAXjSjaOIUic1M1uf1ah5bnMzgXluEtONNoPXQI+BSNWMW2/Fh0tXNC51KqJiLQ6QiUlpRi0tOTkJ2ZhXVr30F1VTX4ElhfV+8OdbV1YHDus+td4hnV6a6qKtyVCBz48AAmPfU0xo0dh/379pv7tCu1v1O31b6vdepGqPKdhQBHKtTUVRpXF7Q22rV/N6JSo5ExJQPDp2dg0MhIPE6n17s2oaKm0vy8V/Mcfmt6iEXuNtM7BN8ZGr9H68woiKbfpe60WhGBABIIe9GIrHhj6aYKYK/p5Fk1Kxo522ZfLloTO8/XugiIgAg4CPDZU1hYiFGjRiE2NhYrlq8wVq82if3jg30Z9BbbtMGKbR2ai4NVtvIVgc5AYM/uPcjKysLQoUOxd+/ezlBl1VEERKCdCfDToaaezrBLXaIRGrB33x7EpsQgbWwKUkYlYfb8Wdi6ezNKK0pcQ9g4bsX6C23n+qo4EWiJQJcQjZwvvy0B0fGuQcAIR42DCrtGi9VKERCBUCBQXFyMMWPGuESjFSuMPz0+j5yLS9iWBauTidZFoCMImA84j4L37NmDkSNHSjTy4KJNERABFwH+hnNyHU6qU1tfY742eOTwocMYHBWB6ORIzMydge27t6K8qrSJixMxFIFQJdAlRKNQha96iYAIiIAIdB0C/ADlLJ1jxo5BTEwMVq5ciaqqKq++9Zx/7HCudzQtbx/RHV0nlS8CwSLg2d+5vXv3bmRnZyMlJQW7du1yF+0p/roPaEUERKBLEbCikWugwuk/Ch06eBiJiQl4eupT2LlnO8qrytyCkuezpksBU2M7BQGJRp3iMqmSIiACIiACnZ0AXwqdotGKFSt8ikadva2qvwiEAwHPDzkrGnF4WnJyMnbu3OkWfSUahcMVVxtEIDAEXIJRUyfWRUXFWL5iOfYf2IeKinL3kLTAlKhcRCC4BCQaBZevchcBERABERABQ8ApGkVHR2PZsmVGNKLvIs+PUyETARHoeAKe96VTNLKWRjaNjduz1iyzPcsN9/La89qprPAl4BSM7Dpby9/6yspK1NRUo75BzqvDtweEZ8skGoXndVWrREAEREAEQowAXxitpZEVjaqrq82LpPNjzK7LciHELqCq0+UIeAoy3PYcnmbT2Li9ILE8G9qjTFtWe7WTzz9bZnu0ryPKsO1rbdzWura2HJte5XknYPl4xvWcubsBJjhFI+bCtHwXCPTCfLWIQDAJSDQKJl3lLQIiIAIiIAKNBOrq6oxoNG7cOMTFxWH58uXGETZfIBn00qeuIgKhRcDznqSQQUfYnAGRs6dRQPJM014tYLntWbYtr73EbHd5Yfox7BTFnG1taf1s+ldLeXs73t7lnU3/8lb/Fvd5TETRmvb6yptZWrHIU8qxv/etKaeltHy30DtES5R0/GwJSDQ6W4I6XwREQAREQAT8JFBeXo5XXnkF8+fPx/bt21FbV9uuH35+VlPJREAEfBD45JNP8PLLL2PRokX49NNPdf/64KTdIiACwSFQW1sLvkuUlpaaOBhCVHBqrlw7MwGJRp356qnuIiACIiACnYKA/YskX/aOHTtmQll52Rlm6jZdc3GnaLAqKQJhSID3JWc8PHnyJE6cOGEsBcOwmWqSCIhAiBLgkPaNGzciJycHc+bMwb/+9S+3cBSiVVa1woRAlxaN+OOvJXAEqHRrEQEREAERaJ5ATU0NrDm509KoOaHIeaz53HVUBEQgmAR0LwaTrvIWARFojkBZWRkWL16MQYMGoVevXhgzZgxOnTp1xh+gmstDx0SgLQTCTjTijzlfxnlT8a9Ahw4fwv79+3Ho0CFzU/EvRM4X9rZAa+059gWD9WI4m4V1pzn0xx9/jOPHj+Ozzz4z2zbmg6OiosKUw3LbU8hhWTSX/Oijj1BUVGTK5j7WQ4sIiIAIiICLgH02298GG4uPCIiACIiACIiACPgiUFpWipdeesmIRj179jT+1fjNxeVsvzF9lan9IkACYSUaUaCgqLJt2zbk5+cjPT0dkZGR5saKiopCamqqudH27d9nzIvti3qwhRU6dWO9OA5+3759RtRpS/djPgcPHsT48ePBmXfoSDUmNsasx8TEmO2srCzMmTsHGzZsMCJZez1ALMO9e/eCTl5ffPFF4/CV+xnIWosIiIAIiIAIiIAIiIAIiIAIiEDrCdD4YdOmTcbaaMGCBXjttddQWVnZ+ox0hgi0kkBYiUacynjJkiVGKPrLX/6Cfv36YcSIEUaFpYB0//3344477sDIkSOxddtWc5NZMcNfb/02fWs485wjR45g2rRpmDFjBo4ePdqa091pmc+OHTvQrXs3XHzxxbjvvvuMaSLNExkefPBB3H333bj11lvNNh8mLMsKOu6MgrBirajWr19v6jVm7BhjCWVFIysc+cs5CFVUliIgAiIgAiIgAiIgAiIgAiLQKQnwW5DCEZ1gFxYWmtCWb9NO2XhVukMJhI1oROeib7/9Nh544AH86U9/wpQpU7Bu3TozLI1DuT788EMsXboUKSkpuOWWW4w1DIesWUHFxs1domGNCwAAETdJREFUDSuAOG9Ou25je76nOEJVmGaESUlJRkBiemew5zUX19XXYdv2bbjrrrvwi1/8wlhNvf/++2CgU7T33nvPiGYUp/74xz/i9ttvN7N7FBcXu7O19bSx+4BjhcecPJz1tOuO5GaVjtl4jMwp2GVnZxvLKopJ9hwbe56rbREQAREQAREQAREQAREQAREQAf8IOL+ruK5FBIJJIGxEIwpDiYmJ+PnPf26seTiMi759rNDDmMIGRY3+/fsbixyKSNzHhSIPbziKHPTLQ39I9BlEJZcLz7cCCOOq6ipzrnViynS06mHg+c6bl4LWuvXrjNjDYWX0scRybd2caU1hPv5jHTn07s9//jOuvfZabN26FcybgcPfqDzTRJEz8+Tm5uL666/HgAEDTDqWx3ozLReu0+8T60t/SBSWqmtcwg/rw7pxYcz2MF+WwXZymB1nDmF5duExnvfOO++YdlI00lS0lo5iERABERABERABERABERABEQg8AU9jhcCXoBy7OoGwEI0ogLz55pu49rpr0fOhnkaU4T5vC035OD0hLZFooeMcB8pjy5cvx+TJk82wtszMTMycOdP4B2I6K6RQLKH4NH/+fOzes9sIJTxn2LBh4Dl5eXmgbx/WgYFWRjx25VVX4uabb8a48eNMOXRm1trFikY33HADdu7c6a6TMx/Wk1ZUsbGxYDr6F6JAZBeKQB988IGZqjEjI8P4epowYQL+8Y9/uKeQtULWnj17jH8oDjtjmD59umEzduxYvPDCCzhw8IBbtGK5a9aswZ133mksjShGaREBERABERABERABERABERABERABEeicBDq1aESRguJGSWkJpk6dissvv9zE1qqGxz3FI6angGJnGWMaLhSMKIhQ8OAwMjqWphNt+kDikLfnn3/eWOMwLa2MKBg90O0B4y+pR48e6NOnj0lPn0K08KEvJc4ixvJWrFhhrJsu+fElZlgZLZ3o+b61ohHzomjEOrIMikae7bPdkMJWTk4OrrnmGkycONGIQTxGS6M33ngDAwcONPkMGTLEONB+6KGHcNNNNxm/S4cPHzbZMC2tsW67/TbQkXj37t3NeaNHjzZ8OAxt6NCh2LVrl7FCYvrVq1e7RSNaMWkRAREQAREQAREQAREQAREQAREQARHonAQ6vWhE0YfixPDhw/HLq39prIismEQRw4pCnpeHAoxdaHnD4Vwc2kbrnJUrV+LAgQNmprLFixeboWy///3vjTWTHQbGGcouvexSYzk0d+5cI+Bw2BkFmb79+hoBhpY7FHUoUHH/bbfdZoaL0Urps6OfGQHHWQ9bH19xa0Qj1pNWUzfedKMZtsehYhxKR59IFMHuvfdeLFy40FhEUSRav2G9mW2ODCiQ0bKK4tuyZctwzW+vwU9+8hNznNZZbA8FK1pX3XDjDXjyySeNAMb0tDTi8DnO4iZLI19XUvtFQAREQAREQAREQAREQAREQAREIPQJdFrRyApDFFLo5HrQoEHGiocihz3mywrH87JQAOnWrRuuu+46vPXWW8YSiXnw/KKiIhQUFODHP/6xEU1OnDxhfPlQZLrqqquMpQ39KVnrJgoq1sJn1qxZJi3FK+sgOi4uzgwdY3rWPViiEfN99913jdNvCmH0Q0QhiLO3/c///A9YN/olYt2YljHT03k2rZAogNXU1hih7De/+Q3+8Ic/mGF2FKO4MD19KtEqi4659+7ba/bRpxGdcHOYnkQjz56mbREQAREQAREQAREQAREQAREQARHoPAQ6rWjEmcSsOET/PRxKxhnFli5basQeCiH1Da6hZy1dDgpFtLDhUC06v+a5DBRIKI7QPxFnZOPQsx07dxghKD8/35RHQckKKawPhZm//e1vZvjY9BnTzfnMi/6AKK5QNKLIxH2tXXiOv8PTmDeFKlpIJSQk4Oixo2aIWt++fY1oRL9LFH22b9+OHTt2mPU1a9cY8YzD1FavWW3aZXxFXXutEcxokeVcOKSPvpB+9rOfmSF45MAyaWmUkZlhRKO2tNNZhtZFQAREQAREQAREQAREQAREQAREQAQ6hkCnFY0o0FgrGQo99CFEn0Yvv/yy2e/LyojnUdzgLGA8n0O2eA6tbyiAOB1G8zjTUxx5+OGHjRDEae0pDFF0+e1vf4tFLyxqMosYz6Gj7RtvvBHPPPOMuy604rnnnnuMgEOrHy6sI/P3d2mNaMQ2UvChI+zk5GQcOXIEu3fvxh9u+wMuuugi9OrVC2lpaUhKSjKBM8/FxccZSyOKRv969V+mnRxWxzxmz55tWNm6st4UkWixxKFrZEjrqXfWvWN8GtHBtiyNLC3FIiACIiACIiACIiACIiACIiACItD5CHRa0YgCihVcysrLMGv2LCMa0b8OhR+KJk4rF6alSMPAGcEWLFiAtWvXGufWdEp9ySWXGIfRFEJooWQFHZ5XUlJiRCOKRBSNKI5QNKIwxHPpdNqWRdHo1VdfNb5+rGjEY5ytjJZK8QnxbjHFnsNuw/WWpktkGn8tjegcnMPkrr76ajz++OOmTA7Do1+ln/70p2b4GGeGozUUHYDPeGaGEbmmTJ1iWG7estm0k6IRnW7TsspZX9aZ4hnFpB/+8IdYtGiREcjIlJZGHJ4mR9id74GgGouACIiACIiACIiACIiACIiACIiAJdBpRSPbAAoZ1TXVxukzfRI9+OCDxh8PRR+nyEHxh4EzltEfEYeKzZkzx/j1ef2N13HFFVcYKyD6JPJcOJyMgg/FEA7pojDEPG6++WbQUTa3bVlu0eiGG9yWRsxv8+bN4Gxj8fGnRSNnOfZ85z7PdaZpTjRy5sGZ2zhkj0LX//7v/xohjfvoBPvXv/61EbZoCUSH3BR3jh07ZmLOhHbg4AEjlJEXfUSRK51eU4jjwv1cKLBRpLvsssvMkDwef/vtt81QPjrClmhkMOk/ERABERABERABERABERABERABEeiUBMJCNKJYQoEiNTXViD+08KEIYoUjihxMw7Bx40Y88sgjxuKGFkG0SqIVEB1A/+XuvxhRiOkZOHSNVkW0tqGoRJ9HFF5oWfTss8+6LY1Yjl2YnvnSOsdaGvHYpk2b3JZGdniaFXloYWTraPPxFjM9Ras777zT5E/LIWfZPIf5sE3z58/HNddcY+rMYWk8l069k1OSjWUQZ0grrygHfUNR6OJ5dIw9ceJEPP3009j/4X6zn22nI2w6GucwQC623vQlFRUdZfwmbdmyxeRBSyP6f5Jo5O0Kap8IiIAIiIAIiIAIiIAIiIAIiIAIdB4CYSEaETcFHk73TgsiOrWeNGmScfJ88tRJYzVDa6GlS5eiX79+7iFbFG8omFiHzpdeeilGjx6Nffv2GeGFfo9oIdS/f39cetml+Otf/2ryojBE0YhOpl955RW3OEUxpaKiwvg0omg0depUtxUSLYTuvuduPPzIw0a4ooDD9LTOYRmrVq0ys8BRvPG1cNgchaI/3/FnIwjRgTfrSkfdtBDaum2rsQyiVdCvfvUrM4vZ3//+d1Mn5sny6OeIlkb333+/sc4qLi42w8xodfTcc8/hyiuvNL6OPvn0EyOYvfbaa/jlL39phv7RuurEiROmTRTlrHA2atQo4yOKbeHsaRS1KBrJp5GvK6n9IiACIiACIiACIiACIiACIiACIhD6BDq9aOREzOFSFEVoSXTttdfivvvuA6ebpwUShZ/f/e53xqnz2LFjjdhCKxsuFFM4g1hKSgroBDoyKtJY24wfPx6cbYzD0LhOkckKQxRMbrnlFuPTiMIThSQes5ZGPIeWRmY/GsyMacyfVjucpp7nUziivyQKVRy6Zv0jOdvkuU5LIzrUvvDCC0372FYOyevevTvuufce00bOIte7d2/jnJqCGOvFwOVU4SlTrz/84Q+49957MWbsGLM9fPhwcy7zW716tdsCacmSJUZku/a6a43oxTZQDKMTbQ7Xi4mJMSIY86cFFoU7ikbZ2dluyyTPNmhbBERABERABERABERABERABERABEQg9AmEjWhE0YJWOrT04RA0Cjb0H9SnTx/jxDoiIgLDRww3Qsrhw4fPGNbFYV604uF5sXGx5rwBAwaAYsrChQvx6aefumcPozjCYVsUnzgcixY21kKIAhKdZT/xxBNmmBqPcaF4tGLFCjPLG4d60fk0h3sxLzqRpnC0YuUKt98gb12HbTxw4IDxI0TxZtiwYSa/9PR0MHCbM8DRIoqOrGkpZcUiWz9u0+qKs52xbRTTaH0VFxdnhLENGzYYIYvl85zXX3/dWC0xf/pGogDH9NHR0Zg2bZppK4UvtpsMaVH12GOPmbQsX4sIiIAIiIAIiIAIiIAIiIAIiIAIiEDnJBA2opETP4UYOrSmwMKhX++//z527d4FDrmivx+KIVZMsefRrxAFHg6/2r1ntxGetmzdAgpMFEWYnqIIY55PKyEKSRSpPPNiGRy+xaFfNj3P4X76ROLsbYwpJHHIGa2B6JOJxz3zsvWzMctjubR6Yh52nTGHg9EvES2u2BZnXiyfi60PZ5zj+fRFRD70e8Q8OSOaPY9CEIf00WqLDq/JgcPhKIpxOBwZV1VXoaa2xrAhH7JnXWjRxHxsXrb+ikVABERABERABERABERABERABERABDoHgbAUjYjeiiMUMowVTH3T2dR8XR6eZ51D81xvApPN35cgwv022HIoSnEf87PBfawV4orN1+bl3LbrNl9nzGOeC+vh5uMx2xzT8hiHp914441m9jQKQjyHghSPOfPkfrvdXD0866BtERABERABERABERABERABERABERCB0CQQtqJRaOLuXLWi2EbRiH6eOJyOopEVhjxbQlFMiwiIgAiIgAiIgAiIgAiIgAiIgAiIQPgQkGgUPtcy4C2hNREdW9MZeE5OjrEwMhZFEogCzloZioAIiIAIiIAIiIAIiIAIiIAIiECoEZBoFGpXRPURAREQAREQAREQAREQAREQAREQAREQgRAgINEoBC6CqiACIiACIiACIiACIiACIiACIiACIiACoUZAolGoXRHVRwREQAREQAREQAREQAREQAREQAREQARCgIBEoxC4CKqCCIiACIiACIiACIiACIiACIiACIiACIQaAYlGoXZFVB8REAEREAEREAEREAEREAEREAEREAERCAECEo1C4CKoCiIgAiIgAiIgAiIgAiIgAiIgAiIgAiIQagQkGoXaFVF9REAEREAEREAEREAEREAEREAEREAERCAECEg0CoGLoCqIgAiIgAiIgAiIgAiIgAiIgAiIgAiIQKgRkGgUaldE9REBERABERABERABERABERABERABERCBECAg0SgELoKqIAIiIAIiIAIiIAIiIAIiIAIiIAIiIAKhRkCiUahdEdVHBERABERABERABERABERABERABERABEKAgESjELgIqoIIiIAIiIAIiIAIiIAIiIAIiIAIiIAIhBoBiUahdkVUHxEQAREQAREQAREQAREQAREQAREQAREIAQISjULgIqgKIiACIiACIiACIiACIiACIiACIiACIhBqBCQahdoVUX1EQAREQAREQAREQAREQAREQAREQAREIAQISDQKgYugKoiACIiACIiACIiACIiACIiACIiACIhAqBGQaBRqV0T1EQEREAEREAEREAEREAEREAEREAEREIEQICDRKAQugqogAiIgAiIgAiIgAiIgAiIgAiIgAiIgAqFGQKJRqF0R1UcEREAEREAEREAEREAEREAEREAEREAEQoCARKMQuAiqggiIgAiIgAiIgAiIgAiIgAiIgAiIgAiEGgGJRqF2RVQfERABERABERABERABERABERABERABEQgBAhKNQuAiqAoiIAIiIAIiIAIiIAIiIAIiIAIiIAIiEGoE/h/8EKqpjlq15AAAAABJRU5ErkJggg==;" vertex="1" parent="1">
          <mxGeometry x="-150" y="30" width="1165" height="586" as="geometry" />
        </mxCell>
      </root>
    </mxGraphModel>
  </diagram>
</mxfile>
